<svg width="153" height="145" viewBox="0 0 153 145" fill="none" xmlns="http://www.w3.org/2000/svg">
<g clip-path="url(#clip0_5_880)">
<path d="M81.929 17.6983C82.0495 21.543 78.8927 24.7037 74.8782 24.7579C70.8637 24.8122 67.5117 21.7395 67.3912 17.8949C67.2707 14.0503 70.4275 10.8896 74.442 10.8353C78.4565 10.781 81.8085 13.8537 81.929 17.6983Z" fill="#28313B"/>
<path d="M70.6312 40.1498L74.251 16.4223L80.8077 40.0122L70.6312 40.1498Z" fill="#28313B"/>
<path d="M131.076 117.677C137.958 109.056 137.457 52.2263 127.777 42.6804C118.097 33.1345 28.9342 34.1793 19.6288 44.4064C10.3234 54.6335 12.7176 112.821 22.81 120.063C32.9023 127.304 124.194 126.299 131.076 117.677Z" fill="white"/>
<path fill-rule="evenodd" clip-rule="evenodd" d="M136.936 83.4474L13.7731 86.178L13.7044 83.0845L136.867 80.3539L136.936 83.4474Z" fill="#89A1B1"/>
<path fill-rule="evenodd" clip-rule="evenodd" d="M24.5072 44.5748C23.5526 45.0371 23.1506 45.3807 23.0386 45.5039C22.4417 46.1598 21.6588 47.5718 20.897 50.0095C20.1619 52.3622 19.5475 55.3345 19.0765 58.7782C18.1354 65.6588 17.8116 74.0804 18.0866 82.4753C18.3618 90.8746 19.2313 99.0948 20.617 105.582C21.3113 108.832 22.1123 111.537 22.979 113.574C23.8952 115.726 24.6839 116.646 25.0673 116.921C25.2259 117.035 25.7291 117.311 26.7894 117.659C27.797 117.988 29.1074 118.318 30.7174 118.636C33.9356 119.271 38.1092 119.809 42.9694 120.232C52.6762 121.078 64.8397 121.442 76.9921 121.281C89.1511 121.12 101.189 120.435 110.659 119.206C115.405 118.59 119.402 117.851 122.408 117.008C123.911 116.587 125.083 116.163 125.94 115.757C126.364 115.556 126.674 115.377 126.891 115.23C127.112 115.08 127.189 114.995 127.188 114.996C127.715 114.398 128.444 113.068 129.176 110.735C129.881 108.49 130.489 105.647 130.976 102.345C131.949 95.7466 132.391 87.6333 132.273 79.4626C132.154 71.2896 131.477 63.196 130.263 56.6307C129.655 53.3449 128.928 50.5285 128.11 48.3126C127.262 46.0194 126.439 44.7109 125.827 44.1077C125.706 43.9886 125.28 43.6619 124.295 43.2347C123.353 42.8263 122.101 42.4108 120.528 42.0071C117.384 41.1999 113.26 40.5155 108.409 39.9751C98.7243 38.8962 86.5194 38.4314 74.2671 38.5809C62.0135 38.7304 49.837 39.4929 40.2065 40.8339C35.382 41.5058 31.2958 42.3095 28.1963 43.2187C26.6468 43.6733 25.4214 44.132 24.5072 44.5748ZM127.376 36.1384C128.768 36.7422 130.175 37.5275 131.264 38.6015C133.072 40.3849 134.378 42.9452 135.371 45.633C136.393 48.3982 137.218 51.6752 137.874 55.2248C139.188 62.3304 139.89 70.8763 140.013 79.3505C140.135 87.8271 139.682 96.3687 138.634 103.472C138.111 107.021 137.428 110.291 136.562 113.05C135.723 115.722 134.601 118.287 132.999 120.106C131.968 121.277 130.587 122.117 129.253 122.748C127.871 123.402 126.254 123.964 124.498 124.457C120.986 125.441 116.579 126.238 111.656 126.877C101.789 128.157 89.4306 128.853 77.0946 129.016C64.752 129.18 52.3218 128.812 42.2972 127.939C37.2918 127.502 32.8151 126.934 29.2189 126.225C27.4216 125.871 25.7837 125.47 24.3794 125.01C23.0277 124.567 21.6555 123.996 20.5526 123.205C18.4129 121.669 16.9361 119.139 15.8559 116.602C14.7261 113.947 13.7996 110.721 13.0469 107.197C11.5384 100.135 10.6352 91.4356 10.35 82.7284C10.0646 74.0166 10.3929 65.1449 11.407 57.7306C11.9136 54.0268 12.6027 50.6012 13.5082 47.7036C14.387 44.8911 15.5819 42.2005 17.3114 40.2997C18.3625 39.1444 19.7494 38.2828 21.1312 37.6136C22.5534 36.9247 24.2119 36.3255 26.016 35.7962C29.6237 34.7379 34.1231 33.8706 39.1382 33.1723C49.1871 31.7729 61.7067 30.9979 74.1725 30.8458C86.6397 30.6936 99.1776 31.163 109.266 32.287C114.302 32.848 118.821 33.5821 122.454 34.5147C124.271 34.981 125.941 35.5157 127.376 36.1384Z" fill="#28313B"/>
<path d="M124.174 111.495C129.583 104.631 129.319 62.241 124.174 54.1674C119.029 46.0938 29.0963 48.7646 24.9625 54.1674C20.8287 59.5702 22.3446 109.503 28.7936 113.856C35.2427 118.208 118.766 118.358 124.174 111.495Z" fill="#343A4C"/>
<path d="M105 67H48C43.5817 67 40 70.5817 40 75V91C40 95.4183 43.5817 99 48 99H105.75C108.097 99 110 97.0972 110 94.75V92C110 91.1716 110.672 90.5 111.5 90.5C112.328 90.5 113 89.8284 113 89V78.5C113 77.6716 112.328 77 111.5 77C110.672 77 110 76.3284 110 75.5V72C110 69.2386 107.761 67 105 67Z" stroke="#7D7D7D" stroke-opacity="0.5" stroke-width="2"/>
</g>
<defs>
<clipPath id="clip0_5_880">
<rect width="153" height="145" fill="white"/>
</clipPath>
</defs>
</svg>
