<svg width="229" height="46" viewBox="0 0 229 46" fill="none" xmlns="http://www.w3.org/2000/svg">
<path fill-rule="evenodd" clip-rule="evenodd" d="M70.2447 22.5742C69.7687 21.9969 69.1842 21.5528 68.489 21.2423C67.7911 20.9324 66.9852 20.775 66.072 20.7723C65.1581 20.7696 64.3075 20.9421 63.53 21.2892C62.746 21.6363 62.0704 22.1225 61.4946 22.7477C60.921 23.3724 60.4728 24.1167 60.1484 24.9791C59.8218 25.8415 59.6588 26.7766 59.6555 27.7834C59.6528 28.8118 59.8109 29.7523 60.1321 30.6061C60.4505 31.4598 60.891 32.2009 61.4499 32.8299C62.0093 33.4584 62.6658 33.9489 63.4275 34.3008C64.1832 34.6522 64.9973 34.8295 65.8724 34.8317C66.8696 34.8349 67.7557 34.6328 68.5255 34.2232C69.2949 33.8141 69.9317 33.2406 70.4334 32.5022L74.4791 35.5049C73.5402 36.7974 72.3521 37.7498 70.9148 38.362C69.4781 38.9743 67.9994 39.2783 66.482 39.2735C64.7568 39.2692 63.1674 38.997 61.7133 38.458C60.2569 37.9195 59.0023 37.1499 57.9445 36.1495C56.8895 35.1492 56.064 33.9386 55.4773 32.5189C54.8901 31.0987 54.5968 29.5163 54.6028 27.7683C54.6077 26.0215 54.9097 24.439 55.5079 23.0226C56.1027 21.6061 56.9337 20.4015 57.9969 19.4065C59.0601 18.4132 60.3207 17.6516 61.7798 17.1218C63.2361 16.592 64.8283 16.329 66.5534 16.3338C67.1766 16.336 67.8271 16.3947 68.5032 16.5101C69.1788 16.6254 69.8434 16.807 70.4966 17.056C71.1531 17.304 71.7785 17.6349 72.3799 18.0478C72.9829 18.4612 73.5205 18.9662 73.9971 19.5634L70.2447 22.5742Z" fill="#97E2FC"/>
<path fill-rule="evenodd" clip-rule="evenodd" d="M79.5325 27.7648C79.5293 28.7932 79.6874 29.7342 80.0085 30.5874C80.327 31.4423 80.7871 32.1834 81.3875 32.8118C81.9889 33.4408 82.7113 33.9313 83.5532 34.2832C84.3923 34.6357 85.3312 34.8125 86.3721 34.8158C87.4102 34.819 88.3546 34.6476 89.1964 34.3005C90.041 33.9539 90.764 33.4672 91.3703 32.842C91.9734 32.2173 92.439 31.4789 92.7661 30.6273C93.0895 29.7746 93.253 28.8352 93.2558 27.8068C93.259 26.8 93.1009 25.8643 92.7825 24.9998C92.4614 24.1358 92.0012 23.3888 91.4009 22.7598C90.7994 22.1319 90.0797 21.6414 89.2379 21.2884C88.396 20.9369 87.4544 20.7591 86.4162 20.7553C85.3754 20.7526 84.4337 20.9256 83.5919 21.2717C82.75 21.6188 82.0243 22.1049 81.418 22.7296C80.8149 23.3548 80.3493 24.0992 80.0249 24.9605C79.6988 25.8234 79.5353 26.7585 79.5325 27.7648ZM74.4786 27.7503C74.4841 26.0029 74.7861 24.421 75.3843 23.0051C75.9791 21.5875 76.8106 20.3834 77.8739 19.389C78.9371 18.3951 80.1971 17.6336 81.6562 17.1032C83.1125 16.5734 84.7047 16.3109 86.4298 16.3157C88.155 16.3211 89.7443 16.5933 91.1985 17.1318C92.6549 17.6713 93.9095 18.4404 94.9672 19.4402C96.025 20.4411 96.8472 21.6506 97.4345 23.0714C98.0211 24.4916 98.315 26.0746 98.3096 27.8214C98.3041 29.5699 98.0021 31.1507 97.4039 32.5677C96.8091 33.9836 95.9776 35.1888 94.9143 36.1826C93.8511 37.1765 92.5911 37.9387 91.132 38.4685C89.6756 38.9983 88.0835 39.2608 86.3584 39.2554C84.6327 39.2511 83.0433 38.9784 81.5897 38.4399C80.1333 37.9015 78.8787 37.1313 77.821 36.1314C76.7659 35.1311 75.941 33.9205 75.3537 32.5014C74.7671 31.0801 74.4732 29.4976 74.4786 27.7503Z" fill="#97E2FC"/>
<path fill-rule="evenodd" clip-rule="evenodd" d="M104.936 34.4036L107.461 34.4117C108.585 34.4149 109.629 34.305 110.596 34.0813C111.565 33.8582 112.404 33.4863 113.113 32.964C113.819 32.4417 114.378 31.7556 114.785 30.9029C115.195 30.0519 115.4 29.0084 115.403 27.7752C115.408 26.7069 115.209 25.7756 114.805 24.9827C114.4 24.191 113.858 23.5361 113.174 23.0203C112.49 22.505 111.684 22.1175 110.76 21.8577C109.834 21.5968 108.862 21.4653 107.844 21.4626L104.975 21.454L104.936 34.4036ZM100.124 16.9993L107.423 17.0214C109.189 17.0268 110.868 17.2273 112.457 17.6223C114.046 18.0179 115.433 18.6539 116.616 19.5309C117.798 20.4089 118.734 21.5472 119.426 22.9469C120.119 24.3472 120.462 26.0434 120.457 28.0366C120.451 29.8055 120.108 31.361 119.429 32.7058C118.748 34.05 117.834 35.1781 116.688 36.0884C115.541 36.9998 114.22 37.6903 112.72 38.1581C111.221 38.6265 109.652 38.8583 108.01 38.8534L100.057 38.8292L100.124 16.9993Z" fill="#97E2FC"/>
<path fill-rule="evenodd" clip-rule="evenodd" d="M122.27 17.0537L137.273 17.0984L137.259 21.5386L127.125 21.5079L127.111 25.5777L136.686 25.6074L136.675 30.047L127.099 30.0179L127.086 34.458L137.782 34.4909L137.769 38.9305L122.204 38.8831L122.27 17.0537Z" fill="#97E2FC"/>
<path fill-rule="evenodd" clip-rule="evenodd" d="M155.127 22.4914C154.652 21.9157 154.068 21.4732 153.375 21.1639C152.679 20.8545 151.877 20.6976 150.966 20.6949C150.053 20.6922 149.207 20.8636 148.43 21.2102C147.65 21.5562 146.975 22.0413 146.402 22.6644C145.831 23.288 145.382 24.0296 145.059 24.8888C144.734 25.7495 144.571 26.6814 144.567 27.6856C144.565 28.7107 144.723 29.6485 145.042 30.4996C145.36 31.3512 145.799 32.0907 146.356 32.7175C146.914 33.3438 147.57 33.8327 148.328 34.1835C149.083 34.5344 149.894 34.7112 150.766 34.7134C151.761 34.7166 152.643 34.5145 153.412 34.1065C154.18 33.6984 154.815 33.1266 155.315 32.3903L159.348 35.3844C158.411 36.6731 157.227 37.6222 155.795 38.2329C154.36 38.843 152.888 39.1465 151.375 39.1422C149.653 39.1373 148.068 38.8657 146.619 38.3289C145.168 37.792 143.917 37.024 142.863 36.0263C141.809 35.0297 140.988 33.8224 140.401 32.4065C139.816 30.9911 139.525 29.413 139.53 27.6699C139.535 25.9285 139.835 24.3509 140.432 22.9382C141.027 21.5261 141.855 20.3247 142.915 19.3335C143.975 18.3434 145.231 17.5839 146.685 17.0547C148.138 16.527 149.725 16.2645 151.446 16.2694C152.068 16.2715 152.715 16.3303 153.388 16.4445C154.062 16.5599 154.725 16.741 155.377 16.9894C156.031 17.2363 156.656 17.5661 157.255 17.9779C157.856 18.3908 158.393 18.8937 158.867 19.4892L155.127 22.4914Z" fill="white"/>
<path fill-rule="evenodd" clip-rule="evenodd" d="M161.161 16.8547L166.012 16.8698L165.988 24.9858L175.411 25.0144L175.436 16.8979L180.288 16.9129L180.222 38.6787L175.37 38.6636L175.398 29.2567L165.975 29.2287L165.946 38.6356L161.095 38.621L161.161 16.8547Z" fill="white"/>
<path fill-rule="evenodd" clip-rule="evenodd" d="M201.184 30.3556C201.181 31.647 200.98 32.8349 200.582 33.9193C200.186 35.0048 199.598 35.9459 198.816 36.7425C198.036 37.5397 197.066 38.1617 195.903 38.609C194.742 39.0564 193.402 39.2779 191.889 39.2736C190.354 39.2687 189.008 39.0386 187.849 38.5853C186.689 38.1309 185.722 37.5025 184.947 36.7005C184.172 35.899 183.588 34.9552 183.198 33.867C182.808 32.7794 182.615 31.5909 182.617 30.2995L182.659 16.9263L187.51 16.9408L187.47 30.1292C187.467 30.8062 187.575 31.4308 187.792 32.0059C188.007 32.58 188.311 33.0791 188.704 33.4989C189.097 33.9209 189.567 34.2508 190.117 34.4879C190.665 34.7246 191.26 34.8448 191.903 34.8469C192.545 34.8491 193.137 34.7321 193.677 34.4987C194.217 34.2648 194.683 33.9376 195.08 33.5189C195.474 33.1001 195.782 32.6042 196.002 32.0307C196.221 31.4578 196.331 30.8326 196.334 30.1561L196.375 16.9672L201.225 16.9823L201.184 30.3556Z" fill="white"/>
<mask id="mask0_103_1590" style="mask-type:luminance" maskUnits="userSpaceOnUse" x="203" y="16" width="26" height="23">
<path fill-rule="evenodd" clip-rule="evenodd" d="M203.555 16.9954H228.5V38.8366H203.555V16.9954Z" fill="white"/>
</mask>
<g mask="url(#mask0_103_1590)">
<path fill-rule="evenodd" clip-rule="evenodd" d="M203.621 16.9954L210.961 17.018L215.988 31.2364L216.049 31.2369L221.192 17.0493L228.5 17.0714L228.434 38.8366L223.583 38.822L223.634 22.1292H223.572L217.736 38.8042L214.036 38.7929L208.519 22.0834H208.457L208.406 38.7762L203.555 38.7617L203.621 16.9954Z" fill="white"/>
</g>
<path fill-rule="evenodd" clip-rule="evenodd" d="M19.5408 43.463C23.628 42.8648 36.2951 40.8463 42.7622 37.966C43.5757 37.6038 44.1711 36.8874 44.3712 36.0278C45.0789 32.9911 46.6503 25.2131 45.9644 18.5405C45.863 17.552 45.2807 16.6745 44.399 16.197C41.1395 14.4345 32.2728 10.2369 20.5866 9.51951C18.796 9.4101 17.0147 9.84398 15.4837 10.7673C13.1604 12.1681 9.31914 14.7051 4.73528 18.5836C3.74457 19.4217 3.13826 20.6182 3.03466 21.9032C2.78222 25.0379 3.44469 30.3862 4.87377 36.3269C5.11804 37.3429 5.83721 38.1815 6.81593 38.5761C9.438 39.632 12.3872 42.2482 16.9618 43.3504C17.8053 43.5536 18.6815 43.5886 19.5408 43.463Z" fill="white"/>
<path fill-rule="evenodd" clip-rule="evenodd" d="M15.7619 13.3419C16.0683 13.2066 16.3862 13.5041 16.2684 13.814C15.5247 15.7759 13.8983 21.1146 14.4593 29.1567C14.841 34.6247 15.7281 37.8936 16.4773 39.758C17.0127 41.0893 18.3202 41.9587 19.77 41.9587H25.072L18.4156 43.5357C18.4156 43.5357 6.69234 40.2404 6.15528 38.8471C5.24417 34.0733 5.16184 27.6734 5.45191 22.8469C5.59749 20.4155 5.49717 19.7472 8.5767 17.4899C11.2271 15.5485 14.2979 13.987 15.7619 13.3419Z" fill="#D5E4EC"/>
<path fill-rule="evenodd" clip-rule="evenodd" d="M45.9644 28.2497L14.5878 25.3403L2.86231 27.7765L2.58478 26.4716L14.5103 23.9939L46.0898 26.9217L45.9644 28.2497Z" fill="#89A1B1"/>
<path fill-rule="evenodd" clip-rule="evenodd" d="M18.1756 13.4466C17.0965 16.6972 14.3518 26.9541 18.0278 38.4339C18.3173 39.3372 19.2132 39.9118 20.1651 39.8018C24.417 39.313 36.0165 37.8442 41.4913 35.7993C41.711 35.7163 41.8735 35.5299 41.9236 35.3024C42.3555 33.3502 44.3276 23.9714 43.5316 19.106C43.4596 18.6672 43.1788 18.2905 42.7731 18.0986C40.5327 17.0379 32.269 13.5043 19.6744 12.4635C19.0054 12.408 18.3849 12.816 18.1756 13.4466Z" fill="#343A4C"/>
<path fill-rule="evenodd" clip-rule="evenodd" d="M24.3666 25.9606C24.5416 29.5901 25.2918 32.5324 26.3682 32.5244C27.4445 32.5157 28.0481 29.5572 28.2634 25.9299C28.4815 22.268 27.9706 19.3532 26.2624 19.3672C24.5536 19.3802 24.1866 22.2357 24.3666 25.9606Z" fill="#2FA9E0"/>
<path fill-rule="evenodd" clip-rule="evenodd" d="M35.9823 26.6311C35.8553 29.4138 36.2168 31.7131 37.0384 31.7821C37.8607 31.8517 38.5346 29.6348 38.9593 26.8812C39.389 24.1011 39.2085 21.8395 37.9026 21.7301C36.5973 21.6201 36.1121 23.7745 35.9823 26.6311Z" fill="#2FA9E0"/>
<path fill-rule="evenodd" clip-rule="evenodd" d="M12.5549 25.9257C12.6078 28.8384 11.1471 31.2261 9.29326 31.259C7.43835 31.2913 5.89313 28.9564 5.84133 26.0438C5.78844 23.1306 7.24915 20.7434 9.10297 20.7105C10.9573 20.6782 12.5026 23.0131 12.5549 25.9257Z" fill="#29313C"/>
<path fill-rule="evenodd" clip-rule="evenodd" d="M26.9469 3.5521C26.9469 2.21003 25.846 1.12183 24.4884 1.12183C23.1313 1.12183 22.0304 2.21003 22.0304 3.5521C22.0304 4.89363 23.1313 5.98184 24.4884 5.98184C25.846 5.98184 26.9469 4.89363 26.9469 3.5521Z" fill="#28313B"/>
<path fill-rule="evenodd" clip-rule="evenodd" d="M26.0475 9.50353H22.9298L23.8294 5.65088H25.1484L26.0475 9.50353Z" fill="#28313B"/>
<mask id="mask1_103_1590" style="mask-type:luminance" maskUnits="userSpaceOnUse" x="0" y="0" width="49" height="46">
<path fill-rule="evenodd" clip-rule="evenodd" d="M0.5 0H48.7102V45.9673H0.5V0Z" fill="white"/>
</mask>
<g mask="url(#mask1_103_1590)">
<path fill-rule="evenodd" clip-rule="evenodd" d="M24.5475 4.37787C24.4798 4.37787 24.4249 4.43303 24.4249 4.49854C24.4249 4.57668 24.5137 4.60426 24.5183 4.60541L24.5475 4.61346L24.5767 4.60541C24.5813 4.60426 24.67 4.57668 24.67 4.49854C24.67 4.43303 24.6152 4.37787 24.5475 4.37787ZM19.6397 11.0409C18.5181 11.0409 17.407 11.288 16.4045 11.7626C15.116 12.3717 13.1867 13.3462 11.3053 14.531C9.34921 15.7618 7.46548 17.3546 6.2295 18.4739C5.43469 19.1956 4.969 20.2218 4.95383 21.2906C4.91882 23.8326 4.97134 28.6994 5.71596 32.7446C5.99724 34.2684 6.8504 35.6072 8.12023 36.5128C8.9664 37.1161 13.4015 40.1925 17.5763 41.4015C18.2287 41.5911 18.9196 41.6359 19.5604 41.5417C23.1843 41.0165 35.4659 39.0905 41.605 36.3669C42.108 36.1439 42.4838 35.6934 42.6075 35.1625C43.2728 32.3205 44.7504 25.0393 44.1096 18.8336C44.0443 18.1947 43.6661 17.6327 43.1001 17.3293C40.7215 16.0445 34.2474 12.9199 25.5302 11.6029L24.3502 11.4259L23.0699 11.2926C21.8993 11.1685 20.9224 11.0926 19.9945 11.0501C19.8755 11.0444 19.7576 11.0409 19.6397 11.0409ZM18.8893 45.9673C18.0233 45.9673 17.1584 45.8443 16.3216 45.6018C11.5691 44.2274 6.84575 41.0108 5.51056 40.057C3.3082 38.4849 1.82712 36.1658 1.3416 33.5249C0.529283 29.1189 0.470927 23.9315 0.508275 21.2309C0.539787 18.9624 1.52834 16.7846 3.2195 15.2516C4.5862 14.0151 6.68235 12.2442 8.91156 10.8422C10.9797 9.53897 13.0805 8.47711 14.4787 7.81633C16.2504 6.97857 18.238 6.58209 20.2035 6.67633C20.3213 6.68092 20.4392 6.68782 20.5583 6.69472C20.186 6.04082 19.9782 5.2904 19.9782 4.49861C19.9782 2.0175 22.0277 -0.000488281 24.5475 -0.000488281C27.0673 -0.000488281 29.1168 2.0175 29.1168 4.49861C29.1168 5.66848 28.6639 6.74873 27.8971 7.55661C36.4591 9.10343 42.8071 12.1787 45.2359 13.4887C47.0858 14.4851 48.3183 16.3181 48.533 18.3912C49.2415 25.245 47.6553 33.0917 46.9399 36.1474C46.5057 38.0033 45.1927 39.5777 43.4304 40.3592C36.7696 43.3149 23.9756 45.326 20.214 45.8707C19.7833 45.9351 19.3363 45.9673 18.8893 45.9673Z" fill="white"/>
</g>
<path fill-rule="evenodd" clip-rule="evenodd" d="M19.8265 42.4337C23.7259 41.8648 35.8138 39.9468 41.9843 37.2094C42.7605 36.8647 43.3288 36.1843 43.5203 35.3673C44.1949 32.4805 45.6946 25.0866 45.041 18.7453C44.9441 17.8053 44.3874 16.9721 43.5471 16.517C40.4367 14.8415 31.9751 10.8527 20.8232 10.1712C19.1157 10.0666 17.4164 10.4792 15.9552 11.3572C13.7376 12.6879 10.0717 15.1001 5.6985 18.7867C4.75313 19.5831 4.17423 20.7196 4.07503 21.9412C3.83343 24.9211 4.46718 30.0051 5.83038 35.6511C6.0638 36.6164 6.75007 37.414 7.68377 37.7886C10.1861 38.7919 13 41.2799 17.365 42.3268C18.1704 42.5198 19.006 42.5532 19.8265 42.4337Z" fill="white"/>
<path fill-rule="evenodd" clip-rule="evenodd" d="M16.2197 13.8037C16.5114 13.6762 16.8161 13.9577 16.704 14.2531C15.9944 16.1171 14.4421 21.1919 14.9778 28.8352C15.3408 34.0342 16.1882 37.1404 16.9024 38.9125C17.4136 40.1777 18.6613 41.004 20.0443 41.004H25.1038L18.7523 42.5026C18.7523 42.5026 7.56546 39.371 7.05309 38.0471C6.18358 33.509 6.10422 27.4263 6.38199 22.8376C6.52088 20.5277 6.42518 19.8922 9.36399 17.7478C11.892 15.901 14.8226 14.4174 16.2197 13.8037Z" fill="#D5E4EC"/>
<path fill-rule="evenodd" clip-rule="evenodd" d="M45.0405 27.9736L15.1003 25.2086L3.91112 27.5242L3.64618 26.2831L15.0256 23.9272L45.1607 26.7117L45.0405 27.9736Z" fill="#89A1B1"/>
<path fill-rule="evenodd" clip-rule="evenodd" d="M18.5232 13.9037C17.4938 16.9927 14.8748 26.7414 18.382 37.6541C18.6586 38.5125 19.5141 39.0584 20.4221 38.9538C24.4791 38.4896 35.548 37.0933 40.7709 35.1489C40.9822 35.0707 41.1362 34.8937 41.1852 34.6765C41.5972 32.8217 43.4786 23.9074 42.7188 19.2831C42.65 18.8648 42.3827 18.5074 41.9952 18.3258C39.8571 17.3168 31.972 13.9589 19.9541 12.9694C19.3157 12.9165 18.7228 13.3038 18.5232 13.9037Z" fill="#343A4C"/>
<path fill-rule="evenodd" clip-rule="evenodd" d="M19.6402 11.3876C18.5712 11.3876 17.5114 11.622 16.5567 12.0748C15.2787 12.6781 13.3635 13.6457 11.4949 14.8213C9.56098 16.0395 7.69358 17.6185 6.4681 18.7298C5.74332 19.3848 5.31849 20.3202 5.30565 21.2948C5.27064 23.823 5.32199 28.6645 6.06195 32.6821C6.32688 34.1186 7.13103 35.3793 8.32616 36.232C10.7561 37.9661 14.4886 40.1473 17.6748 41.0689C18.2794 41.2436 18.8991 41.2884 19.5154 41.1976C23.1218 40.6748 35.3637 38.7568 41.4596 36.0515C41.8646 35.8723 42.1657 35.5103 42.2649 35.0851C42.9267 32.2592 44.3949 25.0227 43.76 18.8688C43.7051 18.3448 43.3959 17.8816 42.9313 17.6323C39.7743 15.9303 31.2193 11.9173 19.9775 11.3956C19.8655 11.3899 19.7523 11.3876 19.6402 11.3876ZM18.8886 43.7798C18.2361 43.7798 17.5872 43.6855 16.95 43.5017C12.5441 42.2272 8.07868 39.1864 6.81585 38.2843C5.07918 37.0466 3.91205 35.2171 3.52924 33.1348C2.7496 28.9069 2.69474 23.8803 2.73093 21.2602L4.01826 21.2774L2.73093 21.2602C2.75427 19.5927 3.48139 17.9896 4.72437 16.8634C6.02571 15.6843 8.01682 14.0019 10.1083 12.686C12.0842 11.4415 14.0999 10.4233 15.4421 9.78892C16.8811 9.10859 18.4917 8.78797 20.0989 8.86267C31.8763 9.40968 40.855 13.6215 44.1673 15.4073C45.3752 16.0578 46.1806 17.2564 46.3206 18.6124C46.9952 25.1433 45.4639 32.7061 44.7742 35.6538C44.4952 36.8467 43.6514 37.8591 42.5181 38.3625C36.1176 41.2033 23.5804 43.1707 19.89 43.7062C19.5562 43.7545 19.2224 43.7798 18.8886 43.7798Z" fill="#28313B"/>
<path fill-rule="evenodd" clip-rule="evenodd" d="M24.4307 25.7985C24.5988 29.2473 25.3142 32.0455 26.3413 32.0363C27.3683 32.0283 27.9437 29.2174 28.1503 25.7698C28.3581 22.2877 27.8702 19.517 26.2397 19.5308C24.6093 19.5435 24.2591 22.2567 24.4307 25.7985Z" fill="#2FA9E0"/>
<path fill-rule="evenodd" clip-rule="evenodd" d="M35.5149 26.4348C35.3935 29.0802 35.739 31.266 36.5233 31.3315C37.3076 31.397 37.9507 29.2905 38.3568 26.6727C38.7665 24.0307 38.5938 21.8805 37.3484 21.776C36.1019 21.6725 35.6386 23.7204 35.5149 26.4348Z" fill="#2FA9E0"/>
<path fill-rule="evenodd" clip-rule="evenodd" d="M13.1601 25.7647C13.2103 28.5331 11.8167 30.8027 10.0474 30.8338C8.278 30.8637 6.80275 28.6457 6.75257 25.8773C6.70355 23.1077 8.09709 20.8392 9.86645 20.8082C11.6358 20.776 13.1099 22.9963 13.1601 25.7647Z" fill="#29313C"/>
<path fill-rule="evenodd" clip-rule="evenodd" d="M26.8937 4.49902C26.8937 3.22341 25.8433 2.18799 24.5478 2.18799C23.2523 2.18799 22.2018 3.22341 22.2018 4.49902C22.2018 5.77347 23.2523 6.8089 24.5478 6.8089C25.8433 6.8089 26.8937 5.77347 26.8937 4.49902Z" fill="#28313B"/>
<path fill-rule="evenodd" clip-rule="evenodd" d="M26.0356 10.1554H23.0606L23.9184 6.49292H25.1777L26.0356 10.1554Z" fill="#28313B"/>
</svg>
