<svg width="37" height="36" viewBox="0 0 37 36" fill="none" xmlns="http://www.w3.org/2000/svg">
<path d="M34.7071 6.62117L35.4142 5.91406L34.7071 5.20696L31.6602 2.16008L30.9531 1.45297L30.246 2.16008L18.8672 13.5389L7.48836 2.16008L6.78125 1.45297L6.07414 2.16008L3.02727 5.20696L2.32016 5.91406L3.02727 6.62117L14.4061 18L3.02727 29.3788L2.32016 30.0859L3.02727 30.793L6.07414 33.8399L6.78125 34.547L7.48836 33.8399L18.8672 22.4611L30.246 33.8399L30.9531 34.547L31.6602 33.8399L34.7071 30.793L35.4142 30.0859L34.7071 29.3788L23.3283 18L34.7071 6.62117Z" fill="#F99D9D" stroke="#F99D9D" stroke-width="2"/>
</svg>
