<svg width="128" height="128" viewBox="0 0 128 128" fill="none" xmlns="http://www.w3.org/2000/svg">
<path fill-rule="evenodd" clip-rule="evenodd" d="M94.7567 96.1508C95.81 119.55 67.0191 127.777 43.1435 121.11C13.3593 112.793 7.23685 87.5901 9.78064 56.7344C12.3242 25.8787 28.0319 12.5711 43.7065 21.1503C59.3811 29.7297 43.755 58.2113 56.451 66.8265C69.1471 75.4417 93.9119 77.3808 94.7567 96.1508Z" fill="#F99D9D"/>
<path fill-rule="evenodd" clip-rule="evenodd" d="M106.106 31.7971C111.818 31.6555 111.153 25.7502 109.433 21.9413C107.577 17.8297 104.26 14.1056 99.6851 13.1413C95.2171 12.1994 89.9083 13.4461 88.9129 18.5106C87.8098 24.1235 96.3739 32.0384 106.106 31.7971Z" fill="#F99D9D"/>
<path fill-rule="evenodd" clip-rule="evenodd" d="M41.2645 107.068C41.2645 107.068 39.0635 90.4075 39.1107 89.3961C39.1578 88.3847 42.1861 81.1464 42.1861 81.1464L35.7345 79.1768C35.7345 79.1768 29.1512 77.7586 27.8345 71.9525C26.5178 66.1466 22.9629 41.2768 26.6495 34.6975C30.3362 28.1182 37.3145 18.1252 41.2645 17.6607C45.2144 17.1965 82.476 18.7755 82.476 18.7755C82.476 18.7755 95.7743 21.4073 96.1693 21.5388C96.5643 21.6704 100.119 25.2233 100.119 25.2233C100.119 25.2233 104.728 51.1458 104.728 51.9353C104.728 52.7248 105.913 61.4095 104.201 63.9096C102.489 66.4098 101.304 69.3047 99.1976 70.3574C97.0909 71.4101 87.4793 76.8051 87.4793 76.8051C87.4793 76.8051 91.2976 78.0039 95.6426 78.3915C99.9876 78.7789 112.857 79.7 112.857 79.7C112.857 79.7 105.925 85.6214 104.47 86.5425C103.016 87.4636 96.6959 90.7127 93.6676 90.9962C90.6393 91.2796 83.9243 91.1262 83.9243 91.1262C83.9243 91.1262 81.9493 97.8589 80.3693 100.491C78.7893 103.122 76.156 107.991 74.4443 108.912C72.7327 109.833 67.2027 110.623 65.7544 109.175C64.306 107.728 60.0927 101.807 59.6977 100.885C59.3027 99.9643 54.4311 95.0956 54.1677 94.4377C53.9044 93.7797 52.8511 91.5007 52.8511 91.5007L41.2645 107.068Z" fill="white"/>
<path fill-rule="evenodd" clip-rule="evenodd" d="M94.9708 70.1858C94.9708 70.1858 99.4966 66.24 97.8598 66.3361C96.2226 66.4324 82.1631 69.1273 74.9409 68.7423C67.7185 68.3572 47.3995 68.2609 44.4144 67.9722C41.429 67.6835 38.6363 67.1061 36.9031 69.7044C35.1696 72.303 30.8362 76.0564 36.4214 76.7301C42.0067 77.4038 46.7254 76.1527 46.7254 76.1527L49.8069 77.6925C49.8069 77.6925 38.2511 94.5345 41.9106 103.773C45.5699 113.012 44.8957 102.234 45.3771 100.982C45.8587 99.7314 51.5404 91.8396 51.9257 91.5509C52.3106 91.2622 54.2585 93.9005 54.2585 93.9005C54.2585 93.9005 58.1369 98.5284 59.2924 90.733C60.2659 84.1642 59.6294 79.5692 59.6294 79.5692C59.6294 79.5692 83.8002 83.1273 79.5629 75.4053C75.3259 67.6835 84.3219 79.521 84.3219 79.521L84.2855 82.8894C84.2855 82.8894 99.0153 83.5631 101.519 81.0609C104.023 78.5586 109.159 78.7363 109.287 79.1768C109.416 79.6171 99.6894 89.9903 99.2078 90.0969C98.7264 90.2035 85.7262 91.3264 85.7262 91.3264L84.3219 76.8261L94.9708 70.1858Z" fill="#D5E4EC"/>
<path fill-rule="evenodd" clip-rule="evenodd" d="M83.171 89.3961C83.1594 89.3777 83.1546 89.3674 83.1546 89.3674L85.0614 88.3389C84.831 87.9121 82.4921 84.1689 71.5001 84.1689C60.6463 84.1689 55.4131 87.4197 55.1956 87.5581L56.3561 89.3866C56.4048 89.3561 61.3449 86.3343 71.5001 86.3343C81.1502 86.3343 83.1517 89.3656 83.171 89.3961Z" fill="#89A1B1"/>
<path fill-rule="evenodd" clip-rule="evenodd" d="M26.0717 60.9623L35.1861 43.9697C35.7765 42.8694 36.9207 42.2062 38.1678 42.2388L104.413 43.9774L104.47 41.8128L38.2244 40.0743C36.1528 40.0203 34.2563 41.1206 33.2767 42.9468L24.162 59.9391L26.0717 60.9623Z" fill="#89A1B1"/>
<path fill-rule="evenodd" clip-rule="evenodd" d="M69.0297 111.737C70.7061 111.737 72.3577 111.252 73.7752 110.315C76.6376 108.422 78.9568 106.242 80.8652 103.649C83.8598 99.5821 85.6757 94.68 86.263 89.0789C87.2023 80.1176 85.1435 74.0138 80.1436 70.9376L80.1234 70.9255C76.1049 68.513 71.0911 68.2924 67.5924 68.5325C64.3192 68.757 58.2268 69.1746 54.3521 73.4093C54.2173 73.5554 54.0777 73.7164 53.931 73.8951L57.2832 76.6398C57.3762 76.5266 57.4615 76.4279 57.5442 76.3379C60.0451 73.6051 64.1952 73.1064 67.8889 72.8532C73.0932 72.4964 76.1939 73.6214 77.8814 74.6315C81.3818 76.7921 82.7138 81.3706 81.9533 88.6275C81.1246 96.5317 77.5685 102.613 71.3839 106.704C70.3527 107.385 69.0642 107.582 67.8492 107.244C66.4577 106.858 59.3225 104.205 55.4734 89.9381L51.2893 91.0656C55.6385 107.186 64.1749 110.718 66.6876 111.417C67.4594 111.631 68.2473 111.737 69.0297 111.737Z" fill="#28313B"/>
<path fill-rule="evenodd" clip-rule="evenodd" d="M95.576 25.7107C94.6146 25.3626 67.9511 18.6982 45.6342 21.865C43.5679 22.1582 41.8615 23.5746 41.2632 25.4944C39.4862 31.1968 36.2369 42.8464 37.3935 59.969C37.5436 62.1933 39.3882 63.9647 41.7064 64.1292C53.1553 64.9406 86.2027 66.7296 99.8288 61.5464C100.714 61.2101 101.292 60.3885 101.281 59.4763C101.228 55.0255 100.823 42.4625 97.67 28.2314C97.4243 27.1224 96.6462 26.1918 95.576 25.7107Z" fill="#343A4C"/>
<path fill-rule="evenodd" clip-rule="evenodd" d="M40.1957 81.126C41.431 81.111 42.8314 81.0939 44.3911 81.1049L44.4214 76.7742C42.8198 76.7631 41.3978 76.7805 40.143 76.7955C38.2678 76.8181 36.6483 76.8378 35.0494 76.7589C31.8283 76.6005 29.1046 74.2856 28.425 71.1296C25.5254 57.6726 26.8884 48.7092 27.5436 44.4015C27.6387 43.7776 27.7206 43.2386 27.7748 42.7833C27.8238 42.3764 27.8541 41.9856 27.8796 41.6245C28.1453 37.8459 31.0012 30.3529 36.6423 22.8309C38.2149 20.7326 39.9368 18.7688 41.876 18.6025C61.9214 16.8855 89.1771 20.1481 96.3479 23.1867C97.8615 23.828 99.002 25.1884 99.5595 27.0169C101.71 34.0736 102.915 43.6802 103.589 59.139C103.786 63.6439 101.521 65.4988 100.538 66.0872C91.121 71.7215 83.0836 73.7666 83.0035 73.7869L84.0539 77.9884C84.4065 77.9003 92.8008 75.7641 102.764 69.8027C106.199 67.7465 108.126 63.6897 107.918 58.95C107.228 43.1073 105.967 33.1796 103.705 25.7552C102.781 22.723 100.716 20.3334 98.0393 19.1993C94.0843 17.5235 85.0646 15.8449 74.5002 14.8186C62.6566 13.6682 50.9391 13.4795 41.506 14.2875C37.3651 14.6422 34.5346 18.419 33.1744 20.2341C28.707 26.1911 23.9999 35.0218 23.5568 41.3211C23.5352 41.6267 23.5101 41.9527 23.4722 42.268C23.4256 42.6567 23.3487 43.1638 23.2595 43.751C22.5656 48.3136 21.1217 57.8076 24.1885 72.041C25.2803 77.111 29.6587 80.8297 34.8358 81.0844C35.7901 81.1315 36.7292 81.1465 37.7056 81.1465C38.5011 81.1465 39.3214 81.1365 40.1957 81.126Z" fill="#28313B"/>
<path fill-rule="evenodd" clip-rule="evenodd" d="M32.9101 51.0703C32.7734 55.5526 31.5874 59.1536 30.2605 59.1133C28.9335 59.0728 27.9684 55.4066 28.1051 50.9239C28.2415 46.4418 29.4278 42.8406 30.7547 42.8811C32.0817 42.9214 33.0468 46.5879 32.9101 51.0703Z" fill="#28313B"/>
<path fill-rule="evenodd" clip-rule="evenodd" d="M56.5708 8.52548C56.4857 6.34799 54.6503 4.65158 52.4715 4.73684C50.2927 4.82185 48.5952 6.65616 48.6803 8.83365C48.7656 11.0111 50.601 12.7076 52.7799 12.6223C54.9587 12.5373 56.6558 10.703 56.5708 8.52548Z" fill="#28313B"/>
<path fill-rule="evenodd" clip-rule="evenodd" d="M55.4748 17.4654L50.4712 17.6609L51.7002 12.1264L53.8174 12.0438L55.4748 17.4654Z" fill="#28313B"/>
<path fill-rule="evenodd" clip-rule="evenodd" d="M75.6765 85.2516C75.6765 81.8964 73.8066 79.1768 71.5001 79.1768C69.1935 79.1768 67.3239 81.8964 67.3239 85.2516C67.3239 88.6068 69.1935 91.3265 71.5001 91.3265C73.8066 91.3265 75.6765 88.6068 75.6765 85.2516Z" fill="#2CABE3"/>
<path fill-rule="evenodd" clip-rule="evenodd" d="M71.5001 80.2594C73.1767 80.2594 74.5932 82.5456 74.5932 85.2516C74.5932 87.9575 73.1767 90.2437 71.5001 90.2437C69.8235 90.2437 68.407 87.9575 68.407 85.2516C68.407 82.5456 69.8235 80.2594 71.5001 80.2594ZM71.5001 92.4091C74.4497 92.4091 76.7599 89.2652 76.7599 85.2516C76.7599 81.2379 74.4497 78.094 71.5001 78.094C68.5508 78.094 66.2403 81.2379 66.2403 85.2516C66.2403 89.2652 68.5508 92.4091 71.5001 92.4091Z" fill="#28313B"/>
<path fill-rule="evenodd" clip-rule="evenodd" d="M51.1064 91.1261L53.0132 90.0979C50.907 86.1966 47.7054 84.6721 45.3907 84.0802C42.9012 83.4433 40.8988 83.7257 40.8148 83.7381L41.1266 85.8808C41.3976 85.8427 47.8084 85.0179 51.1064 91.1261Z" fill="#89A1B1"/>
<path fill-rule="evenodd" clip-rule="evenodd" d="M47.394 98.3817L49.0804 97.0222C47.596 95.1779 43.6015 92.1909 39.1106 94.0852L39.9533 96.0803C41.6452 95.3663 43.3861 95.5126 45.1283 96.5148C46.5147 97.3127 47.3853 98.3712 47.394 98.3817Z" fill="#89A1B1"/>
<path fill-rule="evenodd" clip-rule="evenodd" d="M38.7978 109.164C39.1467 111.126 41.0208 112.434 42.9842 112.086C44.9476 111.737 46.2564 109.864 45.9077 107.902C45.5588 105.94 43.6844 104.631 41.7213 104.98C39.7579 105.329 38.4489 107.202 38.7978 109.164Z" fill="#28313B"/>
<path fill-rule="evenodd" clip-rule="evenodd" d="M36.4678 120.376L38.7677 118.629C38.2458 117.943 37.9043 117.162 37.7523 116.306C37.2307 113.372 39.1949 110.56 42.131 110.039C45.0677 109.518 47.8814 111.48 48.4031 114.415C48.5553 115.27 48.5039 116.122 48.2503 116.945L51.0119 117.794C51.4014 116.528 51.4806 115.221 51.2476 113.91C50.447 109.408 46.1302 106.396 41.6257 107.196C37.1211 107.996 34.1075 112.309 34.9078 116.811C35.1409 118.122 35.6657 119.322 36.4678 120.376Z" fill="#28313B"/>
<path fill-rule="evenodd" clip-rule="evenodd" d="M53.0091 77.5677C53.6056 77.5677 54.1617 77.6446 54.6344 77.8061C55.5081 78.1043 55.7767 78.5896 55.9029 78.9286C57.1253 82.2138 55.6946 85.5363 51.2643 89.7018L51.199 89.7637C51.1679 89.7934 51.1366 89.8231 51.1052 89.8534C50.5554 90.3813 50.0026 90.9429 49.472 91.5124C45.8683 95.3795 43.3609 99.4855 42.0095 103.731C40.5827 99.1755 39.9391 92.2962 43.9594 84.0133C45.0304 81.8069 46.5704 80.0678 48.5361 78.8444C49.8467 78.0293 51.5489 77.5677 53.0091 77.5677ZM42.0226 108.761C42.0727 108.761 42.123 108.76 42.1732 108.758C43.9378 108.693 45.4399 107.509 45.9107 105.809C46.9925 101.914 49.2579 98.0965 52.6439 94.4634C53.12 93.952 53.6156 93.4486 54.1172 92.967L54.2349 92.8546C55.7148 91.4632 57.8405 89.3097 59.2132 86.6822C60.8398 83.568 61.0929 80.4516 59.9648 77.4193C59.3038 75.6431 57.945 74.3596 56.0351 73.7077C52.7165 72.5748 48.7276 73.6248 46.2459 75.1676C43.5747 76.8303 41.4939 79.1702 40.0605 82.1232C35.1083 92.3262 36.3328 100.789 38.2322 106.092C38.8084 107.703 40.3196 108.761 42.0226 108.761Z" fill="#28313B"/>
<path fill-rule="evenodd" clip-rule="evenodd" d="M88.3532 91.6926C91.3263 88.4029 91.6918 84.8774 91.4748 82.4994C91.2417 79.9419 90.3051 78.1507 90.2653 78.0757L88.3506 79.0895L89.3078 78.5826L88.349 79.0868C88.4759 79.3292 91.4003 85.0901 86.7453 90.2412L88.3532 91.6926Z" fill="#89A1B1"/>
<path fill-rule="evenodd" clip-rule="evenodd" d="M100.014 89.1278C102.032 84.6931 99.1544 80.6207 97.3506 79.0869L95.9465 80.7363L96.6485 79.9115L95.9441 80.7341C95.9547 80.7431 96.9893 81.6421 97.749 83.0493C98.7036 84.817 98.8018 86.5605 98.0416 88.2311L100.014 89.1278Z" fill="#89A1B1"/>
<path fill-rule="evenodd" clip-rule="evenodd" d="M109.553 73.9862C111.939 72.4727 116.073 72.7272 118.494 74.3484C120.009 76.7319 117.423 81.1045 115.038 82.618C112.653 84.1315 109.492 83.4262 107.977 81.0427C106.463 78.6591 107.168 75.4997 109.553 73.9862Z" fill="#28313B"/>
<path fill-rule="evenodd" clip-rule="evenodd" d="M108.781 79.0431C110.565 77.3511 112.724 72.7127 112.135 68.4046C111.96 67.1269 111.555 65.9349 110.932 64.862L108.434 66.3113C108.867 67.0571 109.149 67.893 109.272 68.7956C109.733 72.1677 107.903 75.8955 106.793 76.9485L108.781 79.0431Z" fill="#28313B"/>
<path fill-rule="evenodd" clip-rule="evenodd" d="M88.7102 93.1656C89.1839 93.1656 89.6561 93.1503 90.1266 93.1195C101.449 92.3819 108.206 87.1374 111.881 82.8674C113.031 81.5299 113.179 79.6235 112.251 78.1229C111.323 76.6225 109.551 75.903 107.841 76.3328C97.9213 78.8229 85.8501 74.6035 85.7293 74.5606L84.2733 78.6395C84.6875 78.7874 92.2883 81.4541 100.85 81.4544C103.191 81.4544 105.604 81.2549 107.962 80.7501C104.706 84.2395 99.0391 88.199 89.8444 88.798C87.891 88.9256 85.8894 88.7211 83.8944 88.1908L82.7802 92.3761C84.7552 92.9014 86.7441 93.1656 88.7102 93.1656Z" fill="#28313B"/>
<path fill-rule="evenodd" clip-rule="evenodd" d="M116.073 73.0182L112.653 76.9676C112.653 76.9676 117.492 78.6498 117.96 78.3572C118.428 78.0643 119.617 75.4494 119.095 75.1683" fill="#28313B"/>
<path fill-rule="evenodd" clip-rule="evenodd" d="M58.2527 49.7444C64.3826 49.6042 62.767 34.3133 62.1603 34.3273C61.5539 34.3412 61.3295 44.8052 58.1413 44.8781C54.9532 44.951 54.2495 34.5081 53.6431 34.522C53.0366 34.536 52.1229 49.8847 58.2527 49.7444Z" fill="#2CABE3"/>
<path fill-rule="evenodd" clip-rule="evenodd" d="M80.4146 49.6074C85.6186 49.4884 84.2471 36.5069 83.732 36.5188C83.2172 36.5306 83.0266 45.4143 80.32 45.4761C77.6133 45.5382 77.016 36.6725 76.5012 36.6843C75.9864 36.6959 75.2106 49.7266 80.4146 49.6074Z" fill="#2CABE3"/>
<path d="M116.073 73.0181L112.653 76.9676C112.653 76.9676 117.492 78.6498 117.96 78.3572C118.428 78.0643 119.617 75.4494 119.095 75.1683M94.7567 96.1508C95.81 119.55 67.0191 127.777 43.1435 121.11C13.3593 112.793 7.23685 87.5901 9.78064 56.7344C12.3242 25.8787 28.0319 12.5711 43.7065 21.1503C59.3811 29.7297 43.755 58.2113 56.451 66.8265C69.1471 75.4418 93.9119 77.3808 94.7567 96.1508ZM106.106 31.7971C111.818 31.6555 111.153 25.7502 109.433 21.9413C107.577 17.8297 104.26 14.1056 99.6851 13.1413C95.2171 12.1994 89.9083 13.4461 88.9129 18.5106C87.8098 24.1235 96.3739 32.0384 106.106 31.7971ZM41.2645 107.068C41.2645 107.068 39.0635 90.4075 39.1107 89.3961C39.1578 88.3847 42.1861 81.1464 42.1861 81.1464L35.7345 79.1768C35.7345 79.1768 29.1512 77.7586 27.8345 71.9525C26.5178 66.1466 22.9629 41.2768 26.6495 34.6975C30.3362 28.1182 37.3145 18.1252 41.2645 17.6607C45.2144 17.1965 82.476 18.7755 82.476 18.7755C82.476 18.7755 95.7743 21.4073 96.1693 21.5388C96.5643 21.6704 100.119 25.2233 100.119 25.2233C100.119 25.2233 104.728 51.1458 104.728 51.9353C104.728 52.7248 105.913 61.4095 104.201 63.9096C102.489 66.4098 101.304 69.3047 99.1976 70.3574C97.0909 71.4101 87.4793 76.8051 87.4793 76.8051C87.4793 76.8051 91.2976 78.0039 95.6426 78.3915C99.9876 78.7789 112.857 79.7 112.857 79.7C112.857 79.7 105.925 85.6214 104.47 86.5425C103.016 87.4636 96.6959 90.7127 93.6676 90.9962C90.6393 91.2796 83.9243 91.1262 83.9243 91.1262C83.9243 91.1262 81.9493 97.8589 80.3693 100.491C78.7893 103.122 76.156 107.991 74.4443 108.912C72.7327 109.833 67.2027 110.623 65.7544 109.175C64.306 107.728 60.0927 101.807 59.6977 100.885C59.3027 99.9643 54.4311 95.0956 54.1678 94.4377C53.9044 93.7797 52.8511 91.5007 52.8511 91.5007L41.2645 107.068ZM94.9708 70.1858C94.9708 70.1858 99.4966 66.24 97.8598 66.3361C96.2226 66.4324 82.1631 69.1273 74.9409 68.7423C67.7185 68.3572 47.3995 68.2609 44.4144 67.9722C41.429 67.6835 38.6363 67.1061 36.9031 69.7044C35.1696 72.303 30.8362 76.0564 36.4214 76.7301C42.0067 77.4038 46.7254 76.1527 46.7254 76.1527L49.8069 77.6925C49.8069 77.6925 38.2511 94.5345 41.9106 103.773C45.5699 113.012 44.8957 102.234 45.3771 100.982C45.8587 99.7314 51.5404 91.8396 51.9257 91.5509C52.3106 91.2622 54.2585 93.9005 54.2585 93.9005C54.2585 93.9005 58.1369 98.5284 59.2924 90.733C60.2659 84.1642 59.6294 79.5692 59.6294 79.5692C59.6294 79.5692 83.8002 83.1273 79.5629 75.4053C75.3259 67.6835 84.3219 79.521 84.3219 79.521L84.2855 82.8894C84.2855 82.8894 99.0153 83.5631 101.519 81.0608C104.023 78.5586 109.159 78.7362 109.287 79.1768C109.416 79.6171 99.6894 89.9903 99.2078 90.0969C98.7264 90.2035 85.7262 91.3264 85.7262 91.3264L84.3219 76.8261L94.9708 70.1858ZM83.171 89.3961C83.1594 89.3777 83.1546 89.3674 83.1546 89.3674L85.0614 88.3389C84.831 87.9121 82.4921 84.1689 71.5001 84.1689C60.6463 84.1689 55.4131 87.4197 55.1956 87.5581L56.3561 89.3866C56.4048 89.3561 61.3449 86.3343 71.5001 86.3343C81.1502 86.3343 83.1517 89.3656 83.171 89.3961ZM26.0717 60.9623L35.1861 43.9697C35.7765 42.8694 36.9207 42.2062 38.1678 42.2388L104.413 43.9774L104.47 41.8128L38.2244 40.0743C36.1528 40.0203 34.2563 41.1206 33.2767 42.9468L24.162 59.9391L26.0717 60.9623ZM69.0297 111.737C70.7061 111.737 72.3577 111.252 73.7752 110.315C76.6376 108.422 78.9568 106.242 80.8652 103.649C83.8598 99.5821 85.6757 94.68 86.263 89.0789C87.2023 80.1176 85.1435 74.0138 80.1436 70.9376L80.1234 70.9255C76.1049 68.513 71.0911 68.2925 67.5924 68.5325C64.3192 68.757 58.2268 69.1746 54.3521 73.4093C54.2173 73.5554 54.0777 73.7164 53.931 73.8951L57.2832 76.6398C57.3762 76.5266 57.4615 76.4279 57.5442 76.3379C60.0451 73.6051 64.1952 73.1064 67.8889 72.8532C73.0932 72.4964 76.1939 73.6214 77.8814 74.6315C81.3818 76.7921 82.7138 81.3706 81.9533 88.6275C81.1246 96.5317 77.5685 102.613 71.3839 106.704C70.3527 107.385 69.0642 107.582 67.8492 107.244C66.4577 106.858 59.3225 104.205 55.4734 89.9381L51.2893 91.0656C55.6385 107.186 64.1749 110.718 66.6876 111.417C67.4594 111.631 68.2473 111.737 69.0297 111.737ZM95.576 25.7107C94.6146 25.3626 67.9511 18.6982 45.6342 21.865C43.5679 22.1582 41.8615 23.5746 41.2632 25.4944C39.4862 31.1968 36.2369 42.8464 37.3935 59.969C37.5436 62.1933 39.3882 63.9647 41.7064 64.1292C53.1553 64.9406 86.2027 66.7296 99.8288 61.5464C100.714 61.2101 101.292 60.3885 101.281 59.4763C101.228 55.0255 100.823 42.4625 97.67 28.2314C97.4243 27.1224 96.6462 26.1918 95.576 25.7107ZM40.1957 81.126C41.431 81.111 42.8314 81.0939 44.3911 81.1049L44.4214 76.7742C42.8198 76.7631 41.3978 76.7805 40.143 76.7955C38.2678 76.8181 36.6483 76.8378 35.0494 76.7589C31.8283 76.6005 29.1046 74.2856 28.425 71.1296C25.5254 57.6726 26.8884 48.7092 27.5436 44.4015C27.6387 43.7776 27.7206 43.2386 27.7748 42.7833C27.8238 42.3764 27.8541 41.9856 27.8796 41.6246C28.1453 37.8459 31.0012 30.3529 36.6423 22.8309C38.2149 20.7326 39.9368 18.7688 41.876 18.6025C61.9214 16.8855 89.1771 20.1481 96.3479 23.1867C97.8615 23.828 99.002 25.1884 99.5595 27.0169C101.71 34.0736 102.915 43.6802 103.589 59.139C103.786 63.6439 101.521 65.4988 100.538 66.0872C91.121 71.7215 83.0836 73.7666 83.0035 73.7869L84.0539 77.9884C84.4065 77.9003 92.8008 75.7641 102.764 69.8027C106.199 67.7465 108.126 63.6897 107.918 58.95C107.228 43.1073 105.967 33.1796 103.705 25.7552C102.781 22.723 100.716 20.3334 98.0393 19.1993C94.0843 17.5235 85.0646 15.8449 74.5002 14.8186C62.6566 13.6682 50.9391 13.4795 41.506 14.2875C37.3651 14.6422 34.5346 18.419 33.1744 20.2341C28.707 26.1911 23.9999 35.0218 23.5568 41.3211C23.5352 41.6267 23.5101 41.9527 23.4722 42.268C23.4256 42.6567 23.3487 43.1638 23.2595 43.751C22.5656 48.3136 21.1217 57.8076 24.1885 72.041C25.2803 77.111 29.6587 80.8297 34.8358 81.0844C35.7901 81.1315 36.7292 81.1465 37.7056 81.1465C38.5011 81.1465 39.3214 81.1365 40.1957 81.126ZM32.9101 51.0703C32.7734 55.5526 31.5874 59.1536 30.2604 59.1133C28.9335 59.0728 27.9684 55.4066 28.1051 50.9239C28.2415 46.4418 29.4278 42.8406 30.7547 42.8811C32.0817 42.9214 33.0468 46.5879 32.9101 51.0703ZM56.5708 8.52548C56.4857 6.34799 54.6503 4.65158 52.4715 4.73684C50.2927 4.82185 48.5952 6.65616 48.6803 8.83365C48.7656 11.0111 50.601 12.7076 52.7799 12.6223C54.9587 12.5373 56.6558 10.703 56.5708 8.52548ZM55.4748 17.4654L50.4712 17.6609L51.7002 12.1264L53.8174 12.0438L55.4748 17.4654ZM75.6765 85.2516C75.6765 81.8964 73.8066 79.1768 71.5001 79.1768C69.1935 79.1768 67.3239 81.8964 67.3239 85.2516C67.3239 88.6068 69.1935 91.3265 71.5001 91.3265C73.8066 91.3265 75.6765 88.6068 75.6765 85.2516ZM71.5001 80.2594C73.1767 80.2594 74.5932 82.5456 74.5932 85.2516C74.5932 87.9575 73.1767 90.2437 71.5001 90.2437C69.8235 90.2437 68.407 87.9575 68.407 85.2516C68.407 82.5456 69.8235 80.2594 71.5001 80.2594ZM71.5001 92.4091C74.4497 92.4091 76.7599 89.2652 76.7599 85.2516C76.7599 81.2379 74.4497 78.094 71.5001 78.094C68.5508 78.094 66.2403 81.2379 66.2403 85.2516C66.2403 89.2652 68.5508 92.4091 71.5001 92.4091ZM51.1064 91.1261L53.0132 90.0979C50.907 86.1966 47.7054 84.6721 45.3907 84.0802C42.9012 83.4433 40.8988 83.7257 40.8148 83.7381L41.1266 85.8808C41.3976 85.8427 47.8084 85.0179 51.1064 91.1261ZM47.394 98.3817L49.0804 97.0222C47.596 95.1779 43.6015 92.1909 39.1106 94.0852L39.9533 96.0803C41.6452 95.3663 43.3861 95.5126 45.1283 96.5148C46.5147 97.3127 47.3853 98.3712 47.394 98.3817ZM38.7978 109.164C39.1467 111.126 41.0208 112.434 42.9842 112.086C44.9476 111.737 46.2564 109.864 45.9077 107.902C45.5588 105.94 43.6844 104.631 41.7213 104.98C39.7579 105.329 38.4489 107.202 38.7978 109.164ZM36.4678 120.376L38.7677 118.629C38.2458 117.943 37.9043 117.162 37.7523 116.306C37.2307 113.372 39.1949 110.56 42.131 110.039C45.0677 109.518 47.8814 111.48 48.4031 114.415C48.5553 115.27 48.5039 116.122 48.2503 116.945L51.0119 117.794C51.4014 116.528 51.4806 115.221 51.2476 113.91C50.447 109.408 46.1302 106.396 41.6257 107.196C37.1211 107.996 34.1075 112.309 34.9078 116.811C35.1409 118.122 35.6657 119.322 36.4678 120.376ZM53.0091 77.5677C53.6056 77.5677 54.1617 77.6446 54.6344 77.8061C55.5081 78.1043 55.7767 78.5896 55.9029 78.9286C57.1253 82.2138 55.6946 85.5363 51.2643 89.7018L51.199 89.7637C51.1679 89.7934 51.1366 89.8231 51.1052 89.8534C50.5554 90.3813 50.0026 90.9429 49.472 91.5124C45.8683 95.3795 43.3609 99.4855 42.0095 103.731C40.5827 99.1755 39.9391 92.2962 43.9594 84.0133C45.0304 81.8069 46.5704 80.0678 48.5361 78.8444C49.8468 78.0293 51.5489 77.5677 53.0091 77.5677ZM42.0226 108.761C42.0727 108.761 42.123 108.76 42.1733 108.758C43.9378 108.693 45.4399 107.509 45.9107 105.809C46.9925 101.914 49.2579 98.0965 52.6439 94.4634C53.12 93.952 53.6156 93.4486 54.1172 92.967L54.2349 92.8546C55.7148 91.4632 57.8405 89.3097 59.2132 86.6822C60.8398 83.568 61.0929 80.4516 59.9648 77.4193C59.3038 75.6431 57.945 74.3596 56.0351 73.7077C52.7165 72.5748 48.7276 73.6248 46.2459 75.1676C43.5747 76.8303 41.4938 79.1702 40.0605 82.1232C35.1083 92.3262 36.3328 100.789 38.2322 106.092C38.8084 107.703 40.3197 108.761 42.0226 108.761ZM88.3532 91.6926C91.3263 88.4029 91.6918 84.8774 91.4748 82.4994C91.2417 79.9419 90.3051 78.1507 90.2653 78.0757L88.3506 79.0895L89.3078 78.5826L88.349 79.0868C88.4759 79.3292 91.4003 85.0901 86.7453 90.2412L88.3532 91.6926ZM100.014 89.1278C102.032 84.6931 99.1544 80.6207 97.3506 79.0869L95.9465 80.7362L96.6485 79.9115L95.9441 80.7341C95.9547 80.7431 96.9893 81.6421 97.749 83.0493C98.7036 84.817 98.8018 86.5605 98.0416 88.2311L100.014 89.1278ZM109.553 73.9862C111.939 72.4727 116.073 72.7272 118.494 74.3484C120.009 76.7319 117.423 81.1045 115.038 82.618C112.653 84.1315 109.492 83.4262 107.977 81.0427C106.463 78.6591 107.168 75.4997 109.553 73.9862ZM108.781 79.0431C110.565 77.3511 112.724 72.7127 112.135 68.4046C111.96 67.1269 111.555 65.9349 110.932 64.862L108.434 66.3113C108.867 67.0571 109.149 67.893 109.272 68.7956C109.733 72.1677 107.903 75.8955 106.793 76.9485L108.781 79.0431ZM88.7102 93.1656C89.1839 93.1656 89.6561 93.1503 90.1266 93.1195C101.449 92.3819 108.206 87.1374 111.881 82.8674C113.031 81.5299 113.179 79.6235 112.251 78.1229C111.323 76.6225 109.551 75.903 107.841 76.3328C97.9213 78.8229 85.8501 74.6035 85.7293 74.5606L84.2733 78.6395C84.6875 78.7874 92.2883 81.4541 100.85 81.4544C103.191 81.4544 105.604 81.2549 107.962 80.7501C104.706 84.2396 99.0391 88.199 89.8444 88.798C87.891 88.9256 85.8894 88.7211 83.8944 88.1908L82.7802 92.3761C84.7552 92.9014 86.7441 93.1656 88.7102 93.1656ZM58.2527 49.7444C64.3826 49.6042 62.767 34.3133 62.1603 34.3273C61.5539 34.3412 61.3295 44.8052 58.1413 44.8781C54.9532 44.951 54.2495 34.5081 53.6431 34.522C53.0366 34.536 52.1229 49.8847 58.2527 49.7444ZM80.4146 49.6074C85.6186 49.4884 84.2471 36.5069 83.732 36.5188C83.2172 36.5306 83.0266 45.4143 80.32 45.4761C77.6133 45.5382 77.016 36.6725 76.5012 36.6843C75.9864 36.6959 75.2106 49.7266 80.4146 49.6074Z" stroke="white" stroke-width="4"/>
<mask id="mask0_31_6186" style="mask-type:luminance" maskUnits="userSpaceOnUse" x="9" y="18" width="86" height="106">
<path fill-rule="evenodd" clip-rule="evenodd" d="M94.7848 18.5945H9.26083V123.345H94.7848V18.5945Z" fill="white"/>
</mask>
<g mask="url(#mask0_31_6186)">
<path fill-rule="evenodd" clip-rule="evenodd" d="M94.7567 96.1508C95.81 119.55 67.0191 127.777 43.1436 121.11C13.3594 112.793 7.23689 87.5901 9.78069 56.7344C12.3242 25.8787 28.032 12.5711 43.7066 21.1503C59.3812 29.7297 43.755 58.2113 56.4511 66.8265C69.1471 75.4418 93.9119 77.3808 94.7567 96.1508Z" fill="#F99D9D"/>
</g>
<path fill-rule="evenodd" clip-rule="evenodd" d="M106.106 31.7971C111.818 31.6555 111.153 25.7502 109.433 21.9413C107.577 17.8298 104.26 14.1056 99.6851 13.1413C95.2172 12.1995 89.9084 13.4461 88.913 18.5106C87.8099 24.1235 96.374 32.0385 106.106 31.7971Z" fill="#F99D9D"/>
<path fill-rule="evenodd" clip-rule="evenodd" d="M41.2645 107.068C41.2645 107.068 39.0635 90.4075 39.1107 89.3961C39.1578 88.3847 42.1861 81.1464 42.1861 81.1464L35.7345 79.1768C35.7345 79.1768 29.1512 77.7586 27.8345 71.9525C26.5179 66.1466 22.9629 41.2768 26.6495 34.6975C30.3362 28.1182 37.3145 18.1252 41.2645 17.6607C45.2145 17.1965 82.476 18.7755 82.476 18.7755C82.476 18.7755 95.7743 21.4073 96.1693 21.5389C96.5643 21.6704 100.119 25.2233 100.119 25.2233C100.119 25.2233 104.728 51.1458 104.728 51.9353C104.728 52.7248 105.913 61.4095 104.201 63.9097C102.489 66.4098 101.304 69.3047 99.1976 70.3574C97.0909 71.4101 87.4793 76.8051 87.4793 76.8051C87.4793 76.8051 91.2976 78.0039 95.6426 78.3915C99.9876 78.7789 112.857 79.7 112.857 79.7C112.857 79.7 105.925 85.6214 104.47 86.5425C103.016 87.4636 96.6959 90.7128 93.6676 90.9962C90.6393 91.2796 83.9243 91.1262 83.9243 91.1262C83.9243 91.1262 81.9493 97.859 80.3693 100.491C78.7893 103.122 76.156 107.991 74.4443 108.912C72.7327 109.833 67.2027 110.623 65.7544 109.175C64.3061 107.728 60.0927 101.807 59.6977 100.885C59.3027 99.9643 54.4311 95.0956 54.1678 94.4377C53.9044 93.7798 52.8511 91.5007 52.8511 91.5007L41.2645 107.068Z" fill="white"/>
<path fill-rule="evenodd" clip-rule="evenodd" d="M94.9707 70.1858C94.9707 70.1858 99.4966 66.24 97.8597 66.3361C96.2226 66.4324 82.163 69.1273 74.9409 68.7423C67.7185 68.3572 47.3995 68.2609 44.4143 67.9722C41.4289 67.6835 38.6363 67.1061 36.9031 69.7044C35.1695 72.303 30.8361 76.0564 36.4214 76.7301C42.0067 77.4038 46.7253 76.1527 46.7253 76.1527L49.8069 77.6925C49.8069 77.6925 38.2511 94.5345 41.9106 103.773C45.5698 113.012 44.8957 102.234 45.3771 100.983C45.8587 99.7314 51.5404 91.8396 51.9256 91.5509C52.3106 91.2622 54.2585 93.9005 54.2585 93.9005C54.2585 93.9005 58.1369 98.5284 59.2924 90.733C60.2659 84.1642 59.6294 79.5692 59.6294 79.5692C59.6294 79.5692 83.8002 83.1273 79.5629 75.4053C75.3259 67.6835 84.3218 79.521 84.3218 79.521L84.2855 82.8894C84.2855 82.8894 99.0152 83.5631 101.519 81.0609C104.023 78.5586 109.159 78.7362 109.287 79.1768C109.416 79.6171 99.6894 89.9903 99.2077 90.0969C98.7264 90.2035 85.7262 91.3264 85.7262 91.3264L84.3218 76.8261L94.9707 70.1858Z" fill="#D5E4EC"/>
<path fill-rule="evenodd" clip-rule="evenodd" d="M83.1709 89.3961C83.1594 89.3777 83.1546 89.3674 83.1546 89.3674L85.0614 88.3389C84.831 87.912 82.4921 84.1689 71.5 84.1689C60.6463 84.1689 55.4131 87.4197 55.1956 87.5581L56.3561 89.3866C56.4048 89.3561 61.3449 86.3343 71.5 86.3343C81.1501 86.3343 83.1517 89.3656 83.1709 89.3961Z" fill="#89A1B1"/>
<path fill-rule="evenodd" clip-rule="evenodd" d="M26.0717 60.9623L35.1862 43.9698C35.7766 42.8694 36.9207 42.2062 38.1679 42.2389L104.413 43.9774L104.47 41.8128L38.2245 40.0743C36.1529 40.0203 34.2563 41.1207 33.2767 42.9468L24.162 59.9391L26.0717 60.9623Z" fill="#89A1B1"/>
<path fill-rule="evenodd" clip-rule="evenodd" d="M69.0297 111.737C70.7061 111.737 72.3577 111.252 73.7752 110.315C76.6376 108.422 78.9568 106.242 80.8652 103.649C83.8598 99.5821 85.6757 94.68 86.2629 89.0789C87.2023 80.1176 85.1435 74.0138 80.1436 70.9376L80.1234 70.9255C76.1049 68.513 71.0911 68.2924 67.5924 68.5325C64.3192 68.7569 58.2267 69.1746 54.3521 73.4093C54.2172 73.5554 54.0777 73.7164 53.931 73.8951L57.2832 76.6398C57.3762 76.5266 57.4615 76.4279 57.5442 76.3379C60.0451 73.6051 64.1952 73.1064 67.8889 72.8532C73.0932 72.4964 76.1939 73.6214 77.8813 74.6315C81.3818 76.7921 82.7138 81.3706 81.9533 88.6275C81.1245 96.5317 77.5685 102.613 71.3839 106.704C70.3527 107.385 69.0642 107.582 67.8492 107.244C66.4577 106.858 59.3225 104.205 55.4733 89.9381L51.2893 91.0656C55.6385 107.186 64.1749 110.718 66.6876 111.417C67.4594 111.631 68.2473 111.737 69.0297 111.737Z" fill="#28313B"/>
<path fill-rule="evenodd" clip-rule="evenodd" d="M95.576 25.7107C94.6146 25.3625 67.9511 18.6982 45.6342 21.865C43.5679 22.1582 41.8615 23.5745 41.2632 25.4944C39.4862 31.1968 36.237 42.8464 37.3935 59.969C37.5436 62.1933 39.3883 63.9647 41.7064 64.1292C53.1553 64.9406 86.2027 66.7296 99.8288 61.5464C100.714 61.2101 101.292 60.3885 101.281 59.4763C101.228 55.0255 100.823 42.4625 97.67 28.2314C97.4243 27.1224 96.6462 26.1918 95.576 25.7107Z" fill="#343A4C"/>
<path fill-rule="evenodd" clip-rule="evenodd" d="M40.1956 81.126C41.4309 81.111 42.8313 81.0939 44.391 81.1049L44.4213 76.7742C42.8197 76.7631 41.3977 76.7805 40.143 76.7955C38.2678 76.8181 36.6483 76.8378 35.0493 76.7589C31.8283 76.6005 29.1046 74.2856 28.4249 71.1296C25.5254 57.6726 26.8884 48.7091 27.5436 44.4015C27.6386 43.7776 27.7205 43.2386 27.7748 42.7833C27.8238 42.3764 27.854 41.9856 27.8796 41.6245C28.1453 37.8459 31.0011 30.3528 36.6422 22.8308C38.2149 20.7326 39.9368 18.7688 41.876 18.6024C61.9213 16.8855 89.177 20.1481 96.3478 23.1867C97.8615 23.828 99.002 25.1883 99.5594 27.0169C101.71 34.0736 102.915 43.6802 103.589 59.1389C103.786 63.6439 101.521 65.4988 100.538 66.0872C91.1209 71.7215 83.0835 73.7666 83.0035 73.7869L84.0539 77.9884C84.4065 77.9003 92.8007 75.7641 102.764 69.8027C106.199 67.7465 108.126 63.6897 107.918 58.95C107.228 43.1073 105.967 33.1796 103.705 25.7552C102.781 22.7229 100.716 20.3333 98.0392 19.1993C94.0842 17.5234 85.0646 15.8449 74.5002 14.8186C62.6566 13.6682 50.9391 13.4795 41.506 14.2875C37.3651 14.6422 34.5345 18.419 33.1744 20.2341C28.707 26.191 23.9999 35.0218 23.5567 41.3211C23.5351 41.6266 23.5101 41.9527 23.4722 42.268C23.4256 42.6567 23.3487 43.1638 23.2594 43.751C22.5655 48.3136 21.1217 57.8076 24.1885 72.041C25.2802 77.111 29.6587 80.8296 34.8358 81.0844C35.7901 81.1315 36.7291 81.1465 37.7056 81.1465C38.5011 81.1465 39.3214 81.1365 40.1956 81.126Z" fill="#28313B"/>
<path fill-rule="evenodd" clip-rule="evenodd" d="M32.9101 51.0703C32.7734 55.5526 31.5874 59.1536 30.2604 59.1134C28.9335 59.0728 27.9684 55.4066 28.1051 50.924C28.2415 46.4419 29.4278 42.8406 30.7547 42.8811C32.0816 42.9214 33.0467 46.5879 32.9101 51.0703Z" fill="#28313B"/>
<path fill-rule="evenodd" clip-rule="evenodd" d="M56.5708 8.52548C56.4857 6.34799 54.6503 4.65158 52.4715 4.73684C50.2927 4.82185 48.5952 6.65616 48.6803 8.83365C48.7656 11.0111 50.601 12.7076 52.7799 12.6223C54.9587 12.5373 56.6558 10.703 56.5708 8.52548Z" fill="#28313B"/>
<path fill-rule="evenodd" clip-rule="evenodd" d="M55.4747 17.4654L50.4712 17.6609L51.7001 12.1264L53.8173 12.0438L55.4747 17.4654Z" fill="#28313B"/>
<path fill-rule="evenodd" clip-rule="evenodd" d="M75.6765 85.2516C75.6765 81.8964 73.8066 79.1768 71.5001 79.1768C69.1935 79.1768 67.3239 81.8964 67.3239 85.2516C67.3239 88.6068 69.1935 91.3264 71.5001 91.3264C73.8066 91.3264 75.6765 88.6068 75.6765 85.2516Z" fill="#2CABE3"/>
<path fill-rule="evenodd" clip-rule="evenodd" d="M71.5001 80.2594C73.1767 80.2594 74.5932 82.5456 74.5932 85.2516C74.5932 87.9575 73.1767 90.2437 71.5001 90.2437C69.8235 90.2437 68.407 87.9575 68.407 85.2516C68.407 82.5456 69.8235 80.2594 71.5001 80.2594ZM71.5001 92.4091C74.4497 92.4091 76.7599 89.2652 76.7599 85.2516C76.7599 81.2379 74.4497 78.0941 71.5001 78.0941C68.5508 78.0941 66.2403 81.2379 66.2403 85.2516C66.2403 89.2652 68.5508 92.4091 71.5001 92.4091Z" fill="#28313B"/>
<path fill-rule="evenodd" clip-rule="evenodd" d="M51.1064 91.1262L53.0132 90.0979C50.9071 86.1967 47.7055 84.6721 45.3908 84.0802C42.9012 83.4433 40.8988 83.7257 40.8148 83.7381L41.1266 85.8809C41.3976 85.8427 47.8084 85.0179 51.1064 91.1262Z" fill="#89A1B1"/>
<path fill-rule="evenodd" clip-rule="evenodd" d="M47.3939 98.3817L49.0803 97.0222C47.5959 95.1779 43.6014 92.1909 39.1106 94.0852L39.9532 96.0803C41.6451 95.3663 43.386 95.5126 45.1282 96.5148C46.5147 97.3127 47.3853 98.3712 47.3939 98.3817Z" fill="#89A1B1"/>
<path fill-rule="evenodd" clip-rule="evenodd" d="M38.7978 109.164C39.1467 111.126 41.0208 112.434 42.9842 112.086C44.9476 111.737 46.2564 109.864 45.9078 107.902C45.5588 105.94 43.6844 104.632 41.7213 104.98C39.7579 105.329 38.4489 107.202 38.7978 109.164Z" fill="#28313B"/>
<path fill-rule="evenodd" clip-rule="evenodd" d="M36.4678 120.376L38.7678 118.629C38.2459 117.943 37.9043 117.162 37.7524 116.306C37.2307 113.372 39.1949 110.56 42.1311 110.039C45.0678 109.518 47.8815 111.48 48.4031 114.415C48.5553 115.27 48.504 116.122 48.2504 116.945L51.012 117.794C51.4014 116.528 51.4807 115.221 51.2476 113.91C50.4471 109.408 46.1303 106.396 41.6257 107.196C37.1212 107.996 34.1076 112.309 34.9079 116.811C35.1409 118.122 35.6657 119.322 36.4678 120.376Z" fill="#28313B"/>
<path fill-rule="evenodd" clip-rule="evenodd" d="M53.0091 77.5677C53.6056 77.5677 54.1617 77.6446 54.6344 77.8062C55.5082 78.1043 55.7768 78.5896 55.9029 78.9286C57.1253 82.2138 55.6946 85.5363 51.2643 89.7018L51.199 89.7637C51.1679 89.7934 51.1366 89.8232 51.1052 89.8534C50.5554 90.3813 50.0027 90.9429 49.472 91.5125C45.8683 95.3795 43.3609 99.4855 42.0095 103.731C40.5827 99.1755 39.9392 92.2962 43.9594 84.0133C45.0304 81.8069 46.5704 80.0679 48.5362 78.8444C49.8468 78.0293 51.549 77.5677 53.0091 77.5677ZM42.0226 108.761C42.0727 108.761 42.123 108.76 42.1733 108.758C43.9379 108.693 45.4399 107.509 45.9107 105.809C46.9925 101.914 49.258 98.0965 52.6439 94.4634C53.12 93.9521 53.6156 93.4486 54.1172 92.967L54.2349 92.8546C55.7149 91.4632 57.8405 89.3097 59.2132 86.6822C60.8398 83.5681 61.0929 80.4516 59.9648 77.4193C59.3038 75.6431 57.945 74.3596 56.0351 73.7078C52.7166 72.5748 48.7276 73.6249 46.246 75.1676C43.5747 76.8303 41.4939 79.1702 40.0605 82.1232C35.1083 92.3262 36.3328 100.789 38.2322 106.092C38.8084 107.703 40.3197 108.761 42.0226 108.761Z" fill="#28313B"/>
<path fill-rule="evenodd" clip-rule="evenodd" d="M88.3532 91.6926C91.3262 88.4029 91.6917 84.8774 91.4747 82.4994C91.2417 79.9419 90.305 78.1507 90.2653 78.0757L88.3506 79.0895L89.3078 78.5826L88.349 79.0869C88.4759 79.3292 91.4002 85.0901 86.7453 90.2412L88.3532 91.6926Z" fill="#89A1B1"/>
<path fill-rule="evenodd" clip-rule="evenodd" d="M100.014 89.1278C102.032 84.693 99.1545 80.6207 97.3506 79.0869L95.9465 80.7362L96.6486 79.9115L95.9442 80.7341C95.9547 80.7431 96.9893 81.6421 97.7491 83.0493C98.7036 84.817 98.8019 86.5605 98.0416 88.2311L100.014 89.1278Z" fill="#89A1B1"/>
<path fill-rule="evenodd" clip-rule="evenodd" d="M109.553 73.9862C111.939 72.4727 115.1 73.1778 116.614 75.5616C118.129 77.9451 117.423 81.1045 115.038 82.618C112.653 84.1315 109.492 83.4262 107.977 81.0427C106.463 78.6591 107.168 75.4997 109.553 73.9862Z" fill="#28313B"/>
<path fill-rule="evenodd" clip-rule="evenodd" d="M108.781 79.0431C110.565 77.3511 112.724 72.7127 112.135 68.4046C111.96 67.1269 111.555 65.935 110.932 64.862L108.434 66.3113C108.866 67.0571 109.149 67.893 109.272 68.7956C109.733 72.1677 107.903 75.8955 106.792 76.9485L108.781 79.0431Z" fill="#28313B"/>
<path fill-rule="evenodd" clip-rule="evenodd" d="M88.7102 93.1656C89.184 93.1656 89.6561 93.1503 90.1267 93.1195C101.449 92.3819 108.206 87.1374 111.881 82.8674C113.031 81.5299 113.179 79.6235 112.251 78.1229C111.323 76.6226 109.551 75.9031 107.841 76.3328C97.9213 78.823 85.8502 74.6035 85.7293 74.5606L84.2733 78.6395C84.6876 78.7874 92.2884 81.4542 100.85 81.4544C103.191 81.4544 105.604 81.2549 107.962 80.7502C104.706 84.2396 99.0392 88.199 89.8444 88.798C87.891 88.9256 85.8894 88.7211 83.8944 88.1908L82.7803 92.3761C84.7552 92.9014 86.7442 93.1656 88.7102 93.1656Z" fill="#28313B"/>
<path fill-rule="evenodd" clip-rule="evenodd" d="M114.483 73.6495L112.653 76.9676C112.653 76.9676 117.492 78.6498 117.96 78.3572C118.428 78.0643 119.617 75.4494 119.095 75.1683" fill="#28313B"/>
<path fill-rule="evenodd" clip-rule="evenodd" d="M58.2527 49.7445C64.3826 49.6042 62.767 34.3133 62.1603 34.3273C61.5538 34.3412 61.3295 44.8052 58.1413 44.8781C54.9532 44.951 54.2495 34.5081 53.6431 34.522C53.0366 34.536 52.1229 49.8847 58.2527 49.7445Z" fill="#2CABE3"/>
<path fill-rule="evenodd" clip-rule="evenodd" d="M80.4146 49.6074C85.6186 49.4884 84.2472 36.5069 83.7321 36.5187C83.2173 36.5306 83.0266 45.4142 80.3201 45.4761C77.6133 45.5382 77.0161 36.6724 76.5012 36.6843C75.9864 36.6959 75.2107 49.7266 80.4146 49.6074Z" fill="#2CABE3"/>
</svg>
