<svg width="128" height="128" viewBox="0 0 128 128" fill="none" xmlns="http://www.w3.org/2000/svg">
<path fill-rule="evenodd" clip-rule="evenodd" d="M62.5682 37.855C49.7853 37.855 19.5706 68.208 19.5706 91.8402C19.5706 108.869 35.8787 123.104 63.4496 123.104C91.0204 123.104 108.327 107.993 108.327 91.8402C108.327 71.3775 86.4846 37.855 62.5682 37.855Z" fill="#94EDB8"/>
<path fill-rule="evenodd" clip-rule="evenodd" d="M52.9032 24.4427C47.3463 22.2758 50.0985 16.7149 53.1407 13.5863C56.4243 10.2091 61.0043 7.73092 65.8381 8.40845C70.559 9.07032 77.815 18.4016 76.992 23.727C76.0795 29.6286 62.3712 28.135 52.9032 24.4427Z" fill="#94EDB8"/>
<path fill-rule="evenodd" clip-rule="evenodd" d="M16.4119 76.5908C16.4119 76.5908 22.8265 86.2537 27.775 89.0182C32.7234 91.7827 44.2698 95.744 44.2698 95.744C44.2698 95.744 47.144 96.3539 47.7521 97.4609C48.3603 98.5678 54.7165 106.07 55.8162 107.535C56.9159 109 59.2985 110.832 61.3145 110.832C63.3307 110.832 69.9286 108.634 70.2951 108.084C70.6616 107.535 76.893 100.391 77.4429 99.8419C77.9927 99.2923 81.6584 97.0413 82.9411 96.5185C84.2242 95.9954 91.7384 92.6984 93.5713 91.9659C95.4038 91.2332 106.584 85.6935 108.417 83.06C110.249 80.4266 115.515 76.843 111.892 76.3336C108.27 75.824 100.364 78.6492 100.364 78.6492C100.364 78.6492 104.018 70.9019 104.018 67.6049C104.018 64.3079 101.59 42.6944 101.59 42.6944C101.59 42.6944 100.749 25.66 95.7854 24.3781C90.8221 23.0958 93.9377 21.4473 84.774 21.9968C75.61 22.5463 31.2425 23.8286 31.2425 23.8286C31.2425 23.8286 26.4922 38.6649 25.759 42.8776C25.0258 47.0903 23.3763 62.8427 23.5597 65.5902C23.7431 68.3377 26.6753 78.0453 26.6753 78.0453L16.4119 76.5908Z" fill="white"/>
<path fill-rule="evenodd" clip-rule="evenodd" d="M34.1863 79.7874C34.1863 79.7874 32.5214 74.998 31.7676 73.491C31.0135 71.9838 30.1088 70.4768 36.5932 70.4768C43.0776 70.4768 88.1668 70.3259 92.3892 69.7232C96.6116 69.1204 97.2148 70.326 95.4053 73.491C93.5955 76.6559 91.786 80.4235 91.786 80.4235L78.8172 81.9296C78.8172 81.9296 74.8964 78.1628 71.7294 76.8064C68.5627 75.45 60.2688 74.2444 58.3084 75.6008C56.348 76.9573 53.0303 79.067 52.4271 79.8207C51.824 80.5743 48.9492 81.8722 48.9492 81.8722L34.1863 79.7874Z" fill="#D5E4EC"/>
<path fill-rule="evenodd" clip-rule="evenodd" d="M46.6968 86.9039C46.6968 86.9039 28.2992 82.5335 24.68 79.2178C21.0608 75.9022 18.0447 76.3544 18.0447 76.3544C18.0447 76.3544 24.3781 87.2611 25.7354 88.5897C27.0926 89.9181 36.4422 95.4944 36.8947 95.7958C37.3472 96.0972 47.4426 96.5184 47.4426 96.5184L46.6968 86.9039Z" fill="#D5E4EC"/>
<path fill-rule="evenodd" clip-rule="evenodd" d="M81.071 86.9039C81.071 86.9039 99.4685 82.5335 103.088 79.2178C106.707 75.9022 109.723 76.3544 109.723 76.3544C109.723 76.3544 103.389 87.2611 102.032 88.5897C100.675 89.9181 91.3252 95.4944 90.873 95.7958C90.4205 96.0972 80.3251 96.5184 80.3251 96.5184L81.071 86.9039Z" fill="#D5E4EC"/>
<path fill-rule="evenodd" clip-rule="evenodd" d="M48.4714 92.949L47.3681 90.9755C53.0984 87.7763 60.4829 86.6449 68.7237 87.7038C74.9035 88.4976 79.3445 90.2117 79.5309 90.2842L78.7086 92.3902L78.7081 92.3899C78.6385 92.363 74.2784 90.6895 68.379 89.9386C62.9863 89.2523 55.1551 89.2174 48.4714 92.949Z" fill="#89A1B1"/>
<path fill-rule="evenodd" clip-rule="evenodd" d="M58.7912 88.2717C58.7912 91.7742 60.7434 94.6137 63.1514 94.6137C65.5593 94.6137 67.5115 91.7742 67.5115 88.2717C67.5115 84.769 65.5593 81.9297 63.1514 81.9297C60.7434 81.9297 58.7912 84.769 58.7912 88.2717Z" fill="#2CABE3"/>
<path fill-rule="evenodd" clip-rule="evenodd" d="M63.1513 83.06C61.401 83.06 59.9222 85.4467 59.9222 88.2717C59.9222 91.0966 61.401 93.4833 63.1513 93.4833C64.9017 93.4833 66.3805 91.0966 66.3805 88.2717C66.3805 85.4467 64.9017 83.06 63.1513 83.06ZM63.1513 95.744C60.0723 95.744 57.6602 92.4618 57.6602 88.2717C57.6602 84.0815 60.0723 80.7994 63.1513 80.7994C66.2304 80.7994 68.6425 84.0815 68.6425 88.2717C68.6425 92.4618 66.2304 95.744 63.1513 95.744Z" fill="#28313B"/>
<path fill-rule="evenodd" clip-rule="evenodd" d="M63.504 77.2651C58.6284 77.2651 54.9753 78.4836 52.646 80.8865C50.2149 83.395 49.7047 86.7414 49.7047 89.1072C49.7047 93.79 51.1763 98.1269 54.0788 101.998C56.9269 105.796 60.1217 107.778 61.033 108.294C62.1558 108.931 63.5117 109.044 64.7524 108.605C66.7001 107.917 69.7434 105.984 72.4428 102.628C74.5849 99.9644 77.2384 95.4418 77.7423 89.0031C77.7228 85.9454 76.6069 83.143 74.5954 81.1038C72.1179 78.5926 68.2825 77.2651 63.504 77.2651ZM63.2244 113.39C61.686 113.39 60.1613 112.998 58.8007 112.227C57.6964 111.601 53.832 109.208 50.4585 104.709C46.9563 100.039 45.1807 94.7893 45.1807 89.1072C45.1807 84.5167 46.6385 80.5865 49.3968 77.7406C52.6105 74.425 57.3569 72.7438 63.504 72.7438C69.521 72.7438 74.4703 74.5371 77.8171 77.9297C80.6864 80.8387 82.2669 84.8008 82.2669 89.0861L82.2605 89.2553C81.8061 95.3042 79.6304 100.908 75.9689 105.461C73.1722 108.938 69.5433 111.707 66.2616 112.868C65.273 113.217 64.2457 113.39 63.2244 113.39Z" fill="#28313B"/>
<path fill-rule="evenodd" clip-rule="evenodd" d="M24.4594 45.2155H101.59V42.9549H24.4594V45.2155Z" fill="#89A1B1"/>
<path fill-rule="evenodd" clip-rule="evenodd" d="M29.4371 63.096C29.4566 64.1458 30.2404 65.025 31.2815 65.1643C34.5678 65.6041 43.2122 66.3707 63.5399 66.3707C83.9124 66.3707 92.5502 65.6006 95.82 65.1615C96.8564 65.0222 97.6369 64.1516 97.6644 63.107C97.74 60.2534 97.6432 54.004 96.0669 44.9467C94.6766 36.959 93.2504 32.3413 92.3803 30.0087C91.9286 28.7984 90.8292 27.9484 89.544 27.8096C85.6191 27.3862 76.1744 26.5372 63.5399 26.5372C50.9549 26.5372 41.5347 27.3796 37.5822 27.8047C36.2805 27.9448 35.1753 28.8135 34.7278 30.043C33.8417 32.4781 32.3668 37.2453 31.0159 44.9299C29.4945 53.5831 29.3818 60.1218 29.4371 63.096Z" fill="#343A4C"/>
<path fill-rule="evenodd" clip-rule="evenodd" d="M99.1756 80.5775L95.8351 77.5286C97.575 75.6246 99.0524 73.5513 100.227 71.366C101.281 69.4035 101.844 67.1901 101.858 64.9652C101.881 60.9583 101.573 54.2509 99.9714 45.049C98.3797 35.9044 96.438 30.0759 95.089 26.7967C94.7126 25.8796 93.8634 25.2483 92.8726 25.148C88.0009 24.657 77.71 23.8333 63.5376 23.8333C49.4068 23.835 39.0639 24.6532 34.1565 25.1411C33.1415 25.2419 32.2815 25.8983 31.9123 26.8539C30.5636 30.3454 28.6348 36.3338 27.1049 45.0328C25.4763 54.3003 25.2443 61.5026 25.2512 64.971C25.2536 67.2217 25.8128 69.445 26.8682 71.402C27.9981 73.4967 29.4068 75.4897 31.0557 77.3261L27.6888 80.3458C25.8013 78.2438 24.1853 75.9565 22.8861 73.5472C21.4771 70.9344 20.7305 67.9715 20.7272 64.9778C20.7187 60.5613 21.0453 53.3783 22.6491 44.2506C24.2422 35.1922 26.2708 28.9049 27.6921 25.2257C28.6793 22.6692 30.9848 20.913 33.7083 20.6419C38.6997 20.1459 49.211 19.3137 63.5374 19.3121C77.9079 19.3121 88.3701 20.1503 93.3276 20.6498C95.9841 20.9185 98.2623 22.6159 99.2737 25.079C100.708 28.5656 102.767 34.7271 104.428 44.274C106.088 53.8047 106.406 60.8011 106.381 64.9916C106.364 67.9509 105.614 70.8945 104.213 73.5046C102.862 76.0186 101.167 78.3982 99.1756 80.5775Z" fill="#28313B"/>
<path fill-rule="evenodd" clip-rule="evenodd" d="M77.2269 37.2016C72.0766 37.5032 74.3196 57.5697 74.8293 57.54C75.3388 57.5101 74.9231 43.7524 77.6018 43.5952C80.2803 43.4386 81.4759 57.1504 81.9856 57.1208C82.495 57.0908 82.3771 36.8999 77.2269 37.2016Z" fill="#2CABE3"/>
<path fill-rule="evenodd" clip-rule="evenodd" d="M51.1628 36.9742C56.3028 37.4176 53.507 57.4148 52.9984 57.3709C52.4898 57.3269 53.2848 43.5857 50.6116 43.3552C47.9383 43.1247 46.365 56.7986 45.8564 56.7546C45.3481 56.7106 46.0227 36.5307 51.1628 36.9742Z" fill="#2CABE3"/>
<path fill-rule="evenodd" clip-rule="evenodd" d="M59.605 18.7834C59.6938 16.5101 61.6099 14.7391 63.8846 14.8281C66.1595 14.9169 67.9313 16.8319 67.8425 19.1051C67.7534 21.3784 65.8373 23.1494 63.5626 23.0604C61.288 22.9717 59.5162 21.0567 59.605 18.7834Z" fill="#28313B"/>
<path fill-rule="evenodd" clip-rule="evenodd" d="M37.1119 94.0964C35.5768 89.7304 36.6473 86.1884 37.816 83.986C39.0724 81.6171 40.6974 80.2698 40.7658 80.2137L42.2031 81.9594C41.9829 82.1422 36.8423 86.5106 39.2461 93.3469L37.1119 94.0964Z" fill="#89A1B1"/>
<path fill-rule="evenodd" clip-rule="evenodd" d="M28.135 89.0181C26.2051 84.3117 29.3693 80.1776 31.3121 78.6492L32.7139 80.4235C32.7027 80.4323 31.5873 81.3288 30.7389 82.7668C29.6728 84.5733 29.501 86.388 30.2282 88.1609L28.135 89.0181Z" fill="#89A1B1"/>
<path fill-rule="evenodd" clip-rule="evenodd" d="M16.2102 71.5908C13.447 70.5593 10.3705 71.9619 9.3387 74.7234C8.30667 77.4849 9.71011 80.5596 12.4733 81.5907C15.2364 82.6221 18.313 81.2196 19.3447 78.4583C20.3768 75.6966 18.9733 72.6219 16.2102 71.5908Z" fill="#28313B"/>
<path fill-rule="evenodd" clip-rule="evenodd" d="M18.092 76.5892C15.9037 75.2459 12.6968 70.9742 12.3678 66.4466C12.2702 65.1039 12.4258 63.7991 12.8304 62.5685L15.6959 63.5098C15.4144 64.3651 15.3069 65.2797 15.3759 66.2285C15.6335 69.7721 18.3084 73.1848 19.6703 74.0206L18.092 76.5892Z" fill="#28313B"/>
<path fill-rule="evenodd" clip-rule="evenodd" d="M48.3341 98.7579C29.7232 96.1914 18.1133 84.5018 15.2102 80.2141C14.1787 78.6892 14.2538 76.6945 15.3966 75.2496C16.5394 73.8053 18.4644 73.272 20.1859 73.9229C30.5499 77.8391 49.5481 79.661 49.7386 79.6791L49.3149 84.1803C49.1145 84.1616 44.3343 83.7077 38.1493 82.7442C30.361 81.5309 24.1191 80.1083 19.5706 78.5106C22.8677 82.6755 33.2231 92.1101 48.9523 94.2789L48.3341 98.7579Z" fill="#28313B"/>
<path fill-rule="evenodd" clip-rule="evenodd" d="M90.7852 94.0964L88.651 93.3469C91.0697 86.4683 85.751 82.0059 85.6968 81.9616L87.1313 80.2137C87.1998 80.2698 88.8248 81.6171 90.0814 83.986C91.2498 86.1884 92.3203 89.7304 90.7852 94.0964Z" fill="#89A1B1"/>
<path fill-rule="evenodd" clip-rule="evenodd" d="M99.7622 89.0183L97.669 88.1611C98.3961 86.3881 98.2243 84.5732 97.1582 82.767C96.3098 81.3289 95.1945 80.4322 95.1835 80.4234L96.585 78.649C98.5278 80.1775 101.692 84.3119 99.7622 89.0183Z" fill="#89A1B1"/>
<path fill-rule="evenodd" clip-rule="evenodd" d="M111.687 71.5908C114.45 70.5593 117.527 71.9619 118.559 74.7234C119.59 77.4849 118.187 80.5596 115.424 81.5907C112.661 82.6221 109.584 81.2196 108.552 78.4583C107.52 75.6966 108.924 72.6219 111.687 71.5908Z" fill="#28313B"/>
<path fill-rule="evenodd" clip-rule="evenodd" d="M109.805 76.5892L108.227 74.0206C109.589 73.1848 112.264 69.7721 112.521 66.2285C112.59 65.2797 112.483 64.3651 112.201 63.5098L115.067 62.5685C115.471 63.7991 115.627 65.1039 115.53 66.4466C115.2 70.9742 111.994 75.2459 109.805 76.5892Z" fill="#28313B"/>
<path fill-rule="evenodd" clip-rule="evenodd" d="M79.5631 98.7579L78.9448 94.2789C94.6727 92.1104 105.028 82.6766 108.327 78.5106C103.778 80.1083 97.5356 81.5309 89.7478 82.7442C83.5628 83.7077 78.7826 84.1616 78.5822 84.1803L78.1586 79.6791C78.3491 79.661 97.3473 77.8391 107.712 73.9226C109.433 73.272 111.357 73.805 112.501 75.2496C113.643 76.6943 113.718 78.6892 112.688 80.2135C109.784 84.5018 98.1737 96.1914 79.5631 98.7579Z" fill="#28313B"/>
<path fill-rule="evenodd" clip-rule="evenodd" d="M11.3501 72.1912L13.2604 75.6552C13.2604 75.6552 8.20889 77.4114 7.72036 77.1059C7.23184 76.8001 5.99005 74.0702 6.53603 73.7768L11.3501 72.1912Z" fill="#28313B"/>
<path fill-rule="evenodd" clip-rule="evenodd" d="M116.509 72.1912L114.599 75.6552C114.599 75.6552 119.651 77.4114 120.139 77.1059C120.628 76.8001 121.869 74.0702 121.323 73.7768L116.509 72.1912Z" fill="#28313B"/>
<path fill-rule="evenodd" clip-rule="evenodd" d="M62.5682 37.855C49.7853 37.855 19.5706 68.208 19.5706 91.8402C19.5706 108.869 35.8787 123.104 63.4496 123.104C91.0204 123.104 108.327 107.993 108.327 91.8402C108.327 71.3775 86.4846 37.855 62.5682 37.855Z" stroke="white" stroke-width="4"/>
<path fill-rule="evenodd" clip-rule="evenodd" d="M52.9032 24.4427C47.3463 22.2758 50.0985 16.7149 53.1407 13.5863C56.4243 10.2091 61.0043 7.73092 65.8381 8.40845C70.559 9.07032 77.815 18.4016 76.992 23.727C76.0795 29.6286 62.3712 28.135 52.9032 24.4427Z" stroke="white" stroke-width="4"/>
<path fill-rule="evenodd" clip-rule="evenodd" d="M16.4119 76.5908C16.4119 76.5908 22.8265 86.2537 27.775 89.0182C32.7234 91.7827 44.2698 95.744 44.2698 95.744C44.2698 95.744 47.144 96.3539 47.7521 97.4609C48.3603 98.5678 54.7165 106.07 55.8162 107.535C56.9159 109 59.2985 110.832 61.3145 110.832C63.3307 110.832 69.9286 108.634 70.2951 108.084C70.6616 107.535 76.893 100.391 77.4429 99.8419C77.9927 99.2923 81.6584 97.0413 82.9411 96.5185C84.2242 95.9954 91.7384 92.6984 93.5713 91.9659C95.4038 91.2332 106.584 85.6935 108.417 83.06C110.249 80.4266 115.515 76.843 111.892 76.3336C108.27 75.824 100.364 78.6492 100.364 78.6492C100.364 78.6492 104.018 70.9019 104.018 67.6049C104.018 64.3079 101.59 42.6944 101.59 42.6944C101.59 42.6944 100.749 25.66 95.7854 24.3781C90.8221 23.0958 93.9377 21.4473 84.774 21.9968C75.61 22.5463 31.2425 23.8286 31.2425 23.8286C31.2425 23.8286 26.4922 38.6649 25.759 42.8776C25.0258 47.0903 23.3763 62.8427 23.5597 65.5902C23.7431 68.3377 26.6753 78.0453 26.6753 78.0453L16.4119 76.5908Z" stroke="white" stroke-width="4"/>
<path fill-rule="evenodd" clip-rule="evenodd" d="M34.1863 79.7874C34.1863 79.7874 32.5214 74.998 31.7676 73.491C31.0135 71.9838 30.1088 70.4768 36.5932 70.4768C43.0776 70.4768 88.1668 70.3259 92.3892 69.7232C96.6116 69.1204 97.2148 70.326 95.4053 73.491C93.5955 76.6559 91.786 80.4235 91.786 80.4235L78.8172 81.9296C78.8172 81.9296 74.8964 78.1628 71.7294 76.8064C68.5627 75.45 60.2688 74.2444 58.3084 75.6008C56.348 76.9573 53.0303 79.067 52.4271 79.8207C51.824 80.5743 48.9492 81.8722 48.9492 81.8722L34.1863 79.7874Z" stroke="white" stroke-width="4"/>
<path fill-rule="evenodd" clip-rule="evenodd" d="M46.6968 86.9039C46.6968 86.9039 28.2992 82.5335 24.68 79.2178C21.0608 75.9022 18.0447 76.3544 18.0447 76.3544C18.0447 76.3544 24.3781 87.2611 25.7354 88.5897C27.0926 89.9181 36.4422 95.4944 36.8947 95.7958C37.3472 96.0972 47.4426 96.5184 47.4426 96.5184L46.6968 86.9039Z" stroke="white" stroke-width="4"/>
<path fill-rule="evenodd" clip-rule="evenodd" d="M81.071 86.9039C81.071 86.9039 99.4685 82.5335 103.088 79.2178C106.707 75.9022 109.723 76.3544 109.723 76.3544C109.723 76.3544 103.389 87.2611 102.032 88.5897C100.675 89.9181 91.3252 95.4944 90.873 95.7958C90.4205 96.0972 80.3251 96.5184 80.3251 96.5184L81.071 86.9039Z" stroke="white" stroke-width="4"/>
<path fill-rule="evenodd" clip-rule="evenodd" d="M48.4714 92.949L47.3681 90.9755C53.0984 87.7763 60.4829 86.6449 68.7237 87.7038C74.9035 88.4976 79.3445 90.2117 79.5309 90.2842L78.7086 92.3902L78.7081 92.3899C78.6385 92.363 74.2784 90.6895 68.379 89.9386C62.9863 89.2523 55.1551 89.2174 48.4714 92.949Z" stroke="white" stroke-width="4"/>
<path fill-rule="evenodd" clip-rule="evenodd" d="M58.7912 88.2717C58.7912 91.7742 60.7434 94.6137 63.1514 94.6137C65.5593 94.6137 67.5115 91.7742 67.5115 88.2717C67.5115 84.769 65.5593 81.9297 63.1514 81.9297C60.7434 81.9297 58.7912 84.769 58.7912 88.2717Z" stroke="white" stroke-width="4"/>
<path fill-rule="evenodd" clip-rule="evenodd" d="M63.1513 83.06C61.401 83.06 59.9222 85.4467 59.9222 88.2717C59.9222 91.0966 61.401 93.4833 63.1513 93.4833C64.9017 93.4833 66.3805 91.0966 66.3805 88.2717C66.3805 85.4467 64.9017 83.06 63.1513 83.06ZM63.1513 95.744C60.0723 95.744 57.6602 92.4618 57.6602 88.2717C57.6602 84.0815 60.0723 80.7994 63.1513 80.7994C66.2304 80.7994 68.6425 84.0815 68.6425 88.2717C68.6425 92.4618 66.2304 95.744 63.1513 95.744Z" stroke="white" stroke-width="4"/>
<path fill-rule="evenodd" clip-rule="evenodd" d="M63.504 77.2651C58.6284 77.2651 54.9753 78.4836 52.646 80.8865C50.2149 83.395 49.7047 86.7414 49.7047 89.1072C49.7047 93.79 51.1763 98.1269 54.0788 101.998C56.9269 105.796 60.1217 107.778 61.033 108.294C62.1558 108.931 63.5117 109.044 64.7524 108.605C66.7001 107.917 69.7434 105.984 72.4428 102.628C74.5849 99.9644 77.2384 95.4418 77.7423 89.0031C77.7228 85.9454 76.6069 83.143 74.5954 81.1038C72.1179 78.5926 68.2825 77.2651 63.504 77.2651ZM63.2244 113.39C61.686 113.39 60.1613 112.998 58.8007 112.227C57.6964 111.601 53.832 109.208 50.4585 104.709C46.9563 100.039 45.1807 94.7893 45.1807 89.1072C45.1807 84.5167 46.6385 80.5865 49.3968 77.7406C52.6105 74.425 57.3569 72.7438 63.504 72.7438C69.521 72.7438 74.4703 74.5371 77.8171 77.9297C80.6864 80.8387 82.2669 84.8008 82.2669 89.0861L82.2605 89.2553C81.8061 95.3042 79.6304 100.908 75.9689 105.461C73.1722 108.938 69.5433 111.707 66.2616 112.868C65.273 113.217 64.2457 113.39 63.2244 113.39Z" stroke="white" stroke-width="4"/>
<path fill-rule="evenodd" clip-rule="evenodd" d="M24.4594 45.2155H101.59V42.9549H24.4594V45.2155Z" stroke="white" stroke-width="4"/>
<path fill-rule="evenodd" clip-rule="evenodd" d="M29.4371 63.096C29.4566 64.1458 30.2404 65.025 31.2815 65.1643C34.5678 65.6041 43.2122 66.3707 63.5399 66.3707C83.9124 66.3707 92.5502 65.6006 95.82 65.1615C96.8564 65.0222 97.6369 64.1516 97.6644 63.107C97.74 60.2534 97.6432 54.004 96.0669 44.9467C94.6766 36.959 93.2504 32.3413 92.3803 30.0087C91.9286 28.7984 90.8292 27.9484 89.544 27.8096C85.6191 27.3862 76.1744 26.5372 63.5399 26.5372C50.9549 26.5372 41.5347 27.3796 37.5822 27.8047C36.2805 27.9448 35.1753 28.8135 34.7278 30.043C33.8417 32.4781 32.3668 37.2453 31.0159 44.9299C29.4945 53.5831 29.3818 60.1218 29.4371 63.096Z" stroke="white" stroke-width="4"/>
<path fill-rule="evenodd" clip-rule="evenodd" d="M99.1756 80.5775L95.8351 77.5286C97.575 75.6246 99.0524 73.5513 100.227 71.366C101.281 69.4035 101.844 67.1901 101.858 64.9652C101.881 60.9583 101.573 54.2509 99.9714 45.049C98.3797 35.9044 96.438 30.0759 95.089 26.7967C94.7126 25.8796 93.8634 25.2483 92.8726 25.148C88.0009 24.657 77.71 23.8333 63.5376 23.8333C49.4068 23.835 39.0639 24.6532 34.1565 25.1411C33.1415 25.2419 32.2815 25.8983 31.9123 26.8539C30.5636 30.3454 28.6348 36.3338 27.1049 45.0328C25.4763 54.3003 25.2443 61.5026 25.2512 64.971C25.2536 67.2217 25.8128 69.445 26.8682 71.402C27.9981 73.4967 29.4068 75.4897 31.0557 77.3261L27.6888 80.3458C25.8013 78.2438 24.1853 75.9565 22.8861 73.5472C21.4771 70.9344 20.7305 67.9715 20.7272 64.9778C20.7187 60.5613 21.0453 53.3783 22.6491 44.2506C24.2422 35.1922 26.2708 28.9049 27.6921 25.2257C28.6793 22.6692 30.9848 20.913 33.7083 20.6419C38.6997 20.1459 49.211 19.3137 63.5374 19.3121C77.9079 19.3121 88.3701 20.1503 93.3276 20.6498C95.9841 20.9185 98.2623 22.6159 99.2737 25.079C100.708 28.5656 102.767 34.7271 104.428 44.274C106.088 53.8047 106.406 60.8011 106.381 64.9916C106.364 67.9509 105.614 70.8945 104.213 73.5046C102.862 76.0186 101.167 78.3982 99.1756 80.5775Z" stroke="white" stroke-width="4"/>
<path fill-rule="evenodd" clip-rule="evenodd" d="M77.2269 37.2016C72.0766 37.5032 74.3196 57.5697 74.8293 57.54C75.3388 57.5101 74.9231 43.7524 77.6018 43.5952C80.2803 43.4386 81.4759 57.1504 81.9856 57.1208C82.495 57.0908 82.3771 36.8999 77.2269 37.2016Z" stroke="white" stroke-width="4"/>
<path fill-rule="evenodd" clip-rule="evenodd" d="M51.1628 36.9742C56.3028 37.4176 53.507 57.4148 52.9984 57.3709C52.4898 57.3269 53.2848 43.5857 50.6116 43.3552C47.9383 43.1247 46.365 56.7986 45.8564 56.7546C45.3481 56.7106 46.0227 36.5307 51.1628 36.9742Z" stroke="white" stroke-width="4"/>
<path fill-rule="evenodd" clip-rule="evenodd" d="M59.605 18.7834C59.6938 16.5101 61.6099 14.7391 63.8846 14.8281C66.1595 14.9169 67.9313 16.8319 67.8425 19.1051C67.7534 21.3784 65.8373 23.1494 63.5626 23.0604C61.288 22.9717 59.5162 21.0567 59.605 18.7834Z" stroke="white" stroke-width="4"/>
<path fill-rule="evenodd" clip-rule="evenodd" d="M37.1119 94.0964C35.5768 89.7304 36.6473 86.1884 37.816 83.986C39.0724 81.6171 40.6974 80.2698 40.7658 80.2137L42.2031 81.9594C41.9829 82.1422 36.8423 86.5106 39.2461 93.3469L37.1119 94.0964Z" stroke="white" stroke-width="4"/>
<path fill-rule="evenodd" clip-rule="evenodd" d="M28.135 89.0181C26.2051 84.3117 29.3693 80.1776 31.3121 78.6492L32.7139 80.4235C32.7027 80.4323 31.5873 81.3288 30.7389 82.7668C29.6728 84.5733 29.501 86.388 30.2282 88.1609L28.135 89.0181Z" stroke="white" stroke-width="4"/>
<path fill-rule="evenodd" clip-rule="evenodd" d="M16.2102 71.5908C13.447 70.5593 10.3705 71.9619 9.3387 74.7234C8.30667 77.4849 9.71011 80.5596 12.4733 81.5907C15.2364 82.6221 18.313 81.2196 19.3447 78.4583C20.3768 75.6966 18.9733 72.6219 16.2102 71.5908Z" stroke="white" stroke-width="4"/>
<path fill-rule="evenodd" clip-rule="evenodd" d="M18.092 76.5892C15.9037 75.2459 12.6968 70.9742 12.3678 66.4466C12.2702 65.1039 12.4258 63.7991 12.8304 62.5685L15.6959 63.5098C15.4144 64.3651 15.3069 65.2797 15.3759 66.2285C15.6335 69.7721 18.3084 73.1848 19.6703 74.0206L18.092 76.5892Z" stroke="white" stroke-width="4"/>
<path fill-rule="evenodd" clip-rule="evenodd" d="M48.3341 98.7579C29.7232 96.1914 18.1133 84.5018 15.2102 80.2141C14.1787 78.6892 14.2538 76.6945 15.3966 75.2496C16.5394 73.8053 18.4644 73.272 20.1859 73.9229C30.5499 77.8391 49.5481 79.661 49.7386 79.6791L49.3149 84.1803C49.1145 84.1616 44.3343 83.7077 38.1493 82.7442C30.361 81.5309 24.1191 80.1083 19.5706 78.5106C22.8677 82.6755 33.2231 92.1101 48.9523 94.2789L48.3341 98.7579Z" stroke="white" stroke-width="4"/>
<path fill-rule="evenodd" clip-rule="evenodd" d="M90.7852 94.0964L88.651 93.3469C91.0697 86.4683 85.751 82.0059 85.6968 81.9616L87.1313 80.2137C87.1998 80.2698 88.8248 81.6171 90.0814 83.986C91.2498 86.1884 92.3203 89.7304 90.7852 94.0964Z" stroke="white" stroke-width="4"/>
<path fill-rule="evenodd" clip-rule="evenodd" d="M99.7622 89.0183L97.669 88.1611C98.3961 86.3881 98.2243 84.5732 97.1582 82.767C96.3098 81.3289 95.1945 80.4322 95.1835 80.4234L96.585 78.649C98.5278 80.1775 101.692 84.3119 99.7622 89.0183Z" stroke="white" stroke-width="4"/>
<path fill-rule="evenodd" clip-rule="evenodd" d="M111.687 71.5908C114.45 70.5593 117.527 71.9619 118.559 74.7234C119.59 77.4849 118.187 80.5596 115.424 81.5907C112.661 82.6221 109.584 81.2196 108.552 78.4583C107.52 75.6966 108.924 72.6219 111.687 71.5908Z" stroke="white" stroke-width="4"/>
<path fill-rule="evenodd" clip-rule="evenodd" d="M109.805 76.5892L108.227 74.0206C109.589 73.1848 112.264 69.7721 112.521 66.2285C112.59 65.2797 112.483 64.3651 112.201 63.5098L115.067 62.5685C115.471 63.7991 115.627 65.1039 115.53 66.4466C115.2 70.9742 111.994 75.2459 109.805 76.5892Z" stroke="white" stroke-width="4"/>
<path fill-rule="evenodd" clip-rule="evenodd" d="M79.5631 98.7579L78.9448 94.2789C94.6727 92.1104 105.028 82.6766 108.327 78.5106C103.778 80.1083 97.5356 81.5309 89.7478 82.7442C83.5628 83.7077 78.7826 84.1616 78.5822 84.1803L78.1586 79.6791C78.3491 79.661 97.3473 77.8391 107.712 73.9226C109.433 73.272 111.357 73.805 112.501 75.2496C113.643 76.6943 113.718 78.6892 112.688 80.2135C109.784 84.5018 98.1737 96.1914 79.5631 98.7579Z" stroke="white" stroke-width="4"/>
<path fill-rule="evenodd" clip-rule="evenodd" d="M11.3501 72.1912L13.2604 75.6552C13.2604 75.6552 8.20889 77.4114 7.72036 77.1059C7.23184 76.8001 5.99005 74.0702 6.53603 73.7768L11.3501 72.1912Z" stroke="white" stroke-width="4"/>
<path fill-rule="evenodd" clip-rule="evenodd" d="M116.509 72.1912L114.599 75.6552C114.599 75.6552 119.651 77.4114 120.139 77.1059C120.628 76.8001 121.869 74.0702 121.323 73.7768L116.509 72.1912Z" stroke="white" stroke-width="4"/>
<mask id="mask0_31_6120" style="mask-type:luminance" maskUnits="userSpaceOnUse" x="19" y="37" width="90" height="87">
<path fill-rule="evenodd" clip-rule="evenodd" d="M19.5706 37.855H108.327V123.104H19.5706V37.855Z" fill="white"/>
</mask>
<g mask="url(#mask0_31_6120)">
<path fill-rule="evenodd" clip-rule="evenodd" d="M62.5682 37.855C49.7853 37.855 19.5706 68.208 19.5706 91.8402C19.5706 108.869 35.8787 123.104 63.4496 123.104C91.0204 123.104 108.327 107.993 108.327 91.8402C108.327 71.3775 86.4846 37.855 62.5682 37.855Z" fill="#94EDB8"/>
</g>
<path fill-rule="evenodd" clip-rule="evenodd" d="M52.9032 24.4427C47.3464 22.2758 50.0985 16.7149 53.1407 13.5863C56.4243 10.2091 61.0044 7.73092 65.8382 8.40845C70.559 9.07032 77.8151 18.4016 76.992 23.727C76.0796 29.6286 62.3712 28.135 52.9032 24.4427Z" fill="#94EDB8"/>
<path fill-rule="evenodd" clip-rule="evenodd" d="M16.412 76.5908C16.412 76.5908 22.8266 86.2537 27.775 89.0182C32.7235 91.7827 44.2699 95.744 44.2699 95.744C44.2699 95.744 47.1441 96.354 47.7522 97.4609C48.3603 98.5679 54.7166 106.07 55.8162 107.535C56.9159 109 59.2986 110.832 61.3145 110.832C63.3307 110.832 69.9287 108.634 70.2951 108.084C70.6616 107.535 76.8931 100.391 77.4429 99.8419C77.9927 99.2924 81.6584 97.0414 82.9412 96.5185C84.2242 95.9954 91.7384 92.6984 93.5713 91.966C95.4039 91.2332 106.584 85.6935 108.417 83.06C110.249 80.4266 115.515 76.8431 111.892 76.3337C108.27 75.824 100.364 78.6492 100.364 78.6492C100.364 78.6492 104.018 70.9019 104.018 67.6049C104.018 64.308 101.59 42.6944 101.59 42.6944C101.59 42.6944 100.749 25.6601 95.7855 24.3781C90.8222 23.0959 93.9378 21.4474 84.774 21.9969C75.6101 22.5464 31.2425 23.8286 31.2425 23.8286C31.2425 23.8286 26.4923 38.665 25.7591 42.8777C25.0259 47.0904 23.3764 62.8427 23.5598 65.5902C23.7431 68.3377 26.6754 78.0453 26.6754 78.0453L16.412 76.5908Z" fill="white"/>
<path fill-rule="evenodd" clip-rule="evenodd" d="M34.1863 79.7874C34.1863 79.7874 32.5214 74.998 31.7676 73.491C31.0135 71.9838 30.1087 70.4768 36.5931 70.4768C43.0775 70.4768 88.1667 70.326 92.3892 69.7232C96.6116 69.1204 97.2147 70.326 95.4052 73.491C93.5955 76.6559 91.786 80.4235 91.786 80.4235L78.8172 81.9296C78.8172 81.9296 74.8964 78.1629 71.7294 76.8064C68.5626 75.45 60.2687 74.2444 58.3083 75.6008C56.3479 76.9573 53.0303 79.067 52.4271 79.8207C51.8239 80.5743 48.9492 81.8722 48.9492 81.8722L34.1863 79.7874Z" fill="#D5E4EC"/>
<path fill-rule="evenodd" clip-rule="evenodd" d="M46.6968 86.9039C46.6968 86.9039 28.2992 82.5335 24.68 79.2178C21.0608 75.9022 18.0447 76.3544 18.0447 76.3544C18.0447 76.3544 24.3781 87.2611 25.7354 88.5898C27.0927 89.9182 36.4422 95.4944 36.8947 95.7958C37.3472 96.0972 47.4426 96.5184 47.4426 96.5184L46.6968 86.9039Z" fill="#D5E4EC"/>
<path fill-rule="evenodd" clip-rule="evenodd" d="M81.0709 86.9039C81.0709 86.9039 99.4684 82.5335 103.088 79.2178C106.707 75.9022 109.723 76.3544 109.723 76.3544C109.723 76.3544 103.389 87.2611 102.032 88.5898C100.675 89.9182 91.3252 95.4944 90.873 95.7958C90.4205 96.0972 80.3251 96.5184 80.3251 96.5184L81.0709 86.9039Z" fill="#D5E4EC"/>
<path fill-rule="evenodd" clip-rule="evenodd" d="M48.4714 92.949L47.3682 90.9755C53.0985 87.7764 60.4829 86.6449 68.7238 87.7038C74.9036 88.4976 79.3445 90.2117 79.5309 90.2843L78.7086 92.3902C78.7086 92.3902 78.7084 92.3902 78.7081 92.3899C78.6385 92.363 74.2784 90.6895 68.379 89.9386C62.9863 89.2523 55.1551 89.2174 48.4714 92.949Z" fill="#89A1B1"/>
<path fill-rule="evenodd" clip-rule="evenodd" d="M58.7913 88.2717C58.7913 91.7742 60.7434 94.6137 63.1514 94.6137C65.5594 94.6137 67.5115 91.7742 67.5115 88.2717C67.5115 84.769 65.5594 81.9297 63.1514 81.9297C60.7434 81.9297 58.7913 84.769 58.7913 88.2717Z" fill="#2CABE3"/>
<path fill-rule="evenodd" clip-rule="evenodd" d="M63.1513 83.06C61.4009 83.06 59.9222 85.4467 59.9222 88.2717C59.9222 91.0966 61.4009 93.4834 63.1513 93.4834C64.9017 93.4834 66.3804 91.0966 66.3804 88.2717C66.3804 85.4467 64.9017 83.06 63.1513 83.06ZM63.1513 95.744C60.0723 95.744 57.6602 92.4619 57.6602 88.2717C57.6602 84.0815 60.0723 80.7994 63.1513 80.7994C66.2303 80.7994 68.6424 84.0815 68.6424 88.2717C68.6424 92.4619 66.2303 95.744 63.1513 95.744Z" fill="#28313B"/>
<path fill-rule="evenodd" clip-rule="evenodd" d="M63.504 77.2651C58.6284 77.2651 54.9753 78.4836 52.646 80.8865C50.2149 83.395 49.7047 86.7414 49.7047 89.1072C49.7047 93.79 51.1763 98.1269 54.0788 101.998C56.9269 105.796 60.1217 107.778 61.033 108.295C62.1558 108.931 63.5117 109.044 64.7523 108.606C66.7001 107.917 69.7434 105.984 72.4428 102.628C74.5849 99.9644 77.2384 95.4418 77.7423 89.0031C77.7228 85.9454 76.6069 83.143 74.5954 81.1038C72.1178 78.5927 68.2825 77.2651 63.504 77.2651ZM63.2244 113.39C61.686 113.39 60.1613 112.998 58.8007 112.227C57.6964 111.601 53.8319 109.208 50.4585 104.709C46.9563 100.039 45.1807 94.7893 45.1807 89.1072C45.1807 84.5168 46.6385 80.5865 49.3967 77.7407C52.6105 74.425 57.3569 72.7438 63.504 72.7438C69.521 72.7438 74.4703 74.5371 77.8171 77.9297C80.6864 80.8387 82.2668 84.8009 82.2668 89.0861L82.2605 89.2553C81.8061 95.3042 79.6304 100.908 75.9688 105.461C73.1721 108.938 69.5433 111.707 66.2616 112.868C65.273 113.217 64.2457 113.39 63.2244 113.39Z" fill="#28313B"/>
<path fill-rule="evenodd" clip-rule="evenodd" d="M24.4595 45.2155H101.59V42.9549H24.4595V45.2155Z" fill="#89A1B1"/>
<path fill-rule="evenodd" clip-rule="evenodd" d="M29.437 63.096C29.4565 64.1458 30.2403 65.025 31.2814 65.1642C34.5677 65.6041 43.2121 66.3707 63.5398 66.3707C83.9124 66.3707 92.5502 65.6005 95.82 65.1615C96.8564 65.0222 97.6369 64.1515 97.6644 63.1069C97.74 60.2534 97.6432 54.004 96.0669 44.9467C94.6766 36.959 93.2504 32.3413 92.3803 30.0087C91.9286 28.7984 90.8292 27.9483 89.544 27.8096C85.619 27.3862 76.1743 26.5372 63.5398 26.5372C50.9548 26.5372 41.5346 27.3796 37.5822 27.8046C36.2805 27.9448 35.1753 28.8135 34.7277 30.043C33.8417 32.4781 32.3668 37.2452 31.0159 44.9299C29.4945 53.5831 29.3818 60.1218 29.437 63.096Z" fill="#343A4C"/>
<path fill-rule="evenodd" clip-rule="evenodd" d="M99.1756 80.5775L95.8351 77.5286C97.575 75.6246 99.0524 73.5513 100.227 71.366C101.281 69.4035 101.844 67.1901 101.858 64.9652C101.881 60.9583 101.573 54.2509 99.9715 45.049C98.3797 35.9043 96.438 30.0759 95.089 26.7967C94.7126 25.8796 93.8634 25.2483 92.8726 25.148C88.0009 24.657 77.71 23.8333 63.5377 23.8333C49.4068 23.835 39.064 24.6532 34.1565 25.1411C33.1415 25.2419 32.2816 25.8983 31.9124 26.8539C30.5636 30.3454 28.6348 36.3338 27.1049 45.0328C25.4764 54.3003 25.2443 61.5026 25.2512 64.971C25.2537 67.2217 25.8128 69.445 26.8682 71.402C27.9981 73.4967 29.4068 75.4897 31.0557 77.3261L27.6889 80.3458C25.8013 78.2438 24.1854 75.9565 22.8861 73.5472C21.4772 70.9344 20.7305 67.9715 20.7272 64.9778C20.7187 60.5613 21.0453 53.3783 22.6491 44.2506C24.2423 35.1922 26.2709 28.9049 27.6922 25.2257C28.6794 22.6692 30.9848 20.913 33.7084 20.6419C38.6997 20.1459 49.2111 19.3137 63.5374 19.3121C77.908 19.3121 88.3701 20.1503 93.3276 20.6498C95.9841 20.9185 98.2623 22.6159 99.2737 25.079C100.708 28.5656 102.767 34.7271 104.428 44.274C106.088 53.8047 106.406 60.8011 106.381 64.9916C106.364 67.9509 105.614 70.8945 104.213 73.5046C102.862 76.0186 101.167 78.3982 99.1756 80.5775Z" fill="#28313B"/>
<path fill-rule="evenodd" clip-rule="evenodd" d="M77.2269 37.2016C72.0767 37.5033 74.3197 57.5697 74.8294 57.54C75.3388 57.5101 74.9231 43.7524 77.6019 43.5952C80.2804 43.4386 81.476 57.1505 81.9857 57.1208C82.4951 57.0908 82.3772 36.8999 77.2269 37.2016Z" fill="#2CABE3"/>
<path fill-rule="evenodd" clip-rule="evenodd" d="M51.1628 36.9742C56.3029 37.4176 53.507 57.4148 52.9984 57.3709C52.4898 57.3269 53.2849 43.5857 50.6116 43.3552C47.9384 43.1247 46.365 56.7986 45.8564 56.7546C45.3481 56.7107 46.0227 36.5307 51.1628 36.9742Z" fill="#2CABE3"/>
<path fill-rule="evenodd" clip-rule="evenodd" d="M59.605 18.7834C59.6938 16.5102 61.61 14.7391 63.8846 14.8282C66.1595 14.9169 67.9313 16.8319 67.8425 19.1052C67.7535 21.3784 65.8373 23.1494 63.5627 23.0604C61.288 22.9717 59.5162 21.0567 59.605 18.7834Z" fill="#28313B"/>
<path fill-rule="evenodd" clip-rule="evenodd" d="M37.1119 94.0964C35.5768 89.7304 36.6473 86.1884 37.816 83.986C39.0723 81.6171 40.6974 80.2698 40.7658 80.2137L42.2031 81.9595C41.9829 82.1422 36.8422 86.5107 39.2461 93.3469L37.1119 94.0964Z" fill="#89A1B1"/>
<path fill-rule="evenodd" clip-rule="evenodd" d="M28.135 89.0182C26.2051 84.3117 29.3694 80.1776 31.3122 78.6492L32.714 80.4235C32.7027 80.4323 31.5874 81.3288 30.739 82.7668C29.6729 84.5733 29.5011 86.388 30.2282 88.161L28.135 89.0182Z" fill="#89A1B1"/>
<path fill-rule="evenodd" clip-rule="evenodd" d="M16.2101 71.5908C13.447 70.5594 10.3704 71.9619 9.33865 74.7234C8.30662 77.4849 9.71006 80.5596 12.4732 81.5908C15.2364 82.6222 18.3129 81.2196 19.3447 78.4584C20.3767 75.6966 18.9733 72.6219 16.2101 71.5908Z" fill="#28313B"/>
<path fill-rule="evenodd" clip-rule="evenodd" d="M18.092 76.5892C15.9037 75.2459 12.6968 70.9742 12.3677 66.4466C12.2701 65.1039 12.4257 63.7991 12.8304 62.5685L15.6958 63.5098C15.4143 64.3651 15.3068 65.2797 15.3758 66.2285C15.6334 69.7721 18.3083 73.1848 19.6703 74.0206L18.092 76.5892Z" fill="#28313B"/>
<path fill-rule="evenodd" clip-rule="evenodd" d="M48.3341 98.7579C29.7232 96.1915 18.1133 84.5018 15.2102 80.2141C14.1787 78.6892 14.2538 76.6945 15.3966 75.2497C16.5394 73.8053 18.4644 73.272 20.1859 73.9229C30.5499 77.8391 49.5481 79.661 49.7386 79.6791L49.315 84.1803C49.1145 84.1616 44.3343 83.7078 38.1493 82.7442C30.361 81.5309 24.1191 80.1083 19.5706 78.5106C22.8677 82.6755 33.2231 92.1101 48.9524 94.2789L48.3341 98.7579Z" fill="#28313B"/>
<path fill-rule="evenodd" clip-rule="evenodd" d="M90.7852 94.0964L88.651 93.3469C91.0697 86.4683 85.7509 82.0059 85.6968 81.9617L87.1313 80.2137C87.1997 80.2698 88.8247 81.6171 90.0814 83.986C91.2498 86.1884 92.3203 89.7304 90.7852 94.0964Z" fill="#89A1B1"/>
<path fill-rule="evenodd" clip-rule="evenodd" d="M99.7622 89.0183L97.669 88.1611C98.3961 86.3881 98.2243 84.5732 97.1582 82.767C96.3098 81.3289 95.1945 80.4322 95.1835 80.4234L96.585 78.649C98.5278 80.1775 101.692 84.3119 99.7622 89.0183Z" fill="#89A1B1"/>
<path fill-rule="evenodd" clip-rule="evenodd" d="M111.687 71.5908C114.45 70.5594 117.527 71.9619 118.559 74.7234C119.59 77.4849 118.187 80.5596 115.424 81.5908C112.661 82.6222 109.584 81.2196 108.552 78.4584C107.52 75.6966 108.924 72.6219 111.687 71.5908Z" fill="#28313B"/>
<path fill-rule="evenodd" clip-rule="evenodd" d="M109.805 76.5892L108.227 74.0206C109.589 73.1848 112.264 69.7721 112.521 66.2285C112.59 65.2797 112.483 64.3651 112.201 63.5098L115.067 62.5685C115.471 63.7991 115.627 65.1039 115.529 66.4466C115.2 70.9742 111.994 75.2459 109.805 76.5892Z" fill="#28313B"/>
<path fill-rule="evenodd" clip-rule="evenodd" d="M79.5631 98.7579L78.9448 94.279C94.6727 92.1104 105.028 82.6767 108.327 78.5107C103.778 80.1083 97.5356 81.531 89.7478 82.7442C83.5628 83.7078 78.7826 84.1617 78.5822 84.1803L78.1586 79.6792C78.3491 79.661 97.3473 77.8392 107.712 73.9226C109.433 73.272 111.357 73.8051 112.501 75.2497C113.643 76.6943 113.718 78.6892 112.688 80.2135C109.784 84.5018 98.1737 96.1915 79.5631 98.7579Z" fill="#28313B"/>
<path fill-rule="evenodd" clip-rule="evenodd" d="M11.3501 72.1912L13.2604 75.6552C13.2604 75.6552 8.20889 77.4114 7.72036 77.1059C7.23184 76.8001 5.99005 74.0702 6.53603 73.7768L11.3501 72.1912Z" fill="#28313B"/>
<path fill-rule="evenodd" clip-rule="evenodd" d="M116.509 72.1912L114.599 75.6552C114.599 75.6552 119.651 77.4114 120.139 77.1059C120.628 76.8001 121.869 74.0702 121.323 73.7768L116.509 72.1912Z" fill="#28313B"/>
<path fill-rule="evenodd" clip-rule="evenodd" d="M88.3216 14.6234C88.1154 14.6336 87.9199 14.635 87.7374 14.6284C87.6544 14.6253 87.5911 14.5531 87.5961 14.4701L87.6783 13.1346L87.7525 11.7891C87.7569 11.7105 87.8215 11.6493 87.9002 11.6482C88.2366 11.6441 89.1356 11.5921 90.089 11.1979C91.5395 10.5978 92.5036 9.45734 92.9572 7.80666C92.9786 7.72835 93.0578 7.68055 93.1364 7.70033L95.738 8.3567C95.8185 8.37703 95.8677 8.46055 95.8463 8.54078C94.607 13.1568 90.7351 14.5044 88.3216 14.6234Z" fill="#FFDB31"/>
<path fill-rule="evenodd" clip-rule="evenodd" d="M68.0486 72.5706C67.8642 72.6635 67.686 72.7434 67.5167 72.8113C67.4394 72.8423 67.3523 72.802 67.3231 72.7242L66.8572 71.4694L66.3796 70.2094C66.3519 70.1358 66.386 70.0537 66.4574 70.021C66.7637 69.8808 67.5645 69.4695 68.2765 68.7231C69.3594 67.5875 69.779 66.1544 69.5247 64.4617C69.5126 64.3815 69.5653 64.3057 69.6453 64.2919L72.29 63.8391C72.3719 63.8251 72.4508 63.8815 72.4638 63.9636C73.2011 68.6857 70.207 71.4851 68.0486 72.5706Z" fill="#FFDB31"/>
<path fill-rule="evenodd" clip-rule="evenodd" d="M100.517 115.432C100.443 115.625 100.365 115.804 100.286 115.968C100.25 116.043 100.158 116.072 100.084 116.034L98.8938 115.421L97.6914 114.812C97.621 114.776 97.591 114.692 97.6218 114.62C97.7535 114.31 98.0677 113.467 98.0903 112.436C98.1246 110.868 97.4684 109.526 96.1389 108.447C96.0757 108.396 96.0639 108.305 96.1136 108.24L97.762 106.125C97.8134 106.059 97.9096 106.047 97.9742 106.1C101.703 109.092 101.379 113.176 100.517 115.432Z" fill="#FFDB31"/>
<path fill-rule="evenodd" clip-rule="evenodd" d="M19.0274 44.2103C19.1121 44.3988 19.1841 44.5801 19.2446 44.7521C19.2721 44.8307 19.2278 44.9158 19.1486 44.9414L17.8739 45.351L16.593 45.7719C16.5183 45.7964 16.438 45.7588 16.4083 45.686C16.2816 45.3741 15.906 44.5562 15.1913 43.8124C14.1042 42.6808 12.6904 42.1986 10.9867 42.3774C10.9059 42.386 10.8328 42.3299 10.8226 42.2494L10.4872 39.5888C10.4765 39.5063 10.5364 39.4302 10.6192 39.4209C15.3722 38.8939 18.0377 42.0071 19.0274 44.2103Z" fill="#FFDB31"/>
<path fill-rule="evenodd" clip-rule="evenodd" d="M38.6557 92.1142C38.5818 92.3071 38.5045 92.4862 38.4251 92.6505C38.3888 92.7255 38.2972 92.7544 38.2233 92.7162L37.0329 92.1032L35.8304 91.4938C35.7601 91.4584 35.7301 91.3746 35.7609 91.302C35.8926 90.9924 36.2068 90.1495 36.2293 89.1183C36.2637 87.5498 35.6075 86.2085 34.278 85.1293C34.215 85.0782 34.2029 84.9867 34.2527 84.9227L35.9011 82.8068C35.9525 82.7412 36.0487 82.7296 36.1133 82.7818C39.8423 85.7738 39.5184 89.8585 38.6557 92.1142Z" fill="#FFDB31"/>
<path fill-rule="evenodd" clip-rule="evenodd" d="M114.041 56.9991C113.967 57.1919 113.889 57.3711 113.81 57.5354C113.774 57.6104 113.682 57.6392 113.608 57.601L112.418 56.9881L111.215 56.3787C111.145 56.3433 111.115 56.2595 111.146 56.1869C111.277 55.8773 111.592 55.0344 111.614 54.0032C111.649 52.4347 110.992 51.0934 109.663 50.0142C109.6 49.9631 109.588 49.8716 109.638 49.8076L111.286 47.6917C111.337 47.6261 111.434 47.6145 111.498 47.6667C115.227 50.6587 114.903 54.7434 114.041 56.9991Z" fill="#FFDB31"/>
<path fill-rule="evenodd" clip-rule="evenodd" d="M17.1999 21.6468C16.5115 22.3416 16.0991 23.0461 15.94 23.3456C15.9001 23.4203 15.9314 23.5126 16.0081 23.5489L17.2158 24.1239L18.429 24.7119C18.4997 24.746 18.5838 24.7201 18.6231 24.6523C18.7578 24.4198 19.0949 23.8967 19.6139 23.4733C20.365 22.8612 21.1595 22.7161 22.1035 23.0211C22.1808 23.0461 22.2641 23.0079 22.2918 22.9318L23.2092 20.4121C23.2378 20.3338 23.1966 20.2456 23.1174 20.2189C21.1408 19.5499 19.1944 19.9154 17.6213 21.2556C17.471 21.3836 17.3305 21.5152 17.1999 21.6468Z" fill="#2CABE3"/>
<path fill-rule="evenodd" clip-rule="evenodd" d="M109.899 21.1713C110.39 22.0172 110.611 22.8027 110.69 23.1327C110.709 23.2151 110.656 23.2964 110.572 23.3124L109.259 23.564L107.936 23.8273C107.859 23.8424 107.784 23.7959 107.763 23.7207C107.692 23.4616 107.498 22.8703 107.102 22.3296C106.53 21.5479 105.798 21.207 104.807 21.2641C104.726 21.2688 104.655 21.2108 104.648 21.1303L104.396 18.4609C104.388 18.3779 104.451 18.3029 104.534 18.2971C106.616 18.1482 108.407 18.9928 109.59 20.6863C109.704 20.8482 109.806 21.0111 109.899 21.1713Z" fill="#2CABE3"/>
<path fill-rule="evenodd" clip-rule="evenodd" d="M19.0034 63.4239C18.0289 63.3398 17.258 63.0697 16.943 62.9444C16.8641 62.9131 16.828 62.8227 16.863 62.7452L17.4109 61.5256L17.9546 60.2926C17.9863 60.2209 18.0673 60.186 18.141 60.2123C18.3945 60.3025 18.9902 60.483 19.6602 60.4698C20.629 60.4503 21.3287 60.0469 21.8504 59.2035C21.8931 59.1345 21.9816 59.1098 22.0517 59.1499L24.3832 60.4764C24.4558 60.5176 24.4814 60.6115 24.4385 60.6833C23.3655 62.4721 21.6454 63.4527 19.5783 63.4494C19.3806 63.4489 19.1882 63.4398 19.0034 63.4239Z" fill="#2CABE3"/>
<path fill-rule="evenodd" clip-rule="evenodd" d="M86.0222 101.23C85.3938 101.979 84.7302 102.455 84.4464 102.641C84.3755 102.687 84.2809 102.665 84.2375 102.592L83.553 101.443L82.8547 100.29C82.8143 100.223 82.8321 100.137 82.8959 100.092C83.1153 99.9362 83.6052 99.5526 83.9791 98.9965C84.5196 98.1926 84.5908 97.3887 84.1993 96.4774C84.1674 96.4029 84.1976 96.3164 84.271 96.2817L86.6963 95.1355C86.7719 95.1 86.8635 95.133 86.8976 95.2091C87.7468 97.1142 87.5629 99.085 86.373 100.774C86.2595 100.936 86.1416 101.088 86.0222 101.23Z" fill="#2CABE3"/>
<path fill-rule="evenodd" clip-rule="evenodd" d="M56.5658 9.63535C57.5417 9.70403 58.3453 9.55732 58.676 9.48259C58.7588 9.4639 58.8083 9.38011 58.786 9.29823L58.4349 8.00829L58.0899 6.70544C58.0699 6.62988 57.9954 6.5829 57.9184 6.59719C57.6539 6.64692 57.0373 6.73264 56.3775 6.61505C55.4235 6.44498 54.7956 5.93779 54.4116 5.02316C54.3802 4.94843 54.2967 4.91024 54.2211 4.93881L51.7111 5.88614C51.633 5.91582 51.5932 6.00456 51.6245 6.08176C52.4055 8.01598 53.9516 9.25262 55.994 9.57105C56.1894 9.60128 56.3808 9.62243 56.5658 9.63535Z" fill="#2CABE3"/>
<path fill-rule="evenodd" clip-rule="evenodd" d="M41.3021 103.331C42.2781 103.262 43.0814 103.409 43.4124 103.483C43.4951 103.502 43.5446 103.586 43.5223 103.668L43.1713 104.958L42.8263 106.261C42.8062 106.336 42.7314 106.383 42.6544 106.369C42.3902 106.319 41.7736 106.233 41.1138 106.351C40.1599 106.521 39.532 107.028 39.1479 107.943C39.1163 108.018 39.033 108.056 38.9571 108.027L36.4474 107.08C36.3694 107.05 36.3295 106.961 36.3606 106.884C37.1416 104.95 38.688 103.713 40.7303 103.395C40.9255 103.365 41.1171 103.344 41.3021 103.331Z" fill="#2CABE3"/>
<path fill-rule="evenodd" clip-rule="evenodd" d="M18.056 98.3173L19.0759 95.8366C19.1064 95.7622 19.19 95.7248 19.2653 95.7536C20.3501 96.168 23.0272 96.9013 24.6157 96.146C24.6883 96.1114 24.7749 96.1364 24.8136 96.2067L26.1065 98.5574C26.1467 98.6308 26.1197 98.7242 26.0452 98.7624C23.0863 100.279 19.0509 98.8671 18.1401 98.5129C18.0623 98.4827 18.0243 98.3945 18.056 98.3173Z" fill="#E94C35"/>
<path fill-rule="evenodd" clip-rule="evenodd" d="M60.2495 112.206L58.4626 114.207C58.4087 114.267 58.4117 114.358 58.4705 114.413C59.3173 115.208 61.1468 117.294 61.1609 119.052C61.1617 119.132 61.2219 119.199 61.3022 119.203L63.9829 119.338C64.0664 119.343 64.1385 119.277 64.1404 119.194C64.2127 115.871 61.179 112.86 60.4623 112.196C60.401 112.139 60.3053 112.144 60.2495 112.206Z" fill="#E94C35"/>
<path fill-rule="evenodd" clip-rule="evenodd" d="M75.6376 14.7369L73.3753 16.1794C73.3071 16.2228 73.2854 16.3112 73.3272 16.3805C73.9273 17.374 75.1235 19.8775 74.6608 21.5735C74.6399 21.6512 74.6795 21.7317 74.7556 21.7576L77.2997 22.6129C77.3789 22.6395 77.4663 22.5961 77.4905 22.5164C78.4601 19.3373 76.3551 15.6181 75.8451 14.785C75.8014 14.7139 75.7079 14.6919 75.6376 14.7369Z" fill="#E94C35"/>
<path fill-rule="evenodd" clip-rule="evenodd" d="M34.6408 5.71081L36.3172 7.80521C36.3675 7.86813 36.3595 7.95907 36.2977 8.01099C35.4091 8.75803 33.4693 10.7425 33.3602 12.4973C33.3553 12.5776 33.2915 12.641 33.2112 12.6408L30.5269 12.6309C30.4434 12.6306 30.3746 12.5616 30.3777 12.4781C30.4852 9.15669 33.6775 6.31388 34.4288 5.68965C34.4931 5.63635 34.5885 5.64569 34.6408 5.71081Z" fill="#E94C35"/>
<path fill-rule="evenodd" clip-rule="evenodd" d="M97.7879 97.6254L98.9464 95.2062C98.9813 95.1337 99.0665 95.1013 99.1402 95.1342C100.2 95.609 102.831 96.4923 104.46 95.828C104.535 95.7975 104.62 95.8272 104.654 95.8997L105.812 98.3197C105.848 98.3952 105.816 98.487 105.739 98.5208C102.699 99.8679 98.7501 98.2304 97.861 97.8254C97.7849 97.7908 97.7519 97.7007 97.7879 97.6254Z" fill="#E94C35"/>
<path fill-rule="evenodd" clip-rule="evenodd" d="M106.369 35.2092L107.171 37.7682C107.195 37.8454 107.155 37.9273 107.079 37.9531C105.979 38.3276 103.452 39.4741 102.713 41.0699C102.68 41.1429 102.597 41.1792 102.522 41.1495L100.024 40.1679C99.9464 40.1374 99.9076 40.0481 99.9404 39.9714C101.246 36.9146 105.252 35.4222 106.179 35.1125C106.258 35.0861 106.344 35.1296 106.369 35.2092Z" fill="#E94C35"/>
<path fill-rule="evenodd" clip-rule="evenodd" d="M43.8968 53.601L46.4895 54.2933C46.5673 54.3139 46.6148 54.392 46.5959 54.4703C46.3243 55.5986 45.9405 58.3461 46.8939 59.8234C46.9376 59.8913 46.9238 59.98 46.859 60.0276L44.6924 61.6107C44.6247 61.6601 44.5285 61.6453 44.4812 61.5763C42.5964 58.8385 43.4789 54.6574 43.7134 53.7095C43.7337 53.6284 43.8162 53.5793 43.8968 53.601Z" fill="#E94C35"/>
</svg>
