<svg width="574" height="590" viewBox="0 0 574 590" fill="none" xmlns="http://www.w3.org/2000/svg">
<path opacity="0.4" d="M155.623 95.8611C156.116 95.3631 157.35 92.6246 154.635 90.8819C151.921 89.1392 148.712 87.6454 141.802 87.3965C136.274 87.1973 133.411 87.3135 132.67 87.3965C134.48 86.4836 137.508 84.3591 135.138 83.1641C132.769 81.9691 128.721 82.1683 126.994 82.4172C130.284 79.0148 135.879 71.1145 131.93 66.7329C126.994 61.2558 120.824 60.2599 115.641 60.2599C110.458 60.2599 100.339 60.5089 93.4289 61.7537C87.9947 62.7326 83.8641 64.1124 82.3967 64.7108C86.4665 63.0371 95.68 59.405 100.586 58.0193C105.522 56.6252 109.06 56.2766 110.211 56.2766C105.687 56.2766 94.9097 56.8243 87.9993 59.0152C79.3613 61.7537 65.0468 70.2183 60.3576 74.2016C56.6063 77.3883 51.0615 82.8322 48.758 85.1558C49.0871 81.9193 48.5606 75.546 43.822 75.9443C37.8988 76.4423 30.9884 82.4173 29.2608 84.4089C27.8787 86.0023 26.3814 88.3923 25.8055 89.3881H54.928C70.0651 90.135 100.833 91.4794 102.807 90.8819C105.275 90.135 148.712 94.1183 150.44 94.6162C151.822 95.0146 154.471 95.6121 155.623 95.8611Z" fill="#F99D9D"/>
<path opacity="0.4" d="M295.428 551.374C295.067 551.01 294.165 549.008 296.149 547.735C298.134 546.461 300.478 545.37 305.529 545.188C309.569 545.042 311.661 545.127 312.202 545.188C310.879 544.521 308.667 542.968 310.398 542.095C312.13 541.221 315.088 541.367 316.35 541.549C313.946 539.062 309.857 533.289 312.743 530.086C316.35 526.084 320.86 525.356 324.647 525.356C328.435 525.356 335.83 525.538 340.88 526.448C344.852 527.163 347.87 528.171 348.943 528.609C345.969 527.386 339.235 524.731 335.65 523.718C332.042 522.7 329.457 522.445 328.615 522.445C331.922 522.445 339.798 522.845 344.848 524.446C351.161 526.448 361.622 532.634 365.049 535.545C367.791 537.874 371.843 541.852 373.526 543.55C373.286 541.185 373.671 536.527 377.134 536.818C381.462 537.182 386.513 541.549 387.775 543.004C388.785 544.169 389.88 545.915 390.3 546.643H369.017C357.955 547.189 335.469 548.172 334.026 547.735C332.223 547.189 300.478 550.1 299.216 550.464C298.206 550.755 296.27 551.192 295.428 551.374Z" fill="#F99D9D"/>
<g opacity="0.3">
<mask id="path-3-outside-1_242_2982" maskUnits="userSpaceOnUse" x="9.70312" y="194.361" width="47" height="48" fill="black">
<rect fill="white" x="9.70312" y="194.361" width="47" height="48"/>
<path d="M51.8998 220.873H35.8382V236.935H30.568V220.873H14.5064V215.603H30.568V199.541H35.8382V215.603H51.8998V220.873Z"/>
</mask>
<path d="M51.8998 220.873V225.423H56.4502V220.873H51.8998ZM35.8382 220.873V216.323H31.2878V220.873H35.8382ZM35.8382 236.935V241.485H40.3886V236.935H35.8382ZM30.568 236.935H26.0176V241.485H30.568V236.935ZM30.568 220.873H35.1184V216.323H30.568V220.873ZM14.5064 220.873H9.95605V225.423H14.5064V220.873ZM14.5064 215.603V211.052H9.95605V215.603H14.5064ZM30.568 215.603V220.153H35.1184V215.603H30.568ZM30.568 199.541V194.991H26.0176V199.541H30.568ZM35.8382 199.541H40.3886V194.991H35.8382V199.541ZM35.8382 215.603H31.2878V220.153H35.8382V215.603ZM51.8998 215.603H56.4502V211.052H51.8998V215.603ZM51.8998 216.323H35.8382V225.423H51.8998V216.323ZM31.2878 220.873V236.935H40.3886V220.873H31.2878ZM35.8382 232.384H30.568V241.485H35.8382V232.384ZM35.1184 236.935V220.873H26.0176V236.935H35.1184ZM30.568 216.323H14.5064V225.423H30.568V216.323ZM19.0568 220.873V215.603H9.95605V220.873H19.0568ZM14.5064 220.153H30.568V211.052H14.5064V220.153ZM35.1184 215.603V199.541H26.0176V215.603H35.1184ZM30.568 204.092H35.8382V194.991H30.568V204.092ZM31.2878 199.541V215.603H40.3886V199.541H31.2878ZM35.8382 220.153H51.8998V211.052H35.8382V220.153ZM47.3494 215.603V220.873H56.4502V215.603H47.3494Z" fill="#F99D9D" mask="url(#path-3-outside-1_242_2982)"/>
</g>
<g opacity="0.3">
<mask id="path-5-inside-2_242_2982" fill="white">
<path d="M506.289 174.41C509.299 177.361 512.87 178.836 517.001 178.836C521.132 178.836 524.673 177.361 527.624 174.41C530.634 171.4 532.139 167.83 532.139 163.698C532.139 159.567 530.634 156.026 527.624 153.075C524.673 150.065 521.132 148.56 517.001 148.56C512.87 148.56 509.299 150.065 506.289 153.075C503.338 156.026 501.863 159.567 501.863 163.698C501.863 167.83 503.338 171.4 506.289 174.41ZM503.633 150.419C507.352 146.701 511.807 144.842 517.001 144.842C522.195 144.842 526.621 146.701 530.28 150.419C533.998 154.078 535.857 158.505 535.857 163.698C535.857 168.892 533.998 173.348 530.28 177.066C526.621 180.725 522.195 182.554 517.001 182.554C511.807 182.554 507.352 180.725 503.633 177.066C499.974 173.348 498.145 168.892 498.145 163.698C498.145 158.505 499.974 154.078 503.633 150.419Z"/>
</mask>
<path d="M506.289 174.41L503.424 177.219L503.452 177.248L503.48 177.275L506.289 174.41ZM527.624 153.075L524.759 155.884L524.787 155.913L524.815 155.941L527.624 153.075ZM530.28 150.419L527.42 153.234L527.442 153.257L527.465 153.279L530.28 150.419ZM503.633 177.066L500.773 179.881L500.796 179.903L500.819 179.926L503.633 177.066ZM503.48 177.275C507.223 180.945 511.796 182.849 517.001 182.849V174.823C513.944 174.823 511.375 173.777 509.099 171.545L503.48 177.275ZM517.001 182.849C522.209 182.849 526.767 180.942 530.462 177.248L524.787 171.572C522.58 173.779 520.056 174.823 517.001 174.823V182.849ZM530.462 177.248C534.199 173.511 536.152 168.929 536.152 163.698H528.126C528.126 166.73 527.07 169.29 524.787 171.572L530.462 177.248ZM536.152 163.698C536.152 158.465 534.196 153.898 530.433 150.21L524.815 155.941C527.073 158.154 528.126 160.669 528.126 163.698H536.152ZM530.49 150.266C526.801 146.504 522.235 144.547 517.001 144.547V152.573C520.03 152.573 522.545 153.627 524.759 155.884L530.49 150.266ZM517.001 144.547C511.77 144.547 507.189 146.501 503.452 150.238L509.127 155.913C511.41 153.63 513.97 152.573 517.001 152.573V144.547ZM503.452 150.238C499.757 153.932 497.85 158.491 497.85 163.698H505.876C505.876 160.643 506.92 158.12 509.127 155.913L503.452 150.238ZM497.85 163.698C497.85 168.904 499.754 173.476 503.424 177.219L509.155 171.601C506.923 169.324 505.876 166.755 505.876 163.698H497.85ZM506.471 153.257C509.447 150.281 512.886 148.855 517.001 148.855V140.829C510.728 140.829 505.256 143.122 500.796 147.582L506.471 153.257ZM517.001 148.855C521.114 148.855 524.511 150.279 527.42 153.234L533.14 147.605C528.73 143.124 523.275 140.829 517.001 140.829V148.855ZM527.465 153.279C530.421 156.188 531.844 159.585 531.844 163.698H539.87C539.87 157.424 537.575 151.969 533.095 147.559L527.465 153.279ZM531.844 163.698C531.844 167.813 530.419 171.252 527.442 174.228L533.117 179.903C537.578 175.443 539.87 169.971 539.87 163.698H531.844ZM527.442 174.228C524.539 177.132 521.135 178.542 517.001 178.542V186.567C523.254 186.567 528.703 184.318 533.117 179.903L527.442 174.228ZM517.001 178.542C512.866 178.542 509.419 177.13 506.448 174.206L500.819 179.926C505.284 184.32 510.749 186.567 517.001 186.567V178.542ZM506.494 174.251C503.57 171.28 502.158 167.833 502.158 163.698H494.132C494.132 169.95 496.379 175.416 500.773 179.881L506.494 174.251ZM502.158 163.698C502.158 159.565 503.568 156.16 506.471 153.257L500.796 147.582C496.381 151.996 494.132 157.445 494.132 163.698H502.158Z" fill="#F99D9D" mask="url(#path-5-inside-2_242_2982)"/>
</g>
<g opacity="0.3">
<mask id="path-7-inside-3_242_2982" fill="white">
<path d="M86.3053 553.325L104.001 535.882L86.5573 518.186L68.8619 535.63L86.3053 553.325ZM95.6372 512.908C95.6097 516.744 96.956 520.042 99.6763 522.801C102.396 525.561 105.674 526.954 109.51 526.982C113.346 527.009 116.644 525.663 119.403 522.943C122.163 520.223 123.556 516.945 123.584 513.109C123.611 509.273 122.265 505.975 119.545 503.216C116.825 500.456 113.547 499.063 109.711 499.035C105.875 499.008 102.577 500.354 99.8177 503.074C97.0582 505.794 95.6647 509.073 95.6372 512.908ZM131.166 559.093L123.688 527.289L99.4729 551.159L131.166 559.093Z"/>
</mask>
<path d="M86.3053 553.325L90.9293 558.016L86.2385 562.64L81.6146 557.949L86.3053 553.325ZM104.001 535.882L108.692 531.258L113.315 535.948L108.625 540.572L104.001 535.882ZM86.5573 518.186L81.9333 513.495L86.6241 508.871L91.2481 513.562L86.5573 518.186ZM68.8619 535.63L64.1711 540.254L59.5471 535.563L64.2379 530.939L68.8619 535.63ZM95.6372 512.908L89.0506 512.861L95.6372 512.908ZM109.51 526.982L109.463 533.568L109.51 526.982ZM123.584 513.109L116.997 513.061L123.584 513.109ZM109.711 499.035L109.663 505.622L109.711 499.035ZM131.166 559.093L137.578 557.585L140.052 568.107L129.566 565.482L131.166 559.093ZM123.688 527.289L119.064 522.598L127.415 514.366L130.099 525.781L123.688 527.289ZM99.4729 551.159L97.8735 557.549L86.4974 554.701L94.8489 546.468L99.4729 551.159ZM81.6814 548.634L99.3767 531.191L108.625 540.572L90.9293 558.016L81.6814 548.634ZM99.31 540.506L81.8665 522.81L91.2481 513.562L108.692 531.258L99.31 540.506ZM91.1813 522.877L73.4859 540.32L64.2379 530.939L81.9333 513.495L91.1813 522.877ZM73.5527 531.006L90.9961 548.701L81.6146 557.949L64.1711 540.254L73.5527 531.006ZM102.224 512.956C102.209 515.025 102.859 516.648 104.367 518.177L94.9855 527.425C91.0529 523.436 89.0105 518.464 89.0506 512.861L102.224 512.956ZM104.367 518.177C105.875 519.707 107.488 520.38 109.558 520.395L109.463 533.568C103.861 533.528 98.9181 531.415 94.9855 527.425L104.367 518.177ZM109.558 520.395C111.627 520.41 113.25 519.76 114.779 518.252L124.027 527.634C120.038 531.566 115.066 533.609 109.463 533.568L109.558 520.395ZM114.779 518.252C116.309 516.744 116.982 515.131 116.997 513.061L130.17 513.156C130.13 518.758 128.017 523.701 124.027 527.634L114.779 518.252ZM116.997 513.061C117.012 510.992 116.362 509.369 114.854 507.84L124.236 498.592C128.168 502.581 130.211 507.553 130.17 513.156L116.997 513.061ZM114.854 507.84C113.346 506.31 111.733 505.637 109.663 505.622L109.758 492.449C115.36 492.489 120.303 494.602 124.236 498.592L114.854 507.84ZM109.663 505.622C107.594 505.607 105.971 506.257 104.442 507.765L95.1937 498.383C99.1831 494.451 104.155 492.408 109.758 492.449L109.663 505.622ZM104.442 507.765C102.912 509.273 102.239 510.886 102.224 512.956L89.0506 512.861C89.0908 507.259 91.2043 502.316 95.1937 498.383L104.442 507.765ZM124.754 560.6L117.276 528.797L130.099 525.781L137.578 557.585L124.754 560.6ZM128.312 531.98L104.097 555.85L94.8489 546.468L119.064 522.598L128.312 531.98ZM101.072 544.769L132.765 552.703L129.566 565.482L97.8735 557.549L101.072 544.769Z" fill="#F99D9D" mask="url(#path-7-inside-3_242_2982)"/>
</g>
<g opacity="0.3">
<mask id="path-9-inside-4_242_2982" fill="white">
<path d="M503.621 429.484L508.797 432.556L502.495 443.174L497.319 440.102C496.788 439.787 496.441 439.312 496.279 438.677C496.118 438.043 496.194 437.46 496.509 436.929L500.448 430.293C500.764 429.762 501.238 429.415 501.873 429.254C502.507 429.092 503.09 429.168 503.621 429.484ZM536.872 463.578L505.548 444.986L511.85 434.368L543.174 452.96L545.332 461.42L536.872 463.578Z"/>
</mask>
<path d="M508.797 432.556L512.691 434.867L515.001 430.974L511.108 428.663L508.797 432.556ZM502.495 443.174L500.184 447.067L504.077 449.378L506.388 445.485L502.495 443.174ZM536.872 463.578L534.561 467.471L536.174 468.429L537.991 467.965L536.872 463.578ZM505.548 444.986L501.655 442.675L499.344 446.569L503.237 448.879L505.548 444.986ZM511.85 434.368L514.161 430.475L510.268 428.164L507.957 432.057L511.85 434.368ZM543.174 452.96L547.561 451.841L547.098 450.024L545.485 449.067L543.174 452.96ZM545.332 461.42L546.451 465.807L550.838 464.688L549.719 460.301L545.332 461.42ZM501.31 433.377L506.487 436.449L511.108 428.663L505.932 425.59L501.31 433.377ZM504.904 430.245L498.602 440.864L506.388 445.485L512.691 434.867L504.904 430.245ZM504.806 439.281L499.629 436.209L495.008 443.995L500.184 447.067L504.806 439.281ZM499.629 436.209C499.864 436.348 500.112 436.559 500.318 436.841C500.521 437.119 500.621 437.381 500.666 437.558L491.893 439.796C492.331 441.516 493.377 443.027 495.008 443.995L499.629 436.209ZM500.666 437.558C500.712 437.736 500.749 438.013 500.704 438.355C500.659 438.702 500.542 439.005 500.403 439.24L492.616 434.618C491.648 436.249 491.454 438.077 491.893 439.796L500.666 437.558ZM500.403 439.24L504.342 432.604L496.555 427.982L492.616 434.618L500.403 439.24ZM504.342 432.604C504.202 432.838 503.992 433.086 503.709 433.292C503.431 433.495 503.169 433.595 502.992 433.64L500.754 424.867C499.034 425.305 497.523 426.351 496.555 427.982L504.342 432.604ZM502.992 433.64C502.815 433.686 502.537 433.723 502.195 433.678C501.848 433.633 501.545 433.516 501.31 433.377L505.932 425.59C504.301 424.622 502.474 424.428 500.754 424.867L502.992 433.64ZM539.183 459.685L507.859 441.093L503.237 448.879L534.561 467.471L539.183 459.685ZM509.441 447.297L515.743 436.679L507.957 432.057L501.655 442.675L509.441 447.297ZM509.539 438.261L540.864 456.853L545.485 449.067L514.161 430.475L509.539 438.261ZM538.787 454.079L540.945 462.539L549.719 460.301L547.561 451.841L538.787 454.079ZM544.213 457.034L535.753 459.191L537.991 467.965L546.451 465.807L544.213 457.034Z" fill="#F99D9D" mask="url(#path-9-inside-4_242_2982)"/>
</g>
<path opacity="0.4" d="M366.437 63.4919C365.651 62.6985 363.684 58.3347 368.01 55.5578C372.336 52.7808 377.449 50.4006 388.46 50.0039C397.269 49.6865 401.831 49.8716 403.011 50.0039C400.127 48.5492 395.303 45.1639 399.079 43.2597C402.854 41.3555 409.304 41.6729 412.056 42.0696C406.813 36.6479 397.899 24.0591 404.191 17.077C412.056 8.34945 421.888 6.76262 430.147 6.76262C438.406 6.76262 454.53 7.15932 465.541 9.14287C474.2 10.7027 480.782 12.9014 483.121 13.855C476.636 11.188 461.954 5.40035 454.136 3.19224C446.271 0.970675 440.634 0.415283 438.799 0.415283C446.009 0.415283 463.181 1.28804 474.193 4.77907C487.957 9.14287 510.767 22.6309 518.239 28.9783C524.217 34.0561 533.052 42.7308 536.723 46.4334C536.199 41.2762 537.038 31.1205 544.588 31.7552C554.027 32.5487 565.038 42.0697 567.791 45.2433C569.994 47.7823 572.379 51.5906 573.297 53.1775H526.891C502.771 54.3676 453.743 56.5099 450.597 55.5578C446.664 54.3676 377.449 60.7149 374.696 61.5084C372.493 62.1431 368.272 63.0952 366.437 63.4919Z" fill="#F99D9D"/>
<path fill-rule="evenodd" clip-rule="evenodd" d="M187.492 388.807C184.389 457.907 269.188 482.204 339.509 462.515C427.232 437.954 445.265 363.526 437.773 272.405C430.281 181.284 384.017 141.985 337.85 167.321C291.684 192.657 337.708 276.766 300.314 302.208C262.92 327.65 189.98 333.376 187.492 388.807Z" fill="#F99D9D"/>
<path fill-rule="evenodd" clip-rule="evenodd" d="M154.064 198.762C137.241 198.344 139.2 180.905 144.265 169.657C149.732 157.515 159.501 146.517 172.976 143.669C186.136 140.888 201.772 144.569 204.703 159.525C207.952 176.101 182.728 199.475 154.064 198.762Z" fill="#F99D9D"/>
<path fill-rule="evenodd" clip-rule="evenodd" d="M345.043 421.045C345.043 421.045 351.526 371.846 351.387 368.859C351.248 365.872 342.329 344.497 342.329 344.497L361.331 338.68C361.331 338.68 380.721 334.492 384.599 317.346C388.477 300.2 398.947 226.757 388.089 207.327C377.23 187.898 356.677 158.387 345.043 157.016C333.409 155.645 223.662 160.308 223.662 160.308C223.662 160.308 184.495 168.079 183.331 168.468C182.168 168.857 171.697 179.349 171.697 179.349C171.697 179.349 158.124 255.901 158.124 258.233C158.124 260.564 154.634 286.211 159.676 293.594C164.717 300.978 168.207 309.527 174.412 312.635C180.617 315.744 208.926 331.676 208.926 331.676C208.926 331.676 197.68 335.216 184.883 336.361C172.085 337.505 134.18 340.225 134.18 340.225C134.18 340.225 154.599 357.712 158.882 360.432C163.166 363.152 181.78 372.747 190.7 373.584C199.619 374.421 219.397 373.968 219.397 373.968C219.397 373.968 225.214 393.851 229.867 401.623C234.521 409.395 242.277 423.772 247.318 426.493C252.359 429.213 268.647 431.544 272.913 427.27C277.178 422.995 289.588 405.509 290.751 402.788C291.915 400.068 306.263 385.69 307.039 383.747C307.815 381.805 310.917 375.074 310.917 375.074L345.043 421.045Z" fill="white"/>
<path fill-rule="evenodd" clip-rule="evenodd" d="M186.861 312.129C186.861 312.129 173.531 300.476 178.352 300.76C183.174 301.044 224.584 309.003 245.855 307.866C267.128 306.729 326.974 306.444 335.766 305.592C344.559 304.739 352.784 303.034 357.889 310.707C362.995 318.381 375.758 329.465 359.307 331.455C342.857 333.444 328.959 329.75 328.959 329.75L319.883 334.297C319.883 334.297 353.919 384.033 343.14 411.317C332.362 438.601 334.348 406.77 332.93 403.075C331.512 399.38 314.777 376.075 313.643 375.223C312.509 374.37 306.772 382.161 306.772 382.161C306.772 382.161 295.349 395.828 291.945 372.807C289.078 353.409 290.953 339.839 290.953 339.839C290.953 339.839 219.762 350.346 232.242 327.542C244.722 304.739 218.226 339.697 218.226 339.697L218.333 349.644C218.333 349.644 174.949 351.633 167.575 344.244C160.2 336.855 145.071 337.379 144.695 338.68C144.317 339.98 172.963 370.614 174.382 370.929C175.8 371.243 214.089 374.56 214.089 374.56L218.226 331.738L186.861 312.129Z" fill="#D5E4EC"/>
<path fill-rule="evenodd" clip-rule="evenodd" d="M221.615 368.859C221.65 368.805 221.663 368.774 221.663 368.774L216.047 365.737C216.726 364.477 223.615 353.423 255.99 353.423C287.958 353.423 303.371 363.022 304.012 363.431L300.594 368.831C300.45 368.741 285.9 359.817 255.99 359.817C227.567 359.817 221.672 368.769 221.615 368.859Z" fill="#89A1B1"/>
<path fill-rule="evenodd" clip-rule="evenodd" d="M389.791 284.89L362.946 234.709C361.207 231.46 357.837 229.501 354.164 229.598L159.05 234.732L158.883 228.34L353.997 223.205C360.099 223.046 365.684 226.296 368.57 231.688L395.415 281.869L389.791 284.89Z" fill="#89A1B1"/>
<path fill-rule="evenodd" clip-rule="evenodd" d="M263.266 434.835C258.328 434.835 253.464 433.403 249.289 430.636C240.858 425.045 234.027 418.606 228.407 410.951C219.587 398.94 214.238 384.463 212.509 367.922C209.742 341.458 215.806 323.433 230.532 314.349L230.592 314.313C242.427 307.189 257.194 306.537 267.499 307.246C277.14 307.909 295.084 309.142 306.496 321.648C306.893 322.079 307.304 322.555 307.736 323.083L297.863 331.188C297.589 330.854 297.338 330.562 297.094 330.297C289.728 322.226 277.505 320.754 266.626 320.006C251.298 318.952 242.165 322.275 237.195 325.257C226.885 331.638 222.962 345.159 225.202 366.589C227.643 389.931 238.116 407.891 256.332 419.97C259.369 421.982 263.164 422.565 266.743 421.567C270.841 420.425 291.857 412.592 303.194 370.46L315.517 373.789C302.707 421.395 277.565 431.826 270.164 433.889C267.891 434.523 265.57 434.835 263.266 434.835Z" fill="#28313B"/>
<path fill-rule="evenodd" clip-rule="evenodd" d="M185.079 180.788C187.91 179.76 266.443 160.079 332.173 169.431C338.259 170.297 343.285 174.48 345.047 180.149C350.281 196.989 359.851 231.392 356.444 281.957C356.002 288.526 350.569 293.757 343.742 294.243C310.021 296.639 212.686 301.922 172.553 286.616C169.947 285.622 168.244 283.196 168.275 280.502C168.432 267.359 169.623 230.258 178.911 188.232C179.635 184.957 181.927 182.209 185.079 180.788Z" fill="#343A4C"/>
<path fill-rule="evenodd" clip-rule="evenodd" d="M348.191 344.436C344.553 344.392 340.428 344.342 335.834 344.374L335.745 331.585C340.462 331.552 344.65 331.604 348.346 331.648C353.869 331.715 358.639 331.773 363.348 331.54C372.836 331.072 380.858 324.236 382.859 314.916C391.4 275.175 387.385 248.705 385.455 235.985C385.175 234.142 384.934 232.55 384.774 231.206C384.63 230.004 384.541 228.85 384.466 227.784C383.683 216.625 375.272 194.497 358.657 172.284C354.025 166.087 348.953 160.288 343.242 159.797C284.202 154.726 203.926 164.361 182.805 173.334C178.347 175.228 174.988 179.246 173.346 184.645C167.012 205.485 163.463 233.854 161.478 279.506C160.897 292.81 167.568 298.287 170.463 300.025C198.2 316.664 221.873 322.703 222.109 322.763L219.015 335.171C217.976 334.91 193.253 328.602 163.906 310.997C153.789 304.925 148.115 292.945 148.726 278.948C150.761 232.162 154.473 202.845 161.137 180.92C163.858 171.965 169.94 164.908 177.824 161.559C189.472 156.61 216.038 151.653 247.153 148.622C282.037 145.225 316.548 144.668 344.332 147.054C356.528 148.102 364.865 159.255 368.871 164.615C382.029 182.207 395.893 208.285 397.198 226.888C397.261 227.79 397.335 228.753 397.447 229.684C397.584 230.832 397.811 232.329 398.074 234.063C400.117 247.537 404.37 275.574 395.337 317.607C392.122 332.58 379.226 343.561 363.978 344.314C361.167 344.453 358.401 344.497 355.525 344.497C353.182 344.497 350.766 344.467 348.191 344.436Z" fill="#28313B"/>
<path fill-rule="evenodd" clip-rule="evenodd" d="M369.649 255.678C370.052 268.915 373.545 279.549 377.453 279.43C381.362 279.311 384.204 268.484 383.802 255.246C383.4 242.01 379.906 231.375 375.998 231.495C372.089 231.613 369.247 242.441 369.649 255.678Z" fill="#28313B"/>
<path fill-rule="evenodd" clip-rule="evenodd" d="M299.961 130.038C300.212 123.608 305.618 118.598 312.035 118.85C318.452 119.101 323.452 124.518 323.201 130.948C322.95 137.378 317.544 142.388 311.127 142.136C304.709 141.885 299.711 136.468 299.961 130.038Z" fill="#28313B"/>
<path fill-rule="evenodd" clip-rule="evenodd" d="M303.189 156.439L317.926 157.016L314.307 140.672L308.071 140.428L303.189 156.439Z" fill="#28313B"/>
<path fill-rule="evenodd" clip-rule="evenodd" d="M243.689 356.62C243.689 346.712 249.196 338.68 255.99 338.68C262.783 338.68 268.29 346.712 268.29 356.62C268.29 366.528 262.783 374.56 255.99 374.56C249.196 374.56 243.689 366.528 243.689 356.62Z" fill="#2CABE3"/>
<path fill-rule="evenodd" clip-rule="evenodd" d="M255.99 341.877C251.052 341.877 246.88 348.629 246.88 356.62C246.88 364.611 251.052 371.362 255.99 371.362C260.928 371.362 265.1 364.611 265.1 356.62C265.1 348.629 260.928 341.877 255.99 341.877ZM255.99 377.757C247.302 377.757 240.498 368.473 240.498 356.62C240.498 344.767 247.302 335.483 255.99 335.483C264.676 335.483 271.481 344.767 271.481 356.62C271.481 368.473 264.676 377.757 255.99 377.757Z" fill="#28313B"/>
<path fill-rule="evenodd" clip-rule="evenodd" d="M316.056 373.968L310.44 370.932C316.643 359.411 326.072 354.908 332.89 353.161C340.222 351.28 346.12 352.114 346.367 352.15L345.449 358.478C344.651 358.365 325.769 355.93 316.056 373.968Z" fill="#89A1B1"/>
<path fill-rule="evenodd" clip-rule="evenodd" d="M326.99 395.395L322.023 391.38C326.395 385.933 338.16 377.112 351.387 382.707L348.905 388.598C343.922 386.49 338.794 386.922 333.663 389.882C329.579 392.238 327.015 395.364 326.99 395.395Z" fill="#89A1B1"/>
<path fill-rule="evenodd" clip-rule="evenodd" d="M352.308 427.237C351.281 433.031 345.761 436.894 339.978 435.865C334.195 434.835 330.34 429.303 331.367 423.508C332.395 417.715 337.916 413.851 343.698 414.881C349.48 415.911 353.336 421.442 352.308 427.237Z" fill="#28313B"/>
<path fill-rule="evenodd" clip-rule="evenodd" d="M359.171 460.347L352.397 455.187C353.934 453.161 354.94 450.854 355.387 448.327C356.924 439.662 351.139 431.36 342.491 429.82C333.841 428.281 325.554 434.077 324.018 442.742C323.569 445.269 323.721 447.783 324.468 450.216L316.334 452.721C315.187 448.982 314.953 445.123 315.64 441.251C317.998 427.957 330.712 419.063 343.979 421.425C357.247 423.787 366.123 436.524 363.765 449.819C363.079 453.691 361.533 457.233 359.171 460.347Z" fill="#28313B"/>
<path fill-rule="evenodd" clip-rule="evenodd" d="M310.451 333.928C308.695 333.928 307.057 334.155 305.664 334.632C303.091 335.513 302.3 336.946 301.928 337.947C298.328 347.649 302.542 357.461 315.591 369.762L315.783 369.945C315.874 370.032 315.967 370.12 316.059 370.21C317.678 371.769 319.306 373.427 320.869 375.109C331.483 386.529 338.869 398.654 342.849 411.191C347.051 397.739 348.947 377.423 337.106 352.963C333.951 346.447 329.416 341.312 323.626 337.698C319.766 335.292 314.752 333.928 310.451 333.928ZM342.81 426.045C342.663 426.045 342.515 426.042 342.366 426.037C337.169 425.846 332.745 422.348 331.358 417.329C328.172 405.827 321.5 394.552 311.527 383.823C310.125 382.313 308.665 380.827 307.188 379.404L306.841 379.073C302.482 374.964 296.222 368.604 292.178 360.844C287.388 351.648 286.642 342.445 289.965 333.49C291.912 328.245 295.914 324.454 301.539 322.529C311.313 319.184 323.062 322.285 330.371 326.84C338.239 331.751 344.368 338.661 348.589 347.381C363.175 377.512 359.568 402.504 353.974 418.164C352.277 422.922 347.826 426.045 342.81 426.045Z" fill="#28313B"/>
<path fill-rule="evenodd" clip-rule="evenodd" d="M206.352 375.641C197.596 365.926 196.519 355.515 197.158 348.492C197.844 340.94 200.603 335.65 200.72 335.429L206.36 338.422L203.54 336.925L206.364 338.415C205.991 339.13 197.378 356.143 211.088 371.355L206.352 375.641Z" fill="#89A1B1"/>
<path fill-rule="evenodd" clip-rule="evenodd" d="M172.008 368.067C166.063 354.97 174.539 342.944 179.852 338.415L183.987 343.285L181.92 340.85L183.994 343.279C183.963 343.306 180.916 345.961 178.678 350.116C175.867 355.336 175.578 360.485 177.817 365.419L172.008 368.067Z" fill="#89A1B1"/>
<path fill-rule="evenodd" clip-rule="evenodd" d="M143.911 323.352C136.886 318.882 124.709 319.634 117.577 324.421C113.116 331.46 120.732 344.373 127.757 348.843C134.782 353.312 144.093 351.229 148.554 344.19C153.014 337.151 150.936 327.821 143.911 323.352Z" fill="#28313B"/>
<path fill-rule="evenodd" clip-rule="evenodd" d="M146.187 338.285C140.931 333.289 134.573 319.591 136.308 306.868C136.823 303.095 138.014 299.575 139.85 296.407L147.209 300.687C145.934 302.889 145.103 305.358 144.739 308.023C143.381 317.981 148.772 328.99 152.043 332.1L146.187 338.285Z" fill="#28313B"/>
<path fill-rule="evenodd" clip-rule="evenodd" d="M205.301 379.991C203.905 379.991 202.515 379.946 201.129 379.855C167.78 377.676 147.879 362.189 137.056 349.579C133.669 345.629 133.232 339.999 135.965 335.568C138.698 331.137 143.918 329.012 148.955 330.281C178.171 337.635 213.724 325.175 214.08 325.048L218.369 337.094C217.149 337.53 194.762 345.405 169.545 345.406C162.649 345.406 155.544 344.817 148.598 343.326C158.188 353.631 174.879 365.324 201.96 367.093C207.714 367.47 213.609 366.866 219.485 365.3L222.766 377.659C216.949 379.211 211.091 379.991 205.301 379.991Z" fill="#28313B"/>
<path fill-rule="evenodd" clip-rule="evenodd" d="M124.709 320.493L134.78 332.156C134.78 332.156 120.529 337.124 119.15 336.26C117.772 335.395 114.27 327.673 115.809 326.843" fill="#28313B"/>
<path fill-rule="evenodd" clip-rule="evenodd" d="M295.007 251.763C276.953 251.349 281.711 206.193 283.498 206.234C285.285 206.275 285.945 237.177 295.335 237.392C304.726 237.607 306.798 206.768 308.584 206.809C310.37 206.85 313.062 252.177 295.007 251.763Z" fill="#2CABE3"/>
<path fill-rule="evenodd" clip-rule="evenodd" d="M229.734 251.358C214.406 251.007 218.446 212.671 219.963 212.706C221.479 212.741 222.041 238.975 230.012 239.158C237.985 239.341 239.744 213.16 241.26 213.195C242.776 213.229 245.061 251.71 229.734 251.358Z" fill="#2CABE3"/>
<path d="M124.709 320.493L134.78 332.156C134.78 332.156 120.529 337.124 119.15 336.26C117.772 335.395 114.27 327.673 115.809 326.843M187.492 388.807C184.389 457.907 269.188 482.204 339.509 462.515C427.232 437.954 445.265 363.526 437.773 272.405C430.281 181.284 384.017 141.985 337.85 167.321C291.684 192.657 337.708 276.766 300.314 302.208C262.92 327.65 189.98 333.376 187.492 388.807ZM154.064 198.762C137.241 198.344 139.2 180.905 144.265 169.657C149.732 157.515 159.501 146.517 172.976 143.669C186.136 140.888 201.772 144.569 204.703 159.525C207.952 176.101 182.728 199.475 154.064 198.762ZM345.043 421.045C345.043 421.045 351.526 371.846 351.387 368.859C351.248 365.872 342.329 344.497 342.329 344.497L361.331 338.68C361.331 338.68 380.721 334.492 384.599 317.346C388.477 300.2 398.947 226.757 388.089 207.327C377.23 187.898 356.677 158.387 345.043 157.016C333.409 155.645 223.662 160.308 223.662 160.308C223.662 160.308 184.495 168.079 183.331 168.468C182.168 168.857 171.697 179.349 171.697 179.349C171.697 179.349 158.124 255.901 158.124 258.233C158.124 260.564 154.634 286.211 159.676 293.594C164.717 300.978 168.207 309.527 174.412 312.635C180.617 315.744 208.926 331.676 208.926 331.676C208.926 331.676 197.68 335.216 184.883 336.361C172.085 337.505 134.18 340.225 134.18 340.225C134.18 340.225 154.599 357.712 158.882 360.432C163.166 363.152 181.78 372.747 190.7 373.584C199.619 374.421 219.397 373.968 219.397 373.968C219.397 373.968 225.214 393.851 229.867 401.623C234.521 409.395 242.277 423.772 247.318 426.493C252.359 429.213 268.647 431.544 272.913 427.27C277.178 422.995 289.588 405.509 290.751 402.788C291.915 400.068 306.263 385.69 307.039 383.747C307.815 381.805 310.917 375.074 310.917 375.074L345.043 421.045ZM186.861 312.129C186.861 312.129 173.531 300.476 178.352 300.76C183.174 301.044 224.584 309.003 245.855 307.866C267.128 306.729 326.974 306.444 335.766 305.592C344.559 304.739 352.784 303.034 357.889 310.707C362.995 318.381 375.758 329.465 359.307 331.455C342.857 333.444 328.959 329.75 328.959 329.75L319.883 334.297C319.883 334.297 353.919 384.033 343.14 411.317C332.362 438.601 334.348 406.77 332.93 403.075C331.512 399.38 314.777 376.075 313.643 375.223C312.509 374.37 306.772 382.161 306.772 382.161C306.772 382.161 295.349 395.828 291.945 372.807C289.078 353.409 290.953 339.839 290.953 339.839C290.953 339.839 219.762 350.346 232.242 327.542C244.722 304.739 218.226 339.697 218.226 339.697L218.333 349.644C218.333 349.644 174.949 351.633 167.575 344.244C160.2 336.855 145.071 337.379 144.695 338.68C144.317 339.98 172.963 370.614 174.382 370.929C175.8 371.243 214.089 374.56 214.089 374.56L218.226 331.738L186.861 312.129ZM221.615 368.859C221.65 368.805 221.663 368.774 221.663 368.774L216.047 365.737C216.726 364.477 223.615 353.423 255.99 353.423C287.958 353.423 303.371 363.022 304.012 363.431L300.594 368.831C300.45 368.741 285.9 359.817 255.99 359.817C227.567 359.817 221.672 368.769 221.615 368.859ZM389.791 284.89L362.946 234.709C361.207 231.46 357.837 229.501 354.164 229.598L159.05 234.732L158.883 228.34L353.997 223.205C360.099 223.046 365.684 226.296 368.57 231.688L395.415 281.869L389.791 284.89ZM263.266 434.835C258.328 434.835 253.464 433.403 249.289 430.636C240.858 425.045 234.027 418.606 228.407 410.951C219.587 398.94 214.238 384.463 212.509 367.922C209.742 341.458 215.806 323.433 230.532 314.349L230.592 314.313C242.427 307.189 257.194 306.537 267.499 307.246C277.14 307.909 295.084 309.142 306.496 321.648C306.893 322.079 307.304 322.555 307.736 323.083L297.863 331.188C297.589 330.854 297.338 330.562 297.094 330.297C289.728 322.226 277.505 320.754 266.626 320.006C251.298 318.952 242.165 322.275 237.195 325.257C226.885 331.638 222.962 345.159 225.202 366.589C227.643 389.931 238.116 407.891 256.332 419.97C259.369 421.982 263.164 422.565 266.743 421.567C270.841 420.425 291.857 412.592 303.194 370.46L315.517 373.789C302.707 421.395 277.565 431.826 270.164 433.889C267.891 434.523 265.57 434.835 263.266 434.835ZM185.079 180.788C187.91 179.76 266.443 160.079 332.173 169.431C338.259 170.297 343.285 174.48 345.047 180.149C350.281 196.989 359.851 231.392 356.444 281.957C356.002 288.526 350.569 293.757 343.742 294.243C310.021 296.639 212.686 301.922 172.553 286.616C169.947 285.622 168.244 283.196 168.275 280.502C168.432 267.359 169.623 230.258 178.911 188.232C179.635 184.957 181.927 182.209 185.079 180.788ZM348.191 344.436C344.553 344.392 340.428 344.342 335.834 344.374L335.745 331.585C340.462 331.552 344.65 331.604 348.346 331.648C353.869 331.715 358.639 331.773 363.348 331.54C372.836 331.072 380.858 324.236 382.859 314.916C391.4 275.175 387.385 248.705 385.455 235.985C385.175 234.142 384.934 232.55 384.774 231.206C384.63 230.004 384.541 228.85 384.466 227.784C383.683 216.625 375.272 194.497 358.657 172.284C354.025 166.087 348.953 160.288 343.242 159.797C284.202 154.726 203.926 164.361 182.805 173.334C178.347 175.228 174.988 179.246 173.346 184.645C167.012 205.485 163.463 233.854 161.478 279.506C160.897 292.81 167.568 298.287 170.463 300.025C198.2 316.664 221.873 322.703 222.109 322.763L219.015 335.171C217.976 334.91 193.253 328.602 163.906 310.997C153.789 304.925 148.115 292.945 148.726 278.948C150.761 232.162 154.473 202.845 161.137 180.92C163.858 171.965 169.94 164.908 177.824 161.559C189.472 156.61 216.038 151.653 247.153 148.622C282.037 145.225 316.548 144.668 344.332 147.054C356.528 148.102 364.865 159.255 368.871 164.615C382.029 182.207 395.893 208.285 397.198 226.888C397.261 227.79 397.335 228.753 397.447 229.684C397.584 230.832 397.811 232.329 398.074 234.063C400.117 247.537 404.37 275.574 395.337 317.607C392.122 332.58 379.226 343.561 363.978 344.314C361.167 344.453 358.401 344.497 355.525 344.497C353.182 344.497 350.766 344.467 348.191 344.436ZM369.649 255.678C370.052 268.915 373.545 279.549 377.453 279.43C381.362 279.311 384.204 268.484 383.802 255.246C383.4 242.01 379.906 231.375 375.998 231.495C372.089 231.613 369.247 242.441 369.649 255.678ZM299.961 130.038C300.212 123.608 305.618 118.598 312.035 118.85C318.452 119.101 323.452 124.518 323.201 130.948C322.95 137.378 317.544 142.388 311.127 142.136C304.709 141.885 299.711 136.468 299.961 130.038ZM303.189 156.439L317.926 157.016L314.307 140.672L308.071 140.428L303.189 156.439ZM243.689 356.62C243.689 346.712 249.196 338.68 255.99 338.68C262.783 338.68 268.29 346.712 268.29 356.62C268.29 366.528 262.783 374.56 255.99 374.56C249.196 374.56 243.689 366.528 243.689 356.62ZM255.99 341.877C251.052 341.877 246.88 348.629 246.88 356.62C246.88 364.611 251.052 371.362 255.99 371.362C260.928 371.362 265.1 364.611 265.1 356.62C265.1 348.629 260.928 341.877 255.99 341.877ZM255.99 377.757C247.302 377.757 240.498 368.473 240.498 356.62C240.498 344.767 247.302 335.483 255.99 335.483C264.676 335.483 271.481 344.767 271.481 356.62C271.481 368.473 264.676 377.757 255.99 377.757ZM316.056 373.968L310.44 370.932C316.643 359.411 326.072 354.908 332.89 353.161C340.222 351.28 346.12 352.114 346.367 352.15L345.449 358.478C344.651 358.365 325.769 355.93 316.056 373.968ZM326.99 395.395L322.023 391.38C326.395 385.933 338.16 377.112 351.387 382.707L348.905 388.598C343.922 386.49 338.794 386.922 333.663 389.882C329.579 392.238 327.015 395.364 326.99 395.395ZM352.308 427.237C351.281 433.031 345.761 436.894 339.978 435.865C334.195 434.835 330.34 429.303 331.367 423.508C332.395 417.715 337.916 413.851 343.698 414.881C349.48 415.911 353.336 421.442 352.308 427.237ZM359.171 460.347L352.397 455.187C353.934 453.161 354.94 450.854 355.387 448.327C356.924 439.662 351.139 431.36 342.491 429.82C333.841 428.281 325.554 434.077 324.018 442.742C323.569 445.269 323.721 447.783 324.468 450.216L316.334 452.721C315.187 448.982 314.953 445.123 315.64 441.251C317.998 427.957 330.712 419.063 343.979 421.425C357.247 423.787 366.123 436.524 363.765 449.819C363.079 453.691 361.533 457.233 359.171 460.347ZM310.451 333.928C308.695 333.928 307.057 334.155 305.664 334.632C303.091 335.513 302.3 336.946 301.928 337.947C298.328 347.649 302.542 357.461 315.591 369.762L315.783 369.945C315.874 370.032 315.967 370.12 316.059 370.21C317.678 371.769 319.306 373.427 320.869 375.109C331.483 386.529 338.869 398.654 342.849 411.191C347.051 397.739 348.947 377.423 337.106 352.963C333.951 346.447 329.416 341.312 323.626 337.698C319.766 335.292 314.752 333.928 310.451 333.928ZM342.81 426.045C342.663 426.045 342.515 426.042 342.366 426.037C337.169 425.846 332.745 422.348 331.358 417.329C328.172 405.827 321.5 394.552 311.527 383.823C310.125 382.313 308.665 380.827 307.188 379.404L306.841 379.073C302.482 374.964 296.222 368.604 292.178 360.844C287.388 351.648 286.642 342.445 289.965 333.49C291.912 328.245 295.914 324.454 301.539 322.529C311.313 319.184 323.062 322.285 330.371 326.84C338.239 331.751 344.368 338.661 348.589 347.381C363.175 377.512 359.568 402.504 353.974 418.164C352.277 422.922 347.826 426.045 342.81 426.045ZM206.352 375.641C197.596 365.926 196.519 355.515 197.158 348.492C197.844 340.94 200.603 335.65 200.72 335.429L206.36 338.422L203.54 336.925L206.364 338.415C205.991 339.13 197.378 356.143 211.088 371.355L206.352 375.641ZM172.008 368.067C166.063 354.97 174.539 342.944 179.852 338.415L183.987 343.285L181.92 340.85L183.994 343.279C183.963 343.306 180.916 345.961 178.678 350.116C175.867 355.336 175.578 360.485 177.817 365.419L172.008 368.067ZM143.911 323.352C136.886 318.882 124.709 319.634 117.577 324.421C113.116 331.46 120.732 344.373 127.757 348.843C134.782 353.312 144.093 351.229 148.554 344.19C153.014 337.151 150.936 327.821 143.911 323.352ZM146.187 338.285C140.931 333.289 134.573 319.591 136.308 306.868C136.823 303.095 138.014 299.575 139.85 296.407L147.209 300.687C145.934 302.889 145.103 305.358 144.739 308.023C143.381 317.981 148.772 328.99 152.043 332.1L146.187 338.285ZM205.301 379.991C203.905 379.991 202.515 379.946 201.129 379.855C167.78 377.676 147.879 362.189 137.056 349.579C133.669 345.629 133.232 339.999 135.965 335.568C138.698 331.137 143.918 329.012 148.955 330.281C178.171 337.635 213.724 325.175 214.08 325.048L218.369 337.094C217.149 337.53 194.762 345.405 169.545 345.406C162.649 345.406 155.544 344.817 148.598 343.326C158.188 353.631 174.879 365.324 201.96 367.093C207.714 367.47 213.609 366.866 219.485 365.3L222.766 377.659C216.949 379.211 211.091 379.991 205.301 379.991ZM295.007 251.763C276.953 251.349 281.711 206.193 283.498 206.234C285.285 206.275 285.945 237.177 295.335 237.392C304.726 237.607 306.798 206.768 308.584 206.809C310.37 206.85 313.062 252.177 295.007 251.763ZM229.734 251.358C214.406 251.007 218.446 212.671 219.963 212.706C221.479 212.741 222.041 238.975 230.012 239.158C237.985 239.341 239.744 213.16 241.26 213.195C242.776 213.229 245.061 251.71 229.734 251.358Z" stroke="white" stroke-width="4"/>
<mask id="mask0_242_2982" style="mask-type:luminance" maskUnits="userSpaceOnUse" x="187" y="159" width="253" height="311">
<path fill-rule="evenodd" clip-rule="evenodd" d="M187.409 159.773H439.304V469.116H187.409V159.773Z" fill="white"/>
</mask>
<g mask="url(#mask0_242_2982)">
<path fill-rule="evenodd" clip-rule="evenodd" d="M187.492 388.807C184.389 457.907 269.188 482.204 339.509 462.515C427.232 437.954 445.265 363.526 437.773 272.405C430.281 181.284 384.017 141.985 337.85 167.321C291.684 192.657 337.708 276.766 300.314 302.208C262.92 327.65 189.98 333.376 187.492 388.807" fill="#F99D9D"/>
</g>
<path fill-rule="evenodd" clip-rule="evenodd" d="M154.064 198.762C137.241 198.344 139.2 180.905 144.265 169.656C149.732 157.515 159.501 146.517 172.976 143.669C186.136 140.888 201.772 144.569 204.703 159.525C207.952 176.101 182.728 199.475 154.064 198.762" fill="#F99D9D"/>
<path fill-rule="evenodd" clip-rule="evenodd" d="M345.043 421.045C345.043 421.045 351.526 371.846 351.387 368.859C351.248 365.872 342.329 344.497 342.329 344.497L361.331 338.68C361.331 338.68 380.721 334.492 384.599 317.346C388.477 300.2 398.947 226.757 388.089 207.327C377.231 187.898 356.677 158.387 345.043 157.015C333.409 155.645 223.663 160.308 223.663 160.308C223.663 160.308 184.495 168.079 183.332 168.468C182.168 168.857 171.698 179.349 171.698 179.349C171.698 179.349 158.125 255.901 158.125 258.233C158.125 260.564 154.634 286.211 159.676 293.594C164.717 300.978 168.207 309.527 174.412 312.635C180.617 315.744 208.926 331.676 208.926 331.676C208.926 331.676 197.68 335.216 184.883 336.361C172.085 337.505 134.18 340.225 134.18 340.225C134.18 340.225 154.599 357.712 158.882 360.432C163.166 363.152 181.78 372.747 190.7 373.584C199.619 374.421 219.397 373.968 219.397 373.968C219.397 373.968 225.214 393.851 229.867 401.623C234.521 409.394 242.277 423.772 247.318 426.492C252.36 429.213 268.647 431.544 272.913 427.27C277.179 422.995 289.588 405.509 290.752 402.788C291.915 400.068 306.263 385.69 307.039 383.747C307.815 381.804 310.917 375.074 310.917 375.074L345.043 421.045Z" fill="white"/>
<path fill-rule="evenodd" clip-rule="evenodd" d="M186.861 312.129C186.861 312.129 173.531 300.476 178.352 300.76C183.174 301.044 224.584 309.003 245.855 307.866C267.127 306.729 326.973 306.444 335.765 305.592C344.558 304.739 352.783 303.034 357.888 310.707C362.994 318.381 375.757 329.465 359.307 331.455C342.857 333.444 328.959 329.75 328.959 329.75L319.883 334.297C319.883 334.297 353.918 384.033 343.14 411.317C332.362 438.601 334.348 406.77 332.93 403.075C331.511 399.381 314.777 376.075 313.642 375.223C312.508 374.37 306.771 382.161 306.771 382.161C306.771 382.161 295.348 395.828 291.945 372.807C289.078 353.409 290.952 339.839 290.952 339.839C290.952 339.839 219.762 350.347 232.242 327.542C244.721 304.739 218.225 339.697 218.225 339.697L218.332 349.644C218.332 349.644 174.949 351.634 167.574 344.244C160.2 336.855 145.071 337.379 144.694 338.68C144.316 339.98 172.963 370.614 174.382 370.929C175.799 371.243 214.089 374.56 214.089 374.56L218.225 331.738L186.861 312.129Z" fill="#D5E4EC"/>
<path fill-rule="evenodd" clip-rule="evenodd" d="M221.616 368.859C221.65 368.805 221.664 368.774 221.664 368.774L216.048 365.737C216.726 364.476 223.615 353.423 255.99 353.423C287.958 353.423 303.371 363.022 304.012 363.431L300.594 368.831C300.451 368.741 285.9 359.817 255.99 359.817C227.568 359.817 221.672 368.769 221.616 368.859" fill="#89A1B1"/>
<path fill-rule="evenodd" clip-rule="evenodd" d="M389.791 284.89L362.946 234.709C361.207 231.46 357.837 229.502 354.164 229.598L159.05 234.732L158.883 228.34L353.997 223.206C360.099 223.046 365.685 226.296 368.57 231.688L395.416 281.869L389.791 284.89Z" fill="#89A1B1"/>
<path fill-rule="evenodd" clip-rule="evenodd" d="M263.265 434.835C258.328 434.835 253.463 433.403 249.288 430.636C240.858 425.045 234.027 418.606 228.406 410.951C219.586 398.94 214.238 384.463 212.508 367.922C209.742 341.458 215.805 323.433 230.531 314.349L230.591 314.313C242.427 307.189 257.194 306.537 267.499 307.246C277.139 307.909 295.084 309.142 306.496 321.648C306.893 322.079 307.304 322.555 307.736 323.083L297.862 331.188C297.589 330.854 297.337 330.562 297.094 330.297C289.728 322.226 277.505 320.754 266.625 320.006C251.297 318.952 242.165 322.274 237.195 325.257C226.885 331.638 222.962 345.159 225.202 366.589C227.642 389.931 238.116 407.891 256.332 419.97C259.369 421.982 263.164 422.565 266.742 421.567C270.841 420.425 291.856 412.592 303.193 370.46L315.517 373.789C302.707 421.395 277.564 431.826 270.164 433.889C267.89 434.523 265.57 434.835 263.265 434.835" fill="#28313B"/>
<path fill-rule="evenodd" clip-rule="evenodd" d="M185.079 180.788C187.911 179.76 266.443 160.079 332.173 169.431C338.259 170.297 343.285 174.48 345.047 180.149C350.281 196.989 359.851 231.392 356.445 281.957C356.003 288.526 350.57 293.757 343.742 294.243C310.021 296.639 212.686 301.922 172.553 286.615C169.947 285.622 168.244 283.196 168.276 280.502C168.432 267.358 169.624 230.258 178.912 188.232C179.635 184.957 181.927 182.209 185.079 180.788" fill="#343A4C"/>
<path fill-rule="evenodd" clip-rule="evenodd" d="M348.191 344.436C344.553 344.392 340.428 344.341 335.834 344.374L335.745 331.585C340.462 331.552 344.651 331.603 348.346 331.648C353.869 331.715 358.639 331.773 363.349 331.54C372.836 331.072 380.858 324.236 382.859 314.916C391.4 275.175 387.385 248.705 385.455 235.984C385.175 234.142 384.934 232.55 384.774 231.206C384.63 230.004 384.541 228.85 384.466 227.784C383.683 216.625 375.272 194.497 358.657 172.283C354.025 166.087 348.954 160.288 343.242 159.796C284.202 154.726 203.926 164.361 182.805 173.334C178.347 175.228 174.988 179.245 173.346 184.645C167.012 205.485 163.463 233.854 161.478 279.506C160.897 292.81 167.568 298.287 170.463 300.025C198.2 316.664 221.873 322.703 222.109 322.763L219.015 335.171C217.976 334.91 193.253 328.602 163.906 310.997C153.79 304.925 148.115 292.945 148.726 278.948C150.761 232.162 154.473 202.845 161.138 180.92C163.858 171.965 169.941 164.908 177.824 161.559C189.472 156.61 216.038 151.653 247.153 148.622C282.037 145.225 316.548 144.668 344.332 147.054C356.528 148.101 364.865 159.255 368.871 164.615C382.029 182.207 395.893 208.285 397.198 226.888C397.262 227.79 397.335 228.753 397.447 229.684C397.584 230.832 397.811 232.329 398.074 234.063C400.117 247.537 404.37 275.574 395.337 317.607C392.122 332.58 379.226 343.561 363.978 344.313C361.167 344.453 358.401 344.497 355.525 344.497C353.182 344.497 350.766 344.467 348.191 344.436Z" fill="#28313B"/>
<path fill-rule="evenodd" clip-rule="evenodd" d="M369.649 255.678C370.052 268.915 373.545 279.549 377.453 279.43C381.362 279.311 384.204 268.484 383.802 255.246C383.4 242.01 379.906 231.375 375.998 231.494C372.089 231.613 369.247 242.441 369.649 255.678" fill="#28313B"/>
<path fill-rule="evenodd" clip-rule="evenodd" d="M299.961 130.038C300.212 123.608 305.618 118.598 312.035 118.85C318.452 119.101 323.452 124.518 323.201 130.948C322.95 137.378 317.544 142.388 311.127 142.136C304.709 141.885 299.711 136.468 299.961 130.038" fill="#28313B"/>
<path fill-rule="evenodd" clip-rule="evenodd" d="M303.189 156.439L317.927 157.016L314.307 140.672L308.071 140.428L303.189 156.439Z" fill="#28313B"/>
<path fill-rule="evenodd" clip-rule="evenodd" d="M243.688 356.62C243.688 346.712 249.196 338.68 255.989 338.68C262.783 338.68 268.29 346.712 268.29 356.62C268.29 366.528 262.783 374.56 255.989 374.56C249.196 374.56 243.688 366.528 243.688 356.62" fill="#2CABE3"/>
<path fill-rule="evenodd" clip-rule="evenodd" d="M255.99 341.877C251.052 341.877 246.88 348.629 246.88 356.62C246.88 364.611 251.052 371.362 255.99 371.362C260.928 371.362 265.1 364.611 265.1 356.62C265.1 348.629 260.928 341.877 255.99 341.877M255.99 377.757C247.302 377.757 240.498 368.472 240.498 356.62C240.498 344.767 247.302 335.483 255.99 335.483C264.676 335.483 271.482 344.767 271.482 356.62C271.482 368.472 264.676 377.757 255.99 377.757" fill="#28313B"/>
<path fill-rule="evenodd" clip-rule="evenodd" d="M316.056 373.968L310.439 370.932C316.643 359.411 326.072 354.908 332.89 353.161C340.222 351.28 346.12 352.114 346.367 352.15L345.449 358.478C344.651 358.365 325.769 355.93 316.056 373.968" fill="#89A1B1"/>
<path fill-rule="evenodd" clip-rule="evenodd" d="M326.989 395.395L322.022 391.38C326.394 385.933 338.16 377.112 351.387 382.707L348.905 388.598C343.921 386.49 338.794 386.922 333.663 389.882C329.579 392.238 327.015 395.364 326.989 395.395" fill="#89A1B1"/>
<path fill-rule="evenodd" clip-rule="evenodd" d="M352.308 427.237C351.28 433.031 345.76 436.894 339.977 435.865C334.195 434.835 330.34 429.303 331.367 423.509C332.394 417.715 337.915 413.851 343.697 414.881C349.48 415.911 353.336 421.442 352.308 427.237" fill="#28313B"/>
<path fill-rule="evenodd" clip-rule="evenodd" d="M359.17 460.347L352.396 455.187C353.934 453.161 354.94 450.854 355.387 448.327C356.924 439.662 351.138 431.36 342.49 429.82C333.841 428.281 325.554 434.077 324.017 442.742C323.569 445.269 323.72 447.783 324.467 450.216L316.334 452.721C315.186 448.982 314.953 445.123 315.639 441.251C317.997 427.957 330.712 419.063 343.979 421.425C357.246 423.787 366.122 436.524 363.765 449.819C363.079 453.691 361.533 457.233 359.17 460.347" fill="#28313B"/>
<path fill-rule="evenodd" clip-rule="evenodd" d="M310.451 333.928C308.695 333.928 307.056 334.155 305.664 334.633C303.091 335.513 302.3 336.946 301.928 337.947V337.947C298.328 347.649 302.542 357.461 315.59 369.762L315.783 369.945C315.874 370.032 315.967 370.12 316.059 370.21C317.678 371.769 319.306 373.427 320.869 375.109C331.483 386.529 338.868 398.654 342.849 411.191C347.051 397.739 348.946 377.423 337.105 352.963C333.951 346.447 329.415 341.312 323.626 337.698C319.765 335.292 314.752 333.928 310.451 333.928M342.81 426.045C342.663 426.045 342.514 426.042 342.366 426.037C337.169 425.846 332.745 422.348 331.358 417.329C328.172 405.827 321.5 394.552 311.527 383.823C310.125 382.313 308.665 380.827 307.188 379.404L306.841 379.073C302.482 374.964 296.221 368.604 292.178 360.845C287.387 351.648 286.642 342.445 289.965 333.49C291.911 328.245 295.913 324.455 301.539 322.529C311.313 319.184 323.062 322.285 330.371 326.84C338.239 331.751 344.367 338.661 348.589 347.381C363.175 377.512 359.568 402.504 353.974 418.164C352.277 422.922 347.826 426.045 342.81 426.045" fill="#28313B"/>
<path fill-rule="evenodd" clip-rule="evenodd" d="M206.352 375.641C197.596 365.926 196.519 355.515 197.159 348.492C197.845 340.94 200.604 335.65 200.721 335.429L206.36 338.422L203.541 336.926L206.365 338.415C205.991 339.13 197.378 356.143 211.088 371.355L206.352 375.641Z" fill="#89A1B1"/>
<path fill-rule="evenodd" clip-rule="evenodd" d="M172.009 368.067C166.063 354.97 174.539 342.944 179.852 338.415L183.988 343.285L181.92 340.85L183.995 343.279C183.964 343.306 180.916 345.96 178.679 350.116C175.867 355.336 175.578 360.485 177.817 365.419L172.009 368.067Z" fill="#89A1B1"/>
<path fill-rule="evenodd" clip-rule="evenodd" d="M143.911 323.352C136.885 318.882 127.575 320.964 123.115 328.004C118.653 335.043 120.732 344.373 127.757 348.843C134.781 353.312 144.092 351.229 148.553 344.19C153.014 337.151 150.935 327.821 143.911 323.352" fill="#28313B"/>
<path fill-rule="evenodd" clip-rule="evenodd" d="M146.187 338.285C140.931 333.289 134.573 319.591 136.308 306.868C136.823 303.095 138.014 299.575 139.85 296.407L147.209 300.687C145.934 302.889 145.103 305.358 144.739 308.023C143.381 317.981 148.772 328.99 152.043 332.1L146.187 338.285Z" fill="#28313B"/>
<path fill-rule="evenodd" clip-rule="evenodd" d="M205.301 379.991C203.905 379.991 202.515 379.946 201.129 379.855C167.78 377.676 147.879 362.189 137.056 349.579C133.669 345.629 133.232 339.999 135.966 335.568C138.698 331.137 143.918 329.012 148.955 330.281C178.171 337.635 213.724 325.175 214.08 325.048L218.369 337.093C217.149 337.53 194.762 345.405 169.545 345.406C162.649 345.406 155.544 344.817 148.598 343.326C158.188 353.631 174.879 365.324 201.96 367.093C207.714 367.47 213.609 366.866 219.485 365.3L222.766 377.659C216.949 379.21 211.091 379.991 205.301 379.991" fill="#28313B"/>
<path fill-rule="evenodd" clip-rule="evenodd" d="M129.391 322.357L134.78 332.156C134.78 332.156 120.529 337.124 119.15 336.26C117.772 335.395 114.27 327.673 115.809 326.843" fill="#28313B"/>
<path fill-rule="evenodd" clip-rule="evenodd" d="M295.008 251.763C276.953 251.349 281.712 206.193 283.499 206.234C285.285 206.275 285.946 237.177 295.336 237.392C304.726 237.607 306.798 206.768 308.585 206.809C310.371 206.85 313.062 252.177 295.008 251.763Z" fill="#2CABE3"/>
<path fill-rule="evenodd" clip-rule="evenodd" d="M229.733 251.358C214.406 251.007 218.445 212.671 219.962 212.706C221.479 212.741 222.04 238.975 230.012 239.158C237.984 239.341 239.743 213.159 241.26 213.194C242.776 213.229 245.061 251.71 229.733 251.358" fill="#2CABE3"/>
</svg>
