<svg width="573" height="590" viewBox="0 0 573 590" fill="none" xmlns="http://www.w3.org/2000/svg">
<path opacity="0.4" d="M155.123 95.861C155.616 95.3631 156.85 92.6245 154.135 90.8818C151.421 89.1391 148.212 87.6454 141.302 87.3964C135.773 87.1972 132.911 87.3134 132.17 87.3964C133.98 86.4835 137.007 84.359 134.638 83.164C132.269 81.969 128.221 82.1682 126.494 82.4172C129.784 79.0147 135.379 71.1145 131.43 66.7328C126.494 61.2557 120.324 60.2599 115.141 60.2599C109.958 60.2599 99.8392 60.5088 92.9288 61.7536C87.4946 62.7325 83.364 64.1123 81.8966 64.7108C85.9663 63.0371 95.1799 59.405 100.086 58.0193C105.022 56.6251 108.56 56.2766 109.711 56.2766C105.187 56.2766 94.4096 56.8243 87.4992 59.0151C78.8612 61.7536 64.5467 70.2182 59.8575 74.2016C56.1061 77.3882 50.5614 82.8321 48.2579 85.1557C48.587 81.9193 48.0604 75.5459 43.3219 75.9443C37.3987 76.4422 30.4882 82.4172 28.7606 84.4089C27.3786 86.0022 25.8813 88.3922 25.3054 89.388H54.4279C69.565 90.1349 100.333 91.4793 102.307 90.8818C104.775 90.1349 148.212 94.1183 149.94 94.6162C151.322 95.0145 153.971 95.612 155.123 95.861Z" fill="#94EDB8"/>
<path opacity="0.4" d="M294.928 551.374C294.567 551.01 293.666 549.008 295.65 547.735C297.634 546.461 299.978 545.37 305.029 545.188C309.069 545.042 311.161 545.127 311.702 545.188C310.379 544.52 308.167 542.968 309.898 542.095C311.63 541.221 314.588 541.367 315.851 541.549C313.446 539.062 309.357 533.289 312.243 530.086C315.851 526.084 320.36 525.356 324.147 525.356C327.935 525.356 335.33 525.538 340.38 526.448C344.352 527.163 347.37 528.171 348.443 528.609C345.469 527.385 338.735 524.731 335.15 523.718C331.542 522.699 328.957 522.445 328.115 522.445C331.422 522.445 339.298 522.845 344.348 524.446C350.661 526.448 361.122 532.634 364.549 535.545C367.291 537.874 371.343 541.852 373.026 543.55C372.786 541.185 373.171 536.527 376.634 536.818C380.963 537.182 386.013 541.549 387.275 543.004C388.285 544.169 389.38 545.915 389.8 546.643H368.517C357.455 547.189 334.969 548.172 333.526 547.735C331.723 547.189 299.978 550.1 298.716 550.464C297.706 550.755 295.77 551.192 294.928 551.374Z" fill="#94EDB8"/>
<g opacity="0.3">
<mask id="path-3-outside-1_242_2916" maskUnits="userSpaceOnUse" x="9.20288" y="194.361" width="47" height="48" fill="black">
<rect fill="white" x="9.20288" y="194.361" width="47" height="48"/>
<path d="M51.3996 220.873H35.338V236.935H30.0678V220.873H14.0062V215.603H30.0678V199.541H35.338V215.603H51.3996V220.873Z"/>
</mask>
<path d="M51.3996 220.873V225.423H55.95V220.873H51.3996ZM35.338 220.873V216.323H30.7876V220.873H35.338ZM35.338 236.935V241.485H39.8884V236.935H35.338ZM30.0678 236.935H25.5174V241.485H30.0678V236.935ZM30.0678 220.873H34.6182V216.323H30.0678V220.873ZM14.0062 220.873H9.45581V225.423H14.0062V220.873ZM14.0062 215.603V211.052H9.45581V215.603H14.0062ZM30.0678 215.603V220.153H34.6182V215.603H30.0678ZM30.0678 199.541V194.991H25.5174V199.541H30.0678ZM35.338 199.541H39.8884V194.991H35.338V199.541ZM35.338 215.603H30.7876V220.153H35.338V215.603ZM51.3996 215.603H55.95V211.052H51.3996V215.603ZM51.3996 216.323H35.338V225.423H51.3996V216.323ZM30.7876 220.873V236.935H39.8884V220.873H30.7876ZM35.338 232.384H30.0678V241.485H35.338V232.384ZM34.6182 236.935V220.873H25.5174V236.935H34.6182ZM30.0678 216.323H14.0062V225.423H30.0678V216.323ZM18.5566 220.873V215.603H9.45581V220.873H18.5566ZM14.0062 220.153H30.0678V211.052H14.0062V220.153ZM34.6182 215.603V199.541H25.5174V215.603H34.6182ZM30.0678 204.092H35.338V194.991H30.0678V204.092ZM30.7876 199.541V215.603H39.8884V199.541H30.7876ZM35.338 220.153H51.3996V211.052H35.338V220.153ZM46.8492 215.603V220.873H55.95V215.603H46.8492Z" fill="#94EDB8" mask="url(#path-3-outside-1_242_2916)"/>
</g>
<g opacity="0.3">
<mask id="path-5-inside-2_242_2916" fill="white">
<path d="M505.789 174.41C508.799 177.361 512.37 178.836 516.501 178.836C520.632 178.836 524.173 177.361 527.124 174.41C530.134 171.4 531.639 167.829 531.639 163.698C531.639 159.567 530.134 156.026 527.124 153.075C524.173 150.065 520.632 148.56 516.501 148.56C512.37 148.56 508.799 150.065 505.789 153.075C502.838 156.026 501.363 159.567 501.363 163.698C501.363 167.829 502.838 171.4 505.789 174.41ZM503.134 150.419C506.852 146.701 511.308 144.842 516.501 144.842C521.695 144.842 526.121 146.701 529.78 150.419C533.498 154.078 535.357 158.505 535.357 163.698C535.357 168.892 533.498 173.348 529.78 177.066C526.121 180.725 521.695 182.554 516.501 182.554C511.308 182.554 506.852 180.725 503.134 177.066C499.474 173.348 497.645 168.892 497.645 163.698C497.645 158.505 499.474 154.078 503.134 150.419Z"/>
</mask>
<path d="M505.789 174.41L502.924 177.219L502.952 177.248L502.98 177.275L505.789 174.41ZM527.124 153.075L524.259 155.884L524.287 155.913L524.315 155.94L527.124 153.075ZM529.78 150.419L526.92 153.234L526.942 153.257L526.965 153.279L529.78 150.419ZM503.134 177.066L500.273 179.88L500.296 179.903L500.319 179.926L503.134 177.066ZM502.98 177.275C506.723 180.945 511.296 182.849 516.501 182.849V174.823C513.444 174.823 510.875 173.777 508.599 171.544L502.98 177.275ZM516.501 182.849C521.709 182.849 526.267 180.942 529.962 177.247L524.287 171.572C522.08 173.779 519.556 174.823 516.501 174.823V182.849ZM529.962 177.247C533.699 173.511 535.652 168.929 535.652 163.698H527.626C527.626 166.73 526.57 169.29 524.287 171.572L529.962 177.247ZM535.652 163.698C535.652 158.465 533.696 153.898 529.934 150.21L524.315 155.94C526.573 158.154 527.626 160.669 527.626 163.698H535.652ZM529.99 150.266C526.301 146.504 521.735 144.547 516.501 144.547V152.573C519.53 152.573 522.045 153.627 524.259 155.884L529.99 150.266ZM516.501 144.547C511.27 144.547 506.689 146.501 502.952 150.237L508.627 155.913C510.91 153.63 513.47 152.573 516.501 152.573V144.547ZM502.952 150.237C499.257 153.932 497.35 158.491 497.35 163.698H505.376C505.376 160.643 506.42 158.119 508.627 155.913L502.952 150.237ZM497.35 163.698C497.35 168.904 499.254 173.476 502.924 177.219L508.655 171.601C506.423 169.324 505.376 166.755 505.376 163.698H497.35ZM505.971 153.257C508.947 150.281 512.387 148.855 516.501 148.855V140.829C510.228 140.829 504.756 143.122 500.296 147.582L505.971 153.257ZM516.501 148.855C520.614 148.855 524.011 150.278 526.92 153.234L532.64 147.604C528.231 143.124 522.775 140.829 516.501 140.829V148.855ZM526.965 153.279C529.921 156.188 531.344 159.585 531.344 163.698H539.37C539.37 157.424 537.076 151.969 532.595 147.559L526.965 153.279ZM531.344 163.698C531.344 167.813 529.919 171.252 526.943 174.228L532.618 179.903C537.078 175.443 539.37 169.971 539.37 163.698H531.344ZM526.943 174.228C524.039 177.132 520.635 178.542 516.501 178.542V186.567C522.755 186.567 528.203 184.318 532.618 179.903L526.943 174.228ZM516.501 178.542C512.366 178.542 508.92 177.13 505.948 174.206L500.319 179.926C504.784 184.32 510.249 186.567 516.501 186.567V178.542ZM505.994 174.251C503.07 171.28 501.658 167.833 501.658 163.698H493.632C493.632 169.95 495.879 175.415 500.273 179.88L505.994 174.251ZM501.658 163.698C501.658 159.565 503.068 156.16 505.971 153.257L500.296 147.582C495.881 151.996 493.632 157.445 493.632 163.698H501.658Z" fill="#94EDB8" mask="url(#path-5-inside-2_242_2916)"/>
</g>
<g opacity="0.3">
<mask id="path-7-inside-3_242_2916" fill="white">
<path d="M85.8048 553.325L103.5 535.881L86.0567 518.186L68.3614 535.629L85.8048 553.325ZM95.1366 512.908C95.1091 516.744 96.4555 520.042 99.1757 522.801C101.896 525.561 105.174 526.954 109.01 526.982C112.846 527.009 116.143 525.663 118.903 522.943C121.662 520.222 123.056 516.944 123.083 513.109C123.111 509.273 121.764 505.975 119.044 503.216C116.324 500.456 113.046 499.063 109.21 499.035C105.374 499.008 102.077 500.354 99.3172 503.074C96.5576 505.794 95.1641 509.072 95.1366 512.908ZM130.665 559.092L123.187 527.289L98.9724 551.159L130.665 559.092Z"/>
</mask>
<path d="M85.8048 553.325L90.4288 558.016L85.738 562.64L81.114 557.949L85.8048 553.325ZM103.5 535.881L108.191 531.257L112.815 535.948L108.124 540.572L103.5 535.881ZM86.0567 518.186L81.4328 513.495L86.1235 508.871L90.7475 513.562L86.0567 518.186ZM68.3614 535.629L63.6706 540.253L59.0466 535.563L63.7374 530.939L68.3614 535.629ZM95.1366 512.908L88.5501 512.861L95.1366 512.908ZM109.01 526.982L108.963 533.568L109.01 526.982ZM123.083 513.109L116.497 513.061L123.083 513.109ZM109.21 499.035L109.163 505.622L109.21 499.035ZM130.665 559.092L137.077 557.585L139.551 568.107L129.066 565.482L130.665 559.092ZM123.187 527.289L118.563 522.598L126.915 514.365L129.599 525.781L123.187 527.289ZM98.9724 551.159L97.3729 557.548L85.9968 554.701L94.3484 546.468L98.9724 551.159ZM81.1808 548.634L98.8762 531.191L108.124 540.572L90.4288 558.016L81.1808 548.634ZM98.8094 540.505L81.366 522.81L90.7475 513.562L108.191 531.257L98.8094 540.505ZM90.6807 522.877L72.9853 540.32L63.7374 530.939L81.4328 513.495L90.6807 522.877ZM73.0521 531.006L90.4956 548.701L81.114 557.949L63.6706 540.253L73.0521 531.006ZM101.723 512.955C101.708 515.024 102.359 516.648 103.866 518.177L94.4849 527.425C90.5523 523.436 88.5099 518.463 88.5501 512.861L101.723 512.955ZM103.866 518.177C105.374 519.707 106.988 520.38 109.057 520.395L108.963 533.568C103.36 533.528 98.4175 531.415 94.4849 527.425L103.866 518.177ZM109.057 520.395C111.126 520.41 112.749 519.76 114.279 518.252L123.527 527.633C119.537 531.566 114.565 533.608 108.963 533.568L109.057 520.395ZM114.279 518.252C115.808 516.744 116.482 515.13 116.497 513.061L129.67 513.156C129.63 518.758 127.516 523.701 123.527 527.633L114.279 518.252ZM116.497 513.061C116.512 510.992 115.861 509.369 114.353 507.84L123.735 498.592C127.668 502.581 129.71 507.553 129.67 513.156L116.497 513.061ZM114.353 507.84C112.846 506.31 111.232 505.636 109.163 505.622L109.257 492.448C114.86 492.489 119.802 494.602 123.735 498.592L114.353 507.84ZM109.163 505.622C107.094 505.607 105.471 506.257 103.941 507.765L94.6932 498.383C98.6826 494.451 103.655 492.408 109.257 492.448L109.163 505.622ZM103.941 507.765C102.412 509.273 101.738 510.886 101.723 512.955L88.5501 512.861C88.5903 507.258 90.7038 502.316 94.6932 498.383L103.941 507.765ZM124.254 560.6L116.775 528.797L129.599 525.781L137.077 557.585L124.254 560.6ZM127.811 531.98L103.596 555.85L94.3484 546.468L118.563 522.598L127.811 531.98ZM100.572 544.769L132.265 552.703L129.066 565.482L97.3729 557.548L100.572 544.769Z" fill="#94EDB8" mask="url(#path-7-inside-3_242_2916)"/>
</g>
<g opacity="0.3">
<mask id="path-9-inside-4_242_2916" fill="white">
<path d="M503.121 429.483L508.297 432.556L501.995 443.174L496.819 440.102C496.288 439.787 495.941 439.312 495.779 438.677C495.618 438.043 495.694 437.46 496.009 436.929L499.948 430.293C500.263 429.762 500.738 429.415 501.373 429.254C502.007 429.092 502.59 429.168 503.121 429.483ZM536.372 463.578L505.048 444.986L511.35 434.368L542.674 452.96L544.832 461.42L536.372 463.578Z"/>
</mask>
<path d="M508.297 432.556L512.191 434.867L514.501 430.973L510.608 428.663L508.297 432.556ZM501.995 443.174L499.684 447.067L503.577 449.378L505.888 445.485L501.995 443.174ZM536.372 463.578L534.061 467.471L535.674 468.429L537.491 467.965L536.372 463.578ZM505.048 444.986L501.155 442.675L498.844 446.569L502.737 448.879L505.048 444.986ZM511.35 434.368L513.661 430.475L509.768 428.164L507.457 432.057L511.35 434.368ZM542.674 452.96L547.061 451.841L546.598 450.024L544.985 449.067L542.674 452.96ZM544.832 461.42L545.951 465.807L550.338 464.688L549.219 460.301L544.832 461.42ZM500.81 433.377L505.987 436.449L510.608 428.663L505.432 425.59L500.81 433.377ZM504.404 430.245L498.102 440.863L505.888 445.485L512.191 434.867L504.404 430.245ZM504.306 439.281L499.129 436.209L494.508 443.995L499.684 447.067L504.306 439.281ZM499.129 436.209C499.364 436.348 499.612 436.558 499.818 436.841C500.021 437.119 500.121 437.381 500.166 437.558L491.393 439.796C491.831 441.516 492.877 443.027 494.508 443.995L499.129 436.209ZM500.166 437.558C500.211 437.736 500.249 438.013 500.204 438.355C500.159 438.702 500.042 439.005 499.903 439.24L492.116 434.618C491.148 436.249 490.954 438.077 491.393 439.796L500.166 437.558ZM499.903 439.24L503.842 432.603L496.055 427.982L492.116 434.618L499.903 439.24ZM503.842 432.603C503.702 432.838 503.492 433.086 503.209 433.292C502.931 433.495 502.669 433.595 502.492 433.64L500.254 424.867C498.534 425.305 497.023 426.351 496.055 427.982L503.842 432.603ZM502.492 433.64C502.315 433.686 502.037 433.723 501.695 433.678C501.348 433.633 501.045 433.516 500.81 433.377L505.432 425.59C503.801 424.622 501.974 424.428 500.254 424.867L502.492 433.64ZM538.683 459.685L507.359 441.093L502.737 448.879L534.061 467.471L538.683 459.685ZM508.941 447.297L515.243 436.679L507.457 432.057L501.155 442.675L508.941 447.297ZM509.039 438.261L540.364 456.853L544.985 449.067L513.661 430.475L509.039 438.261ZM538.287 454.079L540.445 462.539L549.219 460.301L547.061 451.841L538.287 454.079ZM543.713 457.033L535.253 459.191L537.491 467.965L545.951 465.807L543.713 457.033Z" fill="#94EDB8" mask="url(#path-9-inside-4_242_2916)"/>
</g>
<path opacity="0.4" d="M365.937 63.4919C365.151 62.6985 363.184 58.3347 367.51 55.5577C371.836 52.7808 376.949 50.4005 387.96 50.0038C396.77 49.6864 401.332 49.8716 402.511 50.0038C399.627 48.5492 394.803 45.1638 398.579 43.2596C402.354 41.3554 408.804 41.6728 411.557 42.0695C406.313 36.6479 397.399 24.059 403.691 17.077C411.557 8.34939 421.388 6.76255 429.647 6.76255C437.906 6.76255 454.03 7.15926 465.041 9.1428C473.701 10.7026 480.282 12.9013 482.621 13.8549C476.136 11.1879 461.454 5.40029 453.636 3.19218C445.771 0.970614 440.134 0.415222 438.299 0.415222C445.509 0.415222 462.682 1.28798 473.693 4.77901C487.458 9.1428 510.267 22.6309 517.739 28.9782C523.717 34.0561 532.553 42.7308 536.223 46.4334C535.699 41.2762 536.538 31.1204 544.088 31.7552C553.527 32.5486 564.538 42.0696 567.291 45.2433C569.494 47.7822 571.88 51.5906 572.797 53.1774H526.391C502.271 54.3676 453.243 56.5098 450.097 55.5577C446.164 54.3675 376.949 60.7149 374.196 61.5083C371.994 62.143 367.773 63.0952 365.937 63.4919Z" fill="#94EDB8"/>
<path fill-rule="evenodd" clip-rule="evenodd" d="M273.363 216.652C235.713 216.652 146.721 306.288 146.721 376.077C146.721 426.365 194.754 468.402 275.959 468.402C357.163 468.402 408.135 423.777 408.135 376.077C408.135 315.648 343.804 216.652 273.363 216.652Z" fill="#94EDB8"/>
<path fill-rule="evenodd" clip-rule="evenodd" d="M244.896 177.043C228.529 170.644 236.635 154.222 245.596 144.983C255.267 135.01 268.757 127.691 282.994 129.692C296.898 131.647 318.269 159.203 315.845 174.93C313.158 192.358 272.782 187.947 244.896 177.043Z" fill="#94EDB8"/>
<path fill-rule="evenodd" clip-rule="evenodd" d="M137.418 331.043C137.418 331.043 156.311 359.579 170.886 367.743C185.46 375.907 219.468 387.605 219.468 387.605C219.468 387.605 227.934 389.406 229.725 392.675C231.516 395.944 250.237 418.098 253.476 422.425C256.715 426.753 263.732 432.161 269.67 432.161C275.608 432.161 295.041 425.67 296.121 424.047C297.2 422.425 315.554 401.329 317.173 399.707C318.793 398.084 329.589 391.436 333.367 389.892C337.146 388.347 359.278 378.611 364.676 376.448C370.074 374.284 403.002 357.925 408.401 350.148C413.798 342.371 429.308 331.788 418.638 330.284C407.967 328.779 384.682 337.122 384.682 337.122C384.682 337.122 395.445 314.243 395.445 304.507C395.445 294.77 388.293 230.943 388.293 230.943C388.293 230.943 385.816 180.638 371.198 176.853C356.579 173.066 365.756 168.198 338.766 169.82C311.775 171.443 181.099 175.23 181.099 175.23C181.099 175.23 167.108 219.043 164.948 231.484C162.789 243.925 157.93 290.444 158.47 298.557C159.011 306.671 167.647 335.339 167.647 335.339L137.418 331.043Z" fill="white"/>
<path fill-rule="evenodd" clip-rule="evenodd" d="M189.769 340.483C189.769 340.483 184.866 326.34 182.645 321.889C180.424 317.438 177.76 312.988 196.858 312.988C215.957 312.988 348.759 312.542 361.195 310.762C373.631 308.982 375.408 312.542 370.078 321.889C364.748 331.235 359.418 342.362 359.418 342.362L321.221 346.81C321.221 346.81 309.673 335.686 300.345 331.68C291.018 327.674 266.59 324.114 260.816 328.12C255.042 332.126 245.271 338.356 243.494 340.582C241.718 342.807 233.25 346.64 233.25 346.64L189.769 340.483Z" fill="#D5E4EC"/>
<path fill-rule="evenodd" clip-rule="evenodd" d="M226.616 361.499C226.616 361.499 172.43 348.593 161.77 338.801C151.11 329.01 142.227 330.345 142.227 330.345C142.227 330.345 160.881 362.554 164.879 366.478C168.876 370.401 196.413 386.868 197.746 387.758C199.079 388.648 228.813 389.892 228.813 389.892L226.616 361.499Z" fill="#D5E4EC"/>
<path fill-rule="evenodd" clip-rule="evenodd" d="M327.859 361.499C327.859 361.499 382.046 348.593 392.705 338.801C403.365 329.01 412.248 330.345 412.248 330.345C412.248 330.345 393.594 362.554 389.597 366.478C385.599 370.401 358.061 386.868 356.729 387.758C355.396 388.648 325.662 389.892 325.662 389.892L327.859 361.499Z" fill="#D5E4EC"/>
<path fill-rule="evenodd" clip-rule="evenodd" d="M231.843 379.351L228.594 373.523C245.471 364.076 267.221 360.734 291.493 363.861C309.694 366.205 322.774 371.268 323.323 371.482L320.901 377.701L320.9 377.7C320.695 377.621 307.853 372.679 290.477 370.461C274.594 368.434 251.529 368.331 231.843 379.351Z" fill="#89A1B1"/>
<path fill-rule="evenodd" clip-rule="evenodd" d="M262.238 365.539C262.238 375.882 267.988 384.267 275.08 384.267C282.173 384.267 287.922 375.882 287.922 365.539C287.922 355.194 282.173 346.81 275.08 346.81C267.988 346.81 262.238 355.194 262.238 365.539Z" fill="#2CABE3"/>
<path fill-rule="evenodd" clip-rule="evenodd" d="M275.08 350.148C269.925 350.148 265.569 357.196 265.569 365.538C265.569 373.881 269.925 380.929 275.08 380.929C280.236 380.929 284.591 373.881 284.591 365.538C284.591 357.196 280.236 350.148 275.08 350.148ZM275.08 387.605C266.011 387.605 258.907 377.912 258.907 365.538C258.907 353.164 266.011 343.472 275.08 343.472C284.149 343.472 291.253 353.164 291.253 365.538C291.253 377.912 284.149 387.605 275.08 387.605Z" fill="#28313B"/>
<path fill-rule="evenodd" clip-rule="evenodd" d="M276.119 333.035C261.759 333.035 250.999 336.633 244.139 343.729C236.978 351.137 235.476 361.019 235.476 368.006C235.476 381.835 239.81 394.642 248.359 406.073C256.747 417.29 266.157 423.142 268.841 424.668C272.148 426.547 276.141 426.883 279.796 425.587C285.532 423.553 294.496 417.846 302.446 407.935C308.756 400.069 316.571 386.713 318.055 367.698C317.998 358.669 314.711 350.393 308.786 344.371C301.489 336.955 290.193 333.035 276.119 333.035ZM275.295 439.717C270.764 439.717 266.274 438.559 262.266 436.281C259.014 434.431 247.632 427.365 237.696 414.081C227.381 400.288 222.151 384.786 222.151 368.006C222.151 354.45 226.445 342.843 234.569 334.439C244.034 324.647 258.014 319.683 276.119 319.683C293.841 319.683 308.418 324.978 318.275 334.997C326.726 343.588 331.381 355.289 331.381 367.943L331.363 368.443C330.024 386.306 323.616 402.855 312.832 416.3C304.595 426.569 293.906 434.745 284.241 438.173C281.329 439.206 278.303 439.717 275.295 439.717Z" fill="#28313B"/>
<path fill-rule="evenodd" clip-rule="evenodd" d="M161.12 238.388H388.294V231.712H161.12V238.388Z" fill="#89A1B1"/>
<path fill-rule="evenodd" clip-rule="evenodd" d="M175.781 291.191C175.839 294.292 178.147 296.888 181.213 297.299C190.893 298.598 216.353 300.862 276.225 300.862C336.228 300.862 361.669 298.588 371.3 297.291C374.352 296.88 376.651 294.309 376.732 291.224C376.955 282.797 376.67 264.342 372.027 237.594C367.932 214.006 363.731 200.369 361.169 193.481C359.838 189.906 356.6 187.396 352.815 186.986C341.255 185.736 313.437 183.229 276.225 183.229C239.158 183.229 211.412 185.717 199.771 186.972C195.937 187.386 192.682 189.951 191.364 193.582C188.754 200.773 184.41 214.851 180.431 237.545C175.95 263.099 175.618 282.408 175.781 291.191Z" fill="#343A4C"/>
<path fill-rule="evenodd" clip-rule="evenodd" d="M381.183 342.816L371.344 333.813C376.469 328.19 380.82 322.067 384.278 315.614C387.383 309.818 389.043 303.282 389.082 296.712C389.152 284.879 388.245 265.071 383.527 237.897C378.839 210.891 373.12 193.679 369.146 183.995C368.038 181.287 365.537 179.422 362.619 179.126C348.27 177.676 317.96 175.244 276.218 175.244C234.598 175.249 204.135 177.665 189.681 179.106C186.692 179.404 184.159 181.342 183.072 184.164C179.099 194.475 173.418 212.159 168.912 237.849C164.115 265.217 163.432 286.486 163.452 296.729C163.46 303.375 165.107 309.941 168.215 315.72C171.543 321.906 175.692 327.792 180.548 333.215L170.632 342.132C165.073 335.925 160.313 329.17 156.486 322.055C152.337 314.339 150.137 305.589 150.128 296.749C150.103 283.706 151.065 262.494 155.788 235.539C160.481 208.788 166.456 190.221 170.642 179.356C173.549 171.806 180.34 166.62 188.361 165.819C203.062 164.355 234.022 161.897 276.217 161.892C318.543 161.892 349.357 164.368 363.959 165.843C371.783 166.636 378.493 171.649 381.472 178.923C385.696 189.219 391.76 207.414 396.654 235.608C401.541 263.753 402.48 284.414 402.406 296.789C402.356 305.529 400.147 314.222 396.018 321.93C392.04 329.353 387.049 336.381 381.183 342.816Z" fill="#28313B"/>
<path fill-rule="evenodd" clip-rule="evenodd" d="M316.537 214.722C301.368 215.613 307.974 274.872 309.476 274.784C310.976 274.696 309.752 234.067 317.641 233.603C325.53 233.141 329.052 273.633 330.553 273.546C332.053 273.457 331.706 213.831 316.537 214.722Z" fill="#2CABE3"/>
<path fill-rule="evenodd" clip-rule="evenodd" d="M239.77 214.05C254.909 215.36 246.674 274.414 245.177 274.284C243.679 274.155 246.02 233.575 238.147 232.894C230.273 232.214 225.639 272.594 224.141 272.465C222.644 272.335 224.631 212.741 239.77 214.05Z" fill="#2CABE3"/>
<path fill-rule="evenodd" clip-rule="evenodd" d="M264.635 160.331C264.897 153.618 270.54 148.388 277.24 148.65C283.94 148.913 289.159 154.568 288.897 161.281C288.635 167.994 282.991 173.224 276.292 172.961C269.592 172.699 264.373 167.044 264.635 160.331Z" fill="#28313B"/>
<path fill-rule="evenodd" clip-rule="evenodd" d="M198.386 382.74C193.865 369.846 197.018 359.386 200.46 352.882C204.16 345.887 208.946 341.908 209.148 341.742L213.381 346.898C212.732 347.437 197.592 360.338 204.672 380.526L198.386 382.74Z" fill="#89A1B1"/>
<path fill-rule="evenodd" clip-rule="evenodd" d="M171.946 367.743C166.262 353.844 175.582 341.636 181.304 337.122L185.432 342.362C185.399 342.388 182.114 345.035 179.616 349.282C176.475 354.617 175.969 359.976 178.111 365.211L171.946 367.743Z" fill="#89A1B1"/>
<path fill-rule="evenodd" clip-rule="evenodd" d="M136.824 316.278C128.685 313.232 119.624 317.374 116.585 325.529C113.545 333.684 117.679 342.764 125.817 345.809C133.956 348.855 143.017 344.713 146.056 336.558C149.096 328.403 144.962 319.323 136.824 316.278Z" fill="#28313B"/>
<path fill-rule="evenodd" clip-rule="evenodd" d="M142.366 331.039C135.921 327.072 126.476 314.457 125.507 301.086C125.219 297.121 125.677 293.268 126.869 289.634L135.309 292.414C134.48 294.939 134.163 297.64 134.366 300.442C135.125 310.907 143.004 320.985 147.015 323.453L142.366 331.039Z" fill="#28313B"/>
<path fill-rule="evenodd" clip-rule="evenodd" d="M231.439 396.505C176.624 388.927 142.429 354.405 133.879 341.743C130.841 337.24 131.062 331.35 134.428 327.083C137.793 322.817 143.463 321.243 148.533 323.165C179.059 334.73 235.014 340.11 235.575 340.164L234.328 353.456C233.737 353.401 219.658 352.061 201.441 349.215C178.502 345.632 160.118 341.431 146.721 336.713C156.432 349.012 186.932 376.874 233.26 383.279L231.439 396.505Z" fill="#28313B"/>
<path fill-rule="evenodd" clip-rule="evenodd" d="M356.47 382.74L350.185 380.526C357.309 360.213 341.643 347.035 341.484 346.904L345.709 341.742C345.91 341.908 350.696 345.887 354.398 352.882C357.839 359.386 360.992 369.846 356.47 382.74Z" fill="#89A1B1"/>
<path fill-rule="evenodd" clip-rule="evenodd" d="M382.911 367.743L376.745 365.212C378.887 359.976 378.381 354.616 375.241 349.282C372.742 345.036 369.457 342.387 369.425 342.361L373.553 337.122C379.275 341.635 388.595 353.845 382.911 367.743Z" fill="#89A1B1"/>
<path fill-rule="evenodd" clip-rule="evenodd" d="M418.033 316.278C426.171 313.232 435.233 317.374 438.272 325.529C441.311 333.684 437.178 342.764 429.039 345.809C420.901 348.855 411.84 344.713 408.801 336.558C405.761 328.403 409.894 319.323 418.033 316.278Z" fill="#28313B"/>
<path fill-rule="evenodd" clip-rule="evenodd" d="M412.491 331.039L407.842 323.453C411.852 320.985 419.732 310.907 420.49 300.442C420.694 297.64 420.376 294.939 419.548 292.414L427.987 289.634C429.179 293.268 429.638 297.121 429.35 301.086C428.381 314.457 418.936 327.072 412.491 331.039Z" fill="#28313B"/>
<path fill-rule="evenodd" clip-rule="evenodd" d="M323.418 396.505L321.597 383.279C367.92 376.875 398.42 349.016 408.135 336.713C394.738 341.431 376.353 345.632 353.415 349.215C335.198 352.061 321.119 353.401 320.529 353.456L319.281 340.164C319.842 340.11 375.798 334.73 406.324 323.164C411.394 321.243 417.062 322.817 420.429 327.083C423.795 331.349 424.016 337.24 420.98 341.742C412.428 354.405 378.232 388.927 323.418 396.505Z" fill="#28313B"/>
<path fill-rule="evenodd" clip-rule="evenodd" d="M122.509 318.051L128.136 328.28C128.136 328.28 113.257 333.467 111.819 332.564C110.38 331.661 106.722 323.6 108.33 322.733L122.509 318.051Z" fill="#28313B"/>
<path fill-rule="evenodd" clip-rule="evenodd" d="M432.236 318.051L426.61 328.28C426.61 328.28 441.488 333.467 442.927 332.564C444.366 331.661 448.023 323.6 446.415 322.733L432.236 318.051Z" fill="#28313B"/>
<path fill-rule="evenodd" clip-rule="evenodd" d="M273.363 216.652C235.713 216.652 146.721 306.288 146.721 376.077C146.721 426.365 194.754 468.402 275.959 468.402C357.163 468.402 408.135 423.777 408.135 376.077C408.135 315.648 343.804 216.652 273.363 216.652Z" stroke="white" stroke-width="4"/>
<path fill-rule="evenodd" clip-rule="evenodd" d="M244.896 177.043C228.529 170.644 236.635 154.222 245.596 144.983C255.267 135.01 268.757 127.691 282.994 129.692C296.898 131.647 318.269 159.203 315.845 174.93C313.158 192.358 272.782 187.947 244.896 177.043Z" stroke="white" stroke-width="4"/>
<path fill-rule="evenodd" clip-rule="evenodd" d="M137.418 331.043C137.418 331.043 156.311 359.579 170.886 367.743C185.46 375.907 219.468 387.605 219.468 387.605C219.468 387.605 227.934 389.406 229.725 392.675C231.516 395.944 250.237 418.098 253.476 422.425C256.715 426.753 263.732 432.161 269.67 432.161C275.608 432.161 295.041 425.67 296.121 424.047C297.2 422.425 315.554 401.329 317.173 399.707C318.793 398.084 329.589 391.436 333.367 389.892C337.146 388.347 359.278 378.611 364.676 376.448C370.074 374.284 403.002 357.925 408.401 350.148C413.798 342.371 429.308 331.788 418.638 330.284C407.967 328.779 384.682 337.122 384.682 337.122C384.682 337.122 395.445 314.243 395.445 304.507C395.445 294.77 388.293 230.943 388.293 230.943C388.293 230.943 385.816 180.638 371.198 176.853C356.579 173.066 365.756 168.198 338.766 169.82C311.775 171.443 181.099 175.23 181.099 175.23C181.099 175.23 167.108 219.043 164.948 231.484C162.789 243.925 157.93 290.444 158.47 298.557C159.011 306.671 167.647 335.339 167.647 335.339L137.418 331.043Z" stroke="white" stroke-width="4"/>
<path fill-rule="evenodd" clip-rule="evenodd" d="M189.769 340.483C189.769 340.483 184.866 326.34 182.645 321.889C180.424 317.438 177.76 312.988 196.858 312.988C215.957 312.988 348.759 312.542 361.195 310.762C373.631 308.982 375.408 312.542 370.078 321.889C364.748 331.235 359.418 342.362 359.418 342.362L321.221 346.81C321.221 346.81 309.673 335.686 300.345 331.68C291.018 327.674 266.59 324.114 260.816 328.12C255.042 332.126 245.271 338.356 243.494 340.582C241.718 342.807 233.25 346.64 233.25 346.64L189.769 340.483Z" stroke="white" stroke-width="4"/>
<path fill-rule="evenodd" clip-rule="evenodd" d="M226.616 361.499C226.616 361.499 172.43 348.593 161.77 338.801C151.11 329.01 142.227 330.345 142.227 330.345C142.227 330.345 160.881 362.554 164.879 366.478C168.876 370.401 196.413 386.868 197.746 387.758C199.079 388.648 228.813 389.892 228.813 389.892L226.616 361.499Z" stroke="white" stroke-width="4"/>
<path fill-rule="evenodd" clip-rule="evenodd" d="M327.859 361.499C327.859 361.499 382.046 348.593 392.705 338.801C403.365 329.01 412.248 330.345 412.248 330.345C412.248 330.345 393.594 362.554 389.597 366.478C385.599 370.401 358.061 386.868 356.729 387.758C355.396 388.648 325.662 389.892 325.662 389.892L327.859 361.499Z" stroke="white" stroke-width="4"/>
<path fill-rule="evenodd" clip-rule="evenodd" d="M231.843 379.351L228.594 373.523C245.471 364.076 267.221 360.734 291.493 363.861C309.694 366.205 322.774 371.268 323.323 371.482L320.901 377.701L320.9 377.7C320.695 377.621 307.853 372.679 290.477 370.461C274.594 368.434 251.529 368.331 231.843 379.351Z" stroke="white" stroke-width="4"/>
<path fill-rule="evenodd" clip-rule="evenodd" d="M262.238 365.539C262.238 375.882 267.988 384.267 275.08 384.267C282.173 384.267 287.922 375.882 287.922 365.539C287.922 355.194 282.173 346.81 275.08 346.81C267.988 346.81 262.238 355.194 262.238 365.539Z" stroke="white" stroke-width="4"/>
<path fill-rule="evenodd" clip-rule="evenodd" d="M275.08 350.148C269.925 350.148 265.569 357.196 265.569 365.538C265.569 373.881 269.925 380.929 275.08 380.929C280.236 380.929 284.591 373.881 284.591 365.538C284.591 357.196 280.236 350.148 275.08 350.148ZM275.08 387.605C266.011 387.605 258.907 377.912 258.907 365.538C258.907 353.164 266.011 343.472 275.08 343.472C284.149 343.472 291.253 353.164 291.253 365.538C291.253 377.912 284.149 387.605 275.08 387.605Z" stroke="white" stroke-width="4"/>
<path fill-rule="evenodd" clip-rule="evenodd" d="M276.119 333.035C261.759 333.035 250.999 336.633 244.139 343.729C236.978 351.137 235.476 361.019 235.476 368.006C235.476 381.835 239.81 394.642 248.359 406.073C256.747 417.29 266.157 423.142 268.841 424.668C272.148 426.547 276.141 426.883 279.796 425.587C285.532 423.553 294.496 417.846 302.446 407.935C308.756 400.069 316.571 386.713 318.055 367.698C317.998 358.669 314.711 350.393 308.786 344.371C301.489 336.955 290.193 333.035 276.119 333.035ZM275.295 439.717C270.764 439.717 266.274 438.559 262.266 436.281C259.014 434.431 247.632 427.365 237.696 414.081C227.381 400.288 222.151 384.786 222.151 368.006C222.151 354.45 226.445 342.843 234.569 334.439C244.034 324.647 258.014 319.683 276.119 319.683C293.841 319.683 308.418 324.978 318.275 334.997C326.726 343.588 331.381 355.289 331.381 367.943L331.363 368.443C330.024 386.306 323.616 402.855 312.832 416.3C304.595 426.569 293.906 434.745 284.241 438.173C281.329 439.206 278.303 439.717 275.295 439.717Z" stroke="white" stroke-width="4"/>
<path fill-rule="evenodd" clip-rule="evenodd" d="M161.12 238.388H388.294V231.712H161.12V238.388Z" stroke="white" stroke-width="4"/>
<path fill-rule="evenodd" clip-rule="evenodd" d="M175.781 291.191C175.839 294.292 178.147 296.888 181.213 297.299C190.893 298.598 216.353 300.862 276.225 300.862C336.228 300.862 361.669 298.588 371.3 297.291C374.352 296.88 376.651 294.309 376.732 291.224C376.955 282.797 376.67 264.342 372.027 237.594C367.932 214.006 363.731 200.369 361.169 193.481C359.838 189.906 356.6 187.396 352.815 186.986C341.255 185.736 313.437 183.229 276.225 183.229C239.158 183.229 211.412 185.717 199.771 186.972C195.937 187.386 192.682 189.951 191.364 193.582C188.754 200.773 184.41 214.851 180.431 237.545C175.95 263.099 175.618 282.408 175.781 291.191Z" stroke="white" stroke-width="4"/>
<path fill-rule="evenodd" clip-rule="evenodd" d="M381.183 342.816L371.344 333.813C376.469 328.19 380.82 322.067 384.278 315.614C387.383 309.818 389.043 303.282 389.082 296.712C389.152 284.879 388.245 265.071 383.527 237.897C378.839 210.891 373.12 193.679 369.146 183.995C368.038 181.287 365.537 179.422 362.619 179.126C348.27 177.676 317.96 175.244 276.218 175.244C234.598 175.249 204.135 177.665 189.681 179.106C186.692 179.404 184.159 181.342 183.072 184.164C179.099 194.475 173.418 212.159 168.912 237.849C164.115 265.217 163.432 286.486 163.452 296.729C163.46 303.375 165.107 309.941 168.215 315.72C171.543 321.906 175.692 327.792 180.548 333.215L170.632 342.132C165.073 335.925 160.313 329.17 156.486 322.055C152.337 314.339 150.137 305.589 150.128 296.749C150.103 283.706 151.065 262.494 155.788 235.539C160.481 208.788 166.456 190.221 170.642 179.356C173.549 171.806 180.34 166.62 188.361 165.819C203.062 164.355 234.022 161.897 276.217 161.892C318.543 161.892 349.357 164.368 363.959 165.843C371.783 166.636 378.493 171.649 381.472 178.923C385.696 189.219 391.76 207.414 396.654 235.608C401.541 263.753 402.48 284.414 402.406 296.789C402.356 305.529 400.147 314.222 396.018 321.93C392.04 329.353 387.049 336.381 381.183 342.816Z" stroke="white" stroke-width="4"/>
<path fill-rule="evenodd" clip-rule="evenodd" d="M316.537 214.722C301.368 215.613 307.974 274.872 309.476 274.784C310.976 274.696 309.752 234.067 317.641 233.603C325.53 233.141 329.052 273.633 330.553 273.546C332.053 273.457 331.706 213.831 316.537 214.722Z" stroke="white" stroke-width="4"/>
<path fill-rule="evenodd" clip-rule="evenodd" d="M239.77 214.05C254.909 215.36 246.674 274.414 245.177 274.284C243.679 274.155 246.02 233.575 238.147 232.894C230.273 232.214 225.639 272.594 224.141 272.465C222.644 272.335 224.631 212.741 239.77 214.05Z" stroke="white" stroke-width="4"/>
<path fill-rule="evenodd" clip-rule="evenodd" d="M264.635 160.331C264.897 153.618 270.54 148.388 277.24 148.65C283.94 148.913 289.159 154.568 288.897 161.281C288.635 167.994 282.991 173.224 276.292 172.961C269.592 172.699 264.373 167.044 264.635 160.331Z" stroke="white" stroke-width="4"/>
<path fill-rule="evenodd" clip-rule="evenodd" d="M198.386 382.74C193.865 369.846 197.018 359.386 200.46 352.882C204.16 345.887 208.946 341.908 209.148 341.742L213.381 346.898C212.732 347.437 197.592 360.338 204.672 380.526L198.386 382.74Z" stroke="white" stroke-width="4"/>
<path fill-rule="evenodd" clip-rule="evenodd" d="M171.946 367.743C166.262 353.844 175.582 341.636 181.304 337.122L185.432 342.362C185.399 342.388 182.114 345.035 179.616 349.282C176.475 354.617 175.969 359.976 178.111 365.211L171.946 367.743Z" stroke="white" stroke-width="4"/>
<path fill-rule="evenodd" clip-rule="evenodd" d="M136.824 316.278C128.685 313.232 119.624 317.374 116.585 325.529C113.545 333.684 117.679 342.764 125.817 345.809C133.956 348.855 143.017 344.713 146.056 336.558C149.096 328.403 144.962 319.323 136.824 316.278Z" stroke="white" stroke-width="4"/>
<path fill-rule="evenodd" clip-rule="evenodd" d="M142.366 331.039C135.921 327.072 126.476 314.457 125.507 301.086C125.219 297.121 125.677 293.268 126.869 289.634L135.309 292.414C134.48 294.939 134.163 297.64 134.366 300.442C135.125 310.907 143.004 320.985 147.015 323.453L142.366 331.039Z" stroke="white" stroke-width="4"/>
<path fill-rule="evenodd" clip-rule="evenodd" d="M231.439 396.505C176.624 388.927 142.429 354.405 133.879 341.743C130.841 337.24 131.062 331.35 134.428 327.083C137.793 322.817 143.463 321.243 148.533 323.165C179.059 334.73 235.014 340.11 235.575 340.164L234.328 353.456C233.737 353.401 219.658 352.061 201.441 349.215C178.502 345.632 160.118 341.431 146.721 336.713C156.432 349.012 186.932 376.874 233.26 383.279L231.439 396.505Z" stroke="white" stroke-width="4"/>
<path fill-rule="evenodd" clip-rule="evenodd" d="M356.47 382.74L350.185 380.526C357.309 360.213 341.643 347.035 341.484 346.904L345.709 341.742C345.91 341.908 350.696 345.887 354.398 352.882C357.839 359.386 360.992 369.846 356.47 382.74Z" stroke="white" stroke-width="4"/>
<path fill-rule="evenodd" clip-rule="evenodd" d="M382.911 367.743L376.745 365.212C378.887 359.976 378.381 354.616 375.241 349.282C372.742 345.036 369.457 342.387 369.425 342.361L373.553 337.122C379.275 341.635 388.595 353.845 382.911 367.743Z" stroke="white" stroke-width="4"/>
<path fill-rule="evenodd" clip-rule="evenodd" d="M418.033 316.278C426.171 313.232 435.233 317.374 438.272 325.529C441.311 333.684 437.178 342.764 429.039 345.809C420.901 348.855 411.84 344.713 408.801 336.558C405.761 328.403 409.894 319.323 418.033 316.278Z" stroke="white" stroke-width="4"/>
<path fill-rule="evenodd" clip-rule="evenodd" d="M412.491 331.039L407.842 323.453C411.852 320.985 419.732 310.907 420.49 300.442C420.694 297.64 420.376 294.939 419.548 292.414L427.987 289.634C429.179 293.268 429.638 297.121 429.35 301.086C428.381 314.457 418.936 327.072 412.491 331.039Z" stroke="white" stroke-width="4"/>
<path fill-rule="evenodd" clip-rule="evenodd" d="M323.418 396.505L321.597 383.279C367.92 376.875 398.42 349.016 408.135 336.713C394.738 341.431 376.353 345.632 353.415 349.215C335.198 352.061 321.119 353.401 320.529 353.456L319.281 340.164C319.842 340.11 375.798 334.73 406.324 323.164C411.394 321.243 417.062 322.817 420.429 327.083C423.795 331.349 424.016 337.24 420.98 341.742C412.428 354.405 378.232 388.927 323.418 396.505Z" stroke="white" stroke-width="4"/>
<path fill-rule="evenodd" clip-rule="evenodd" d="M122.509 318.051L128.136 328.28C128.136 328.28 113.257 333.467 111.819 332.564C110.38 331.661 106.722 323.6 108.33 322.733L122.509 318.051Z" stroke="white" stroke-width="4"/>
<path fill-rule="evenodd" clip-rule="evenodd" d="M432.236 318.051L426.61 328.28C426.61 328.28 441.488 333.467 442.927 332.564C444.366 331.661 448.023 323.6 446.415 322.733L432.236 318.051Z" stroke="white" stroke-width="4"/>
<mask id="mask0_242_2916" style="mask-type:luminance" maskUnits="userSpaceOnUse" x="146" y="216" width="263" height="253">
<path fill-rule="evenodd" clip-rule="evenodd" d="M146.721 216.652H408.135V468.402H146.721V216.652Z" fill="white"/>
</mask>
<g mask="url(#mask0_242_2916)">
<path fill-rule="evenodd" clip-rule="evenodd" d="M273.363 216.652C235.713 216.652 146.721 306.288 146.721 376.077C146.721 426.365 194.754 468.402 275.959 468.402C357.163 468.402 408.135 423.777 408.135 376.077C408.135 315.648 343.804 216.652 273.363 216.652" fill="#94EDB8"/>
</g>
<path fill-rule="evenodd" clip-rule="evenodd" d="M244.896 177.043C228.529 170.644 236.635 154.222 245.596 144.983C255.267 135.01 268.757 127.691 282.994 129.692C296.898 131.647 318.269 159.203 315.845 174.93C313.158 192.358 272.782 187.947 244.896 177.043" fill="#94EDB8"/>
<path fill-rule="evenodd" clip-rule="evenodd" d="M137.418 331.043C137.418 331.043 156.311 359.579 170.886 367.743C185.46 375.907 219.468 387.605 219.468 387.605C219.468 387.605 227.934 389.406 229.725 392.675C231.516 395.944 250.237 418.098 253.476 422.425C256.715 426.753 263.732 432.161 269.67 432.161C275.608 432.161 295.041 425.67 296.121 424.047C297.2 422.425 315.554 401.329 317.173 399.707C318.793 398.084 329.589 391.436 333.367 389.892C337.146 388.347 359.278 378.611 364.676 376.448C370.074 374.284 403.002 357.925 408.401 350.148C413.798 342.371 429.308 331.788 418.638 330.284C407.967 328.779 384.682 337.122 384.682 337.122C384.682 337.122 395.445 314.243 395.445 304.507C395.445 294.77 388.293 230.943 388.293 230.943C388.293 230.943 385.816 180.638 371.198 176.853C356.579 173.066 365.756 168.198 338.766 169.82C311.775 171.443 181.099 175.23 181.099 175.23C181.099 175.23 167.108 219.043 164.948 231.484C162.789 243.925 157.93 290.443 158.47 298.557C159.011 306.671 167.647 335.339 167.647 335.339L137.418 331.043Z" fill="white"/>
<path fill-rule="evenodd" clip-rule="evenodd" d="M189.769 340.483C189.769 340.483 184.866 326.34 182.645 321.889C180.424 317.438 177.76 312.988 196.858 312.988C215.957 312.988 348.758 312.542 361.195 310.762C373.631 308.982 375.408 312.542 370.078 321.889C364.748 331.235 359.418 342.362 359.418 342.362L321.221 346.81C321.221 346.81 309.673 335.686 300.345 331.68C291.018 327.674 266.59 324.114 260.816 328.12C255.042 332.125 245.271 338.356 243.494 340.582C241.718 342.807 233.25 346.64 233.25 346.64L189.769 340.483Z" fill="#D5E4EC"/>
<path fill-rule="evenodd" clip-rule="evenodd" d="M226.616 361.499C226.616 361.499 172.43 348.593 161.77 338.801C151.11 329.01 142.227 330.345 142.227 330.345C142.227 330.345 160.881 362.554 164.879 366.478C168.876 370.401 196.413 386.868 197.746 387.758C199.079 388.648 228.813 389.892 228.813 389.892L226.616 361.499Z" fill="#D5E4EC"/>
<path fill-rule="evenodd" clip-rule="evenodd" d="M327.859 361.499C327.859 361.499 382.045 348.593 392.705 338.801C403.365 329.01 412.248 330.345 412.248 330.345C412.248 330.345 393.594 362.554 389.597 366.478C385.599 370.401 358.061 386.868 356.729 387.758C355.396 388.648 325.662 389.892 325.662 389.892L327.859 361.499Z" fill="#D5E4EC"/>
<path fill-rule="evenodd" clip-rule="evenodd" d="M231.843 379.351L228.594 373.523C245.471 364.076 267.221 360.734 291.493 363.861C309.694 366.205 322.774 371.268 323.323 371.482L320.901 377.701C320.901 377.701 320.9 377.701 320.9 377.7C320.695 377.621 307.853 372.679 290.477 370.461C274.594 368.434 251.529 368.331 231.843 379.351" fill="#89A1B1"/>
<path fill-rule="evenodd" clip-rule="evenodd" d="M262.238 365.539C262.238 375.882 267.988 384.267 275.08 384.267C282.172 384.267 287.922 375.882 287.922 365.539C287.922 355.194 282.172 346.81 275.08 346.81C267.988 346.81 262.238 355.194 262.238 365.539" fill="#2CABE3"/>
<path fill-rule="evenodd" clip-rule="evenodd" d="M275.08 350.148C269.925 350.148 265.569 357.196 265.569 365.538C265.569 373.881 269.925 380.929 275.08 380.929C280.236 380.929 284.591 373.881 284.591 365.538C284.591 357.196 280.236 350.148 275.08 350.148M275.08 387.605C266.011 387.605 258.907 377.912 258.907 365.538C258.907 353.164 266.011 343.472 275.08 343.472C284.149 343.472 291.253 353.164 291.253 365.538C291.253 377.912 284.149 387.605 275.08 387.605" fill="#28313B"/>
<path fill-rule="evenodd" clip-rule="evenodd" d="M276.119 333.034C261.759 333.034 250.999 336.633 244.139 343.729C236.978 351.137 235.475 361.019 235.475 368.006C235.475 381.835 239.81 394.642 248.359 406.073C256.747 417.29 266.157 423.142 268.841 424.668C272.148 426.547 276.141 426.882 279.796 425.587C285.532 423.553 294.496 417.846 302.446 407.935C308.756 400.069 316.571 386.713 318.055 367.698C317.998 358.669 314.711 350.393 308.786 344.371C301.489 336.955 290.193 333.034 276.119 333.034M275.295 439.717C270.764 439.717 266.274 438.559 262.266 436.281C259.014 434.431 247.632 427.365 237.696 414.081C227.381 400.288 222.151 384.786 222.151 368.006C222.151 354.45 226.445 342.843 234.569 334.439C244.034 324.647 258.014 319.683 276.119 319.683C293.841 319.683 308.418 324.978 318.275 334.997C326.726 343.588 331.381 355.289 331.381 367.943L331.363 368.443C330.024 386.306 323.616 402.855 312.832 416.3C304.595 426.568 293.906 434.745 284.241 438.173C281.329 439.206 278.303 439.717 275.295 439.717" fill="#28313B"/>
<path fill-rule="evenodd" clip-rule="evenodd" d="M161.12 238.388H388.294V231.712H161.12V238.388Z" fill="#89A1B1"/>
<path fill-rule="evenodd" clip-rule="evenodd" d="M175.781 291.191C175.839 294.292 178.147 296.888 181.213 297.299C190.893 298.598 216.353 300.862 276.225 300.862C336.228 300.862 361.669 298.588 371.3 297.291C374.352 296.88 376.651 294.309 376.732 291.224C376.955 282.797 376.67 264.342 372.027 237.594C367.932 214.006 363.731 200.369 361.169 193.48C359.838 189.906 356.6 187.396 352.815 186.986C341.255 185.736 313.437 183.229 276.225 183.229C239.158 183.229 211.412 185.717 199.771 186.972C195.937 187.386 192.682 189.951 191.364 193.582C188.754 200.773 184.41 214.851 180.431 237.545C175.95 263.099 175.618 282.408 175.781 291.191" fill="#343A4C"/>
<path fill-rule="evenodd" clip-rule="evenodd" d="M381.183 342.816L371.344 333.813C376.469 328.19 380.82 322.067 384.278 315.614C387.383 309.818 389.043 303.282 389.082 296.712C389.152 284.879 388.245 265.071 383.527 237.897C378.839 210.891 373.12 193.679 369.146 183.995C368.038 181.287 365.537 179.422 362.619 179.126C348.27 177.676 317.96 175.244 276.218 175.244C234.598 175.249 204.135 177.665 189.681 179.106C186.692 179.404 184.159 181.342 183.072 184.164C179.099 194.475 173.418 212.159 168.912 237.849C164.115 265.217 163.432 286.486 163.452 296.729C163.46 303.375 165.107 309.941 168.215 315.72C171.543 321.906 175.692 327.792 180.549 333.215L170.632 342.132C165.073 335.925 160.313 329.17 156.486 322.055C152.337 314.339 150.138 305.589 150.128 296.749C150.103 283.706 151.065 262.494 155.788 235.539C160.481 208.788 166.456 190.221 170.642 179.356C173.549 171.806 180.34 166.62 188.361 165.819C203.062 164.355 234.022 161.897 276.217 161.892C318.543 161.892 349.357 164.368 363.959 165.843C371.783 166.636 378.493 171.649 381.472 178.923C385.696 189.219 391.76 207.414 396.654 235.608C401.541 263.753 402.48 284.414 402.406 296.789C402.356 305.529 400.147 314.222 396.018 321.93C392.04 329.353 387.049 336.381 381.183 342.816" fill="#28313B"/>
<path fill-rule="evenodd" clip-rule="evenodd" d="M316.537 214.722C301.368 215.613 307.974 274.872 309.476 274.784C310.976 274.696 309.752 234.067 317.641 233.603C325.53 233.141 329.052 273.633 330.553 273.546C332.053 273.457 331.706 213.831 316.537 214.722" fill="#2CABE3"/>
<path fill-rule="evenodd" clip-rule="evenodd" d="M239.77 214.05C254.909 215.36 246.674 274.414 245.177 274.284C243.679 274.155 246.02 233.575 238.147 232.894C230.273 232.214 225.639 272.594 224.141 272.465C222.644 272.335 224.631 212.741 239.77 214.05" fill="#2CABE3"/>
<path fill-rule="evenodd" clip-rule="evenodd" d="M264.635 160.331C264.897 153.618 270.54 148.388 277.24 148.65C283.94 148.913 289.159 154.568 288.897 161.281C288.635 167.994 282.991 173.224 276.292 172.961C269.592 172.699 264.373 167.044 264.635 160.331" fill="#28313B"/>
<path fill-rule="evenodd" clip-rule="evenodd" d="M198.386 382.74C193.865 369.846 197.018 359.386 200.46 352.882C204.16 345.887 208.946 341.908 209.148 341.742L213.381 346.898C212.732 347.437 197.592 360.338 204.672 380.526L198.386 382.74Z" fill="#89A1B1"/>
<path fill-rule="evenodd" clip-rule="evenodd" d="M171.946 367.743C166.262 353.844 175.582 341.636 181.304 337.122L185.432 342.362C185.399 342.388 182.114 345.035 179.616 349.282C176.475 354.617 175.969 359.976 178.111 365.211L171.946 367.743Z" fill="#89A1B1"/>
<path fill-rule="evenodd" clip-rule="evenodd" d="M136.824 316.278C128.685 313.232 119.624 317.374 116.585 325.529C113.545 333.684 117.679 342.764 125.817 345.809C133.956 348.855 143.017 344.713 146.056 336.558C149.096 328.403 144.962 319.323 136.824 316.278" fill="#28313B"/>
<path fill-rule="evenodd" clip-rule="evenodd" d="M142.366 331.039C135.921 327.072 126.476 314.457 125.507 301.086C125.219 297.121 125.677 293.268 126.869 289.634L135.309 292.414C134.48 294.939 134.163 297.64 134.366 300.442C135.125 310.907 143.004 320.985 147.015 323.453L142.366 331.039Z" fill="#28313B"/>
<path fill-rule="evenodd" clip-rule="evenodd" d="M231.439 396.505C176.624 388.926 142.429 354.405 133.879 341.743C130.841 337.24 131.062 331.35 134.428 327.083C137.793 322.817 143.463 321.243 148.533 323.165C179.059 334.73 235.014 340.11 235.575 340.164L234.328 353.456C233.737 353.401 219.658 352.061 201.441 349.215C178.502 345.632 160.118 341.431 146.721 336.713C156.432 349.012 186.932 376.874 233.26 383.279L231.439 396.505Z" fill="#28313B"/>
<path fill-rule="evenodd" clip-rule="evenodd" d="M356.47 382.74L350.185 380.526C357.309 360.213 341.643 347.035 341.484 346.904L345.709 341.742C345.91 341.908 350.696 345.887 354.398 352.882C357.839 359.386 360.992 369.846 356.47 382.74" fill="#89A1B1"/>
<path fill-rule="evenodd" clip-rule="evenodd" d="M382.91 367.743L376.745 365.212C378.887 359.976 378.381 354.616 375.241 349.282C372.742 345.036 369.457 342.387 369.425 342.361L373.553 337.122C379.275 341.635 388.595 353.845 382.91 367.743" fill="#89A1B1"/>
<path fill-rule="evenodd" clip-rule="evenodd" d="M418.033 316.278C426.171 313.232 435.233 317.374 438.272 325.529C441.311 333.684 437.178 342.764 429.039 345.809C420.901 348.855 411.84 344.713 408.801 336.558C405.761 328.403 409.894 319.323 418.033 316.278" fill="#28313B"/>
<path fill-rule="evenodd" clip-rule="evenodd" d="M412.491 331.039L407.842 323.453C411.853 320.985 419.732 310.907 420.49 300.442C420.694 297.64 420.376 294.939 419.548 292.414L427.987 289.634C429.179 293.268 429.638 297.121 429.35 301.086C428.381 314.457 418.936 327.072 412.491 331.039" fill="#28313B"/>
<path fill-rule="evenodd" clip-rule="evenodd" d="M323.418 396.505L321.597 383.279C367.92 376.874 398.42 349.016 408.135 336.713C394.738 341.431 376.353 345.632 353.415 349.215C335.198 352.061 321.119 353.401 320.529 353.456L319.281 340.164C319.842 340.11 375.798 334.73 406.324 323.164C411.393 321.243 417.062 322.817 420.429 327.083C423.795 331.349 424.016 337.24 420.98 341.742C412.427 354.405 378.232 388.926 323.418 396.505" fill="#28313B"/>
<path fill-rule="evenodd" clip-rule="evenodd" d="M122.509 318.051L128.136 328.28C128.136 328.28 113.257 333.467 111.819 332.564C110.38 331.661 106.722 323.6 108.33 322.733L122.509 318.051Z" fill="#28313B"/>
<path fill-rule="evenodd" clip-rule="evenodd" d="M432.236 318.051L426.61 328.28C426.61 328.28 441.488 333.467 442.927 332.564C444.366 331.661 448.023 323.6 446.415 322.733L432.236 318.051Z" fill="#28313B"/>
<path fill-rule="evenodd" clip-rule="evenodd" d="M349.214 148.046C348.607 148.076 348.031 148.08 347.494 148.061C347.249 148.052 347.063 147.838 347.078 147.593L347.32 143.649L347.538 139.676C347.551 139.444 347.742 139.263 347.973 139.26C348.964 139.247 351.612 139.094 354.42 137.93C358.692 136.158 361.532 132.79 362.868 127.915C362.931 127.684 363.164 127.543 363.396 127.601L371.058 129.54C371.295 129.6 371.44 129.846 371.377 130.083C367.727 143.715 356.323 147.695 349.214 148.046" fill="#FFDB31"/>
<path fill-rule="evenodd" clip-rule="evenodd" d="M289.504 319.171C288.961 319.445 288.436 319.682 287.938 319.882C287.71 319.974 287.453 319.854 287.368 319.625L285.995 315.919L284.589 312.198C284.507 311.981 284.607 311.738 284.818 311.642C285.72 311.228 288.078 310.013 290.176 307.809C293.365 304.455 294.601 300.223 293.852 295.225C293.816 294.988 293.971 294.764 294.207 294.723L301.996 293.386C302.238 293.345 302.47 293.511 302.508 293.754C304.68 307.699 295.861 315.965 289.504 319.171" fill="#FFDB31"/>
<path fill-rule="evenodd" clip-rule="evenodd" d="M385.133 445.746C384.915 446.316 384.687 446.845 384.453 447.33C384.347 447.551 384.077 447.637 383.859 447.524L380.353 445.714L376.811 443.914C376.604 443.81 376.516 443.562 376.607 443.348C376.994 442.433 377.92 439.944 377.986 436.899C378.088 432.267 376.155 428.306 372.239 425.119C372.053 424.968 372.018 424.698 372.165 424.508L377.02 418.261C377.171 418.067 377.454 418.033 377.645 418.187C388.628 427.022 387.673 439.085 385.133 445.746" fill="#FFDB31"/>
<path fill-rule="evenodd" clip-rule="evenodd" d="M145.121 235.42C145.371 235.976 145.583 236.512 145.761 237.02C145.842 237.252 145.712 237.503 145.478 237.579L141.724 238.788L137.951 240.031C137.731 240.104 137.495 239.992 137.407 239.777C137.034 238.857 135.928 236.441 133.823 234.245C130.621 230.903 126.457 229.479 121.439 230.007C121.201 230.032 120.986 229.867 120.956 229.629L119.968 221.772C119.936 221.528 120.113 221.304 120.356 221.276C134.355 219.72 142.206 228.913 145.121 235.42" fill="#FFDB31"/>
<path fill-rule="evenodd" clip-rule="evenodd" d="M202.933 376.886C202.715 377.455 202.487 377.984 202.253 378.47C202.147 378.691 201.877 378.776 201.659 378.663L198.153 376.853L194.611 375.054C194.404 374.949 194.316 374.702 194.407 374.487C194.794 373.573 195.72 371.084 195.786 368.039C195.888 363.407 193.955 359.446 190.039 356.258C189.854 356.108 189.818 355.837 189.964 355.648L194.82 349.4C194.971 349.206 195.254 349.172 195.445 349.326C206.427 358.162 205.474 370.224 202.933 376.886" fill="#FFDB31"/>
<path fill-rule="evenodd" clip-rule="evenodd" d="M424.965 273.187C424.748 273.756 424.52 274.285 424.286 274.77C424.179 274.992 423.909 275.077 423.691 274.964L420.185 273.154L416.644 271.354C416.437 271.25 416.348 271.002 416.439 270.788C416.827 269.874 417.752 267.384 417.819 264.339C417.92 259.707 415.987 255.746 412.071 252.559C411.886 252.408 411.85 252.138 411.997 251.949L416.852 245.701C417.003 245.507 417.287 245.473 417.477 245.627C428.461 254.463 427.506 266.525 424.965 273.187" fill="#FFDB31"/>
<path fill-rule="evenodd" clip-rule="evenodd" d="M139.739 168.787C137.711 170.839 136.497 172.919 136.028 173.803C135.911 174.024 136.003 174.297 136.229 174.404L139.786 176.102L143.359 177.838C143.567 177.939 143.815 177.863 143.931 177.662C144.327 176.976 145.32 175.431 146.849 174.181C149.061 172.373 151.401 171.945 154.182 172.845C154.409 172.919 154.654 172.806 154.736 172.582L157.438 165.141C157.522 164.909 157.401 164.649 157.168 164.57C151.346 162.594 145.613 163.674 140.98 167.631C140.537 168.01 140.123 168.398 139.739 168.787" fill="#2CABE3"/>
<path fill-rule="evenodd" clip-rule="evenodd" d="M412.768 167.382C414.213 169.881 414.865 172.2 415.096 173.175C415.152 173.418 414.995 173.658 414.75 173.705L410.88 174.449L406.985 175.226C406.759 175.27 406.538 175.133 406.476 174.911C406.265 174.146 405.694 172.4 404.529 170.803C402.844 168.495 400.688 167.488 397.77 167.657C397.531 167.67 397.323 167.499 397.3 167.262L396.559 159.378C396.536 159.133 396.72 158.912 396.965 158.895C403.096 158.455 408.371 160.949 411.858 165.95C412.191 166.428 412.494 166.909 412.768 167.382" fill="#2CABE3"/>
<path fill-rule="evenodd" clip-rule="evenodd" d="M145.051 292.16C142.18 291.911 139.91 291.114 138.982 290.744C138.75 290.651 138.644 290.384 138.747 290.156L140.36 286.554L141.962 282.913C142.055 282.701 142.294 282.598 142.511 282.676C143.257 282.942 145.012 283.475 146.985 283.436C149.839 283.378 151.899 282.187 153.436 279.696C153.562 279.493 153.822 279.42 154.029 279.538L160.896 283.455C161.11 283.577 161.185 283.855 161.059 284.066C157.899 289.349 152.832 292.245 146.744 292.235C146.162 292.234 145.595 292.207 145.051 292.16" fill="#2CABE3"/>
<path fill-rule="evenodd" clip-rule="evenodd" d="M342.442 403.806C340.591 406.018 338.637 407.423 337.801 407.972C337.592 408.11 337.313 408.043 337.186 407.828L335.169 404.436L333.113 401.031C332.994 400.833 333.046 400.578 333.234 400.444C333.88 399.985 335.323 398.852 336.424 397.21C338.016 394.836 338.226 392.462 337.073 389.771C336.979 389.551 337.068 389.295 337.284 389.193L344.428 385.808C344.65 385.703 344.92 385.801 345.02 386.026C347.521 391.652 346.98 397.471 343.475 402.46C343.141 402.938 342.794 403.386 342.442 403.806" fill="#2CABE3"/>
<path fill-rule="evenodd" clip-rule="evenodd" d="M255.684 133.315C258.558 133.518 260.925 133.085 261.899 132.864C262.143 132.809 262.288 132.562 262.223 132.32L261.189 128.511L260.173 124.663C260.113 124.44 259.894 124.301 259.667 124.343C258.888 124.49 257.072 124.743 255.129 124.396C252.319 123.894 250.47 122.396 249.339 119.695C249.246 119.474 249 119.362 248.778 119.446L241.385 122.244C241.155 122.331 241.038 122.593 241.13 122.821C243.43 128.533 247.984 132.185 253.999 133.126C254.575 133.215 255.139 133.277 255.684 133.315" fill="#2CABE3"/>
<path fill-rule="evenodd" clip-rule="evenodd" d="M210.727 410.009C213.602 409.807 215.968 410.24 216.943 410.461C217.186 410.516 217.332 410.763 217.267 411.005L216.233 414.814L215.216 418.662C215.157 418.885 214.937 419.024 214.71 418.982C213.932 418.835 212.116 418.581 210.173 418.929C207.363 419.431 205.514 420.929 204.383 423.63C204.289 423.85 204.044 423.963 203.821 423.879L196.429 421.081C196.199 420.994 196.081 420.732 196.173 420.504C198.473 414.792 203.028 411.14 209.043 410.199C209.618 410.11 210.182 410.048 210.727 410.009" fill="#2CABE3"/>
<path fill-rule="evenodd" clip-rule="evenodd" d="M142.26 395.204L145.264 387.879C145.354 387.659 145.6 387.548 145.822 387.634C149.017 388.857 156.902 391.023 161.58 388.792C161.794 388.69 162.049 388.764 162.163 388.972L165.972 395.914C166.09 396.13 166.01 396.406 165.791 396.519C157.076 400.997 145.19 396.828 142.508 395.782C142.279 395.693 142.167 395.432 142.26 395.204" fill="#E94C35"/>
<path fill-rule="evenodd" clip-rule="evenodd" d="M266.534 436.22L261.27 442.127C261.112 442.305 261.121 442.575 261.294 442.738C263.788 445.083 269.176 451.245 269.218 456.436C269.22 456.673 269.397 456.872 269.634 456.883L277.529 457.282C277.776 457.295 277.988 457.102 277.993 456.855C278.206 447.044 269.271 438.152 267.16 436.191C266.98 436.023 266.698 436.036 266.534 436.22" fill="#E94C35"/>
<path fill-rule="evenodd" clip-rule="evenodd" d="M311.856 148.381L305.193 152.641C304.992 152.769 304.928 153.03 305.051 153.235C306.819 156.169 310.342 163.562 308.979 168.57C308.917 168.8 309.034 169.038 309.258 169.114L316.751 171.64C316.985 171.718 317.242 171.59 317.313 171.355C320.169 161.967 313.969 150.983 312.467 148.523C312.338 148.313 312.063 148.248 311.856 148.381" fill="#E94C35"/>
<path fill-rule="evenodd" clip-rule="evenodd" d="M191.107 121.726L196.045 127.911C196.193 128.097 196.17 128.365 195.987 128.518C193.371 130.725 187.657 136.585 187.336 141.767C187.321 142.004 187.133 142.192 186.897 142.191L178.991 142.162C178.745 142.161 178.542 141.957 178.551 141.71C178.868 131.902 188.27 123.507 190.483 121.663C190.673 121.506 190.954 121.533 191.107 121.726" fill="#E94C35"/>
<path fill-rule="evenodd" clip-rule="evenodd" d="M377.096 393.161L380.508 386.017C380.611 385.803 380.862 385.707 381.079 385.804C384.199 387.206 391.951 389.815 396.747 387.853C396.967 387.763 397.217 387.851 397.319 388.065L400.73 395.211C400.836 395.434 400.74 395.705 400.515 395.805C391.561 399.783 379.93 394.948 377.311 393.752C377.087 393.649 376.99 393.383 377.096 393.161" fill="#E94C35"/>
<path fill-rule="evenodd" clip-rule="evenodd" d="M402.369 208.838L404.732 216.395C404.804 216.623 404.685 216.865 404.459 216.941C401.221 218.047 393.777 221.433 391.602 226.146C391.503 226.361 391.26 226.469 391.039 226.381L383.682 223.482C383.453 223.392 383.339 223.128 383.435 222.902C387.28 213.875 399.08 209.467 401.81 208.553C402.043 208.475 402.295 208.603 402.369 208.838" fill="#E94C35"/>
<path fill-rule="evenodd" clip-rule="evenodd" d="M218.369 263.151L226.006 265.196C226.235 265.257 226.375 265.487 226.319 265.719C225.519 269.051 224.389 277.164 227.197 281.527C227.326 281.728 227.285 281.99 227.094 282.13L220.713 286.805C220.513 286.951 220.23 286.907 220.091 286.704C214.539 278.618 217.139 266.271 217.829 263.472C217.889 263.233 218.132 263.087 218.369 263.151" fill="#E94C35"/>
</svg>
