<svg width="1366" height="973" viewBox="0 0 1366 973" fill="none" xmlns="http://www.w3.org/2000/svg">
<g clip-path="url(#clip0_223_2710)">
<g opacity="0.25">
<mask id="path-1-outside-1_223_2710" maskUnits="userSpaceOnUse" x="74.4224" y="579.807" width="83" height="83" fill="black">
<rect fill="white" x="74.4224" y="579.807" width="83" height="83"/>
<path d="M148.793 625.964H120.555V654.202H111.29V625.964H83.0519V616.698H111.29V588.461H120.555V616.698H148.793V625.964Z"/>
</mask>
<path d="M148.793 625.964V633.964H156.793V625.964H148.793ZM120.555 625.964V617.964H112.555V625.964H120.555ZM120.555 654.202V662.202H128.555V654.202H120.555ZM111.29 654.202H103.29V662.202H111.29V654.202ZM111.29 625.964H119.29V617.964H111.29V625.964ZM83.0519 625.964H75.0519V633.964H83.0519V625.964ZM83.0519 616.698V608.698H75.0519V616.698H83.0519ZM111.29 616.698V624.698H119.29V616.698H111.29ZM111.29 588.461V580.461H103.29V588.461H111.29ZM120.555 588.461H128.555V580.461H120.555V588.461ZM120.555 616.698H112.555V624.698H120.555V616.698ZM148.793 616.698H156.793V608.698H148.793V616.698ZM148.793 617.964H120.555V633.964H148.793V617.964ZM112.555 625.964V654.202H128.555V625.964H112.555ZM120.555 646.202H111.29V662.202H120.555V646.202ZM119.29 654.202V625.964H103.29V654.202H119.29ZM111.29 617.964H83.0519V633.964H111.29V617.964ZM91.0519 625.964V616.698H75.0519V625.964H91.0519ZM83.0519 624.698H111.29V608.698H83.0519V624.698ZM119.29 616.698V588.461H103.29V616.698H119.29ZM111.29 596.461H120.555V580.461H111.29V596.461ZM112.555 588.461V616.698H128.555V588.461H112.555ZM120.555 624.698H148.793V608.698H120.555V624.698ZM140.793 616.698V625.964H156.793V616.698H140.793Z" fill="#9FC0FF" mask="url(#path-1-outside-1_223_2710)"/>
</g>
<g opacity="0.25">
<mask id="path-3-outside-2_223_2710" maskUnits="userSpaceOnUse" x="1204.54" y="31.7281" width="91.3041" height="91.7069" fill="black">
<rect fill="white" x="1204.54" y="31.7281" width="91.3041" height="91.7069"/>
<path d="M1274.98 68.3009L1255.18 79.0309L1265.91 98.8328L1259.41 102.354L1248.68 82.5517L1228.88 93.2817L1225.36 86.7842L1245.16 76.0542L1234.43 56.2523L1240.93 52.7315L1251.66 72.5334L1271.46 61.8034L1274.98 68.3009Z"/>
</mask>
<path d="M1274.98 68.3009L1278.32 74.4554L1284.47 71.1205L1281.14 64.966L1274.98 68.3009ZM1255.18 79.0309L1251.85 72.8764L1245.69 76.2113L1249.03 82.3658L1255.18 79.0309ZM1265.91 98.8328L1269.24 104.987L1275.4 101.652L1272.06 95.4979L1265.91 98.8328ZM1259.41 102.354L1253.26 105.689L1256.59 111.843L1262.75 108.508L1259.41 102.354ZM1248.68 82.5517L1254.84 79.2168L1251.5 73.0622L1245.35 76.3972L1248.68 82.5517ZM1228.88 93.2817L1222.73 96.6166L1226.06 102.771L1232.22 99.4362L1228.88 93.2817ZM1225.36 86.7842L1222.02 80.6297L1215.87 83.9646L1219.21 90.1191L1225.36 86.7842ZM1245.16 76.0542L1248.5 82.2087L1254.65 78.8738L1251.32 72.7192L1245.16 76.0542ZM1234.43 56.2523L1231.1 50.0977L1224.94 53.4327L1228.28 59.5872L1234.43 56.2523ZM1240.93 52.7315L1247.08 49.3965L1243.75 43.242L1237.59 46.5769L1240.93 52.7315ZM1251.66 72.5334L1245.5 75.8683L1248.84 82.0229L1254.99 78.6879L1251.66 72.5334ZM1271.46 61.8034L1277.62 58.4685L1274.28 52.3139L1268.13 55.6489L1271.46 61.8034ZM1271.65 62.1464L1251.85 72.8764L1258.51 85.1854L1278.32 74.4554L1271.65 62.1464ZM1249.03 82.3658L1259.76 102.168L1272.06 95.4979L1261.33 75.696L1249.03 82.3658ZM1262.58 92.6783L1256.08 96.1991L1262.75 108.508L1269.24 104.987L1262.58 92.6783ZM1265.57 99.0187L1254.84 79.2168L1242.53 85.8866L1253.26 105.689L1265.57 99.0187ZM1245.35 76.3972L1225.55 87.1272L1232.22 99.4362L1252.02 88.7062L1245.35 76.3972ZM1235.04 89.9468L1231.51 83.4493L1219.21 90.1191L1222.73 96.6166L1235.04 89.9468ZM1228.69 92.9387L1248.5 82.2087L1241.83 69.8997L1222.02 80.6297L1228.69 92.9387ZM1251.32 72.7192L1240.59 52.9173L1228.28 59.5872L1239.01 79.3891L1251.32 72.7192ZM1237.77 62.4068L1244.26 58.886L1237.59 46.5769L1231.1 50.0977L1237.77 62.4068ZM1234.77 56.0664L1245.5 75.8683L1257.81 69.1985L1247.08 49.3965L1234.77 56.0664ZM1254.99 78.6879L1274.8 67.9579L1268.13 55.6489L1248.32 66.3789L1254.99 78.6879ZM1265.31 65.1383L1268.83 71.6358L1281.14 64.966L1277.62 58.4685L1265.31 65.1383Z" fill="#9FC0FF" mask="url(#path-3-outside-2_223_2710)"/>
</g>
<g opacity="0.25">
<mask id="path-5-outside-3_223_2710" maskUnits="userSpaceOnUse" x="916.025" y="460.072" width="101.056" height="101.096" fill="black">
<rect fill="white" x="916.025" y="460.072" width="101.056" height="101.096"/>
<path d="M943.471 491.645L960.962 510.155L942.452 527.646L948.191 533.719L966.701 516.229L984.192 534.739L990.265 529L972.775 510.49L991.285 492.999L985.546 486.925L967.036 504.416L949.545 485.906L943.471 491.645Z"/>
</mask>
<path d="M943.471 491.645L939.538 495.361L935.822 491.428L939.755 487.712L943.471 491.645ZM960.962 510.155L964.895 506.439L968.612 510.372L964.678 514.088L960.962 510.155ZM942.452 527.646L938.519 531.362L934.802 527.429L938.735 523.713L942.452 527.646ZM948.191 533.719L951.907 537.653L947.974 541.369L944.258 537.436L948.191 533.719ZM966.701 516.229L962.985 512.296L966.918 508.579L970.634 512.512L966.701 516.229ZM984.192 534.739L987.908 538.672L983.975 542.389L980.259 538.456L984.192 534.739ZM990.265 529L994.199 525.284L997.915 529.217L993.982 532.933L990.265 529ZM972.775 510.49L968.842 514.206L965.125 510.273L969.058 506.557L972.775 510.49ZM991.285 492.999L995.218 489.283L998.935 493.216L995.002 496.932L991.285 492.999ZM985.546 486.925L981.83 482.992L985.763 479.276L989.479 483.209L985.546 486.925ZM967.036 504.416L970.752 508.349L966.819 512.066L963.103 508.132L967.036 504.416ZM949.545 485.906L945.829 481.972L949.762 478.256L953.478 482.189L949.545 485.906ZM947.404 487.928L964.895 506.439L957.029 513.872L939.538 495.361L947.404 487.928ZM964.678 514.088L946.168 531.579L938.735 523.713L957.246 506.222L964.678 514.088ZM946.385 523.929L952.124 530.003L944.258 537.436L938.519 531.362L946.385 523.929ZM944.474 529.786L962.985 512.296L970.418 520.162L951.907 537.653L944.474 529.786ZM970.634 512.512L988.125 531.023L980.259 538.456L962.768 519.945L970.634 512.512ZM980.475 530.806L986.549 525.067L993.982 532.933L987.908 538.672L980.475 530.806ZM986.332 532.716L968.842 514.206L976.708 506.773L994.199 525.284L986.332 532.716ZM969.058 506.557L987.569 489.066L995.002 496.932L976.491 514.423L969.058 506.557ZM987.352 496.715L981.613 490.642L989.479 483.209L995.218 489.283L987.352 496.715ZM989.263 490.858L970.752 508.349L963.319 500.483L981.83 482.992L989.263 490.858ZM963.103 508.132L945.612 489.622L953.478 482.189L970.969 500.7L963.103 508.132ZM953.262 489.839L947.188 495.578L939.755 487.712L945.829 481.972L953.262 489.839Z" fill="#9FC0FF" mask="url(#path-5-outside-3_223_2710)"/>
</g>
<g opacity="0.25">
<mask id="path-7-inside-4_223_2710" fill="white">
<path d="M376.72 589.784C382.695 595.642 389.783 598.571 397.984 598.571C406.185 598.571 413.215 595.642 419.073 589.784C425.048 583.809 428.036 576.721 428.036 568.52C428.036 560.319 425.048 553.289 419.073 547.431C413.215 541.456 406.185 538.469 397.984 538.469C389.783 538.469 382.695 541.456 376.72 547.431C370.862 553.289 367.933 560.319 367.933 568.52C367.933 576.721 370.862 583.809 376.72 589.784ZM371.448 542.159C378.829 534.778 387.674 531.088 397.984 531.088C408.294 531.088 417.081 534.778 424.345 542.159C431.726 549.423 435.417 558.21 435.417 568.52C435.417 578.83 431.726 587.676 424.345 595.057C417.081 602.321 408.294 605.952 397.984 605.952C387.674 605.952 378.829 602.321 371.448 595.057C364.184 587.676 360.552 578.83 360.552 568.52C360.552 558.21 364.184 549.423 371.448 542.159Z"/>
</mask>
<path d="M376.72 589.784L371.031 595.361L371.086 595.418L371.143 595.473L376.72 589.784ZM419.073 547.431L413.384 553.008L413.44 553.065L413.496 553.12L419.073 547.431ZM424.345 542.159L418.667 547.747L418.712 547.792L418.757 547.837L424.345 542.159ZM424.345 595.057L418.712 589.424L424.345 595.057ZM371.448 595.057L365.77 600.644L365.814 600.69L365.86 600.734L371.448 595.057ZM371.143 595.473C378.573 602.758 387.651 606.538 397.984 606.538V590.605C391.915 590.605 386.816 588.527 382.297 584.096L371.143 595.473ZM397.984 606.538C408.322 606.538 417.371 602.752 424.706 595.417L413.44 584.152C409.059 588.533 404.049 590.605 397.984 590.605V606.538ZM424.706 595.417C432.124 587.999 436.002 578.905 436.002 568.52H420.069C420.069 574.538 417.972 579.62 413.44 584.152L424.706 595.417ZM436.002 568.52C436.002 558.13 432.118 549.065 424.65 541.743L413.496 553.12C417.978 557.514 420.069 562.507 420.069 568.52H436.002ZM424.761 541.854C417.439 534.386 408.374 530.502 397.984 530.502V546.435C403.997 546.435 408.99 548.526 413.384 553.008L424.761 541.854ZM397.984 530.502C387.6 530.502 378.505 534.38 371.087 541.798L382.353 553.064C386.885 548.532 391.966 546.435 397.984 546.435V530.502ZM371.087 541.798C363.752 549.133 359.967 558.182 359.967 568.52H375.899C375.899 562.456 377.972 557.445 382.353 553.064L371.087 541.798ZM359.967 568.52C359.967 578.854 363.746 587.931 371.031 595.361L382.408 584.208C377.977 579.688 375.899 574.589 375.899 568.52H359.967ZM377.08 547.792C382.988 541.884 389.816 539.054 397.984 539.054V523.121C385.532 523.121 374.669 527.672 365.815 536.526L377.08 547.792ZM397.984 539.054C406.149 539.054 412.893 541.88 418.667 547.747L430.023 536.571C421.269 527.676 410.44 523.121 397.984 523.121V539.054ZM418.757 547.837C424.624 553.611 427.45 560.356 427.45 568.52H443.383C443.383 556.064 438.828 545.235 429.933 536.481L418.757 547.837ZM427.45 568.52C427.45 576.688 424.62 583.516 418.712 589.424L429.978 600.69C438.832 591.835 443.383 580.972 443.383 568.52H427.45ZM418.712 589.424C412.948 595.188 406.19 597.986 397.984 597.986V613.919C410.398 613.919 421.214 609.454 429.978 600.69L418.712 589.424ZM397.984 597.986C389.775 597.986 382.934 595.184 377.035 589.379L365.86 600.734C374.724 609.458 385.573 613.919 397.984 613.919V597.986ZM377.125 589.469C371.321 583.571 368.518 576.729 368.518 568.52H352.586C352.586 580.931 357.047 591.781 365.77 600.644L377.125 589.469ZM368.518 568.52C368.518 560.314 371.317 553.556 377.08 547.792L365.815 536.526C357.051 545.29 352.586 556.106 352.586 568.52H368.518Z" fill="#9FC0FF" mask="url(#path-7-inside-4_223_2710)"/>
</g>
<g opacity="0.25">
<mask id="path-9-inside-5_223_2710" fill="white">
<path d="M845.513 673.908L848.669 679.298L825.271 692.999C824.033 690.324 823.217 686.963 822.822 682.917C822.557 678.905 822.813 675.41 823.592 672.432C826.463 674.15 830.048 675.122 834.346 675.347C838.693 675.653 842.415 675.173 845.513 673.908ZM857.994 695.224L865.383 707.842C861.06 709.825 856.433 710.725 851.5 710.542C851.285 707.926 851.801 705.156 853.05 702.232C854.38 699.259 856.028 696.923 857.994 695.224ZM825.82 666.685C828.108 662.165 831.158 658.57 834.968 655.9L842.357 668.518C839.913 669.401 837.069 669.695 833.826 669.4C830.664 669.058 827.996 668.153 825.82 666.685ZM854.838 689.834C852.219 691.916 849.955 694.886 848.047 698.745C846.187 702.686 845.304 706.328 845.398 709.673C842.468 708.976 839.294 707.49 835.877 705.213C832.59 702.97 830.059 700.614 828.284 698.144L851.682 684.443L854.838 689.834ZM850.658 670.895C853.278 668.813 855.517 665.802 857.377 661.861C859.285 658.002 860.192 654.4 860.098 651.056C863.029 651.752 866.138 653.222 869.425 655.465C872.842 657.741 875.438 660.115 877.213 662.585L853.814 676.285L850.658 670.895ZM859.983 686.821L856.827 681.431L880.226 667.73C881.463 670.405 882.215 673.749 882.48 677.761C882.875 681.807 882.683 685.319 881.905 688.297C879.034 686.578 875.425 685.566 871.078 685.26C866.779 685.035 863.081 685.555 859.983 686.821ZM847.502 665.505L840.114 652.887C844.436 650.904 849.064 650.004 853.996 650.187C854.212 652.802 853.654 655.596 852.324 658.569C851.075 661.493 849.468 663.805 847.502 665.505ZM863.14 692.211C865.584 691.328 868.387 691.058 871.548 691.4C874.791 691.695 877.501 692.576 879.676 694.044C877.422 698.434 874.372 702.03 870.528 704.829L863.14 692.211Z"/>
</mask>
<path d="M845.513 673.908L851.066 670.656L848.246 665.84L843.079 667.951L845.513 673.908ZM848.669 679.298L851.921 684.851L857.474 681.6L854.222 676.047L848.669 679.298ZM825.271 692.999L819.43 695.7L822.406 702.133L828.522 698.552L825.271 692.999ZM822.822 682.917L816.401 683.342L816.408 683.442L816.418 683.542L822.822 682.917ZM823.592 672.432L826.897 666.911L819.536 662.503L817.366 670.804L823.592 672.432ZM834.346 675.347L834.799 668.928L834.74 668.923L834.682 668.92L834.346 675.347ZM857.994 695.224L863.547 691.972L859.638 685.296L853.786 690.356L857.994 695.224ZM865.383 707.842L868.066 713.691L874.529 710.726L870.936 704.59L865.383 707.842ZM851.5 710.542L845.087 711.07L845.556 716.761L851.262 716.973L851.5 710.542ZM853.05 702.232L847.176 699.603L847.154 699.654L847.132 699.705L853.05 702.232ZM825.82 666.685L820.079 663.779L817.515 668.844L822.221 672.019L825.82 666.685ZM834.968 655.9L840.522 652.648L836.994 646.623L831.276 650.63L834.968 655.9ZM842.357 668.518L844.543 674.57L851.819 671.942L847.91 665.266L842.357 668.518ZM833.826 669.4L833.133 675.798L833.189 675.804L833.244 675.809L833.826 669.4ZM854.838 689.834L858.842 694.871L863.211 691.398L860.391 686.582L854.838 689.834ZM848.047 698.745L842.279 695.893L842.253 695.945L842.228 695.998L848.047 698.745ZM845.398 709.673L843.91 715.934L852.066 717.873L851.831 709.492L845.398 709.673ZM835.877 705.213L832.251 710.529L832.28 710.549L832.309 710.568L835.877 705.213ZM828.284 698.144L825.032 692.591L818.934 696.162L823.058 701.9L828.284 698.144ZM851.682 684.443L857.235 681.192L853.984 675.639L848.43 678.89L851.682 684.443ZM850.658 670.895L846.654 665.858L842.285 669.331L845.105 674.147L850.658 670.895ZM857.377 661.861L851.609 659.009L851.583 659.061L851.558 659.114L857.377 661.861ZM860.098 651.056L861.587 644.795L853.43 642.855L853.666 651.236L860.098 651.056ZM869.425 655.465L865.798 660.781L865.827 660.8L865.857 660.82L869.425 655.465ZM877.213 662.585L880.464 668.138L886.563 664.567L882.438 658.829L877.213 662.585ZM853.814 676.285L848.261 679.537L851.513 685.09L857.066 681.838L853.814 676.285ZM859.983 686.821L854.43 690.072L857.25 694.889L862.417 692.778L859.983 686.821ZM856.827 681.431L853.576 675.878L848.023 679.129L851.274 684.682L856.827 681.431ZM880.226 667.73L886.066 665.028L883.091 658.595L876.974 662.177L880.226 667.73ZM882.48 677.761L876.059 678.186L876.066 678.286L876.075 678.386L882.48 677.761ZM881.905 688.297L878.599 693.818L885.961 698.226L888.131 689.924L881.905 688.297ZM871.078 685.26L871.53 678.84L871.472 678.836L871.414 678.833L871.078 685.26ZM847.502 665.505L841.949 668.757L845.858 675.432L851.71 670.373L847.502 665.505ZM840.114 652.887L837.431 647.038L830.968 650.002L834.561 656.139L840.114 652.887ZM853.996 650.187L860.41 649.658L859.941 643.967L854.234 643.756L853.996 650.187ZM852.324 658.569L846.45 655.94L846.428 655.991L846.406 656.042L852.324 658.569ZM863.14 692.211L860.954 686.159L853.678 688.787L857.587 695.463L863.14 692.211ZM871.548 691.4L870.856 697.798L870.911 697.804L870.966 697.809L871.548 691.4ZM879.676 694.044L885.401 696.983L888.009 691.903L883.275 688.709L879.676 694.044ZM870.528 704.829L864.975 708.081L868.568 714.217L874.316 710.031L870.528 704.829ZM839.96 677.159L843.116 682.55L854.222 676.047L851.066 670.656L839.96 677.159ZM845.418 673.745L822.019 687.446L828.522 698.552L851.921 684.851L845.418 673.745ZM831.111 690.297C830.268 688.474 829.576 685.872 829.227 682.292L816.418 683.542C816.858 688.055 817.799 692.173 819.43 695.7L831.111 690.297ZM829.243 682.492C829.01 678.971 829.258 676.199 829.818 674.059L817.366 670.804C816.368 674.621 816.103 678.839 816.401 683.342L829.243 682.492ZM820.286 677.953C824.28 680.344 828.955 681.509 834.011 681.773L834.682 668.92C831.14 668.735 828.645 667.957 826.897 666.911L820.286 677.953ZM833.894 681.766C838.939 682.121 843.702 681.599 847.947 679.865L843.079 667.951C841.129 668.748 838.447 669.185 834.799 668.928L833.894 681.766ZM852.441 698.475L859.83 711.093L870.936 704.59L863.547 691.972L852.441 698.475ZM862.7 701.993C859.327 703.54 855.704 704.258 851.738 704.111L851.262 716.973C857.161 717.191 862.793 716.109 868.066 713.691L862.7 701.993ZM857.913 710.014C857.8 708.64 858.044 706.922 858.968 704.758L847.132 699.705C845.558 703.39 844.769 707.212 845.087 711.07L857.913 710.014ZM858.923 704.86C859.964 702.536 861.106 701.04 862.203 700.092L853.786 690.356C850.951 692.806 848.797 695.983 847.176 699.603L858.923 704.86ZM831.561 669.592C833.415 665.93 835.793 663.179 838.661 661.17L831.276 650.63C826.523 653.96 822.802 658.4 820.079 663.779L831.561 669.592ZM829.415 659.151L836.804 671.769L847.91 665.266L840.522 652.648L829.415 659.151ZM840.171 662.465C838.807 662.958 836.944 663.222 834.408 662.992L833.244 675.809C837.194 676.168 841.019 675.843 844.543 674.57L840.171 662.465ZM834.518 663.003C832.179 662.75 830.562 662.121 829.419 661.351L822.221 672.019C825.43 674.185 829.149 675.367 833.133 675.798L834.518 663.003ZM850.834 684.796C847.292 687.612 844.491 691.419 842.279 695.893L853.816 701.597C855.42 698.353 857.146 696.22 858.842 694.871L850.834 684.796ZM842.228 695.998C840.062 700.586 838.836 705.24 838.966 709.854L851.831 709.492C851.772 707.416 852.312 704.785 853.867 701.492L842.228 695.998ZM846.887 703.413C844.913 702.943 842.443 701.855 839.445 699.858L832.309 710.568C836.145 713.124 840.023 715.009 843.91 715.934L846.887 703.413ZM839.504 699.897C836.656 697.954 834.735 696.094 833.509 694.388L823.058 701.9C825.383 705.134 828.524 707.987 832.251 710.529L839.504 699.897ZM831.535 703.697L854.934 689.996L848.43 678.89L825.032 692.591L831.535 703.697ZM846.129 687.695L849.285 693.085L860.391 686.582L857.235 681.192L846.129 687.695ZM854.662 675.933C858.252 673.08 861.038 669.181 863.197 664.608L851.558 659.114C849.997 662.422 848.303 664.547 846.654 665.858L854.662 675.933ZM863.146 664.713C865.39 660.175 866.662 655.527 866.531 650.875L853.666 651.236C853.723 653.273 853.181 655.83 851.609 659.009L863.146 664.713ZM858.61 657.316C860.574 657.783 862.963 658.846 865.798 660.781L873.051 650.149C869.312 647.598 865.484 645.722 861.587 644.795L858.61 657.316ZM865.857 660.82C868.84 662.808 870.792 664.676 871.988 666.34L882.438 658.829C880.084 655.553 876.843 652.675 872.993 650.11L865.857 660.82ZM873.961 657.032L850.563 670.732L857.066 681.838L880.464 668.138L873.961 657.032ZM859.368 673.034L856.211 667.644L845.105 674.147L848.261 679.537L859.368 673.034ZM865.536 683.569L862.38 678.179L851.274 684.682L854.43 690.072L865.536 683.569ZM860.079 686.984L883.477 673.283L876.974 662.177L853.576 675.878L860.079 686.984ZM874.385 670.431C875.194 672.181 875.828 674.694 876.059 678.186L888.901 677.336C888.601 672.804 887.732 668.629 886.066 665.028L874.385 670.431ZM876.075 678.386C876.419 681.905 876.215 684.619 875.679 686.67L888.131 689.924C889.152 686.018 889.331 681.709 888.885 677.136L876.075 678.386ZM885.21 682.776C881.25 680.405 876.592 679.197 871.53 678.84L870.626 691.679C874.258 691.935 876.817 692.751 878.599 693.818L885.21 682.776ZM871.414 678.833C866.43 678.573 861.738 679.153 857.55 680.864L862.417 692.778C864.424 691.958 867.129 691.497 870.743 691.686L871.414 678.833ZM853.055 662.253L845.667 649.635L834.561 656.139L841.949 668.757L853.055 662.253ZM842.797 658.736C846.169 657.189 849.792 656.471 853.758 656.617L854.234 643.756C848.336 643.538 842.703 644.619 837.431 647.038L842.797 658.736ZM847.583 650.715C847.69 652.019 847.443 653.722 846.45 655.94L858.198 661.198C859.866 657.47 860.733 653.586 860.41 649.658L847.583 650.715ZM846.406 656.042C845.457 658.264 844.372 659.705 843.294 660.637L851.71 670.373C854.564 667.906 856.694 664.723 858.242 661.096L846.406 656.042ZM865.326 698.263C866.666 697.779 868.454 697.538 870.856 697.798L872.241 685.002C868.32 684.578 864.501 684.877 860.954 686.159L865.326 698.263ZM870.966 697.809C873.386 698.028 874.993 698.646 876.077 699.378L883.275 688.709C880.009 686.505 876.197 685.361 872.13 684.991L870.966 697.809ZM873.952 691.104C872.139 694.635 869.74 697.443 866.74 699.627L874.316 710.031C879.005 706.616 882.705 702.234 885.401 696.983L873.952 691.104ZM876.081 701.577L868.693 688.959L857.587 695.463L864.975 708.081L876.081 701.577Z" fill="#9FC0FF" mask="url(#path-9-inside-5_223_2710)"/>
</g>
<g opacity="0.25">
<mask id="path-11-inside-6_223_2710" fill="white">
<path d="M93.62 893.483H122.261V922.123H93.62V893.483ZM133.985 919.108C130.858 915.982 129.295 912.185 129.295 907.719C129.295 903.253 130.858 899.456 133.985 896.33C137.111 893.203 140.908 891.64 145.374 891.64C149.84 891.64 153.637 893.203 156.763 896.33C159.89 899.456 161.453 903.253 161.453 907.719C161.453 912.185 159.89 915.982 156.763 919.108C153.637 922.235 149.84 923.798 145.374 923.798C140.908 923.798 137.111 922.235 133.985 919.108ZM125.778 852.448L145.374 884.606H106.182L125.778 852.448Z"/>
</mask>
<path d="M93.62 893.483V888.804H88.9414V893.483H93.62ZM122.261 893.483H126.939V888.804H122.261V893.483ZM122.261 922.123V926.802H126.939V922.123H122.261ZM93.62 922.123H88.9414V926.802H93.62V922.123ZM133.985 919.108L130.676 922.417L133.985 919.108ZM133.985 896.33L130.676 893.022L133.985 896.33ZM125.778 852.448L129.773 850.013L125.778 843.457L121.783 850.013L125.778 852.448ZM145.374 884.606V889.284H153.704L149.369 882.171L145.374 884.606ZM106.182 884.606L102.186 882.171L97.8517 889.284H106.182V884.606ZM93.62 898.161H122.261V888.804H93.62V898.161ZM117.582 893.483V922.123H126.939V893.483H117.582ZM122.261 917.444H93.62V926.802H122.261V917.444ZM98.2987 922.123V893.483H88.9414V922.123H98.2987ZM137.293 915.8C135.054 913.561 133.974 910.959 133.974 907.719H124.616C124.616 913.412 126.663 918.403 130.676 922.417L137.293 915.8ZM133.974 907.719C133.974 904.479 135.054 901.877 137.293 899.638L130.676 893.022C126.663 897.035 124.616 902.026 124.616 907.719H133.974ZM137.293 899.638C139.532 897.399 142.134 896.319 145.374 896.319V886.962C139.681 886.962 134.69 889.008 130.676 893.022L137.293 899.638ZM145.374 896.319C148.614 896.319 151.216 897.399 153.455 899.638L160.072 893.022C156.058 889.008 151.067 886.962 145.374 886.962V896.319ZM153.455 899.638C155.694 901.877 156.774 904.479 156.774 907.719H166.132C166.132 902.026 164.085 897.035 160.072 893.022L153.455 899.638ZM156.774 907.719C156.774 910.959 155.694 913.561 153.455 915.8L160.072 922.417C164.085 918.403 166.132 913.412 166.132 907.719H156.774ZM153.455 915.8C151.216 918.039 148.614 919.119 145.374 919.119V928.477C151.067 928.477 156.058 926.43 160.072 922.417L153.455 915.8ZM145.374 919.119C142.134 919.119 139.532 918.039 137.293 915.8L130.676 922.417C134.69 926.43 139.681 928.477 145.374 928.477V919.119ZM121.783 854.883L141.379 887.04L149.369 882.171L129.773 850.013L121.783 854.883ZM145.374 879.927H106.182V889.284H145.374V879.927ZM110.177 887.04L129.773 854.883L121.783 850.013L102.186 882.171L110.177 887.04Z" fill="#9FC0FF" mask="url(#path-11-inside-6_223_2710)"/>
</g>
<g opacity="0.25">
<mask id="path-13-inside-7_223_2710" fill="white">
<path d="M1205.79 884.639C1209.99 888.761 1214.98 890.822 1220.75 890.822C1226.52 890.822 1231.47 888.761 1235.59 884.639C1239.79 880.435 1241.9 875.447 1241.9 869.676C1241.9 863.905 1239.79 858.958 1235.59 854.836C1231.47 850.631 1226.52 848.529 1220.75 848.529C1214.98 848.529 1209.99 850.631 1205.79 854.836C1201.66 858.958 1199.6 863.905 1199.6 869.676C1199.6 875.447 1201.66 880.435 1205.79 884.639ZM1202.08 851.126C1207.27 845.932 1213.49 843.335 1220.75 843.335C1228 843.335 1234.19 845.932 1239.3 851.126C1244.49 856.237 1247.09 862.421 1247.09 869.676C1247.09 876.931 1244.49 883.155 1239.3 888.349C1234.19 893.461 1228 896.016 1220.75 896.016C1213.49 896.016 1207.27 893.461 1202.08 888.349C1196.96 883.155 1194.41 876.931 1194.41 869.676C1194.41 862.421 1196.96 856.237 1202.08 851.126Z"/>
</mask>
<path d="M1205.79 884.639L1203.02 887.347L1203.05 887.374L1203.08 887.401L1205.79 884.639ZM1235.59 884.639L1232.85 881.904L1235.59 884.639ZM1235.59 854.836L1232.83 857.543L1232.85 857.571L1232.88 857.598L1235.59 854.836ZM1239.3 851.126L1236.54 853.839L1236.56 853.861L1236.59 853.882L1239.3 851.126ZM1239.3 888.349L1236.56 885.614L1239.3 888.349ZM1202.08 888.349L1199.32 891.062L1199.34 891.084L1199.36 891.106L1202.08 888.349ZM1203.08 887.401C1207.99 892.216 1213.94 894.69 1220.75 894.69V886.955C1216.01 886.955 1211.99 885.307 1208.49 881.877L1203.08 887.401ZM1220.75 894.69C1227.56 894.69 1233.48 892.213 1238.32 887.374L1232.85 881.904C1229.45 885.31 1225.48 886.955 1220.75 886.955V894.69ZM1238.32 887.374C1243.23 882.469 1245.76 876.507 1245.76 869.676H1238.03C1238.03 874.387 1236.36 878.4 1232.85 881.904L1238.32 887.374ZM1245.76 869.676C1245.76 862.842 1243.23 856.907 1238.3 852.074L1232.88 857.598C1236.36 861.009 1238.03 864.967 1238.03 869.676H1245.76ZM1238.35 852.128C1233.52 847.199 1227.58 844.661 1220.75 844.661V852.396C1225.46 852.396 1229.42 854.064 1232.83 857.543L1238.35 852.128ZM1220.75 844.661C1213.92 844.661 1207.96 847.196 1203.05 852.101L1208.52 857.571C1212.02 854.067 1216.04 852.396 1220.75 852.396V844.661ZM1203.05 852.101C1198.21 856.94 1195.73 862.867 1195.73 869.676H1203.47C1203.47 864.942 1205.11 860.976 1208.52 857.571L1203.05 852.101ZM1195.73 869.676C1195.73 876.482 1198.21 882.436 1203.02 887.347L1208.55 881.932C1205.12 878.434 1203.47 874.411 1203.47 869.676H1195.73ZM1204.81 853.861C1209.29 849.382 1214.53 847.202 1220.75 847.202V839.467C1212.45 839.467 1205.25 842.482 1199.34 848.391L1204.81 853.861ZM1220.75 847.202C1226.96 847.202 1232.15 849.38 1236.54 853.839L1242.06 848.413C1236.22 842.484 1229.05 839.467 1220.75 839.467V847.202ZM1236.59 853.882C1241.04 858.271 1243.22 863.462 1243.22 869.676H1250.96C1250.96 861.379 1247.94 854.204 1242.01 848.369L1236.59 853.882ZM1243.22 869.676C1243.22 875.891 1241.04 881.136 1236.56 885.614L1242.03 891.084C1247.94 885.175 1250.96 877.971 1250.96 869.676H1243.22ZM1236.56 885.614C1232.18 889.998 1226.98 892.149 1220.75 892.149V899.884C1229.03 899.884 1236.19 896.924 1242.03 891.084L1236.56 885.614ZM1220.75 892.149C1214.51 892.149 1209.26 889.996 1204.79 885.593L1199.36 891.106C1205.28 896.926 1212.47 899.884 1220.75 899.884V892.149ZM1204.83 885.636C1200.43 881.162 1198.28 875.911 1198.28 869.676H1190.54C1190.54 877.951 1193.5 885.148 1199.32 891.062L1204.83 885.636ZM1198.28 869.676C1198.28 863.442 1200.43 858.244 1204.81 853.861L1199.34 848.391C1193.5 854.231 1190.54 861.399 1190.54 869.676H1198.28Z" fill="#9FC0FF" mask="url(#path-13-inside-7_223_2710)"/>
</g>
<g opacity="0.25">
<mask id="path-15-inside-8_223_2710" fill="white">
<path d="M265.561 419.771L275.722 428.826L256.076 450.869L245.916 441.814L265.561 419.771ZM270.987 372.077L281.32 381.286L235.583 432.605L225.25 423.397L270.987 372.077ZM236.834 369.14L247.856 378.963L215.779 414.956L204.757 405.133L236.834 369.14Z"/>
</mask>
<path d="M265.561 419.771L272.518 411.965L264.712 405.008L257.755 412.814L265.561 419.771ZM275.722 428.826L283.528 435.783L290.485 427.977L282.679 421.02L275.722 428.826ZM256.076 450.869L249.119 458.676L256.926 465.633L263.883 457.826L256.076 450.869ZM245.916 441.814L238.11 434.857L231.153 442.663L238.959 449.62L245.916 441.814ZM270.987 372.077L277.944 364.271L270.138 357.314L263.181 365.12L270.987 372.077ZM281.32 381.286L289.126 388.243L296.083 380.437L288.277 373.48L281.32 381.286ZM235.583 432.605L228.626 440.412L236.432 447.369L243.39 439.563L235.583 432.605ZM225.25 423.397L217.444 416.44L210.487 424.246L218.293 431.203L225.25 423.397ZM236.834 369.14L243.791 361.334L235.985 354.377L229.028 362.183L236.834 369.14ZM247.856 378.963L255.662 385.92L262.619 378.114L254.813 371.157L247.856 378.963ZM215.779 414.956L208.822 422.762L216.628 429.719L223.585 421.913L215.779 414.956ZM204.757 405.133L196.951 398.176L189.994 405.982L197.8 412.939L204.757 405.133ZM258.604 427.577L268.765 436.632L282.679 421.02L272.518 411.965L258.604 427.577ZM267.915 421.869L248.27 443.912L263.883 457.826L283.528 435.783L267.915 421.869ZM263.034 443.063L252.873 434.008L238.959 449.62L249.119 458.676L263.034 443.063ZM253.722 448.771L273.367 426.728L257.755 412.814L238.11 434.857L253.722 448.771ZM264.03 379.884L274.363 389.092L288.277 373.48L277.944 364.271L264.03 379.884ZM273.513 374.329L227.777 425.648L243.39 439.563L289.126 388.243L273.513 374.329ZM242.54 424.799L232.208 415.59L218.293 431.203L228.626 440.412L242.54 424.799ZM233.057 430.354L278.793 379.035L263.181 365.12L217.444 416.44L233.057 430.354ZM229.877 376.947L240.899 386.769L254.813 371.157L243.791 361.334L229.877 376.947ZM240.049 372.006L207.972 407.998L223.585 421.913L255.662 385.92L240.049 372.006ZM222.736 407.149L211.714 397.327L197.8 412.939L208.822 422.762L222.736 407.149ZM212.563 412.09L244.64 376.098L229.028 362.183L196.951 398.176L212.563 412.09Z" fill="#9FC0FF" mask="url(#path-15-inside-8_223_2710)"/>
</g>
<g opacity="0.25">
<mask id="path-17-inside-9_223_2710" fill="white">
<path d="M361.47 849.993H375.029V879.41H361.47V849.993ZM333.892 810.924H347.681V879.41H333.892V810.924ZM306.544 831.378H321.252V879.41H306.544V831.378Z"/>
</mask>
<path d="M361.47 849.993V839.576H351.053V849.993H361.47ZM375.029 849.993H385.447V839.576H375.029V849.993ZM375.029 879.41V889.827H385.447V879.41H375.029ZM361.47 879.41H351.053V889.827H361.47V879.41ZM333.892 810.924V800.507H323.475V810.924H333.892ZM347.681 810.924H358.099V800.507H347.681V810.924ZM347.681 879.41V889.827H358.099V879.41H347.681ZM333.892 879.41H323.475V889.827H333.892V879.41ZM306.544 831.378V820.961H296.127V831.378H306.544ZM321.252 831.378H331.67V820.961H321.252V831.378ZM321.252 879.41V889.827H331.67V879.41H321.252ZM306.544 879.41H296.127V889.827H306.544V879.41ZM361.47 860.411H375.029V839.576H361.47V860.411ZM364.612 849.993V879.41H385.447V849.993H364.612ZM375.029 868.992H361.47V889.827H375.029V868.992ZM371.888 879.41V849.993H351.053V879.41H371.888ZM333.892 821.342H347.681V800.507H333.892V821.342ZM337.264 810.924V879.41H358.099V810.924H337.264ZM347.681 868.992H333.892V889.827H347.681V868.992ZM344.31 879.41V810.924H323.475V879.41H344.31ZM306.544 841.795H321.252V820.961H306.544V841.795ZM310.835 831.378V879.41H331.67V831.378H310.835ZM321.252 868.992H306.544V889.827H321.252V868.992ZM316.962 879.41V831.378H296.127V879.41H316.962Z" fill="#9FC0FF" mask="url(#path-17-inside-9_223_2710)"/>
</g>
<g opacity="0.25">
<mask id="path-19-inside-10_223_2710" fill="white">
<path d="M1324.66 675.322L1334.64 681.237L1321.81 702.883L1311.83 696.968L1324.66 675.322ZM1321.41 634.541L1331.56 640.557L1301.68 690.952L1291.54 684.936L1321.41 634.541ZM1292.37 637.661L1303.19 644.078L1282.23 679.422L1271.41 673.005L1292.37 637.661Z"/>
</mask>
<path d="M1324.66 675.322L1329.21 667.656L1321.54 663.111L1317 670.777L1324.66 675.322ZM1334.64 681.237L1342.31 685.782L1346.85 678.117L1339.18 673.572L1334.64 681.237ZM1321.81 702.883L1317.26 710.549L1324.93 715.094L1329.47 707.428L1321.81 702.883ZM1311.83 696.968L1304.16 692.423L1299.62 700.089L1307.28 704.634L1311.83 696.968ZM1321.41 634.541L1325.96 626.876L1318.29 622.331L1313.75 629.997L1321.41 634.541ZM1331.56 640.557L1339.23 645.102L1343.77 637.436L1336.11 632.892L1331.56 640.557ZM1301.68 690.952L1297.14 698.618L1304.8 703.163L1309.35 695.497L1301.68 690.952ZM1291.54 684.936L1283.87 680.391L1279.32 688.057L1286.99 692.602L1291.54 684.936ZM1292.37 637.661L1296.91 629.995L1289.25 625.45L1284.7 633.116L1292.37 637.661ZM1303.19 644.078L1310.86 648.623L1315.4 640.957L1307.73 636.412L1303.19 644.078ZM1282.23 679.422L1277.69 687.087L1285.36 691.632L1289.9 683.967L1282.23 679.422ZM1271.41 673.005L1263.75 668.46L1259.2 676.126L1266.87 680.671L1271.41 673.005ZM1320.12 682.987L1330.1 688.903L1339.18 673.572L1329.21 667.656L1320.12 682.987ZM1326.97 676.692L1314.14 698.339L1329.47 707.428L1342.31 685.782L1326.97 676.692ZM1326.35 695.218L1316.37 689.302L1307.28 704.634L1317.26 710.549L1326.35 695.218ZM1319.49 701.513L1332.33 679.867L1317 670.777L1304.16 692.423L1319.49 701.513ZM1316.87 642.207L1327.02 648.223L1336.11 632.892L1325.96 626.876L1316.87 642.207ZM1323.9 636.012L1294.02 686.407L1309.35 695.497L1339.23 645.102L1323.9 636.012ZM1306.23 683.286L1296.08 677.271L1286.99 692.602L1297.14 698.618L1306.23 683.286ZM1299.2 689.481L1329.08 639.086L1313.75 629.997L1283.87 680.391L1299.2 689.481ZM1287.82 645.327L1298.64 651.743L1307.73 636.412L1296.91 629.995L1287.82 645.327ZM1295.52 639.533L1274.57 674.877L1289.9 683.967L1310.86 648.623L1295.52 639.533ZM1286.78 671.756L1275.96 665.339L1266.87 680.671L1277.69 687.087L1286.78 671.756ZM1279.08 677.55L1300.03 642.206L1284.7 633.116L1263.75 668.46L1279.08 677.55Z" fill="#9FC0FF" mask="url(#path-19-inside-10_223_2710)"/>
</g>
<g opacity="0.25">
<mask id="path-21-inside-11_223_2710" fill="white">
<path d="M60.7532 328.109L51.4316 311.134L73.0273 328.407L69.1293 330.547C67.7042 331.33 66.1475 331.475 64.4593 330.984C62.7711 330.493 61.5358 329.534 60.7532 328.109ZM47.7022 295.998C48.4814 296.225 49.2482 296.131 50.0027 295.717C50.7571 295.302 51.2478 294.705 51.4745 293.926C51.6553 293.063 51.5385 292.255 51.1242 291.5C50.7099 290.746 50.1132 290.255 49.334 290.028C48.5548 289.802 47.788 289.895 47.0336 290.31C46.2791 290.724 45.7885 291.321 45.5617 292.1C45.335 292.879 45.4287 293.646 45.843 294.4C46.2573 295.155 46.8771 295.687 47.7022 295.998ZM98.5415 294.102C99.0691 294.467 99.5631 295.069 100.023 295.907C100.576 296.913 100.793 298.103 100.675 299.477C100.64 300.805 100.254 301.89 99.5161 302.732L84.2627 321.746C83.8978 322.274 83.2963 322.768 82.458 323.228C81.452 323.78 80.285 324.039 78.9568 324.005C77.6664 323.841 76.5585 323.413 75.633 322.721L44.6277 297.85C44.1001 297.485 43.606 296.883 43.1457 296.045C42.5933 295.039 42.3574 293.914 42.4378 292.67C42.6021 291.379 43.0302 290.271 43.7221 289.346L59.1013 270.263C59.7176 269.597 60.3611 269.08 61.0317 268.712C61.9539 268.205 63.0601 268.034 64.3505 268.199C65.5948 268.279 66.6797 268.665 67.6052 269.357L98.5415 294.102ZM51.6874 332.76C50.0239 332.91 48.5305 332.475 47.2072 331.456C45.8839 330.437 45.1473 329.096 44.9976 327.433L42.9051 308.124L56.1625 332.267L51.6874 332.76Z"/>
</mask>
<path d="M51.4316 311.134L55.4932 306.056L45.7318 314.264L51.4316 311.134ZM73.0273 328.407L76.1572 334.107L84.6996 329.416L77.0889 323.329L73.0273 328.407ZM47.7023 295.998L45.4116 302.084L45.6453 302.172L45.8851 302.241L47.7023 295.998ZM51.4745 293.926L57.7181 295.744L57.7879 295.504L57.8391 295.259L51.4745 293.926ZM98.5415 294.102L94.4796 299.18L94.6567 299.322L94.8431 299.451L98.5415 294.102ZM100.675 299.477L94.196 298.92L94.1792 299.114L94.1742 299.309L100.675 299.477ZM99.5161 302.732L94.6267 298.445L94.5329 298.552L94.4439 298.663L99.5161 302.732ZM84.2627 321.746L79.1905 317.677L79.0457 317.857L78.9141 318.048L84.2627 321.746ZM78.9568 324.005L78.1356 330.456L78.4608 330.497L78.7884 330.506L78.9568 324.005ZM75.633 322.721L71.5641 327.793L71.6505 327.862L71.7392 327.929L75.633 322.721ZM44.6277 297.85L48.6966 292.777L48.5162 292.633L48.3261 292.501L44.6277 297.85ZM42.4378 292.67L35.9872 291.848L35.9617 292.049L35.9487 292.25L42.4378 292.67ZM43.7221 289.346L38.659 285.265L38.5849 285.357L38.5141 285.452L43.7221 289.346ZM59.1013 270.263L54.3295 265.845L54.178 266.009L54.0382 266.182L59.1013 270.263ZM64.3505 268.199L63.5293 274.649L63.7295 274.675L63.931 274.688L64.3505 268.199ZM67.6052 269.357L71.6671 264.279L71.5841 264.213L71.499 264.149L67.6052 269.357ZM51.6874 332.76L52.2703 339.237L52.3353 339.231L52.4002 339.224L51.6874 332.76ZM44.9976 327.433L51.4741 326.85L51.4688 326.791L51.4624 326.732L44.9976 327.433ZM42.9051 308.124L48.605 304.994L36.4403 308.825L42.9051 308.124ZM56.1625 332.267L56.8753 338.73L66.5448 337.664L61.8624 329.137L56.1625 332.267ZM66.4531 324.979L57.1314 308.004L45.7318 314.264L55.0534 331.239L66.4531 324.979ZM47.37 316.212L68.9657 333.485L77.0889 323.329L55.4932 306.056L47.37 316.212ZM69.8973 322.707L65.9993 324.847L72.2592 336.247L76.1572 334.107L69.8973 322.707ZM65.9993 324.847C66.0084 324.842 66.044 324.824 66.1031 324.806C66.1628 324.787 66.2267 324.775 66.2874 324.769C66.3472 324.763 66.3839 324.766 66.3898 324.767C66.3943 324.768 66.358 324.764 66.2765 324.74L62.6421 337.228C65.8373 338.158 69.1917 337.932 72.2592 336.247L65.9993 324.847ZM66.2765 324.74C66.195 324.717 66.1627 324.7 66.1667 324.702C66.172 324.705 66.2046 324.722 66.2521 324.759C66.3002 324.796 66.3473 324.841 66.3878 324.889C66.4278 324.936 66.448 324.97 66.4531 324.979L55.0534 331.239C56.7378 334.307 59.4469 336.298 62.6421 337.228L66.2765 324.74ZM45.8851 302.241C48.4284 302.982 50.9683 302.605 53.1326 301.416L46.8727 290.017C47.138 289.871 47.5461 289.707 48.0725 289.643C48.6071 289.578 49.1069 289.634 49.5194 289.754L45.8851 302.241ZM53.1326 301.416C55.297 300.228 56.9779 298.287 57.7181 295.744L45.2309 292.109C45.351 291.697 45.5715 291.244 45.9135 290.829C46.2503 290.419 46.6075 290.162 46.8727 290.017L53.1326 301.416ZM57.8391 295.259C58.3296 292.918 58.0052 290.521 56.824 288.37L45.4244 294.63C45.2764 294.361 45.1455 294.01 45.0866 293.602C45.028 293.196 45.0568 292.847 45.1099 292.593L57.8391 295.259ZM56.824 288.37C55.6355 286.206 53.6945 284.525 51.1512 283.785L47.5168 296.272C47.1043 296.152 46.6522 295.931 46.2362 295.589C45.8265 295.252 45.57 294.895 45.4244 294.63L56.824 288.37ZM51.1512 283.785C48.6079 283.044 46.068 283.421 43.9036 284.61L50.1635 296.009C49.8983 296.155 49.4902 296.319 48.9637 296.383C48.4292 296.449 47.9293 296.392 47.5168 296.272L51.1512 283.785ZM43.9036 284.61C41.7392 285.798 40.0583 287.739 39.3181 290.283L51.8053 293.917C51.6853 294.329 51.4647 294.782 51.1227 295.198C50.7859 295.607 50.4288 295.864 50.1635 296.009L43.9036 284.61ZM39.3181 290.283C38.5779 292.826 38.9546 295.366 40.1432 297.53L51.5429 291.27C51.6885 291.536 51.8522 291.944 51.9166 292.47C51.9819 293.005 51.9254 293.504 51.8053 293.917L39.3181 290.283ZM40.1432 297.53C41.3243 299.681 43.1724 301.241 45.4116 302.084L49.9929 289.912C50.2355 290.003 50.5457 290.166 50.8565 290.433C51.1691 290.702 51.3949 291.001 51.5429 291.27L40.1432 297.53ZM94.8431 299.451C94.5175 299.226 94.3401 299.024 94.2823 298.954C94.2242 298.883 94.245 298.894 94.3236 299.037L105.723 292.777C104.996 291.452 103.905 289.905 102.24 288.754L94.8431 299.451ZM94.3236 299.037C94.287 298.97 94.2587 298.905 94.238 298.846C94.2176 298.788 94.2077 298.744 94.2034 298.721C94.1949 298.674 94.2123 298.73 94.196 298.92L107.153 300.035C107.359 297.643 107.009 295.119 105.723 292.777L94.3236 299.037ZM94.1742 299.309C94.1721 299.39 94.1637 299.301 94.2331 299.106C94.3074 298.898 94.4384 298.66 94.6267 298.445L104.406 307.019C106.325 304.83 107.109 302.196 107.175 299.646L94.1742 299.309ZM94.4439 298.663L79.1905 317.677L89.3349 325.815L104.588 306.801L94.4439 298.663ZM78.9141 318.048C79.1393 317.722 79.3407 317.545 79.4111 317.487C79.4819 317.429 79.4712 317.45 79.328 317.528L85.5879 328.928C86.9126 328.2 88.46 327.109 89.6113 325.444L78.9141 318.048ZM79.328 317.528C79.3547 317.514 79.3792 317.503 79.3986 317.495C79.4179 317.488 79.426 317.487 79.4194 317.488C79.4072 317.491 79.3174 317.509 79.1252 317.505L78.7884 330.506C81.0837 330.565 83.423 330.117 85.5879 328.928L79.328 317.528ZM79.778 317.554C79.6051 317.532 79.5217 317.503 79.5018 317.495C79.4857 317.489 79.5012 317.494 79.5268 317.513L71.7392 327.929C73.673 329.374 75.8736 330.168 78.1356 330.456L79.778 317.554ZM79.7018 317.648L48.6966 292.777L40.5589 302.922L71.5641 327.793L79.7018 317.648ZM48.3261 292.501C48.6517 292.726 48.829 292.928 48.8869 292.998C48.945 293.069 48.9242 293.058 48.8456 292.915L37.4459 299.175C38.1733 300.5 39.2645 302.047 40.9294 303.198L48.3261 292.501ZM48.8456 292.915C48.8602 292.942 48.8757 292.975 48.8895 293.012C48.9033 293.049 48.9127 293.084 48.9187 293.112C48.9313 293.172 48.9215 293.173 48.9269 293.089L35.9487 292.25C35.7956 294.618 36.2468 296.991 37.4459 299.175L48.8456 292.915ZM48.8884 293.491C48.9104 293.318 48.94 293.235 48.9477 293.215C48.9539 293.199 48.9492 293.214 48.9301 293.24L38.5141 285.452C37.0683 287.386 36.2751 289.586 35.9872 291.848L48.8884 293.491ZM48.7852 293.426L64.1644 274.343L54.0382 266.182L38.659 285.265L48.7852 293.426ZM63.8731 274.68C64.1004 274.435 64.2054 274.388 64.1617 274.412L57.9018 263.012C56.5168 263.772 55.3348 264.759 54.3295 265.845L63.8731 274.68ZM64.1617 274.412C63.9169 274.546 63.6942 274.607 63.5466 274.63C63.411 274.651 63.392 274.632 63.5293 274.649L65.1717 261.748C62.8452 261.452 60.2886 261.701 57.9018 263.012L64.1617 274.412ZM63.931 274.688C64.0016 274.692 63.9866 274.7 63.9167 274.675C63.8839 274.663 63.8466 274.647 63.808 274.626C63.7694 274.605 63.7368 274.584 63.7115 274.565L71.499 264.149C69.4838 262.642 67.1682 261.864 64.77 261.709L63.931 274.688ZM63.5434 274.435L94.4796 299.18L102.603 289.024L71.6671 264.279L63.5434 274.435ZM51.1045 326.284C51.0562 326.288 51.0422 326.286 51.0562 326.287C51.0711 326.288 51.1003 326.292 51.1369 326.303C51.1736 326.314 51.2005 326.326 51.2138 326.333C51.2262 326.339 51.213 326.334 51.1746 326.304L43.2398 336.609C45.8593 338.626 48.9775 339.533 52.2703 339.237L51.1045 326.284ZM51.1746 326.304C51.1581 326.292 51.2604 326.371 51.3621 326.556C51.4639 326.742 51.476 326.871 51.4741 326.85L38.5211 328.016C38.8334 331.485 40.4795 334.483 43.2398 336.609L51.1746 326.304ZM51.4624 326.732L49.3699 307.424L36.4403 308.825L38.5328 328.133L51.4624 326.732ZM37.2053 311.254L50.4627 335.397L61.8624 329.137L48.605 304.994L37.2053 311.254ZM55.4497 325.803L50.9746 326.297L52.4002 339.224L56.8753 338.73L55.4497 325.803Z" fill="#9FC0FF" mask="url(#path-21-inside-11_223_2710)"/>
</g>
<g opacity="0.25">
<mask id="path-23-inside-12_223_2710" fill="white">
<path d="M1191.93 321.269L1179.41 298.46L1208.42 321.668L1203.19 324.544C1201.27 325.596 1199.18 325.792 1196.91 325.131C1194.64 324.471 1192.98 323.184 1191.93 321.269ZM1174.4 278.122C1175.44 278.427 1176.47 278.301 1177.49 277.744C1178.5 277.187 1179.16 276.386 1179.47 275.339C1179.71 274.179 1179.55 273.092 1178.99 272.079C1178.44 271.065 1177.64 270.406 1176.59 270.101C1175.54 269.796 1174.51 269.922 1173.5 270.479C1172.48 271.036 1171.83 271.838 1171.52 272.884C1171.22 273.931 1171.34 274.962 1171.9 275.975C1172.46 276.989 1173.29 277.705 1174.4 278.122ZM1242.71 275.575C1243.42 276.065 1244.08 276.874 1244.7 278C1245.44 279.352 1245.73 280.951 1245.57 282.797C1245.53 284.582 1245.01 286.04 1244.02 287.171L1223.52 312.719C1223.03 313.428 1222.22 314.092 1221.1 314.71C1219.74 315.452 1218.18 315.8 1216.39 315.754C1214.66 315.533 1213.17 314.958 1211.93 314.028L1170.27 280.61C1169.56 280.12 1168.89 279.312 1168.27 278.186C1167.53 276.834 1167.22 275.322 1167.32 273.65C1167.54 271.916 1168.12 270.428 1169.05 269.184L1189.71 243.543C1190.54 242.649 1191.41 241.954 1192.31 241.459C1193.55 240.779 1195.03 240.549 1196.77 240.77C1198.44 240.878 1199.9 241.397 1201.14 242.326L1242.71 275.575ZM1179.75 327.518C1177.52 327.719 1175.51 327.135 1173.73 325.766C1171.95 324.397 1170.96 322.595 1170.76 320.36L1167.95 294.416L1185.76 326.855L1179.75 327.518Z"/>
</mask>
<path d="M1179.41 298.46L1184.87 291.637L1171.75 302.666L1179.41 298.46ZM1208.42 321.668L1212.63 329.327L1224.11 323.024L1213.88 314.845L1208.42 321.668ZM1196.91 325.131L1194.47 333.521L1196.91 325.131ZM1174.4 278.122L1171.32 286.299L1171.63 286.418L1171.96 286.511L1174.4 278.122ZM1179.47 275.339L1187.85 277.78L1187.95 277.458L1188.02 277.13L1179.47 275.339ZM1242.71 275.575L1237.25 282.398L1237.49 282.589L1237.74 282.762L1242.71 275.575ZM1245.57 282.797L1236.87 282.048L1236.85 282.309L1236.84 282.571L1245.57 282.797ZM1244.02 287.171L1237.45 281.41L1237.32 281.554L1237.2 281.703L1244.02 287.171ZM1223.52 312.719L1216.71 307.251L1216.51 307.494L1216.33 307.749L1223.52 312.719ZM1216.39 315.754L1215.29 324.421L1215.73 324.477L1216.17 324.488L1216.39 315.754ZM1211.93 314.028L1206.46 320.844L1206.58 320.937L1206.69 321.026L1211.93 314.028ZM1170.27 280.61L1175.73 273.795L1175.49 273.601L1175.24 273.424L1170.27 280.61ZM1167.32 273.65L1158.66 272.547L1158.62 272.816L1158.6 273.086L1167.32 273.65ZM1169.05 269.184L1162.25 263.701L1162.15 263.825L1162.05 263.952L1169.05 269.184ZM1189.71 243.543L1183.3 237.607L1183.1 237.827L1182.91 238.06L1189.71 243.543ZM1196.77 240.77L1195.66 249.437L1195.93 249.471L1196.2 249.489L1196.77 240.77ZM1201.14 242.326L1206.6 235.503L1206.49 235.414L1206.37 235.329L1201.14 242.326ZM1179.75 327.518L1180.53 336.22L1180.62 336.213L1180.71 336.203L1179.75 327.518ZM1170.76 320.36L1179.47 319.576L1179.46 319.497L1179.45 319.418L1170.76 320.36ZM1167.95 294.416L1175.61 290.21L1159.26 295.357L1167.95 294.416ZM1185.76 326.855L1186.72 335.54L1199.71 334.107L1193.42 322.65L1185.76 326.855ZM1199.59 317.063L1187.07 294.254L1171.75 302.666L1184.27 325.474L1199.59 317.063ZM1173.95 305.283L1202.97 328.492L1213.88 314.845L1184.87 291.637L1173.95 305.283ZM1204.22 314.01L1198.98 316.886L1207.39 332.203L1212.63 329.327L1204.22 314.01ZM1198.98 316.886C1198.99 316.879 1199.04 316.855 1199.12 316.83C1199.2 316.805 1199.29 316.788 1199.37 316.78C1199.45 316.773 1199.5 316.777 1199.51 316.778C1199.51 316.779 1199.46 316.774 1199.35 316.742L1194.47 333.521C1198.76 334.77 1203.27 334.466 1207.39 332.203L1198.98 316.886ZM1199.35 316.742C1199.24 316.71 1199.2 316.688 1199.21 316.691C1199.21 316.694 1199.26 316.717 1199.32 316.767C1199.39 316.817 1199.45 316.877 1199.5 316.941C1199.56 317.005 1199.58 317.051 1199.59 317.063L1184.27 325.474C1186.54 329.596 1190.18 332.271 1194.47 333.521L1199.35 316.742ZM1171.96 286.511C1175.37 287.506 1178.79 287 1181.69 285.403L1173.28 270.085C1173.64 269.89 1174.19 269.67 1174.89 269.583C1175.61 269.496 1176.28 269.571 1176.84 269.733L1171.96 286.511ZM1181.69 285.403C1184.6 283.806 1186.86 281.198 1187.85 277.78L1171.08 272.897C1171.24 272.343 1171.53 271.735 1171.99 271.176C1172.45 270.626 1172.93 270.281 1173.28 270.085L1181.69 285.403ZM1188.02 277.13C1188.68 273.983 1188.24 270.763 1186.65 267.873L1171.34 276.284C1171.14 275.922 1170.96 275.451 1170.88 274.903C1170.8 274.358 1170.84 273.888 1170.91 273.548L1188.02 277.13ZM1186.65 267.873C1185.06 264.965 1182.45 262.706 1179.03 261.712L1174.15 278.49C1173.59 278.329 1172.99 278.033 1172.43 277.573C1171.88 277.121 1171.53 276.641 1171.34 276.284L1186.65 267.873ZM1179.03 261.712C1175.61 260.717 1172.2 261.223 1169.29 262.82L1177.7 278.138C1177.35 278.333 1176.8 278.553 1176.09 278.64C1175.37 278.728 1174.7 278.652 1174.15 278.49L1179.03 261.712ZM1169.29 262.82C1166.38 264.417 1164.13 267.025 1163.13 270.443L1179.91 275.326C1179.75 275.88 1179.45 276.488 1178.99 277.047C1178.54 277.597 1178.06 277.942 1177.7 278.138L1169.29 262.82ZM1163.13 270.443C1162.14 273.86 1162.64 277.273 1164.24 280.181L1179.56 271.77C1179.75 272.126 1179.97 272.675 1180.06 273.382C1180.15 274.1 1180.07 274.772 1179.91 275.326L1163.13 270.443ZM1164.24 280.181C1165.83 283.071 1168.31 285.167 1171.32 286.299L1177.47 269.945C1177.8 270.067 1178.22 270.287 1178.64 270.645C1179.06 271.006 1179.36 271.408 1179.56 271.77L1164.24 280.181ZM1237.74 282.762C1237.3 282.459 1237.06 282.189 1236.98 282.094C1236.91 281.999 1236.93 282.013 1237.04 282.206L1252.36 273.795C1251.38 272.015 1249.91 269.935 1247.68 268.389L1237.74 282.762ZM1237.04 282.206C1236.99 282.116 1236.95 282.029 1236.92 281.95C1236.9 281.871 1236.88 281.812 1236.88 281.781C1236.87 281.718 1236.89 281.793 1236.87 282.048L1254.28 283.546C1254.56 280.333 1254.08 276.941 1252.36 273.795L1237.04 282.206ZM1236.84 282.571C1236.84 282.68 1236.82 282.561 1236.92 282.299C1237.02 282.018 1237.19 281.699 1237.45 281.41L1250.59 292.931C1253.17 289.989 1254.22 286.45 1254.31 283.024L1236.84 282.571ZM1237.2 281.703L1216.71 307.251L1230.34 318.186L1250.83 292.638L1237.2 281.703ZM1216.33 307.749C1216.64 307.312 1216.91 307.074 1217 306.996C1217.1 306.918 1217.08 306.946 1216.89 307.051L1225.3 322.369C1227.08 321.391 1229.16 319.925 1230.71 317.688L1216.33 307.749ZM1216.89 307.051C1216.93 307.032 1216.96 307.017 1216.99 307.007C1217.01 306.998 1217.02 306.996 1217.01 306.998C1217 307.002 1216.88 307.026 1216.62 307.02L1216.17 324.488C1219.25 324.568 1222.39 323.966 1225.3 322.369L1216.89 307.051ZM1217.5 307.087C1217.26 307.057 1217.15 307.017 1217.12 307.007C1217.1 306.999 1217.12 307.005 1217.16 307.031L1206.69 321.026C1209.29 322.969 1212.25 324.034 1215.29 324.421L1217.5 307.087ZM1217.39 307.213L1175.73 273.795L1164.8 287.426L1206.46 320.844L1217.39 307.213ZM1175.24 273.424C1175.67 273.726 1175.91 273.997 1175.99 274.092C1176.07 274.187 1176.04 274.172 1175.93 273.98L1160.62 282.391C1161.59 284.171 1163.06 286.25 1165.3 287.797L1175.24 273.424ZM1175.93 273.98C1175.95 274.016 1175.97 274.06 1175.99 274.11C1176.01 274.16 1176.02 274.207 1176.03 274.244C1176.05 274.326 1176.04 274.326 1176.04 274.214L1158.6 273.086C1158.4 276.267 1159 279.457 1160.62 282.391L1175.93 273.98ZM1175.99 274.753C1176.02 274.521 1176.06 274.409 1176.07 274.382C1176.08 274.361 1176.07 274.382 1176.05 274.416L1162.05 263.952C1160.11 266.55 1159.04 269.507 1158.66 272.547L1175.99 274.753ZM1175.85 274.667L1196.52 249.026L1182.91 238.06L1162.25 263.701L1175.85 274.667ZM1196.12 249.479C1196.43 249.149 1196.57 249.085 1196.51 249.118L1188.1 233.8C1186.24 234.822 1184.65 236.148 1183.3 237.607L1196.12 249.479ZM1196.51 249.118C1196.18 249.298 1195.88 249.38 1195.69 249.411C1195.5 249.439 1195.48 249.413 1195.66 249.437L1197.87 232.102C1194.74 231.704 1191.31 232.039 1188.1 233.8L1196.51 249.118ZM1196.2 249.489C1196.3 249.495 1196.28 249.505 1196.18 249.471C1196.14 249.455 1196.09 249.434 1196.04 249.406C1195.99 249.378 1195.94 249.349 1195.91 249.324L1206.37 235.329C1203.66 233.304 1200.55 232.259 1197.33 232.05L1196.2 249.489ZM1195.68 249.149L1237.25 282.398L1248.16 268.752L1206.6 235.503L1195.68 249.149ZM1178.97 318.816C1178.9 318.822 1178.88 318.818 1178.9 318.82C1178.92 318.822 1178.96 318.828 1179.01 318.842C1179.06 318.856 1179.1 318.872 1179.12 318.882C1179.13 318.89 1179.11 318.883 1179.06 318.843L1168.4 332.689C1171.92 335.399 1176.11 336.619 1180.53 336.22L1178.97 318.816ZM1179.06 318.843C1179.04 318.826 1179.18 318.933 1179.31 319.182C1179.45 319.431 1179.47 319.604 1179.47 319.576L1162.06 321.143C1162.48 325.805 1164.69 329.833 1168.4 332.689L1179.06 318.843ZM1179.45 319.418L1176.64 293.474L1159.26 295.357L1162.08 321.301L1179.45 319.418ZM1160.29 298.621L1178.11 331.061L1193.42 322.65L1175.61 290.21L1160.29 298.621ZM1184.81 318.17L1178.79 318.834L1180.71 336.203L1186.72 335.54L1184.81 318.17Z" fill="#9FC0FF" mask="url(#path-23-inside-12_223_2710)"/>
</g>
<g opacity="0.25">
<mask id="path-25-inside-13_223_2710" fill="white">
<path d="M407.632 59.0495C410.443 59.7972 412.826 60.5613 414.783 61.3419C416.739 62.1226 418.494 63.232 420.047 64.6701C421.555 66.0245 423.045 68.0429 424.518 70.7254C425.991 73.4079 426.911 76.1759 427.278 79.0295C427.682 81.7532 427.548 84.3906 426.876 86.9418C426.288 89.447 425.283 91.69 423.861 93.6708C422.44 95.6517 420.723 97.1945 418.711 98.2993C416.532 99.4962 414.591 100.234 412.89 100.514C411.226 100.664 409.726 100.615 408.39 100.366C407.008 100.034 405.732 99.6984 404.563 99.3583C403.432 98.8883 402.351 98.6089 401.321 98.5202C400.328 98.3017 399.287 98.4916 398.197 99.0901C396.52 100.011 394.603 100.791 392.445 101.43C390.37 102.024 388.093 102.347 385.612 102.4C383.216 102.407 380.807 102.093 378.386 101.459C376.002 100.695 373.709 99.499 371.506 97.8718C369.341 96.1148 367.453 93.7693 365.842 90.8353C363.042 85.9355 361.422 81.0972 360.981 76.3204C360.624 71.4976 361.439 67.1218 363.428 63.193C365.417 59.2643 368.674 56.057 373.201 53.5712C376.387 51.822 379.364 50.787 382.134 50.4662C384.904 50.1454 387.457 50.3252 389.795 51.0055C392.216 51.6398 394.474 52.473 396.568 53.5051C398.662 54.5373 400.608 55.5965 402.405 56.6829C404.285 57.7232 406.028 58.5121 407.632 59.0495ZM398.494 86.816C400.255 85.8493 401.575 84.5786 402.456 83.0038C403.375 81.2991 403.885 79.546 403.987 77.7444C404.126 75.8129 403.713 73.967 402.746 72.2066C401.78 70.4462 400.467 69.1486 398.808 68.3137C397.187 67.3489 395.434 66.8387 393.549 66.783C391.701 66.5974 389.897 66.9879 388.137 67.9546C386.376 68.9213 385.037 70.257 384.118 71.9616C383.237 73.5364 382.727 75.2896 382.587 77.221C382.486 79.0226 382.918 80.8036 383.885 82.564C384.851 84.3244 386.145 85.6869 387.766 86.6517C389.425 87.4866 391.178 87.9968 393.025 88.1824C394.911 88.2382 396.734 87.7827 398.494 86.816Z"/>
</mask>
<path d="M407.632 59.0495L406.362 62.8424L406.482 62.8825L406.604 62.9151L407.632 59.0495ZM414.783 61.3419L416.265 57.6268L414.783 61.3419ZM420.047 64.6701L417.33 67.6054L417.352 67.6257L417.374 67.6456L420.047 64.6701ZM427.278 79.0295L423.31 79.5395L423.315 79.5784L423.321 79.6172L427.278 79.0295ZM426.876 86.9418L423.008 85.9228L422.995 85.9749L422.982 86.0274L426.876 86.9418ZM412.89 100.514L413.248 104.498L413.394 104.485L413.538 104.461L412.89 100.514ZM408.39 100.366L407.456 104.256L407.557 104.28L407.66 104.299L408.39 100.366ZM404.563 99.3583L403.028 103.052L403.233 103.137L403.445 103.199L404.563 99.3583ZM401.321 98.5202L400.461 102.427L400.717 102.483L400.978 102.506L401.321 98.5202ZM392.445 101.43L393.545 105.276L393.563 105.271L393.581 105.266L392.445 101.43ZM385.612 102.4L385.624 106.4L385.661 106.4L385.698 106.399L385.612 102.4ZM378.386 101.459L377.164 105.268L377.267 105.301L377.372 105.328L378.386 101.459ZM371.506 97.8718L368.985 100.978L369.056 101.035L369.129 101.089L371.506 97.8718ZM365.842 90.8353L369.348 88.91L369.332 88.8803L369.315 88.8508L365.842 90.8353ZM360.981 76.3204L356.992 76.6158L356.994 76.6519L356.998 76.6881L360.981 76.3204ZM363.428 63.193L359.859 61.3866L363.428 63.193ZM389.795 51.0055L388.677 54.8462L388.729 54.8613L388.781 54.875L389.795 51.0055ZM402.405 56.6829L400.335 60.1058L400.401 60.1457L400.468 60.183L402.405 56.6829ZM402.456 83.0038L405.947 84.9565L405.962 84.9291L405.977 84.9015L402.456 83.0038ZM403.987 77.7444L399.997 77.4561L399.995 77.4874L399.993 77.5188L403.987 77.7444ZM398.808 68.3137L396.762 71.7509L396.884 71.8231L397.01 71.8866L398.808 68.3137ZM393.549 66.783L393.149 70.7629L393.29 70.777L393.431 70.7812L393.549 66.783ZM384.118 71.9616L387.609 73.9144L387.624 73.887L387.639 73.8594L384.118 71.9616ZM382.587 77.221L378.598 76.9327L378.596 76.9641L378.594 76.9954L382.587 77.221ZM387.766 86.6517L385.72 90.0889L385.842 90.1611L385.968 90.2246L387.766 86.6517ZM393.025 88.1824L392.626 92.1624L392.766 92.1765L392.907 92.1807L393.025 88.1824ZM406.604 62.9151C409.314 63.6359 411.536 64.3531 413.3 65.057L416.265 57.6268C414.117 56.7695 411.572 55.9584 408.66 55.1839L406.604 62.9151ZM413.3 65.057C414.798 65.6547 416.135 66.499 417.33 67.6054L422.764 61.7349C420.853 59.9649 418.68 58.5904 416.265 57.6268L413.3 65.057ZM417.374 67.6456C418.422 68.5871 419.656 70.1823 421.012 72.6507L428.024 68.8001C426.433 65.9035 424.687 63.4618 422.72 61.6946L417.374 67.6456ZM421.012 72.6507C422.259 74.9227 423.011 77.2134 423.31 79.5395L431.245 78.5195C430.81 75.1385 429.722 71.8931 428.024 68.8001L421.012 72.6507ZM423.321 79.6172C423.65 81.8288 423.536 83.9186 423.008 85.9228L430.744 87.9608C431.561 84.8627 431.715 81.6776 431.234 78.4418L423.321 79.6172ZM422.982 86.0274C422.507 88.051 421.711 89.8068 420.612 91.3385L427.111 96.0032C428.855 93.5731 430.069 90.843 430.77 87.8562L422.982 86.0274ZM420.612 91.3385C419.516 92.865 418.242 93.9936 416.786 94.7932L420.636 101.805C423.204 100.395 425.363 98.4384 427.111 96.0032L420.612 91.3385ZM416.786 94.7932C414.843 95.8598 413.344 96.3856 412.241 96.5669L413.538 104.461C415.838 104.083 418.22 103.133 420.636 101.805L416.786 94.7932ZM412.531 96.5301C411.152 96.6542 410.027 96.6019 409.12 96.4336L407.66 104.299C409.426 104.627 411.301 104.673 413.248 104.498L412.531 96.5301ZM409.324 96.4769C407.993 96.1575 406.78 95.8374 405.681 95.5176L403.445 103.199C404.684 103.559 406.022 103.912 407.456 104.256L409.324 96.4769ZM406.098 95.6646C404.655 95.0648 403.172 94.6647 401.664 94.535L400.978 102.506C401.531 102.553 402.209 102.712 403.028 103.052L406.098 95.6646ZM402.181 94.6137C400.043 94.1431 398.013 94.6276 396.272 95.5839L400.122 102.596C400.354 102.469 400.482 102.44 400.513 102.434C400.528 102.431 400.526 102.433 400.511 102.433C400.495 102.432 400.477 102.43 400.461 102.427L402.181 94.6137ZM396.272 95.5839C394.885 96.3454 393.239 97.023 391.308 97.5953L393.581 105.266C395.967 104.559 398.156 103.676 400.122 102.596L396.272 95.5839ZM391.344 97.5848C389.645 98.0709 387.714 98.3544 385.527 98.4009L385.698 106.399C388.471 106.34 391.095 105.977 393.545 105.276L391.344 97.5848ZM385.601 98.4C383.565 98.4058 381.501 98.1399 379.399 97.5893L377.372 105.328C380.113 106.046 382.866 106.408 385.624 106.4L385.601 98.4ZM379.607 97.6497C377.675 97.0305 375.768 96.047 373.883 94.6544L369.129 101.089C371.65 102.951 374.329 104.359 377.164 105.268L379.607 97.6497ZM374.027 94.7659C372.335 93.3933 370.759 91.4793 369.348 88.91L362.336 92.7606C364.147 96.0593 366.347 98.8363 368.985 100.978L374.027 94.7659ZM369.315 88.8508C366.749 84.3606 365.344 80.0687 364.964 75.9527L356.998 76.6881C357.5 82.1256 359.335 87.5103 362.369 92.8198L369.315 88.8508ZM364.97 76.025C364.661 71.8545 365.369 68.2161 366.997 64.9995L359.859 61.3866C357.51 66.0275 356.586 71.1407 356.992 76.6158L364.97 76.025ZM366.997 64.9995C368.562 61.9076 371.181 59.2438 375.126 57.0774L371.276 50.0651C366.168 52.8701 362.271 56.6209 359.859 61.3866L366.997 64.9995ZM375.126 57.0774C377.989 55.5053 380.468 54.6858 382.594 54.4397L381.674 46.4928C378.26 46.8881 374.784 48.1387 371.276 50.0651L375.126 57.0774ZM382.594 54.4397C384.911 54.1714 386.92 54.3349 388.677 54.8462L390.913 47.1649C387.994 46.3155 384.897 46.1195 381.674 46.4928L382.594 54.4397ZM388.781 54.875C390.961 55.4459 392.964 56.1881 394.8 57.0931L398.336 49.9172C395.984 48.7579 393.472 47.8337 390.808 47.1361L388.781 54.875ZM394.8 57.0931C396.803 58.0801 398.646 59.0849 400.335 60.1058L404.474 53.2599C402.569 52.1081 400.522 50.9945 398.336 49.9172L394.8 57.0931ZM400.468 60.183C402.508 61.3111 404.475 62.2104 406.362 62.8424L408.902 55.2566C407.58 54.8138 406.063 54.1354 404.341 53.1828L400.468 60.183ZM400.42 90.3221C402.76 89.0367 404.66 87.2579 405.947 84.9565L398.965 81.051C398.491 81.8992 397.749 82.662 396.569 83.3098L400.42 90.3221ZM405.977 84.9015C407.153 82.7192 407.843 80.3989 407.981 77.97L399.993 77.5188C399.927 78.693 399.596 79.879 398.935 81.106L405.977 84.9015ZM407.976 78.0327C408.174 75.3026 407.576 72.6911 406.252 70.2813L399.24 74.132C399.85 75.243 400.079 76.3233 399.997 77.4561L407.976 78.0327ZM406.252 70.2813C404.93 67.8724 403.048 65.9695 400.607 64.7408L397.01 71.8866C397.886 72.3277 398.63 73.0201 399.24 74.132L406.252 70.2813ZM400.854 64.8765C398.649 63.5639 396.232 62.8605 393.667 62.7847L393.431 70.7812C394.636 70.8168 395.726 71.134 396.762 71.7509L400.854 64.8765ZM393.949 62.803C391.23 62.5299 388.62 63.1256 386.212 64.4485L390.062 71.4608C391.174 70.8502 392.173 70.6649 393.149 70.7629L393.949 62.803ZM386.212 64.4485C383.802 65.7717 381.896 67.6544 380.597 70.0639L387.639 73.8594C388.178 72.8595 388.951 72.0708 390.062 71.4608L386.212 64.4485ZM380.627 70.0088C379.44 72.132 378.776 74.4602 378.598 76.9327L386.577 77.5093C386.677 76.119 387.035 74.9408 387.609 73.9144L380.627 70.0088ZM378.594 76.9954C378.445 79.6282 379.093 82.1484 380.379 84.4893L387.391 80.6386C386.743 79.4588 386.526 78.417 386.581 77.4466L378.594 76.9954ZM380.379 84.4893C381.666 86.8328 383.447 88.7356 385.72 90.0889L389.812 83.2145C388.844 82.6383 388.037 81.8159 387.391 80.6386L380.379 84.4893ZM385.968 90.2246C388.064 91.2797 390.291 91.9279 392.626 92.1624L393.425 84.2025C392.065 84.0658 390.786 83.6935 389.565 83.0788L385.968 90.2246ZM392.907 92.1807C395.552 92.2589 398.076 91.609 400.42 90.3221L396.569 83.3098C395.392 83.9563 394.27 84.2175 393.144 84.1842L392.907 92.1807Z" fill="#9FC0FF" mask="url(#path-25-inside-13_223_2710)"/>
</g>
<g opacity="0.25">
<mask id="path-27-inside-14_223_2710" fill="white">
<path d="M1037.82 725.352C1041.02 726.202 1043.72 727.07 1045.95 727.957C1048.17 728.844 1050.16 730.105 1051.93 731.739C1053.64 733.278 1055.33 735.571 1057.01 738.619C1058.68 741.667 1059.73 744.812 1060.14 748.055C1060.6 751.149 1060.45 754.146 1059.69 757.045C1059.02 759.891 1057.88 762.44 1056.26 764.691C1054.65 766.942 1052.7 768.695 1050.41 769.95C1047.93 771.31 1045.73 772.149 1043.8 772.466C1041.91 772.636 1040.2 772.58 1038.68 772.299C1037.11 771.921 1035.66 771.54 1034.34 771.153C1033.05 770.619 1031.82 770.302 1030.65 770.201C1029.52 769.953 1028.34 770.168 1027.1 770.848C1025.2 771.894 1023.02 772.781 1020.57 773.508C1018.21 774.182 1015.62 774.549 1012.8 774.609C1010.08 774.617 1007.34 774.26 1004.59 773.54C1001.88 772.671 999.277 771.313 996.774 769.464C994.314 767.468 992.169 764.803 990.338 761.469C987.157 755.901 985.316 750.404 984.815 744.976C984.409 739.497 985.336 734.525 987.595 730.061C989.855 725.596 993.557 721.952 998.7 719.128C1002.32 717.14 1005.7 715.964 1008.85 715.6C1012 715.235 1014.9 715.44 1017.55 716.213C1020.31 716.933 1022.87 717.88 1025.25 719.053C1027.63 720.225 1029.84 721.429 1031.88 722.663C1034.02 723.845 1036 724.742 1037.82 725.352ZM1027.44 756.902C1029.44 755.804 1030.94 754.36 1031.94 752.57C1032.98 750.633 1033.56 748.641 1033.68 746.594C1033.84 744.4 1033.37 742.302 1032.27 740.302C1031.17 738.302 1029.68 736.827 1027.8 735.879C1025.95 734.783 1023.96 734.203 1021.82 734.14C1019.72 733.929 1017.67 734.372 1015.67 735.471C1013.67 736.569 1012.15 738.087 1011.1 740.024C1010.1 741.813 1009.52 743.805 1009.37 746C1009.25 748.047 1009.74 750.07 1010.84 752.071C1011.94 754.071 1013.41 755.619 1015.25 756.715C1017.13 757.664 1019.13 758.244 1021.23 758.455C1023.37 758.518 1025.44 758 1027.44 756.902Z"/>
</mask>
<path d="M1037.82 725.352L1036.38 729.662L1036.51 729.708L1036.65 729.745L1037.82 725.352ZM1051.93 731.739L1048.84 735.074L1048.87 735.097L1048.89 735.12L1051.93 731.739ZM1060.14 748.055L1055.64 748.634L1055.64 748.678L1055.65 748.722L1060.14 748.055ZM1059.69 757.045L1055.29 755.887L1055.28 755.946L1055.26 756.006L1059.69 757.045ZM1056.26 764.691L1059.95 767.341L1056.26 764.691ZM1043.8 772.466L1044.2 776.993L1044.37 776.978L1044.53 776.951L1043.8 772.466ZM1038.68 772.299L1037.62 776.718L1037.74 776.746L1037.85 776.767L1038.68 772.299ZM1034.34 771.153L1032.59 775.35L1032.82 775.447L1033.06 775.517L1034.34 771.153ZM1030.65 770.201L1029.67 774.64L1029.96 774.704L1030.26 774.729L1030.65 770.201ZM1020.57 773.508L1021.82 777.877L1021.84 777.871L1021.86 777.865L1020.57 773.508ZM1012.8 774.609L1012.82 779.154L1012.86 779.154L1012.9 779.153L1012.8 774.609ZM1004.59 773.54L1003.2 777.868L1003.32 777.905L1003.44 777.936L1004.59 773.54ZM996.774 769.464L993.91 772.993L993.99 773.058L994.074 773.12L996.774 769.464ZM990.338 761.469L994.322 759.281L994.303 759.248L994.284 759.214L990.338 761.469ZM984.815 744.976L980.282 745.312L980.285 745.353L980.289 745.394L984.815 744.976ZM1017.55 716.213L1016.28 720.576L1016.34 720.594L1016.4 720.609L1017.55 716.213ZM1025.25 719.053L1027.26 714.976L1025.25 719.053ZM1031.88 722.663L1029.53 726.553L1029.61 726.598L1029.68 726.64L1031.88 722.663ZM1031.94 752.57L1035.91 754.789L1035.92 754.758L1035.94 754.727L1031.94 752.57ZM1033.68 746.594L1029.15 746.267L1029.14 746.302L1029.14 746.338L1033.68 746.594ZM1027.8 735.879L1025.47 739.784L1025.61 739.866L1025.75 739.939L1027.8 735.879ZM1021.82 734.14L1021.37 738.662L1021.53 738.678L1021.69 738.683L1021.82 734.14ZM1011.1 740.024L1015.07 742.243L1015.09 742.211L1015.11 742.18L1011.1 740.024ZM1009.37 746L1004.83 745.672L1004.83 745.708L1004.83 745.743L1009.37 746ZM1015.25 756.715L1012.92 760.621L1013.06 760.703L1013.21 760.775L1015.25 756.715ZM1021.23 758.455L1020.77 762.977L1020.93 762.993L1021.09 762.998L1021.23 758.455ZM1036.65 729.745C1039.73 730.564 1042.26 731.379 1044.26 732.178L1047.63 723.736C1045.19 722.762 1042.3 721.84 1038.99 720.96L1036.65 729.745ZM1044.26 732.178C1045.96 732.858 1047.48 733.817 1048.84 735.074L1055.02 728.404C1052.84 726.393 1050.37 724.831 1047.63 723.736L1044.26 732.178ZM1048.89 735.12C1050.08 736.19 1051.48 738.002 1053.02 740.807L1060.99 736.431C1059.18 733.14 1057.2 730.366 1054.97 728.358L1048.89 735.12ZM1053.02 740.807C1054.44 743.388 1055.3 745.991 1055.64 748.634L1064.65 747.475C1064.16 743.633 1062.92 739.946 1060.99 736.431L1053.02 740.807ZM1055.65 748.722C1056.02 751.235 1055.89 753.61 1055.29 755.887L1064.08 758.203C1065.01 754.683 1065.19 751.063 1064.64 747.387L1055.65 748.722ZM1055.26 756.006C1054.72 758.305 1053.82 760.3 1052.57 762.041L1059.95 767.341C1061.94 764.58 1063.32 761.478 1064.11 758.084L1055.26 756.006ZM1052.57 762.041C1051.33 763.775 1049.88 765.058 1048.22 765.966L1052.6 773.934C1055.52 772.332 1057.97 770.108 1059.95 767.341L1052.57 762.041ZM1048.22 765.966C1046.02 767.178 1044.31 767.775 1043.06 767.981L1044.53 776.951C1047.15 776.522 1049.85 775.442 1052.6 773.934L1048.22 765.966ZM1043.39 767.94C1041.82 768.081 1040.54 768.021 1039.51 767.83L1037.85 776.767C1039.86 777.14 1041.99 777.192 1044.2 776.993L1043.39 767.94ZM1039.74 767.879C1038.23 767.516 1036.85 767.153 1035.61 766.789L1033.06 775.517C1034.47 775.927 1035.99 776.327 1037.62 776.718L1039.74 767.879ZM1036.08 766.956C1034.44 766.275 1032.75 765.82 1031.04 765.673L1030.26 774.729C1030.89 774.783 1031.66 774.963 1032.59 775.35L1036.08 766.956ZM1031.63 765.762C1029.2 765.227 1026.89 765.778 1024.91 766.864L1029.29 774.832C1029.55 774.687 1029.7 774.654 1029.73 774.648C1029.75 774.645 1029.75 774.646 1029.73 774.646C1029.71 774.646 1029.69 774.644 1029.67 774.64L1031.63 765.762ZM1024.91 766.864C1023.34 767.73 1021.47 768.5 1019.27 769.15L1021.86 777.865C1024.57 777.062 1027.05 776.059 1029.29 774.832L1024.91 766.864ZM1019.32 769.138C1017.38 769.69 1015.19 770.012 1012.71 770.065L1012.9 779.153C1016.05 779.086 1019.03 778.674 1021.82 777.877L1019.32 769.138ZM1012.79 770.064C1010.48 770.071 1008.13 769.769 1005.74 769.143L1003.44 777.936C1006.55 778.752 1009.68 779.163 1012.82 779.154L1012.79 770.064ZM1005.98 769.212C1003.78 768.508 1001.62 767.391 999.474 765.808L994.074 773.12C996.937 775.235 999.981 776.835 1003.2 777.868L1005.98 769.212ZM999.638 765.935C997.716 764.375 995.925 762.201 994.322 759.281L986.354 763.657C988.412 767.405 990.912 770.56 993.91 772.993L999.638 765.935ZM994.284 759.214C991.369 754.112 989.772 749.235 989.34 744.559L980.289 745.394C980.859 751.573 982.945 757.691 986.392 763.724L994.284 759.214ZM989.347 744.641C988.996 739.902 989.801 735.768 991.651 732.113L983.54 728.008C980.871 733.281 979.822 739.091 980.282 745.312L989.347 744.641ZM991.651 732.113C993.429 728.6 996.405 725.573 1000.89 723.112L996.512 715.144C990.708 718.331 986.281 722.593 983.54 728.008L991.651 732.113ZM1000.89 723.112C1004.14 721.325 1006.96 720.394 1009.37 720.115L1008.33 711.085C1004.45 711.534 1000.5 712.955 996.512 715.144L1000.89 723.112ZM1009.37 720.115C1012 719.81 1014.29 719.996 1016.28 720.576L1018.82 711.849C1015.51 710.884 1011.99 710.661 1008.33 711.085L1009.37 720.115ZM1016.4 720.609C1018.88 721.258 1021.16 722.101 1023.24 723.129L1027.26 714.976C1024.59 713.659 1021.73 712.609 1018.71 711.816L1016.4 720.609ZM1023.24 723.129C1025.52 724.251 1027.61 725.393 1029.53 726.553L1034.23 718.774C1032.07 717.465 1029.74 716.2 1027.26 714.976L1023.24 723.129ZM1029.68 726.64C1032 727.922 1034.23 728.944 1036.38 729.662L1039.27 721.043C1037.76 720.54 1036.04 719.769 1034.08 718.686L1029.68 726.64ZM1029.63 760.886C1032.29 759.425 1034.44 757.404 1035.91 754.789L1027.97 750.352C1027.44 751.315 1026.59 752.182 1025.25 752.918L1029.63 760.886ZM1035.94 754.727C1037.28 752.247 1038.06 749.611 1038.22 746.851L1029.14 746.338C1029.07 747.672 1028.69 749.02 1027.94 750.414L1035.94 754.727ZM1038.21 746.922C1038.44 743.82 1037.76 740.853 1036.25 738.115L1028.29 742.49C1028.98 743.752 1029.24 744.98 1029.15 746.267L1038.21 746.922ZM1036.25 738.115C1034.75 735.377 1032.61 733.215 1029.84 731.819L1025.75 739.939C1026.75 740.44 1027.59 741.226 1028.29 742.49L1036.25 738.115ZM1030.12 731.973C1027.61 730.482 1024.87 729.683 1021.95 729.597L1021.69 738.683C1023.06 738.723 1024.29 739.083 1025.47 739.784L1030.12 731.973ZM1022.27 729.617C1019.18 729.307 1016.22 729.984 1013.48 731.487L1017.86 739.455C1019.12 738.761 1020.26 738.55 1021.37 738.662L1022.27 729.617ZM1013.48 731.487C1010.74 732.991 1008.58 735.13 1007.1 737.868L1015.11 742.18C1015.72 741.044 1016.6 740.148 1017.86 739.455L1013.48 731.487ZM1007.14 737.805C1005.79 740.217 1005.03 742.863 1004.83 745.672L1013.9 746.327C1014.01 744.748 1014.42 743.409 1015.07 742.243L1007.14 737.805ZM1004.83 745.743C1004.66 748.735 1005.39 751.598 1006.86 754.258L1014.82 749.883C1014.09 748.542 1013.84 747.359 1013.9 746.256L1004.83 745.743ZM1006.86 754.258C1008.32 756.921 1010.34 759.083 1012.92 760.621L1017.57 752.81C1016.47 752.155 1015.56 751.221 1014.82 749.883L1006.86 754.258ZM1013.21 760.775C1015.59 761.974 1018.12 762.71 1020.77 762.977L1021.68 753.932C1020.13 753.777 1018.68 753.354 1017.29 752.656L1013.21 760.775ZM1021.09 762.998C1024.1 763.086 1026.96 762.348 1029.63 760.886L1025.25 752.918C1023.91 753.653 1022.64 753.949 1021.36 753.912L1021.09 762.998Z" fill="#9FC0FF" mask="url(#path-27-inside-14_223_2710)"/>
</g>
<g opacity="0.25">
<mask id="path-29-inside-15_223_2710" fill="white">
<path d="M895.638 93.0004L912.184 76.6895L895.873 60.1429L879.327 76.4539L895.638 93.0004ZM904.364 55.2077C904.338 58.7944 905.597 61.878 908.141 64.4584C910.684 67.0387 913.749 68.3418 917.336 68.3675C920.923 68.3932 924.007 67.1343 926.587 64.5906C929.167 62.047 930.47 58.9818 930.496 55.395C930.522 51.8083 929.263 48.7247 926.719 46.1443C924.176 43.564 921.11 42.2609 917.524 42.2352C913.937 42.2095 910.853 43.4684 908.273 46.0121C905.692 48.5557 904.389 51.6209 904.364 55.2077ZM937.586 98.3934L930.593 68.6547L907.95 90.975L937.586 98.3934Z"/>
</mask>
<path d="M895.638 93.0004L899.962 97.3867L895.575 101.71L891.252 97.3242L895.638 93.0004ZM912.184 76.6895L916.571 72.3657L920.894 76.7519L916.508 81.0757L912.184 76.6895ZM895.873 60.1429L891.55 55.7567L895.936 51.4329L900.26 55.8191L895.873 60.1429ZM879.327 76.4539L874.941 80.7776L870.617 76.3914L875.003 72.0676L879.327 76.4539ZM937.586 98.3934L943.581 96.9836L945.895 106.822L936.09 104.368L937.586 98.3934ZM930.593 68.6547L926.269 64.2685L934.079 56.5703L936.589 67.2449L930.593 68.6547ZM907.95 90.975L906.455 96.9497L895.817 94.2869L903.627 86.5887L907.95 90.975ZM891.314 88.6142L907.861 72.3032L916.508 81.0757L899.962 97.3867L891.314 88.6142ZM907.798 81.0133L891.487 64.4667L900.26 55.8191L916.571 72.3657L907.798 81.0133ZM900.197 64.5292L883.651 80.8401L875.003 72.0676L891.55 55.7567L900.197 64.5292ZM883.713 72.1301L900.024 88.6766L891.252 97.3242L874.941 80.7776L883.713 72.1301ZM910.523 55.2518C910.509 57.1866 911.117 58.7043 912.527 60.1346L903.754 68.7822C900.077 65.0518 898.167 60.4023 898.205 55.1635L910.523 55.2518ZM912.527 60.1346C913.937 61.5649 915.446 62.1947 917.38 62.2086L917.292 74.5264C912.053 74.4888 907.432 72.5125 903.754 68.7822L912.527 60.1346ZM917.38 62.2086C919.315 62.2225 920.833 61.6144 922.263 60.2044L930.911 68.9769C927.18 72.6542 922.531 74.564 917.292 74.5264L917.38 62.2086ZM922.263 60.2044C923.693 58.7944 924.323 57.2857 924.337 55.3509L936.655 55.4392C936.617 60.678 934.641 65.2996 930.911 68.9769L922.263 60.2044ZM924.337 55.3509C924.351 53.4161 923.743 51.8984 922.333 50.4681L931.105 41.8205C934.783 45.5509 936.692 50.2004 936.655 55.4392L924.337 55.3509ZM922.333 50.4681C920.923 49.0378 919.414 48.408 917.479 48.3941L917.568 36.0763C922.807 36.1139 927.428 38.0902 931.105 41.8205L922.333 50.4681ZM917.479 48.3941C915.545 48.3803 914.027 48.9883 912.597 50.3983L903.949 41.6258C907.679 37.9486 912.329 36.0387 917.568 36.0763L917.479 48.3941ZM912.597 50.3983C911.166 51.8083 910.537 53.317 910.523 55.2518L898.205 55.1635C898.242 49.9247 900.219 45.3031 903.949 41.6258L912.597 50.3983ZM931.59 99.8032L924.598 70.0645L936.589 67.2449L943.581 96.9836L931.59 99.8032ZM934.917 73.0409L912.274 95.3612L903.627 86.5887L926.269 64.2685L934.917 73.0409ZM909.446 85.0002L939.081 92.4187L936.09 104.368L906.455 96.9497L909.446 85.0002Z" fill="#9FC0FF" mask="url(#path-29-inside-15_223_2710)"/>
</g>
<g opacity="0.25">
<mask id="path-31-inside-16_223_2710" fill="white">
<path d="M663.291 520.987L657.082 524.672L664.641 537.408L670.85 533.723C671.487 533.345 671.903 532.775 672.097 532.014C672.291 531.253 672.199 530.554 671.821 529.918L667.096 521.957C666.718 521.321 666.149 520.905 665.388 520.711C664.627 520.517 663.928 520.609 663.291 520.987ZM623.408 561.882L660.98 539.582L653.42 526.845L615.849 549.146L613.26 559.293L623.408 561.882Z"/>
</mask>
<path d="M657.082 524.672L652.412 527.444L649.641 522.774L654.31 520.002L657.082 524.672ZM664.641 537.408L667.413 542.078L662.743 544.849L659.972 540.18L664.641 537.408ZM623.408 561.882L626.18 566.551L624.246 567.7L622.066 567.144L623.408 561.882ZM660.98 539.582L665.649 536.81L668.421 541.48L663.751 544.251L660.98 539.582ZM653.42 526.845L650.649 522.176L655.318 519.404L658.09 524.074L653.42 526.845ZM615.849 549.146L610.587 547.804L611.143 545.624L613.077 544.476L615.849 549.146ZM613.26 559.293L611.918 564.555L606.656 563.213L607.999 557.951L613.26 559.293ZM666.063 525.656L659.854 529.342L654.31 520.002L660.519 516.317L666.063 525.656ZM661.752 521.9L669.311 534.637L659.972 540.18L652.412 527.444L661.752 521.9ZM661.87 532.739L668.079 529.053L673.622 538.393L667.413 542.078L661.87 532.739ZM668.079 529.053C667.797 529.22 667.5 529.473 667.253 529.812C667.009 530.146 666.889 530.46 666.835 530.672L677.359 533.356C676.832 535.419 675.578 537.232 673.622 538.393L668.079 529.053ZM666.835 530.672C666.781 530.885 666.736 531.218 666.79 531.627C666.844 532.044 666.984 532.408 667.151 532.689L676.491 527.146C677.652 529.102 677.885 531.294 677.359 533.356L666.835 530.672ZM667.151 532.689L662.427 524.729L671.766 519.186L676.491 527.146L667.151 532.689ZM662.427 524.729C662.594 525.011 662.846 525.308 663.185 525.555C663.519 525.799 663.833 525.919 664.046 525.973L666.73 515.449C668.793 515.975 670.605 517.23 671.766 519.186L662.427 524.729ZM664.046 525.973C664.258 526.027 664.591 526.072 665.001 526.018C665.417 525.964 665.781 525.824 666.063 525.656L660.519 516.317C662.476 515.156 664.667 514.923 666.73 515.449L664.046 525.973ZM620.636 557.212L658.208 534.912L663.751 544.251L626.18 566.551L620.636 557.212ZM656.31 542.353L648.751 529.617L658.09 524.074L665.649 536.81L656.31 542.353ZM656.192 531.515L618.62 553.815L613.077 544.476L650.649 522.176L656.192 531.515ZM621.11 550.488L618.522 560.636L607.999 557.951L610.587 547.804L621.11 550.488ZM614.602 554.032L624.75 556.62L622.066 567.144L611.918 564.555L614.602 554.032Z" fill="#9FC0FF" mask="url(#path-31-inside-16_223_2710)"/>
</g>
<g opacity="0.25">
<mask id="path-33-inside-17_223_2710" fill="white">
<path d="M1173.94 506.216L1167.46 510.062L1175.35 523.355L1181.83 519.509C1182.49 519.114 1182.93 518.52 1183.13 517.726C1183.33 516.931 1183.24 516.202 1182.84 515.537L1177.91 507.229C1177.52 506.564 1176.92 506.131 1176.13 505.928C1175.33 505.726 1174.6 505.822 1173.94 506.216ZM1132.31 548.898L1171.53 525.623L1163.64 512.331L1124.42 535.606L1121.72 546.197L1132.31 548.898Z"/>
</mask>
<path d="M1167.46 510.062L1162.59 512.955L1159.69 508.081L1164.57 505.189L1167.46 510.062ZM1175.35 523.355L1178.24 528.229L1173.37 531.122L1170.48 526.248L1175.35 523.355ZM1132.31 548.898L1135.21 553.772L1133.19 554.97L1130.91 554.39L1132.31 548.898ZM1171.53 525.623L1176.4 522.731L1179.29 527.604L1174.42 530.497L1171.53 525.623ZM1163.64 512.331L1160.74 507.457L1165.62 504.564L1168.51 509.438L1163.64 512.331ZM1124.42 535.606L1118.93 534.205L1119.51 531.93L1121.53 530.732L1124.42 535.606ZM1121.72 546.197L1120.32 551.689L1114.83 550.288L1116.23 544.796L1121.72 546.197ZM1176.83 511.09L1170.35 514.936L1164.57 505.189L1171.05 501.342L1176.83 511.09ZM1172.33 507.17L1180.22 520.462L1170.48 526.248L1162.59 512.955L1172.33 507.17ZM1172.46 518.481L1178.94 514.635L1184.72 524.383L1178.24 528.229L1172.46 518.481ZM1178.94 514.635C1178.64 514.809 1178.33 515.073 1178.07 515.427C1177.82 515.775 1177.7 516.103 1177.64 516.325L1188.62 519.126C1188.07 521.279 1186.76 523.171 1184.72 524.383L1178.94 514.635ZM1177.64 516.325C1177.58 516.547 1177.53 516.894 1177.59 517.322C1177.65 517.756 1177.79 518.136 1177.97 518.43L1187.72 512.644C1188.93 514.686 1189.17 516.974 1188.62 519.126L1177.64 516.325ZM1177.97 518.43L1173.04 510.122L1182.79 504.336L1187.72 512.644L1177.97 518.43ZM1173.04 510.122C1173.21 510.416 1173.48 510.726 1173.83 510.984C1174.18 511.238 1174.51 511.363 1174.73 511.42L1177.53 500.436C1179.68 500.986 1181.57 502.295 1182.79 504.336L1173.04 510.122ZM1174.73 511.42C1174.95 511.477 1175.3 511.524 1175.72 511.467C1176.16 511.41 1176.54 511.264 1176.83 511.09L1171.05 501.342C1173.09 500.13 1175.38 499.887 1177.53 500.436L1174.73 511.42ZM1129.42 544.025L1168.63 520.75L1174.42 530.497L1135.21 553.772L1129.42 544.025ZM1166.65 528.516L1158.76 515.223L1168.51 509.438L1176.4 522.731L1166.65 528.516ZM1166.53 517.204L1127.32 540.479L1121.53 530.732L1160.74 507.457L1166.53 517.204ZM1129.92 537.006L1127.21 547.598L1116.23 544.796L1118.93 534.205L1129.92 537.006ZM1123.12 540.705L1133.71 543.407L1130.91 554.39L1120.32 551.689L1123.12 540.705Z" fill="#9FC0FF" mask="url(#path-33-inside-17_223_2710)"/>
</g>
</g>
<defs>
<clipPath id="clip0_223_2710">
<rect width="1366" height="973" fill="white" transform="translate(0.5)"/>
</clipPath>
</defs>
</svg>
