<svg width="360" height="800" viewBox="0 0 360 800" fill="none" xmlns="http://www.w3.org/2000/svg">
<g clip-path="url(#clip0_242_3173)">
<g opacity="0.25">
<mask id="path-1-outside-1_242_3173" maskUnits="userSpaceOnUse" x="297.657" y="118.249" width="19" height="19" fill="black">
<rect fill="white" x="297.657" y="118.249" width="19" height="19"/>
<path d="M314.299 128.984H308.163V135.12H306.15V128.984H300.014V126.97H306.15V120.834H308.163V126.97H314.299V128.984Z"/>
</mask>
<path d="M314.299 128.984V130.722H316.038V128.984H314.299ZM308.163 128.984V127.245H306.425V128.984H308.163ZM308.163 135.12V136.858H309.902V135.12H308.163ZM306.15 135.12H304.412V136.858H306.15V135.12ZM306.15 128.984H307.888V127.245H306.15V128.984ZM300.014 128.984H298.276V130.722H300.014V128.984ZM300.014 126.97V125.232H298.276V126.97H300.014ZM306.15 126.97V128.709H307.888V126.97H306.15ZM306.15 120.834V119.096H304.412V120.834H306.15ZM308.163 120.834H309.902V119.096H308.163V120.834ZM308.163 126.97H306.425V128.709H308.163V126.97ZM314.299 126.97H316.038V125.232H314.299V126.97ZM314.299 127.245H308.163V130.722H314.299V127.245ZM306.425 128.984V135.12H309.902V128.984H306.425ZM308.163 133.381H306.15V136.858H308.163V133.381ZM307.888 135.12V128.984H304.412V135.12H307.888ZM306.15 127.245H300.014V130.722H306.15V127.245ZM301.752 128.984V126.97H298.276V128.984H301.752ZM300.014 128.709H306.15V125.232H300.014V128.709ZM307.888 126.97V120.834H304.412V126.97H307.888ZM306.15 122.573H308.163V119.096H306.15V122.573ZM306.425 120.834V126.97H309.902V120.834H306.425ZM308.163 128.709H314.299V125.232H308.163V128.709ZM312.561 126.97V128.984H316.038V126.97H312.561Z" fill="#9FC0FF" mask="url(#path-1-outside-1_242_3173)"/>
</g>
<g opacity="0.25">
<mask id="path-3-inside-2_242_3173" fill="white">
<path d="M354.218 172.271C356.124 174.139 358.384 175.073 361 175.073C363.616 175.073 365.858 174.139 367.726 172.271C369.632 170.365 370.585 168.105 370.585 165.489C370.585 162.873 369.632 160.631 367.726 158.763C365.858 156.857 363.616 155.904 361 155.904C358.384 155.904 356.124 156.857 354.218 158.763C352.35 160.631 351.415 162.873 351.415 165.489C351.415 168.105 352.35 170.365 354.218 172.271ZM352.536 157.081C354.891 154.727 357.712 153.55 361 153.55C364.288 153.55 367.091 154.727 369.407 157.081C371.762 159.398 372.939 162.201 372.939 165.489C372.939 168.777 371.762 171.598 369.407 173.952C367.091 176.269 364.288 177.427 361 177.427C357.712 177.427 354.891 176.269 352.536 173.952C350.22 171.598 349.061 168.777 349.061 165.489C349.061 162.201 350.22 159.398 352.536 157.081Z"/>
</mask>
<path d="M354.218 172.271L352.404 174.05L352.421 174.068L352.439 174.085L354.218 172.271ZM367.726 158.763L365.912 160.542L365.929 160.56L365.947 160.577L367.726 158.763ZM369.407 157.081L367.597 158.863L367.611 158.878L367.625 158.892L369.407 157.081ZM352.536 173.952L350.726 175.735L350.74 175.749L350.754 175.763L352.536 173.952ZM352.439 174.085C354.809 176.409 357.704 177.614 361 177.614V172.533C359.064 172.533 357.438 171.87 355.997 170.457L352.439 174.085ZM361 177.614C364.297 177.614 367.183 176.407 369.523 174.067L365.929 170.474C364.532 171.872 362.934 172.533 361 172.533V177.614ZM369.523 174.067C371.889 171.701 373.125 168.801 373.125 165.489H368.044C368.044 167.408 367.375 169.029 365.929 170.474L369.523 174.067ZM373.125 165.489C373.125 162.175 371.887 159.284 369.505 156.949L365.947 160.577C367.377 161.979 368.044 163.571 368.044 165.489H373.125ZM369.54 156.984C367.205 154.602 364.314 153.364 361 153.364V158.445C362.918 158.445 364.51 159.112 365.912 160.542L369.54 156.984ZM361 153.364C357.688 153.364 354.787 154.6 352.421 156.966L356.015 160.559C357.46 159.114 359.081 158.445 361 158.445V153.364ZM352.421 156.966C350.082 159.306 348.875 162.192 348.875 165.489H353.956C353.956 163.555 354.617 161.957 356.015 160.559L352.421 156.966ZM348.875 165.489C348.875 168.785 350.08 171.68 352.404 174.05L356.032 170.492C354.619 169.051 353.956 167.424 353.956 165.489H348.875ZM354.333 158.878C356.217 156.994 358.395 156.091 361 156.091V151.01C357.029 151.01 353.564 152.461 350.74 155.285L354.333 158.878ZM361 156.091C363.604 156.091 365.755 156.992 367.597 158.863L371.218 155.299C368.426 152.462 364.973 151.01 361 151.01V156.091ZM367.625 158.892C369.497 160.734 370.398 162.885 370.398 165.489H375.479C375.479 161.516 374.027 158.062 371.19 155.27L367.625 158.892ZM370.398 165.489C370.398 168.094 369.495 170.272 367.611 172.156L371.204 175.749C374.028 172.925 375.479 169.46 375.479 165.489H370.398ZM367.611 172.156C365.773 173.994 363.617 174.887 361 174.887V179.968C364.959 179.968 368.409 178.544 371.204 175.749L367.611 172.156ZM361 174.887C358.382 174.887 356.2 173.993 354.319 172.142L350.754 175.763C353.581 178.545 357.042 179.968 361 179.968V174.887ZM354.347 172.17C352.496 170.289 351.602 168.107 351.602 165.489H346.521C346.521 169.447 347.943 172.908 350.726 175.735L354.347 172.17ZM351.602 165.489C351.602 162.872 352.495 160.716 354.333 158.878L350.74 155.285C347.945 158.08 346.521 161.53 346.521 165.489H351.602Z" fill="#9FC0FF" mask="url(#path-3-inside-2_242_3173)"/>
</g>
<g opacity="0.25">
<mask id="path-5-inside-3_242_3173" fill="white">
<path d="M323.234 76.9174L326.475 79.8054L320.209 86.8358L316.968 83.9478L323.234 76.9174ZM324.965 61.7061L328.26 64.6431L313.673 81.0108L310.377 78.0738L324.965 61.7061ZM314.072 60.7694L317.587 63.9022L307.357 75.3815L303.841 72.2487L314.072 60.7694Z"/>
</mask>
<path d="M323.234 76.9174L325.453 74.4276L322.963 72.2088L320.744 74.6985L323.234 76.9174ZM326.475 79.8054L328.964 82.0243L331.183 79.5346L328.693 77.3157L326.475 79.8054ZM320.209 86.8358L317.99 89.3256L320.48 91.5445L322.699 89.0547L320.209 86.8358ZM316.968 83.9478L314.479 81.7289L312.26 84.2186L314.75 86.4375L316.968 83.9478ZM324.965 61.7061L327.183 59.2164L324.694 56.9975L322.475 59.4872L324.965 61.7061ZM328.26 64.6431L330.75 66.862L332.969 64.3722L330.479 62.1534L328.26 64.6431ZM313.673 81.0108L311.454 83.5005L313.944 85.7194L316.163 83.2297L313.673 81.0108ZM310.377 78.0738L307.888 75.8549L305.669 78.3446L308.159 80.5635L310.377 78.0738ZM314.072 60.7694L316.291 58.2796L313.801 56.0608L311.582 58.5505L314.072 60.7694ZM317.587 63.9022L320.077 66.1211L322.296 63.6313L319.806 61.4125L317.587 63.9022ZM307.357 75.3815L305.138 77.8713L307.627 80.0901L309.846 77.6004L307.357 75.3815ZM303.841 72.2487L301.352 70.0299L299.133 72.5196L301.622 74.7385L303.841 72.2487ZM321.015 79.4071L324.256 82.2952L328.693 77.3157L325.453 74.4276L321.015 79.4071ZM323.985 77.5865L317.719 84.617L322.699 89.0547L328.964 82.0243L323.985 77.5865ZM322.428 84.3461L319.187 81.4581L314.75 86.4375L317.99 89.3256L322.428 84.3461ZM319.458 86.1667L325.724 79.1363L320.744 74.6985L314.479 81.7289L319.458 86.1667ZM322.746 64.1958L326.041 67.1328L330.479 62.1534L327.183 59.2164L322.746 64.1958ZM325.77 62.4242L311.183 78.7919L316.163 83.2297L330.75 66.862L325.77 62.4242ZM315.892 78.5211L312.596 75.5841L308.159 80.5635L311.454 83.5005L315.892 78.5211ZM312.867 80.2927L327.454 63.925L322.475 59.4872L307.888 75.8549L312.867 80.2927ZM311.853 63.2591L315.368 66.3919L319.806 61.4125L316.291 58.2796L311.853 63.2591ZM315.097 61.6833L304.867 73.1627L309.846 77.6004L320.077 66.1211L315.097 61.6833ZM309.575 72.8918L306.06 69.759L301.622 74.7385L305.138 77.8713L309.575 72.8918ZM306.331 74.4676L316.562 62.9883L311.582 58.5505L301.352 70.0299L306.331 74.4676Z" fill="#9FC0FF" mask="url(#path-5-inside-3_242_3173)"/>
</g>
<g opacity="0.25">
<mask id="path-7-inside-4_242_3173" fill="white">
<path d="M272.34 22.5185C273.236 22.757 273.996 23.0007 274.62 23.2497C275.244 23.4986 275.804 23.8525 276.299 24.3111C276.78 24.7431 277.255 25.3868 277.725 26.2424C278.195 27.098 278.488 27.9808 278.605 28.8909C278.735 29.7596 278.692 30.6008 278.477 31.4144C278.29 32.2134 277.969 32.9288 277.516 33.5606C277.062 34.1924 276.515 34.6844 275.873 35.0368C275.178 35.4185 274.559 35.6539 274.017 35.7431C273.486 35.7909 273.008 35.7752 272.581 35.6961C272.141 35.5902 271.734 35.483 271.361 35.3745C271 35.2246 270.656 35.1355 270.327 35.1072C270.01 35.0375 269.678 35.0981 269.331 35.289C268.796 35.5826 268.184 35.8314 267.496 36.0354C266.834 36.2247 266.108 36.3278 265.317 36.3447C264.552 36.3468 263.784 36.2467 263.012 36.0444C262.252 35.8007 261.52 35.4194 260.818 34.9004C260.127 34.3401 259.525 33.592 259.011 32.6562C258.118 31.0935 257.602 29.5504 257.461 28.0269C257.347 26.4887 257.607 25.0931 258.241 23.84C258.876 22.587 259.915 21.5641 261.358 20.7713C262.374 20.2134 263.324 19.8833 264.207 19.781C265.091 19.6787 265.905 19.736 266.651 19.953C267.423 20.1553 268.143 20.421 268.811 20.7502C269.479 21.0794 270.099 21.4172 270.673 21.7637C271.272 22.0955 271.828 22.3471 272.34 22.5185ZM269.425 31.3743C269.987 31.066 270.408 30.6607 270.689 30.1584C270.982 29.6148 271.145 29.0556 271.177 28.481C271.222 27.865 271.09 27.2763 270.781 26.7148C270.473 26.1534 270.054 25.7395 269.525 25.4732C269.009 25.1655 268.449 25.0028 267.848 24.985C267.259 24.9258 266.683 25.0504 266.122 25.3587C265.561 25.667 265.133 26.093 264.84 26.6367C264.559 27.1389 264.397 27.6981 264.352 28.3141C264.32 28.8887 264.458 29.4567 264.766 30.0182C265.074 30.5796 265.487 31.0142 266.004 31.3219C266.533 31.5882 267.092 31.7509 267.681 31.8101C268.282 31.8279 268.864 31.6826 269.425 31.3743Z"/>
</mask>
<path d="M272.34 22.5185L271.935 23.7282L271.973 23.741L272.012 23.7514L272.34 22.5185ZM276.299 24.3111L275.433 25.2473L275.44 25.2538L275.447 25.2601L276.299 24.3111ZM278.605 28.8909L277.34 29.0535L277.342 29.066L277.344 29.0783L278.605 28.8909ZM278.477 31.4144L277.244 31.0894L277.239 31.1061L277.236 31.1228L278.477 31.4144ZM274.017 35.7431L274.131 37.0137L274.177 37.0095L274.224 37.002L274.017 35.7431ZM272.581 35.6961L272.284 36.9366L272.316 36.9443L272.349 36.9504L272.581 35.6961ZM271.361 35.3745L270.871 36.5526L270.937 36.5797L271.004 36.5994L271.361 35.3745ZM270.327 35.1072L270.053 36.3532L270.134 36.3711L270.217 36.3783L270.327 35.1072ZM267.496 36.0354L267.847 37.262L267.858 37.2586L267.496 36.0354ZM265.317 36.3447L265.32 37.6204L265.332 37.6204L265.344 37.6201L265.317 36.3447ZM263.012 36.0444L262.622 37.2593L262.655 37.2698L262.689 37.2786L263.012 36.0444ZM260.818 34.9004L260.014 35.891L260.036 35.9093L260.06 35.9266L260.818 34.9004ZM259.011 32.6562L260.129 32.0422L260.124 32.0327L260.119 32.0233L259.011 32.6562ZM257.461 28.0269L256.189 28.1211L256.189 28.1326L256.191 28.1441L257.461 28.0269ZM258.241 23.84L257.103 23.2639L258.241 23.84ZM266.651 19.953L266.294 21.1779L266.311 21.1827L266.327 21.1871L266.651 19.953ZM268.811 20.7502L269.375 19.6059L268.811 20.7502ZM270.673 21.7637L270.012 22.8554L270.033 22.8681L270.055 22.88L270.673 21.7637ZM270.689 30.1584L271.802 30.7813L271.807 30.7725L271.812 30.7637L270.689 30.1584ZM271.177 28.481L269.905 28.3891L269.904 28.3991L269.903 28.4091L271.177 28.481ZM269.525 25.4732L268.873 26.5695L268.912 26.5925L268.952 26.6127L269.525 25.4732ZM267.848 24.985L267.721 26.2544L267.765 26.2589L267.81 26.2602L267.848 24.985ZM264.84 26.6367L265.954 27.2595L265.959 27.2508L265.963 27.2419L264.84 26.6367ZM264.352 28.3141L263.08 28.2222L263.079 28.2322L263.078 28.2422L264.352 28.3141ZM266.004 31.3219L265.351 32.4182L265.39 32.4412L265.43 32.4614L266.004 31.3219ZM267.681 31.8101L267.554 33.0795L267.598 33.084L267.643 33.0853L267.681 31.8101ZM272.012 23.7514C272.876 23.9813 273.585 24.21 274.147 24.4345L275.093 22.0648C274.408 21.7913 273.596 21.5326 272.668 21.2856L272.012 23.7514ZM274.147 24.4345C274.625 24.6252 275.052 24.8944 275.433 25.2473L277.166 23.375C276.556 22.8105 275.863 22.3721 275.093 22.0648L274.147 24.4345ZM275.447 25.2601C275.781 25.5604 276.175 26.0692 276.607 26.8565L278.844 25.6283C278.336 24.7045 277.779 23.9258 277.152 23.3621L275.447 25.2601ZM276.607 26.8565C277.005 27.5811 277.245 28.3117 277.34 29.0535L279.871 28.7282C279.732 27.6499 279.385 26.6148 278.844 25.6283L276.607 26.8565ZM277.344 29.0783C277.448 29.7837 277.412 30.4502 277.244 31.0894L279.711 31.7394C279.971 30.7513 280.021 29.7355 279.867 28.7034L277.344 29.0783ZM277.236 31.1228C277.084 31.7682 276.83 32.3282 276.479 32.8167L278.552 34.3044C279.109 33.5294 279.496 32.6587 279.719 31.7061L277.236 31.1228ZM276.479 32.8167C276.13 33.3036 275.724 33.6635 275.259 33.9185L276.487 36.155C277.306 35.7053 277.995 35.0811 278.552 34.3044L276.479 32.8167ZM275.259 33.9185C274.64 34.2587 274.162 34.4264 273.81 34.4842L274.224 37.002C274.957 36.8815 275.717 36.5783 276.487 36.155L275.259 33.9185ZM273.902 34.4725C273.462 34.5121 273.104 34.4954 272.814 34.4417L272.349 36.9504C272.912 37.0549 273.51 37.0696 274.131 37.0137L273.902 34.4725ZM272.879 34.4556C272.455 34.3537 272.068 34.2516 271.717 34.1496L271.004 36.5994C271.4 36.7144 271.826 36.8267 272.284 36.9366L272.879 34.4556ZM271.851 34.1965C271.39 34.0052 270.917 33.8776 270.436 33.8362L270.217 36.3783C270.394 36.3935 270.61 36.4441 270.871 36.5526L271.851 34.1965ZM270.601 33.8613C269.919 33.7112 269.272 33.8657 268.716 34.1707L269.945 36.4072C270.019 36.3666 270.059 36.3573 270.069 36.3554C270.074 36.3545 270.073 36.3551 270.069 36.355C270.063 36.3549 270.058 36.3543 270.053 36.3532L270.601 33.8613ZM268.716 34.1707C268.274 34.4136 267.749 34.6297 267.133 34.8122L267.858 37.2586C268.619 37.0331 269.317 36.7516 269.945 36.4072L268.716 34.1707ZM267.145 34.8089C266.603 34.9639 265.987 35.0543 265.29 35.0692L265.344 37.6201C266.229 37.6013 267.066 37.4855 267.847 37.2619L267.145 34.8089ZM265.313 35.0689C264.664 35.0707 264.005 34.9859 263.335 34.8103L262.689 37.2786C263.563 37.5076 264.441 37.6229 265.32 37.6204L265.313 35.0689ZM263.401 34.8296C262.785 34.6321 262.177 34.3184 261.576 33.8743L260.06 35.9266C260.864 36.5203 261.718 36.9694 262.622 37.2593L263.401 34.8296ZM261.622 33.9098C261.082 33.4721 260.579 32.8616 260.129 32.0422L257.893 33.2703C258.471 34.3224 259.172 35.208 260.014 35.891L261.622 33.9098ZM260.119 32.0233C259.301 30.5912 258.852 29.2223 258.731 27.9096L256.191 28.1441C256.351 29.8784 256.936 31.5957 257.904 33.2891L260.119 32.0233ZM258.733 27.9327C258.635 26.6025 258.86 25.4421 259.38 24.4162L257.103 23.2639C256.354 24.7441 256.059 26.3749 256.189 28.1211L258.733 27.9327ZM259.38 24.4162C259.879 23.4301 260.714 22.5805 261.972 21.8895L260.744 19.653C259.115 20.5477 257.873 21.7439 257.103 23.2639L259.38 24.4162ZM261.972 21.8895C262.886 21.3881 263.676 21.1268 264.354 21.0483L264.061 18.5137C262.972 18.6398 261.863 19.0386 260.744 19.653L261.972 21.8895ZM264.354 21.0483C265.093 20.9627 265.734 21.0149 266.294 21.1779L267.007 18.7281C266.076 18.4572 265.089 18.3946 264.061 18.5137L264.354 21.0483ZM266.327 21.1871C267.023 21.3692 267.661 21.6059 268.247 21.8945L269.375 19.6059C268.625 19.2361 267.823 18.9414 266.974 18.7189L266.327 21.1871ZM268.247 21.8945C268.886 22.2093 269.474 22.5298 270.012 22.8554L271.333 20.672C270.725 20.3046 270.072 19.9494 269.375 19.6059L268.247 21.8945ZM270.055 22.88C270.705 23.2398 271.333 23.5267 271.935 23.7282L272.745 21.3088C272.323 21.1676 271.839 20.9512 271.29 20.6474L270.055 22.88ZM270.039 32.4926C270.786 32.0826 271.392 31.5152 271.802 30.7813L269.576 29.5356C269.424 29.8062 269.188 30.0494 268.811 30.2561L270.039 32.4926ZM271.812 30.7637C272.187 30.0677 272.407 29.3276 272.451 28.553L269.903 28.4091C269.882 28.7836 269.777 29.1618 269.566 29.5532L271.812 30.7637ZM272.45 28.573C272.513 27.7022 272.322 26.8693 271.9 26.1008L269.663 27.3289C269.858 27.6832 269.931 28.0278 269.905 28.3891L272.45 28.573ZM271.9 26.1008C271.478 25.3325 270.878 24.7256 270.099 24.3337L268.952 26.6127C269.231 26.7534 269.468 26.9743 269.663 27.3289L271.9 26.1008ZM270.178 24.377C269.475 23.9583 268.704 23.734 267.886 23.7098L267.81 26.2602C268.195 26.2716 268.542 26.3727 268.873 26.5695L270.178 24.377ZM267.976 23.7156C267.108 23.6285 266.276 23.8185 265.508 24.2404L266.736 26.4769C267.091 26.2822 267.409 26.2231 267.721 26.2544L267.976 23.7156ZM265.508 24.2404C264.739 24.6625 264.131 25.2629 263.717 26.0314L265.963 27.2419C266.135 26.9231 266.382 26.6715 266.736 26.4769L265.508 24.2404ZM263.727 26.0139C263.348 26.691 263.137 27.4336 263.08 28.2222L265.624 28.406C265.657 27.9626 265.771 27.5869 265.954 27.2595L263.727 26.0139ZM263.078 28.2422C263.031 29.0818 263.238 29.8856 263.648 30.6322L265.884 29.4041C265.677 29.0278 265.608 28.6955 265.626 28.386L263.078 28.2422ZM263.648 30.6322C264.058 31.3797 264.626 31.9865 265.351 32.4182L266.656 30.2257C266.347 30.0419 266.09 29.7796 265.884 29.4041L263.648 30.6322ZM265.43 32.4614C266.099 32.7979 266.809 33.0047 267.554 33.0795L267.809 30.5408C267.375 30.4972 266.967 30.3784 266.577 30.1824L265.43 32.4614ZM267.643 33.0853C268.487 33.1102 269.292 32.903 270.039 32.4926L268.811 30.2561C268.436 30.4623 268.078 30.5455 267.719 30.5349L267.643 33.0853Z" fill="#9FC0FF" mask="url(#path-7-inside-4_242_3173)"/>
</g>
<g opacity="0.25">
<mask id="path-9-inside-5_242_3173" fill="white">
<path d="M220.765 88.3016L217.614 82.5635L224.914 88.4021L223.597 89.1256C223.115 89.3901 222.589 89.4394 222.018 89.2733C221.447 89.1072 221.03 88.7833 220.765 88.3016ZM216.354 77.4471C216.617 77.5237 216.876 77.492 217.131 77.352C217.386 77.212 217.552 77.0102 217.629 76.7469C217.69 76.4552 217.651 76.1818 217.51 75.9268C217.37 75.6717 217.169 75.5059 216.905 75.4292C216.642 75.3526 216.383 75.3843 216.128 75.5243C215.873 75.6644 215.707 75.8661 215.63 76.1294C215.554 76.3928 215.585 76.652 215.725 76.907C215.865 77.1621 216.075 77.3421 216.354 77.4471ZM233.539 76.8064C233.717 76.9297 233.884 77.133 234.04 77.4164C234.226 77.7564 234.3 78.1587 234.26 78.6232C234.248 79.0722 234.118 79.4389 233.868 79.7234L228.712 86.1506C228.589 86.329 228.385 86.496 228.102 86.6516C227.762 86.8383 227.368 86.9258 226.919 86.9142C226.482 86.8587 226.108 86.714 225.795 86.4801L215.315 78.0731C215.136 77.9497 214.969 77.7464 214.814 77.463C214.627 77.123 214.547 76.7427 214.574 76.3221C214.63 75.8859 214.775 75.5114 215.008 75.1985L220.207 68.748C220.415 68.523 220.633 68.3482 220.859 68.2237C221.171 68.0526 221.545 67.9947 221.981 68.0503C222.402 68.0775 222.769 68.208 223.081 68.4419L233.539 76.8064ZM217.701 89.8737C217.139 89.9243 216.634 89.7774 216.186 89.433C215.739 89.0885 215.49 88.6351 215.44 88.0728L214.732 81.5461L219.214 89.7069L217.701 89.8737Z"/>
</mask>
<path d="M217.614 82.5635L218.987 80.847L215.688 83.6215L217.614 82.5635ZM224.914 88.4021L225.972 90.3288L228.86 88.7431L226.287 86.6855L224.914 88.4021ZM222.018 89.2733L221.404 91.3838L222.018 89.2733ZM216.354 77.4471L215.579 79.5042L215.658 79.534L215.74 79.5576L216.354 77.4471ZM217.629 76.7469L219.739 77.3611L219.763 77.2801L219.78 77.1974L217.629 76.7469ZM233.539 76.8064L232.166 78.5229L232.226 78.5707L232.289 78.6143L233.539 76.8064ZM234.26 78.6232L232.07 78.4348L232.064 78.5004L232.062 78.5663L234.26 78.6232ZM233.868 79.7234L232.215 78.2743L232.184 78.3105L232.154 78.348L233.868 79.7234ZM228.712 86.1506L226.998 84.7752L226.949 84.8362L226.904 84.9005L228.712 86.1506ZM226.919 86.9142L226.641 89.0947L226.751 89.1087L226.862 89.1115L226.919 86.9142ZM225.795 86.4801L224.42 88.1947L224.449 88.2181L224.479 88.2405L225.795 86.4801ZM215.315 78.0731L216.69 76.3585L216.629 76.3096L216.565 76.2651L215.315 78.0731ZM214.574 76.3221L212.394 76.0445L212.385 76.1122L212.381 76.1803L214.574 76.3221ZM215.008 75.1985L213.297 73.8193L213.272 73.8504L213.248 73.8823L215.008 75.1985ZM220.207 68.748L218.594 67.2548L218.543 67.3101L218.495 67.3687L220.207 68.748ZM221.981 68.0503L221.704 70.2307L221.771 70.2393L221.84 70.2437L221.981 68.0503ZM223.081 68.4419L224.454 66.7254L224.426 66.703L224.398 66.6815L223.081 68.4419ZM217.701 89.8737L217.898 92.0629L217.92 92.061L217.942 92.0585L217.701 89.8737ZM215.44 88.0728L217.629 87.8758L217.627 87.8559L217.625 87.836L215.44 88.0728ZM214.732 81.5461L216.659 80.4881L212.547 81.7829L214.732 81.5461ZM219.214 89.7069L219.455 91.8917L222.723 91.5313L221.14 88.6489L219.214 89.7069ZM222.692 87.2436L219.541 81.5055L215.688 83.6215L218.839 89.3596L222.692 87.2436ZM216.241 84.2801L223.541 90.1186L226.287 86.6855L218.987 80.847L216.241 84.2801ZM223.856 86.4754L222.539 87.1989L224.655 91.0523L225.972 90.3288L223.856 86.4754ZM222.539 87.1989C222.542 87.1972 222.554 87.1911 222.574 87.1849C222.594 87.1786 222.616 87.1743 222.636 87.1724C222.656 87.1705 222.669 87.1716 222.671 87.1718C222.672 87.1719 222.66 87.1708 222.632 87.1628L221.404 91.3838C222.484 91.6981 223.618 91.6217 224.655 91.0523L222.539 87.1989ZM222.632 87.1628C222.605 87.1548 222.594 87.1492 222.595 87.1498C222.597 87.1507 222.608 87.1565 222.624 87.1689C222.64 87.1816 222.656 87.1968 222.67 87.2129C222.683 87.2289 222.69 87.2405 222.692 87.2436L218.839 89.3596C219.408 90.3965 220.324 91.0694 221.404 91.3838L222.632 87.1628ZM215.74 79.5576C216.599 79.8078 217.458 79.6804 218.189 79.2787L216.073 75.4253C216.163 75.3761 216.301 75.3207 216.479 75.299C216.66 75.2769 216.829 75.296 216.968 75.3366L215.74 79.5576ZM218.189 79.2787C218.921 78.8769 219.489 78.2208 219.739 77.3611L215.518 76.1326C215.559 75.9932 215.634 75.8403 215.749 75.6997C215.863 75.5613 215.984 75.4745 216.073 75.4253L218.189 79.2787ZM219.78 77.1974C219.946 76.4059 219.836 75.5958 219.437 74.8688L215.584 76.9848C215.534 76.8937 215.49 76.7751 215.47 76.6372C215.45 76.5001 215.46 76.382 215.478 76.2963L219.78 77.1974ZM219.437 74.8688C219.035 74.1371 218.379 73.569 217.52 73.3187L216.291 77.5397C216.152 77.4991 215.999 77.4246 215.858 77.309C215.72 77.1951 215.633 77.0744 215.584 76.9848L219.437 74.8688ZM217.52 73.3187C216.66 73.0685 215.801 73.1959 215.07 73.5976L217.186 77.451C217.096 77.5002 216.958 77.5556 216.78 77.5773C216.6 77.5994 216.431 77.5803 216.291 77.5397L217.52 73.3187ZM215.07 73.5976C214.338 73.9994 213.77 74.6555 213.52 75.5152L217.741 76.7437C217.7 76.8831 217.626 77.036 217.51 77.1766C217.396 77.3151 217.275 77.4018 217.186 77.451L215.07 73.5976ZM213.52 75.5152C213.27 76.3749 213.397 77.2334 213.799 77.965L217.652 75.849C217.701 75.9387 217.757 76.0767 217.778 76.2546C217.8 76.4353 217.781 76.6043 217.741 76.7437L213.52 75.5152ZM213.799 77.965C214.198 78.6921 214.823 79.2193 215.579 79.5042L217.128 75.3899C217.21 75.4208 217.315 75.4759 217.42 75.5662C217.526 75.657 217.602 75.758 217.652 75.849L213.799 77.965ZM232.289 78.6143C232.178 78.5382 232.119 78.4701 232.099 78.4463C232.079 78.4224 232.086 78.426 232.113 78.4744L235.966 76.3584C235.72 75.9106 235.352 75.3876 234.789 74.9984L232.289 78.6143ZM232.113 78.4744C232.101 78.4518 232.091 78.4299 232.084 78.41C232.077 78.3902 232.074 78.3755 232.072 78.3676C232.069 78.3518 232.075 78.3705 232.07 78.4348L236.45 78.8117C236.519 78.0033 236.401 77.1499 235.966 76.3584L232.113 78.4744ZM232.062 78.5663C232.062 78.5937 232.059 78.5638 232.082 78.4979C232.107 78.4273 232.152 78.3469 232.215 78.2743L235.521 81.1725C236.17 80.4326 236.435 79.5422 236.457 78.6802L232.062 78.5663ZM232.154 78.348L226.998 84.7752L230.427 87.526L235.583 81.0989L232.154 78.348ZM226.904 84.9005C226.98 84.7904 227.048 84.7305 227.072 84.7109C227.096 84.6913 227.092 84.6983 227.044 84.7249L229.16 88.5782C229.608 88.3324 230.131 87.9635 230.52 87.4007L226.904 84.9005ZM227.044 84.7249C227.053 84.7199 227.061 84.7163 227.068 84.7138C227.074 84.7114 227.077 84.7109 227.075 84.7114C227.071 84.7123 227.04 84.7185 226.976 84.7169L226.862 89.1115C227.638 89.1316 228.428 88.9801 229.16 88.5782L227.044 84.7249ZM227.196 84.7337C227.138 84.7263 227.11 84.7163 227.103 84.7137C227.097 84.7116 227.103 84.7132 227.111 84.7196L224.479 88.2405C225.133 88.7292 225.876 88.9973 226.641 89.0947L227.196 84.7337ZM227.17 84.7655L216.69 76.3585L213.939 79.7877L224.42 88.1947L227.17 84.7655ZM216.565 76.2651C216.675 76.3413 216.735 76.4093 216.754 76.4331C216.774 76.457 216.767 76.4535 216.74 76.405L212.887 78.521C213.133 78.9688 213.502 79.4919 214.064 79.881L216.565 76.2651ZM216.74 76.405C216.745 76.4141 216.75 76.4252 216.755 76.4378C216.76 76.4504 216.763 76.462 216.765 76.4716C216.769 76.492 216.766 76.4922 216.768 76.4639L212.381 76.1803C212.329 76.9805 212.482 77.7829 212.887 78.521L216.74 76.405ZM216.755 76.5996C216.762 76.5412 216.772 76.513 216.775 76.5063C216.777 76.5008 216.775 76.5061 216.769 76.5147L213.248 73.8823C212.759 74.536 212.491 75.2799 212.394 76.0445L216.755 76.5996ZM216.72 76.5778L221.918 70.1273L218.495 67.3687L213.297 73.8193L216.72 76.5778ZM221.82 70.2413C221.897 70.1582 221.932 70.1423 221.917 70.1504L219.801 66.297C219.333 66.5541 218.934 66.8877 218.594 67.2548L221.82 70.2413ZM221.917 70.1504C221.835 70.1958 221.759 70.2165 221.71 70.2242C221.664 70.2313 221.657 70.2248 221.704 70.2307L222.259 65.8698C221.472 65.7697 220.608 65.854 219.801 66.297L221.917 70.1504ZM221.84 70.2437C221.863 70.2453 221.858 70.2477 221.835 70.2393C221.824 70.2354 221.811 70.2299 221.798 70.2229C221.785 70.2159 221.774 70.2087 221.765 70.2023L224.398 66.6815C223.716 66.1722 222.934 65.9092 222.123 65.8568L221.84 70.2437ZM221.708 70.1584L232.166 78.5229L234.912 75.0899L224.454 66.7254L221.708 70.1584ZM217.504 87.6845C217.488 87.686 217.483 87.6851 217.488 87.6855C217.493 87.6859 217.502 87.6874 217.515 87.691C217.527 87.6946 217.536 87.6987 217.541 87.701C217.545 87.7032 217.541 87.7014 217.528 87.6914L214.845 91.1745C215.731 91.8564 216.785 92.1631 217.898 92.0629L217.504 87.6845ZM217.528 87.6914C217.522 87.6871 217.557 87.714 217.591 87.7766C217.625 87.8392 217.629 87.8828 217.629 87.8758L213.25 88.2699C213.356 89.4427 213.912 90.456 214.845 91.1745L217.528 87.6914ZM217.625 87.836L216.918 81.3093L212.547 81.7829L213.254 88.3097L217.625 87.836ZM212.806 82.6041L217.287 90.7649L221.14 88.6489L216.659 80.4881L212.806 82.6041ZM218.973 87.5221L217.46 87.6889L217.942 92.0585L219.455 91.8917L218.973 87.5221Z" fill="#9FC0FF" mask="url(#path-9-inside-5_242_3173)"/>
</g>
</g>
<defs>
<clipPath id="clip0_242_3173">
<rect width="360" height="973" fill="white" transform="translate(0.5 0.254883)"/>
</clipPath>
</defs>
</svg>
